<?xml version="1.0" encoding="UTF-8" standalone="no"?>
<!-- Created with Inkscape (http://www.inkscape.org/) -->

<svg
   width="56.240002mm"
   height="128.5mm"
   viewBox="0 0 56.240001 128.5"
   version="1.1"
   id="svg5"
   inkscape:version="1.1.2 (0a00cf5339, 2022-02-04)"
   sodipodi:docname="brst.svg"
   xmlns:inkscape="http://www.inkscape.org/namespaces/inkscape"
   xmlns:sodipodi="http://sodipodi.sourceforge.net/DTD/sodipodi-0.dtd"
   xmlns:xlink="http://www.w3.org/1999/xlink"
   xmlns="http://www.w3.org/2000/svg"
   xmlns:svg="http://www.w3.org/2000/svg">
  <sodipodi:namedview
     id="namedview7"
     pagecolor="#ffffff"
     bordercolor="#666666"
     borderopacity="1.0"
     inkscape:pageshadow="2"
     inkscape:pageopacity="0.0"
     inkscape:pagecheckerboard="0"
     inkscape:document-units="mm"
     showgrid="false"
     inkscape:zoom="1.555"
     inkscape:cx="108.36013"
     inkscape:cy="206.75241"
     inkscape:window-width="1866"
     inkscape:window-height="1050"
     inkscape:window-x="1920"
     inkscape:window-y="0"
     inkscape:window-maximized="1"
     inkscape:current-layer="layer1" />
  <defs
     id="defs2">
    <marker
       style="overflow:visible"
       id="Arrow2Mend"
       refX="0"
       refY="0"
       orient="auto"
       inkscape:stockid="Arrow2Mend"
       inkscape:isstock="true">
      <path
         transform="scale(-0.6)"
         d="M 8.7185878,4.0337352 -2.2072895,0.01601326 8.7185884,-4.0017078 c -1.7454984,2.3720609 -1.7354408,5.6174519 -6e-7,8.035443 z"
         style="fill:context-stroke;fill-rule:evenodd;stroke:context-stroke;stroke-width:0.625;stroke-linejoin:round"
         id="path17753" />
    </marker>
    <marker
       style="overflow:visible"
       id="Arrow1Send"
       refX="0"
       refY="0"
       orient="auto"
       inkscape:stockid="Arrow1Send"
       inkscape:isstock="true">
      <path
         transform="matrix(-0.2,0,0,-0.2,-1.2,0)"
         style="fill:context-stroke;fill-rule:evenodd;stroke:context-stroke;stroke-width:1pt"
         d="M 0,0 5,-5 -12.5,0 5,5 Z"
         id="path17741" />
    </marker>
    <marker
       style="overflow:visible"
       id="Arrow2Lend"
       refX="0"
       refY="0"
       orient="auto"
       inkscape:stockid="Arrow2Lend"
       inkscape:isstock="true">
      <path
         transform="matrix(-1.1,0,0,-1.1,-1.1,0)"
         d="M 8.7185878,4.0337352 -2.2072895,0.01601326 8.7185884,-4.0017078 c -1.7454984,2.3720609 -1.7354408,5.6174519 -6e-7,8.035443 z"
         style="fill:context-stroke;fill-rule:evenodd;stroke:context-stroke;stroke-width:0.625;stroke-linejoin:round"
         id="path17747" />
    </marker>
    <linearGradient
       inkscape:collect="always"
       id="linearGradient1104">
      <stop
         style="stop-color:#25232d;stop-opacity:1"
         offset="0"
         id="stop1100" />
      <stop
         style="stop-color:#0aa0ab;stop-opacity:1"
         offset="1"
         id="stop1102" />
    </linearGradient>
    <linearGradient
       inkscape:collect="always"
       xlink:href="#linearGradient1104"
       id="linearGradient1106"
       x1="0"
       y1="3.8857806e-15"
       x2="66.400002"
       y2="128.5"
       gradientUnits="userSpaceOnUse"
       gradientTransform="scale(0.84698793,1)" />
  </defs>
  <g
     inkscape:label="Layer 1"
     inkscape:groupmode="layer"
     id="layer1">
    <rect
       style="display:inline;opacity:0.992;fill:url(#linearGradient1106);fill-opacity:1;stroke:none;stroke-width:0.557463;stroke-linecap:butt;stroke-linejoin:miter;stroke-miterlimit:4;stroke-dasharray:none;stroke-dashoffset:0;stroke-opacity:1"
       id="rect48062"
       width="56.240002"
       height="128.5"
       x="0"
       y="-1.110223e-16" />
    <rect
       style="opacity:0.992;fill:#100c11;fill-opacity:1;stroke:#e0ede6;stroke-width:0.262047;stroke-linecap:round;stroke-miterlimit:4;stroke-dasharray:none"
       id="rect6247"
       width="21.962954"
       height="93.521858"
       x="32.145607"
       y="6.798831" />
    <path
       style="fill:#100c11;fill-opacity:1;stroke:#64f6ed;stroke-width:0.375882;stroke-linecap:round;stroke-linejoin:round;stroke-miterlimit:4;stroke-dasharray:none;stroke-opacity:1;paint-order:stroke fill markers"
       d="m 27.570068,113.22558 c -1.841439,-0.10908 -3.447292,-0.7729 -4.743035,-1.96067 -0.49382,-0.45267 -1.099532,-1.2356 -1.455378,-1.8812 -0.308769,-0.56019 -0.536939,-1.15315 -0.681597,-1.7713 -0.07734,-0.33049 -0.142051,-0.73076 -0.121466,-0.75128 0.02547,-0.0254 0.943211,0.0311 1.355725,0.0942 1.917566,0.2931 3.820048,0.6577 5.391611,1.46032 0.32015,0.1635 0.35219,0.19101 0.50045,-0.001 0.23886,-0.3096 0.5912,-0.59361 0.97585,-0.7866 0.32127,-0.16118 0.97098,-0.37799 1.01145,-0.33751 -0.11201,0.25341 -0.18632,0.55794 -0.21997,0.81385 -0.031,0.23556 0.0331,0.87589 0.0774,0.96311 0.55022,0.23837 1.30989,0.14008 1.89582,-0.0443 2.28399,-1.12037 2.93802,-3.04152 2.99879,-5.13643 0.0164,-0.56644 0.01,-0.59178 -0.16471,-0.63584 -0.52304,-0.19561 -1.24848,-1.06464 -0.79036,-0.93093 1.15392,0.33679 1.19821,0.32773 1.94168,-0.28872 0.32677,-0.27094 -0.0207,0.76125 -0.33271,1.00321 -0.30663,0.23028 -0.30832,0.23445 -0.21085,0.52164 0.27429,0.92557 0.38503,1.79818 0.29515,2.78171 -0.25472,2.56524 -1.79091,4.91055 -3.94626,6.02477 -0.88905,0.4596 -1.79727,0.73854 -2.69779,0.82857 -0.26846,0.0268 -0.87977,0.0464 -1.07977,0.0346 z"
       id="path10930"
       sodipodi:nodetypes="csssssscscsccccsscccsscc" />
    <g
       aria-label="cv"
       transform="rotate(-75,-1.9562809,-6.6610512)"
       id="text20895"
       style="font-size:4.23333px;line-height:1.25;font-family:'Odin Rounded';-inkscape-font-specification:'Odin Rounded';fill:#64f6ed;stroke-width:0.264583">
      <path
         d="m -13.916557,38.112435 0.427881,0.152962 q -0.157096,0.217041 -0.227376,0.287321 -0.345199,0.345198 -0.833024,0.345198 -0.485758,0 -0.830956,-0.345198 -0.345198,-0.345198 -0.345198,-0.833023 0,-0.487825 0.345198,-0.833024 0.345198,-0.345198 0.830956,-0.345198 0.487825,0 0.833024,0.345198 0.07028,0.07028 0.227376,0.283187 l -0.427881,0.157096 q -0.08268,-0.101286 -0.111621,-0.130224 -0.214974,-0.214974 -0.520898,-0.214974 -0.303857,0 -0.520898,0.217041 -0.214974,0.214973 -0.214974,0.520898 0,0.303857 0.214974,0.520898 0.217041,0.214973 0.520898,0.214973 0.305924,0 0.522965,-0.214973 0.02687,-0.02894 0.109554,-0.128158 z"
         style="font-weight:bold;font-family:'Caviar Dreams';-inkscape-font-specification:'Caviar Dreams Bold'"
         id="path33619" />
      <path
         d="m -12.184364,38.842106 -1.014924,-2.127 h 0.483691 l 0.63872,1.380793 0.640787,-1.380793 h 0.483691 l -1.016991,2.127 z"
         style="font-weight:bold;font-family:'Caviar Dreams';-inkscape-font-specification:'Caviar Dreams Bold'"
         id="path33621" />
    </g>
    <g
       aria-label="gate"
       transform="rotate(-75,-1.7941572,-9.0475424)"
       id="text20895-0"
       style="font-size:4.23333px;line-height:1.25;font-family:'Odin Rounded';-inkscape-font-specification:'Odin Rounded';fill:#64f6ed;stroke-width:0.264583">
      <path
         d="m -13.82974,43.454042 q -0.03927,-0.19637 -0.198438,-0.355534 -0.214973,-0.217041 -0.520898,-0.217041 -0.305924,0 -0.522965,0.217041 -0.214973,0.217041 -0.214973,0.520898 0,0.305925 0.214973,0.522965 0.217041,0.214974 0.522965,0.214974 0.305925,0 0.520898,-0.214974 0.159164,-0.159163 0.198438,-0.351399 z m 0.0021,-0.692464 v -0.146761 h 0.429947 v 1.581298 q 0,0.620116 -0.33693,0.957047 -0.345198,0.303857 -0.833023,0.303857 -0.487825,0 -0.833023,-0.303857 -0.07028,-0.07028 -0.225309,-0.285254 l 0.425813,-0.152962 q 0.08268,0.09922 0.111621,0.128157 0.217041,0.214974 0.520898,0.214974 0.510563,0 0.706933,-0.669726 -0.200504,0.388606 -0.68833,0.388606 -0.487825,0 -0.833023,-0.334863 -0.343131,-0.334863 -0.343131,-0.822688 0,-0.487825 0.343131,-0.830956 0.345198,-0.345198 0.833023,-0.345198 0.411345,0 0.721403,0.318326 z"
         style="font-weight:bold;font-family:'Caviar Dreams';-inkscape-font-specification:'Caviar Dreams Bold'"
         id="path33610" />
      <path
         d="m -10.956533,43.77857 v -0.314193 q -0.03721,-0.200504 -0.198437,-0.363802 -0.217041,-0.214973 -0.520898,-0.214973 -0.305925,0 -0.522965,0.214973 -0.214974,0.214974 -0.214974,0.520898 0,0.303858 0.214974,0.520898 0.21704,0.214974 0.522965,0.214974 0.303857,0 0.520898,-0.214974 0.16123,-0.163297 0.198437,-0.363801 z m 0,-1.014925 v -0.148828 h 0.429947 v 2.129068 h -0.429947 v -0.266651 q -0.310058,0.320394 -0.719335,0.320394 -0.487826,0 -0.833024,-0.343131 -0.343131,-0.345199 -0.343131,-0.833024 0,-0.487825 0.343131,-0.830956 0.345198,-0.345198 0.833024,-0.345198 0.409277,0 0.719335,0.318326 z"
         style="font-weight:bold;font-family:'Caviar Dreams';-inkscape-font-specification:'Caviar Dreams Bold'"
         id="path33612" />
      <path
         d="m -9.6356847,42.614817 v -0.797883 h 0.4278805 v 0.797883 h 0.3824053 v 0.427881 h -0.3824053 v 1.699119 H -9.6356847 V 43.042698 H -10.01809 v -0.427881 z"
         style="font-weight:bold;font-family:'Caviar Dreams';-inkscape-font-specification:'Caviar Dreams Bold'"
         id="path33614" />
      <path
         d="m -7.6657806,44.260194 q 0.1074869,0.09508 0.3906735,0.09508 0.3059243,0 0.5229651,-0.214974 0.026872,-0.02894 0.1095539,-0.128157 l 0.4278805,0.152962 q -0.1570962,0.217041 -0.2273761,0.287321 -0.3451983,0.345198 -0.8330234,0.345198 -0.485758,0 -0.8309563,-0.345198 -0.3451983,-0.345199 -0.3451983,-0.833024 0,-0.487825 0.3451983,-0.833023 0.3451983,-0.345198 0.8309563,-0.345198 0.4175453,0 0.7317377,0.25218 0.051676,0.04341 0.1012857,0.09302 0.020671,0.02067 0.1178222,0.130224 l -0.2149738,0.217041 z m 0.7152013,-1.322916 q -0.072347,-0.05581 -0.3245278,-0.05581 -0.3038571,0 -0.520898,0.217041 -0.2149737,0.214974 -0.2149737,0.520898 0,0.250114 0.05581,0.324528 z"
         style="font-weight:bold;font-family:'Caviar Dreams';-inkscape-font-specification:'Caviar Dreams Bold'"
         id="path33616" />
    </g>
    <g
       aria-label="brst by cvly"
       id="text26906"
       style="font-size:8.46667px;line-height:1.25;font-family:'Odin Rounded';-inkscape-font-specification:'Odin Rounded';stroke-width:0.264583">
      <path
         d="m 5.4154456,119.08249 v 0.66559 q 0.078548,0.38861 0.3968752,0.70694 0.4340822,0.42994 1.0459314,0.42994 0.6118492,0 1.0417973,-0.42994 0.4340822,-0.42995 0.4340822,-1.0418 0,-0.60772 -0.4340822,-1.0418 -0.4299481,-0.43408 -1.0417973,-0.43408 -0.6118492,0 -1.0459314,0.43408 -0.318327,0.31833 -0.3968752,0.71107 z m 0,2.04639 v 0.52916 h -0.855762 v -6.61458 h 0.855762 v 2.6541 q 0.6201175,-0.64079 1.4428066,-0.64079 0.9756514,0 1.6619147,0.6904 0.6903974,0.6904 0.6903974,1.66605 0,0.97565 -0.6903974,1.66605 -0.6862633,0.69039 -1.6619147,0.69039 -0.8226891,0 -1.4428066,-0.64078 z"
         style="font-weight:bold;font-family:'Caviar Dreams';-inkscape-font-specification:'Caviar Dreams Bold';fill:#64f6ed"
         id="path33642" />
      <path
         d="m 11.203208,117.97868 q 0.479558,-0.64906 1.178223,-0.68213 v 0.88884 q -0.467155,0.0248 -0.744141,0.30179 -0.417545,0.41341 -0.434082,0.98392 v 2.18694 h -0.855762 v -4.254 h 0.855762 z"
         style="font-weight:bold;font-family:'Caviar Dreams';-inkscape-font-specification:'Caviar Dreams Bold';fill:#64f6ed"
         id="path33644" />
      <path
         d="m 14.039211,120.47569 q 0.03721,0.19017 0.115756,0.26871 0.152962,0.14883 0.363802,0.14883 0.21084,0 0.359668,-0.14883 0.152962,-0.14882 0.152962,-0.36793 0,-0.21084 -0.148828,-0.35967 -0.103353,-0.10335 -0.44235,-0.31833 -0.463021,-0.25218 -0.657325,-0.44648 -0.338997,-0.339 -0.338997,-0.81442 0,-0.47956 0.338997,-0.81856 0.338998,-0.34313 0.818555,-0.34313 0.479558,0 0.797885,0.32246 0.227376,0.22738 0.289388,0.5085 l -0.830958,0.23978 q -0.02894,-0.10336 -0.05788,-0.13643 -0.07441,-0.0744 -0.198438,-0.0744 -0.124023,0 -0.214974,0.091 -0.08682,0.0868 -0.08682,0.21084 0,0.12402 0.08682,0.21084 0.07855,0.0744 0.355534,0.25218 0.512631,0.28112 0.744141,0.51263 0.401009,0.40514 0.401009,0.96325 0,0.5705 -0.401009,0.97565 -0.396875,0.40101 -0.967383,0.40101 -0.566374,0 -0.967383,-0.40515 -0.276986,-0.27698 -0.363803,-0.69039 z"
         style="font-weight:bold;font-family:'Caviar Dreams';-inkscape-font-specification:'Caviar Dreams Bold';fill:#64f6ed"
         id="path33646" />
      <path
         d="m 17.520137,117.40404 v -1.59577 H 18.3759 v 1.59577 h 0.764811 v 0.85576 H 18.3759 v 3.39824 h -0.855763 v -3.39824 h -0.764811 v -0.85576 z"
         style="font-weight:bold;font-family:'Caviar Dreams';-inkscape-font-specification:'Caviar Dreams Bold';fill:#64f6ed"
         id="path33648" />
      <path
         d="m 23.063987,115.04346 h 0.37207 v 3.12539 q 0.103353,-0.14056 0.235645,-0.27285 0.665592,-0.6656 1.604037,-0.6656 0.942578,0 1.604037,0.6656 0.665593,0.66559 0.665593,1.60817 0,0.93844 -0.665593,1.60404 -0.661459,0.66559 -1.604037,0.66559 -0.938445,0 -1.604037,-0.66559 -0.132292,-0.1323 -0.235645,-0.27286 v 0.82269 h -0.37207 z m 0.37207,4.0721 v 0.77722 q 0.107487,0.52916 0.51263,0.93431 0.549838,0.54983 1.327052,0.54983 0.777214,0 1.327051,-0.5457 0.549837,-0.54984 0.549837,-1.32705 0,-0.77722 -0.549837,-1.32705 -0.549837,-0.54984 -1.327051,-0.54984 -0.777214,0 -1.327052,0.54984 -0.405143,0.40514 -0.51263,0.93844 z"
         style="font-family:'Caviar Dreams';-inkscape-font-specification:'Caviar Dreams';fill:#e0ede6"
         id="path33650" />
      <path
         d="m 30.058911,121.29424 -0.917774,1.9141 h -0.363802 l 1.095541,-2.29857 -1.583367,-3.31143 h 0.42168 l 1.347722,2.91042 1.347722,-2.91042 h 0.417546 l -1.765268,3.70003 z"
         style="font-family:'Caviar Dreams';-inkscape-font-specification:'Caviar Dreams';fill:#e0ede6"
         id="path33652" />
      <path
         d="m 39.050616,120.1987 0.855762,0.30592 q -0.314193,0.43409 -0.454753,0.57465 -0.690397,0.69039 -1.666048,0.69039 -0.971518,0 -1.661915,-0.69039 -0.690398,-0.6904 -0.690398,-1.66605 0,-0.97565 0.690398,-1.66605 0.690397,-0.6904 1.661915,-0.6904 0.975651,0 1.666048,0.6904 0.14056,0.14056 0.454753,0.56637 l -0.855762,0.3142 q -0.165365,-0.20258 -0.223242,-0.26045 -0.429948,-0.42995 -1.041797,-0.42995 -0.607716,0 -1.041798,0.43408 -0.429948,0.42995 -0.429948,1.0418 0,0.60771 0.429948,1.0418 0.434082,0.42994 1.041798,0.42994 0.611849,0 1.045931,-0.42994 0.05374,-0.0579 0.219108,-0.25632 z"
         style="font-weight:bold;font-family:'Caviar Dreams';-inkscape-font-specification:'Caviar Dreams Bold';fill:#64f6ed"
         id="path33654" />
      <path
         d="m 42.515005,121.65804 -2.029851,-4.254 h 0.967384 l 1.277442,2.76159 1.281576,-2.76159 h 0.967383 l -2.033985,4.254 z"
         style="font-weight:bold;font-family:'Caviar Dreams';-inkscape-font-specification:'Caviar Dreams Bold';fill:#64f6ed"
         id="path33656" />
      <path
         d="m 46.669793,115.03932 v 6.61872 h -0.859896 v -6.61872 z"
         style="font-weight:bold;font-family:'Caviar Dreams';-inkscape-font-specification:'Caviar Dreams Bold';fill:#64f6ed"
         id="path33658" />
      <path
         d="m 48.955957,123.08845 h -0.905372 l 1.132748,-2.37712 -1.583366,-3.30729 h 0.963249 l 1.079004,2.3275 1.079004,-2.3275 h 0.959115 z"
         style="font-weight:bold;font-family:'Caviar Dreams';-inkscape-font-specification:'Caviar Dreams Bold';fill:#64f6ed"
         id="path33660" />
    </g>
    <g
       aria-label="cv"
       id="text35027"
       style="font-size:4.23333px;line-height:1.25;font-family:'Odin Rounded';-inkscape-font-specification:'Odin Rounded';stroke-width:0.264583"
       transform="translate(-0.94360173,1.0070496)">
      <path
         d="m 7.8144961,11.406643 0.4278805,0.152962 q -0.1570962,0.217041 -0.2273761,0.287321 -0.3451983,0.345198 -0.8330234,0.345198 -0.485758,0 -0.8309563,-0.345198 -0.3451983,-0.345199 -0.3451983,-0.833024 0,-0.487825 0.3451983,-0.833023 0.3451983,-0.3451984 0.8309563,-0.3451984 0.4878251,0 0.8330234,0.3451984 0.07028,0.07028 0.2273761,0.283186 l -0.4278805,0.157097 q -0.082682,-0.101286 -0.111621,-0.130225 -0.2149738,-0.214974 -0.520898,-0.214974 -0.3038572,0 -0.520898,0.217041 -0.2149738,0.214974 -0.2149738,0.520898 0,0.303857 0.2149738,0.520898 0.2170408,0.214974 0.520898,0.214974 0.3059242,0 0.5229651,-0.214974 0.026872,-0.02894 0.1095539,-0.128157 z"
         style="font-weight:bold;font-family:'Caviar Dreams';-inkscape-font-specification:'Caviar Dreams Bold';fill:#64f6ed"
         id="path62619" />
      <path
         d="m 9.5466888,12.136313 -1.0149243,-2.127 h 0.483691 l 0.6387202,1.380793 0.6407873,-1.380793 h 0.483691 l -1.0169914,2.127 z"
         style="font-weight:bold;font-family:'Caviar Dreams';-inkscape-font-specification:'Caviar Dreams Bold';fill:#64f6ed"
         id="path62621" />
    </g>
    <g
       aria-label="mode"
       id="text35027-3"
       style="font-size:4.23333px;line-height:1.25;font-family:'Odin Rounded';-inkscape-font-specification:'Odin Rounded';stroke-width:0.264583"
       transform="translate(-0.94360168,1.0070496)">
      <path
         d="m 3.0602684,37.602172 h 0.4278805 v 0.198437 q 0.1240233,-0.312125 0.4774898,-0.312125 0.3513995,0 0.3948076,0.355533 0.1012857,-0.355533 0.558105,-0.355533 0.4506181,0 0.4506181,0.547769 v 1.692919 H 4.9392219 v -1.496548 q 0,-0.314193 -0.2542479,-0.314193 -0.1054198,0 -0.1819008,0.07441 -0.076481,0.07441 -0.076481,0.500228 v 1.236099 H 3.9987116 l 0.00207,-1.496548 q 0,-0.314193 -0.2563149,-0.314193 -0.1054199,0 -0.1819009,0.07441 -0.066146,0.06408 -0.074414,0.338997 v 1.39733 H 3.0602684 Z"
         style="font-weight:bold;font-family:'Caviar Dreams';-inkscape-font-specification:'Caviar Dreams Bold';fill:#64f6ed"
         id="path62624" />
      <path
         d="m 7.0434845,37.428539 q 0.4878251,0 0.8309564,0.345198 0.3451982,0.345198 0.3451982,0.833024 0,0.487825 -0.3451982,0.833023 -0.3431313,0.345198 -0.8309564,0.345198 -0.485758,0 -0.8309563,-0.345198 -0.3451983,-0.345198 -0.3451983,-0.833023 0,-0.487826 0.3451983,-0.833024 0.3451983,-0.345198 0.8309563,-0.345198 z m 0,0.440283 q -0.3059242,0 -0.522965,0.217041 -0.2149738,0.21704 -0.2149738,0.520898 0,0.305924 0.2149738,0.520898 0.2170408,0.214973 0.522965,0.214973 0.3059242,0 0.520898,-0.214973 0.2170409,-0.214974 0.2170409,-0.520898 0,-0.303858 -0.2170409,-0.520898 -0.2149738,-0.217041 -0.520898,-0.217041 z"
         style="font-weight:bold;font-family:'Caviar Dreams';-inkscape-font-specification:'Caviar Dreams Bold';fill:#64f6ed"
         id="path62626" />
      <path
         d="m 10.561613,38.765924 v -0.31626 q -0.03721,-0.200504 -0.200504,-0.363801 -0.214974,-0.217041 -0.5208982,-0.217041 -0.3059242,0 -0.5229651,0.217041 -0.2149738,0.21704 -0.2149738,0.520898 0,0.305924 0.2149738,0.520898 0.2170409,0.214973 0.5229651,0.214973 0.3059242,0 0.5208982,-0.214973 0.163297,-0.163298 0.200504,-0.361735 z m 0,-1.016991 v -1.32705 h 0.429948 v 3.307289 h -0.429948 v -0.264583 q -0.310058,0.320393 -0.7214022,0.320393 -0.4878251,0 -0.8330234,-0.345198 -0.3431312,-0.345198 -0.3431312,-0.833023 0,-0.487826 0.3431312,-0.833024 0.3451983,-0.345198 0.8330234,-0.345198 0.4113442,0 0.7214022,0.320394 z"
         style="font-weight:bold;font-family:'Caviar Dreams';-inkscape-font-specification:'Caviar Dreams Bold';fill:#64f6ed"
         id="path62628" />
      <path
         d="m 12.273135,39.247548 q 0.107487,0.09508 0.390673,0.09508 0.305925,0 0.522965,-0.214973 0.02687,-0.02894 0.109554,-0.128158 l 0.427881,0.152962 q -0.157096,0.217041 -0.227376,0.287321 -0.345198,0.345198 -0.833024,0.345198 -0.485758,0 -0.830956,-0.345198 -0.345198,-0.345198 -0.345198,-0.833023 0,-0.487826 0.345198,-0.833024 0.345198,-0.345198 0.830956,-0.345198 0.417546,0 0.731738,0.252181 0.05168,0.04341 0.101286,0.09302 0.02067,0.02067 0.117822,0.130225 l -0.214974,0.217041 z m 0.715201,-1.322916 q -0.07235,-0.05581 -0.324528,-0.05581 -0.303857,0 -0.520898,0.217041 -0.214973,0.214973 -0.214973,0.520898 0,0.250113 0.05581,0.324527 z"
         style="font-weight:bold;font-family:'Caviar Dreams';-inkscape-font-specification:'Caviar Dreams Bold';fill:#64f6ed"
         id="path62630" />
    </g>
    <g
       aria-label="gate"
       id="text35027-3-0"
       style="font-size:4.23333px;line-height:1.25;font-family:'Odin Rounded';-inkscape-font-specification:'Odin Rounded';stroke-width:0.264583"
       transform="translate(-0.94360138,1.0070496)">
      <path
         d="m 5.5324668,24.451406 q -0.039274,-0.19637 -0.1984374,-0.355534 -0.2149737,-0.21704 -0.520898,-0.21704 -0.3059242,0 -0.522965,0.21704 -0.2149738,0.217041 -0.2149738,0.520898 0,0.305925 0.2149738,0.522965 0.2170408,0.214974 0.522965,0.214974 0.3059243,0 0.520898,-0.214974 0.1591633,-0.159163 0.1984374,-0.351399 z m 0.00207,-0.692464 v -0.146761 h 0.4299476 v 1.581298 q 0,0.620117 -0.3369301,0.957047 -0.3451983,0.303857 -0.8330234,0.303857 -0.4878251,0 -0.8330234,-0.303857 -0.07028,-0.07028 -0.225309,-0.285254 L 4.1620089,25.71231 q 0.082682,0.09922 0.111621,0.128157 0.2170409,0.214974 0.520898,0.214974 0.5105628,0 0.706933,-0.669726 -0.2005044,0.388606 -0.6883295,0.388606 -0.4878251,0 -0.8330234,-0.334863 -0.3431312,-0.334863 -0.3431312,-0.822688 0,-0.487825 0.3431312,-0.830956 0.3451983,-0.345198 0.8330234,-0.345198 0.4113441,0 0.7214024,0.318326 z"
         style="font-weight:bold;font-family:'Caviar Dreams';-inkscape-font-specification:'Caviar Dreams Bold';fill:#64f6ed"
         id="path62633" />
      <path
         d="m 8.4056739,24.775934 v -0.314193 q -0.037207,-0.200504 -0.1984374,-0.363802 -0.2170408,-0.214973 -0.520898,-0.214973 -0.3059242,0 -0.522965,0.214973 -0.2149738,0.214974 -0.2149738,0.520898 0,0.303858 0.2149738,0.520898 0.2170408,0.214974 0.522965,0.214974 0.3038572,0 0.520898,-0.214974 0.1612304,-0.163297 0.1984374,-0.363801 z m 0,-1.014925 v -0.148828 h 0.4299475 v 2.129068 H 8.4056739 v -0.266651 q -0.3100584,0.320394 -0.7193354,0.320394 -0.4878251,0 -0.8330234,-0.343131 -0.3431312,-0.345198 -0.3431312,-0.833024 0,-0.487825 0.3431312,-0.830956 0.3451983,-0.345198 0.8330234,-0.345198 0.409277,0 0.7193354,0.318326 z"
         style="font-weight:bold;font-family:'Caviar Dreams';-inkscape-font-specification:'Caviar Dreams Bold';fill:#64f6ed"
         id="path62635" />
      <path
         d="m 9.7265223,23.612181 v -0.797883 h 0.4278807 v 0.797883 h 0.382405 v 0.427881 h -0.382405 v 1.69912 H 9.7265223 v -1.69912 H 9.344117 v -0.427881 z"
         style="font-weight:bold;font-family:'Caviar Dreams';-inkscape-font-specification:'Caviar Dreams Bold';fill:#64f6ed"
         id="path62637" />
      <path
         d="m 11.696426,25.257558 q 0.107487,0.09508 0.390674,0.09508 0.305924,0 0.522965,-0.214974 0.02687,-0.02894 0.109554,-0.128157 l 0.42788,0.152962 q -0.157096,0.217041 -0.227376,0.287321 -0.345198,0.345198 -0.833023,0.345198 -0.485758,0 -0.830956,-0.345198 -0.345199,-0.345199 -0.345199,-0.833024 0,-0.487825 0.345199,-0.833023 0.345198,-0.345198 0.830956,-0.345198 0.417545,0 0.731738,0.25218 0.05168,0.04341 0.101285,0.09302 0.02067,0.02067 0.117822,0.130224 l -0.214973,0.217041 z m 0.715202,-1.322916 q -0.07235,-0.05581 -0.324528,-0.05581 -0.303857,0 -0.520898,0.21704 -0.214974,0.214974 -0.214974,0.520898 0,0.250114 0.05581,0.324528 z"
         style="font-weight:bold;font-family:'Caviar Dreams';-inkscape-font-specification:'Caviar Dreams Bold';fill:#64f6ed"
         id="path62639" />
    </g>
    <g
       aria-label="time"
       id="text35027-3-2"
       style="font-size:4.23333px;line-height:1.25;font-family:'Odin Rounded';-inkscape-font-specification:'Odin Rounded';stroke-width:0.264583"
       transform="translate(-0.94360143,1.0070496)">
      <path
         d="m 4.8482712,71.495848 v -0.797883 h 0.4278805 v 0.797883 H 5.658557 v 0.427881 H 5.2761517 v 1.69912 H 4.8482712 v -1.69912 H 4.4658659 v -0.427881 z"
         style="font-weight:bold;font-family:'Caviar Dreams';-inkscape-font-specification:'Caviar Dreams Bold';fill:#64f6ed"
         id="path62642" />
      <path
         d="m 6.6197378,71.495848 v 2.127001 H 6.1918573 V 71.495848 Z M 6.4047641,70.621484 q 0.1240233,0 0.2129067,0.08682 0.088883,0.08682 0.088883,0.212907 0,0.12609 -0.088883,0.212907 -0.088883,0.08682 -0.2129067,0.08682 -0.1219563,0 -0.2108397,-0.08682 -0.088883,-0.08682 -0.088883,-0.212907 0,-0.12609 0.088883,-0.212907 0.088883,-0.08682 0.2108397,-0.08682 z"
         style="font-weight:bold;font-family:'Caviar Dreams';-inkscape-font-specification:'Caviar Dreams Bold';fill:#64f6ed"
         id="path62644" />
      <path
         d="m 7.2749946,71.495848 h 0.4278805 v 0.198438 q 0.1240233,-0.312126 0.4774898,-0.312126 0.3513995,0 0.3948076,0.355534 0.1012858,-0.355534 0.558105,-0.355534 0.4506181,0 0.4506181,0.54777 v 1.692919 H 9.1539481 V 72.1263 q 0,-0.314192 -0.2542478,-0.314192 -0.1054199,0 -0.1819009,0.07441 -0.076481,0.07441 -0.076481,0.500227 v 1.2361 H 8.2134378 l 0.00207,-1.496549 q 0,-0.314192 -0.2563149,-0.314192 -0.1054199,0 -0.1819009,0.07441 -0.066146,0.06408 -0.074414,0.338997 v 1.39733 H 7.2749946 Z"
         style="font-weight:bold;font-family:'Caviar Dreams';-inkscape-font-specification:'Caviar Dreams Bold';fill:#64f6ed"
         id="path62646" />
      <path
         d="m 10.867537,73.141225 q 0.107487,0.09508 0.390673,0.09508 0.305925,0 0.522966,-0.214974 0.02687,-0.02894 0.109553,-0.128157 l 0.427881,0.152962 q -0.157096,0.217041 -0.227376,0.287321 -0.345198,0.345198 -0.833024,0.345198 -0.485758,0 -0.830956,-0.345198 -0.345198,-0.345199 -0.345198,-0.833024 0,-0.487825 0.345198,-0.833023 0.345198,-0.345198 0.830956,-0.345198 0.417546,0 0.731738,0.25218 0.05168,0.04341 0.101286,0.09302 0.02067,0.02067 0.117822,0.130224 l -0.214974,0.217041 z m 0.715201,-1.322916 q -0.07235,-0.05581 -0.324528,-0.05581 -0.303857,0 -0.520898,0.21704 -0.214973,0.214974 -0.214973,0.520898 0,0.250114 0.05581,0.324528 z"
         style="font-weight:bold;font-family:'Caviar Dreams';-inkscape-font-specification:'Caviar Dreams Bold';fill:#64f6ed"
         id="path62648" />
    </g>
    <g
       aria-label="var"
       id="text35027-3-8"
       style="font-size:4.23333px;line-height:1.25;font-family:'Odin Rounded';-inkscape-font-specification:'Odin Rounded';stroke-width:0.264583"
       transform="translate(-1.1668422,1.0070496)">
      <path
         d="m 6.1505165,87.257904 -1.0149243,-2.127 h 0.483691 l 0.6387202,1.380793 0.6407872,-1.380793 h 0.483691 l -1.0169913,2.127 z"
         style="font-weight:bold;font-family:'Caviar Dreams';-inkscape-font-specification:'Caviar Dreams Bold';fill:#64f6ed"
         id="path62651" />
      <path
         d="m 9.5797616,86.294656 v -0.314192 q -0.037207,-0.200505 -0.1984373,-0.363802 -0.2170408,-0.214974 -0.520898,-0.214974 -0.3059242,0 -0.5229651,0.214974 -0.2149737,0.214974 -0.2149737,0.520898 0,0.303857 0.2149737,0.520898 0.2170409,0.214974 0.5229651,0.214974 0.3038572,0 0.520898,-0.214974 0.1612303,-0.163297 0.1984373,-0.363802 z m 0,-1.014924 v -0.148828 h 0.4299474 v 2.129067 H 9.5797616 v -0.26665 q -0.3100583,0.320394 -0.7193353,0.320394 -0.4878251,0 -0.8330234,-0.343132 -0.3431312,-0.345198 -0.3431312,-0.833023 0,-0.487825 0.3431312,-0.830956 0.3451983,-0.345199 0.8330234,-0.345199 0.409277,0 0.7193353,0.318327 z"
         style="font-weight:bold;font-family:'Caviar Dreams';-inkscape-font-specification:'Caviar Dreams Bold';fill:#64f6ed"
         id="path62653" />
      <path
         d="m 11.059773,85.418225 q 0.239779,-0.324528 0.589111,-0.341065 v 0.444417 q -0.233577,0.0124 -0.37207,0.150895 -0.208772,0.206706 -0.217041,0.49196 v 1.093472 h -0.42788 v -2.127 h 0.42788 z"
         style="font-weight:bold;font-family:'Caviar Dreams';-inkscape-font-specification:'Caviar Dreams Bold';fill:#64f6ed"
         id="path62655" />
    </g>
    <g
       aria-label="weight"
       transform="rotate(-75,0.73916704,-4.3556748)"
       id="text35027-3-9"
       style="font-size:4.23333px;line-height:1.25;font-family:'Odin Rounded';-inkscape-font-specification:'Odin Rounded';stroke-width:0.264583">
      <path
         d="m -15.315953,19.212981 v -1.496548 h 0.42788 v 1.461408 q 0,0.113689 0.07648,0.19017 0.07648,0.07441 0.181901,0.07441 0.254248,0 0.254248,-0.31626 v -1.409732 h 0.429947 v 1.490347 q -0.01033,0.272852 -0.200504,0.463021 -0.200504,0.202571 -0.483691,0.202571 -0.285254,0 -0.469222,-0.198437 -0.188102,0.198437 -0.471288,0.198437 -0.285254,0 -0.485758,-0.202571 -0.190169,-0.190169 -0.198438,-0.463021 v -1.490347 h 0.427881 v 1.409732 q 0,0.31626 0.256315,0.31626 0.10542,0 0.181901,-0.07441 0.06408,-0.06408 0.07235,-0.15503 z"
         style="font-weight:bold;font-family:'Caviar Dreams';-inkscape-font-specification:'Caviar Dreams Bold';fill:#64f6ed"
         id="path62658" />
      <path
         d="m -12.703195,19.361809 q 0.107487,0.09508 0.390673,0.09508 0.305924,0 0.522965,-0.214974 0.02687,-0.02894 0.109554,-0.128157 l 0.427881,0.152962 q -0.157097,0.217041 -0.227376,0.287321 -0.345199,0.345198 -0.833024,0.345198 -0.485758,0 -0.830956,-0.345198 -0.345198,-0.345199 -0.345198,-0.833024 0,-0.487825 0.345198,-0.833023 0.345198,-0.345198 0.830956,-0.345198 0.417545,0 0.731738,0.25218 0.05168,0.04341 0.101286,0.09302 0.02067,0.02067 0.117822,0.130224 l -0.214974,0.217041 z m 0.715201,-1.322915 q -0.07235,-0.05581 -0.324528,-0.05581 -0.303857,0 -0.520898,0.217041 -0.214974,0.214974 -0.214974,0.520898 0,0.250114 0.05581,0.324528 z"
         style="font-weight:bold;font-family:'Caviar Dreams';-inkscape-font-specification:'Caviar Dreams Bold';fill:#64f6ed"
         id="path62660" />
      <path
         d="m -10.293008,17.716433 v 2.127 h -0.427881 v -2.127 z m -0.214974,-0.874364 q 0.124023,0 0.212906,0.08682 0.08888,0.08682 0.08888,0.212907 0,0.12609 -0.08888,0.212906 -0.08888,0.08682 -0.212906,0.08682 -0.121957,0 -0.21084,-0.08682 -0.08888,-0.08682 -0.08888,-0.212906 0,-0.126091 0.08888,-0.212907 0.08888,-0.08682 0.21084,-0.08682 z"
         style="font-weight:bold;font-family:'Caviar Dreams';-inkscape-font-specification:'Caviar Dreams Bold';fill:#64f6ed"
         id="path62662" />
      <path
         d="m -7.7939383,18.555658 q -0.039274,-0.196371 -0.1984373,-0.355534 -0.2149738,-0.217041 -0.520898,-0.217041 -0.3059242,0 -0.5229651,0.217041 -0.2149738,0.217041 -0.2149738,0.520898 0,0.305924 0.2149738,0.522965 0.2170409,0.214974 0.5229651,0.214974 0.3059242,0 0.520898,-0.214974 0.1591633,-0.159163 0.1984373,-0.351399 z m 0.00207,-0.692464 v -0.146761 h 0.4299475 v 1.581298 q 0,0.620116 -0.33693,0.957046 -0.3451983,0.303858 -0.8330234,0.303858 -0.4878251,0 -0.8330234,-0.303858 -0.07028,-0.07028 -0.2253091,-0.285253 l 0.4258135,-0.152962 q 0.082682,0.09922 0.111621,0.128157 0.2170408,0.214974 0.520898,0.214974 0.5105627,0 0.706933,-0.669726 -0.2005044,0.388606 -0.6883295,0.388606 -0.4878251,0 -0.8330234,-0.334863 -0.3431312,-0.334863 -0.3431312,-0.822688 0,-0.487825 0.3431312,-0.830956 0.3451983,-0.345198 0.8330234,-0.345198 0.411344,0 0.7214024,0.318326 z"
         style="font-weight:bold;font-family:'Caviar Dreams';-inkscape-font-specification:'Caviar Dreams Bold';fill:#64f6ed"
         id="path62664" />
      <path
         d="m -6.7335389,16.536144 h 0.4299476 v 1.409732 q 0.1798338,-0.345198 0.520898,-0.345198 0.3410641,0 0.5436356,0.24598 0.2046385,0.243912 0.2108396,0.613915 v 1.38286 H -5.4560986 V 18.47711 q 0,-0.183968 -0.1054198,-0.314193 -0.1033528,-0.132291 -0.3286618,-0.132291 -0.2666502,0 -0.4134111,0.285253 v 1.527554 h -0.4299476 z"
         style="font-weight:bold;font-family:'Caviar Dreams';-inkscape-font-specification:'Caviar Dreams Bold';fill:#64f6ed"
         id="path62666" />
      <path
         d="M -4.1497194,17.716433 V 16.91855 h 0.4278805 v 0.797883 h 0.3824053 v 0.427881 h -0.3824053 v 1.699119 h -0.4278805 v -1.699119 h -0.3824053 v -0.427881 z"
         style="font-weight:bold;font-family:'Caviar Dreams';-inkscape-font-specification:'Caviar Dreams Bold';fill:#64f6ed"
         id="path62668" />
    </g>
    <g
       aria-label="sh"
       transform="rotate(-75,-0.27033921,-5.7573015)"
       id="text35027-3-02"
       style="font-size:4.23333px;line-height:1.25;font-family:'Odin Rounded';-inkscape-font-specification:'Odin Rounded';stroke-width:0.264583">
      <path
         d="m -15.828583,27.981799 q 0.0186,0.09509 0.05788,0.134359 0.07648,0.07441 0.181901,0.07441 0.10542,0 0.179834,-0.07441 0.07648,-0.07441 0.07648,-0.183968 0,-0.10542 -0.07441,-0.179834 -0.05168,-0.05168 -0.221175,-0.159163 -0.23151,-0.126091 -0.328662,-0.223242 -0.169498,-0.169499 -0.169498,-0.40721 0,-0.239779 0.169498,-0.409277 0.169499,-0.171566 0.409277,-0.171566 0.239779,0 0.398942,0.161231 0.113688,0.113688 0.144694,0.254247 l -0.415478,0.11989 q -0.01447,-0.05168 -0.02894,-0.06821 -0.03721,-0.03721 -0.09922,-0.03721 -0.06201,0 -0.107487,0.04547 -0.04341,0.04341 -0.04341,0.10542 0,0.06201 0.04341,0.10542 0.03927,0.03721 0.177767,0.12609 0.256315,0.14056 0.37207,0.256315 0.200504,0.202571 0.200504,0.481624 0,0.285254 -0.200504,0.487825 -0.198437,0.200504 -0.483691,0.200504 -0.283187,0 -0.483691,-0.202571 -0.138493,-0.138493 -0.181901,-0.345198 z"
         style="font-weight:bold;font-family:'Caviar Dreams';-inkscape-font-specification:'Caviar Dreams Bold';fill:#64f6ed"
         id="path62671" />
      <path
         d="m -14.37751,25.265688 h 0.429947 v 1.409732 q 0.179834,-0.345198 0.520898,-0.345198 0.341064,0 0.543636,0.245979 0.204638,0.243913 0.210839,0.613916 v 1.38286 h -0.42788 v -1.366324 q 0,-0.183968 -0.10542,-0.314192 -0.103353,-0.132292 -0.328662,-0.132292 -0.26665,0 -0.413411,0.285254 v 1.527554 h -0.429947 z"
         style="font-weight:bold;font-family:'Caviar Dreams';-inkscape-font-specification:'Caviar Dreams Bold';fill:#64f6ed"
         id="path62673" />
    </g>
    <g
       aria-label="single"
       id="text50288"
       style="font-size:2.82222px;line-height:1.25;font-family:'Odin Rounded';-inkscape-font-specification:'Odin Rounded';stroke-width:0.264583"
       transform="translate(0,1.5174997)">
      <path
         d="m 4.9700616,51.284535 q 0.012402,0.06339 0.038585,0.08957 0.050987,0.04961 0.1212673,0.04961 0.07028,0 0.1198892,-0.04961 0.050987,-0.04961 0.050987,-0.122646 0,-0.07028 -0.049609,-0.119889 -0.034451,-0.03445 -0.14745,-0.106109 -0.1543402,-0.08406 -0.2191079,-0.148828 -0.1129991,-0.112999 -0.1129991,-0.271473 0,-0.159853 0.1129991,-0.272852 0.112999,-0.114377 0.2728513,-0.114377 0.1598524,0 0.2659612,0.107487 0.075792,0.07579 0.096463,0.169499 l -0.2769855,0.07993 q -0.00965,-0.03445 -0.019293,-0.04548 -0.024805,-0.02481 -0.066146,-0.02481 -0.041341,0 -0.071658,0.03032 -0.028939,0.02894 -0.028939,0.07028 0,0.04134 0.028939,0.07028 0.026183,0.0248 0.1185112,0.08406 0.1708766,0.09371 0.2480467,0.170877 0.1336696,0.135047 0.1336696,0.321082 0,0.190169 -0.1336696,0.325217 -0.1322916,0.13367 -0.3224607,0.13367 -0.1887911,0 -0.3224607,-0.135048 -0.092329,-0.09233 -0.1212673,-0.230132 z"
         style="font-weight:bold;font-family:'Caviar Dreams';-inkscape-font-specification:'Caviar Dreams Bold';fill:#e0ede6"
         id="path62676" />
      <path
         d="m 6.2461239,50.260653 v 1.418001 H 5.9608702 V 50.260653 Z M 6.1028081,49.677744 q 0.082682,0 0.1419378,0.05788 0.059256,0.05788 0.059256,0.141938 0,0.08406 -0.059256,0.141938 -0.059256,0.05788 -0.1419378,0.05788 -0.081304,0 -0.1405598,-0.05788 -0.059256,-0.05788 -0.059256,-0.141938 0,-0.08406 0.059256,-0.141938 0.059256,-0.05788 0.1405598,-0.05788 z"
         style="font-weight:bold;font-family:'Caviar Dreams';-inkscape-font-specification:'Caviar Dreams Bold';fill:#e0ede6"
         id="path62678" />
      <path
         d="m 6.9695934,50.640992 v 1.037662 H 6.6829617 v -1.418001 h 0.2866317 v 0.165365 q 0.089572,-0.242535 0.3596677,-0.242535 0.2301322,0 0.3651799,0.163987 0.1364257,0.162608 0.1405598,0.409277 v 0.921907 H 7.5497471 v -0.910883 q 0,-0.122645 -0.089572,-0.209461 -0.089572,-0.08819 -0.2135958,-0.08819 -0.1226453,0 -0.2122177,0.08544 -0.049609,0.05099 -0.064768,0.08544 z"
         style="font-weight:bold;font-family:'Caviar Dreams';-inkscape-font-specification:'Caviar Dreams Bold';fill:#e0ede6"
         id="path62680" />
      <path
         d="M 9.4817552,50.820137 Q 9.4555725,50.689223 9.3494636,50.583114 9.2061478,50.43842 9.0021983,50.43842 q -0.2039495,0 -0.3486434,0.144694 -0.1433159,0.144694 -0.1433159,0.347266 0,0.203949 0.1433159,0.348643 0.1446939,0.143316 0.3486434,0.143316 0.2039495,0 0.3472653,-0.143316 0.1061089,-0.106109 0.1322916,-0.234266 z m 0.00138,-0.461643 v -0.09784 H 9.769765 v 1.054199 q 0,0.413411 -0.2246201,0.638031 -0.2301322,0.202572 -0.5553489,0.202572 -0.3252168,0 -0.555349,-0.202572 -0.046853,-0.04685 -0.1502061,-0.190169 L 8.5681166,51.66074 q 0.055122,0.06615 0.074414,0.08544 0.1446939,0.143315 0.3472654,0.143315 0.3403751,0 0.4712887,-0.446484 -0.1336696,0.259071 -0.4588864,0.259071 -0.3252168,0 -0.555349,-0.223242 -0.2287542,-0.223242 -0.2287542,-0.548458 0,-0.325217 0.2287542,-0.553971 0.2301322,-0.230133 0.555349,-0.230133 0.2742294,0 0.480935,0.212218 z"
         style="font-weight:bold;font-family:'Caviar Dreams';-inkscape-font-specification:'Caviar Dreams Bold';fill:#e0ede6"
         id="path62682" />
      <path
         d="m 10.47532,49.472416 v 2.206238 h -0.286632 v -2.206238 z"
         style="font-weight:bold;font-family:'Caviar Dreams';-inkscape-font-specification:'Caviar Dreams Bold';fill:#e0ede6"
         id="path62684" />
      <path
         d="m 11.329703,51.357571 q 0.07166,0.06339 0.260449,0.06339 0.203949,0 0.348643,-0.143316 0.01791,-0.01929 0.07304,-0.08544 l 0.285254,0.101974 q -0.104731,0.144694 -0.151584,0.191548 -0.230132,0.230132 -0.555349,0.230132 -0.323839,0 -0.553971,-0.230132 -0.230132,-0.230133 -0.230132,-0.555349 0,-0.325217 0.230132,-0.555349 0.230132,-0.230133 0.553971,-0.230133 0.278363,0 0.487825,0.168121 0.03445,0.02894 0.06752,0.06201 0.01378,0.01378 0.07855,0.08682 l -0.143316,0.144694 z m 0.476801,-0.881944 q -0.04823,-0.03721 -0.216352,-0.03721 -0.202572,0 -0.347265,0.144694 -0.143316,0.143316 -0.143316,0.347266 0,0.166742 0.03721,0.216351 z"
         style="font-weight:bold;font-family:'Caviar Dreams';-inkscape-font-specification:'Caviar Dreams Bold';fill:#e0ede6"
         id="path62686" />
    </g>
    <g
       aria-label="multi"
       id="text50288-7"
       style="font-size:2.82222px;line-height:1.25;font-family:'Odin Rounded';-inkscape-font-specification:'Odin Rounded';stroke-width:0.264583"
       transform="translate(0,1.5174997)">
      <path
         d="m 4.6861858,56.930312 h 0.2852537 v 0.132292 q 0.082682,-0.208084 0.3183266,-0.208084 0.2342663,0 0.2632051,0.237022 0.067524,-0.237022 0.37207,-0.237022 0.3004121,0 0.3004121,0.36518 v 1.128612 H 5.9388216 v -0.997699 q 0,-0.209461 -0.1694986,-0.209461 -0.07028,0 -0.1212672,0.04961 -0.050987,0.04961 -0.050987,0.333485 v 0.824066 H 5.3118147 l 0.00138,-0.997699 q 0,-0.209461 -0.1708766,-0.209461 -0.07028,0 -0.1212672,0.04961 -0.044097,0.04272 -0.049609,0.225998 v 0.931553 H 4.6861858 Z"
         style="font-weight:bold;font-family:'Caviar Dreams';-inkscape-font-specification:'Caviar Dreams Bold';fill:#e0ede6"
         id="path62689" />
      <path
         d="m 7.2135059,58.367605 q -0.2687172,0 -0.4327036,-0.163987 -0.1639864,-0.163986 -0.1681206,-0.410655 v -0.862651 h 0.2866318 v 0.851627 q 0,0.122645 0.089572,0.21084 0.089572,0.08819 0.223242,0.08819 0.1226453,0 0.2122177,-0.08682 0.09095,-0.08819 0.09095,-0.212218 v -0.851627 h 0.2852537 v 0.862651 Q 7.7964189,58.039624 7.6338064,58.20361 7.46982,58.367597 7.213505,58.367597 Z"
         style="font-weight:bold;font-family:'Caviar Dreams';-inkscape-font-specification:'Caviar Dreams Bold';fill:#e0ede6"
         id="path62691" />
      <path
         d="m 8.5005926,56.142075 v 2.206237 H 8.2139609 v -2.206237 z"
         style="font-weight:bold;font-family:'Caviar Dreams';-inkscape-font-specification:'Caviar Dreams Bold';fill:#e0ede6"
         id="path62693" />
      <path
         d="M 9.0862585,56.930312 V 56.39839 h 0.2852537 v 0.531922 h 0.2549369 v 0.285254 H 9.3715122 v 1.132746 H 9.0862585 V 57.215566 H 8.8313216 v -0.285254 z"
         style="font-weight:bold;font-family:'Caviar Dreams';-inkscape-font-specification:'Caviar Dreams Bold';fill:#e0ede6"
         id="path62695" />
      <path
         d="m 10.267236,56.930312 v 1.418 H 9.9819828 v -1.418 z m -0.143315,-0.58291 q 0.08268,0 0.141937,0.05788 0.05926,0.05788 0.05926,0.141938 0,0.08406 -0.05926,0.141938 -0.05926,0.05788 -0.141937,0.05788 -0.0813,0 -0.1405602,-0.05788 -0.059256,-0.05788 -0.059256,-0.141938 0,-0.08406 0.059256,-0.141938 0.059255,-0.05788 0.1405602,-0.05788 z"
         style="font-weight:bold;font-family:'Caviar Dreams';-inkscape-font-specification:'Caviar Dreams Bold';fill:#e0ede6"
         id="path62697" />
    </g>
    <g
       aria-label="seq"
       id="text50288-9"
       style="font-size:2.82222px;line-height:1.25;font-family:'Odin Rounded';-inkscape-font-specification:'Odin Rounded';stroke-width:0.264583"
       transform="translate(0,1.5174997)">
      <path
         d="m 4.9700616,64.667763 q 0.012402,0.06339 0.038585,0.08957 0.050987,0.04961 0.1212673,0.04961 0.07028,0 0.1198892,-0.04961 0.050987,-0.04961 0.050987,-0.122645 0,-0.07028 -0.049609,-0.11989 -0.034451,-0.03445 -0.14745,-0.106109 -0.1543402,-0.08406 -0.2191079,-0.148828 -0.1129991,-0.112999 -0.1129991,-0.271473 0,-0.159852 0.1129991,-0.272851 0.112999,-0.114377 0.2728513,-0.114377 0.1598524,0 0.2659612,0.107487 0.075792,0.07579 0.096463,0.169498 l -0.2769855,0.07993 q -0.00965,-0.03445 -0.019293,-0.04548 -0.024805,-0.02481 -0.066146,-0.02481 -0.041341,0 -0.071658,0.03032 -0.028939,0.02894 -0.028939,0.07028 0,0.04134 0.028939,0.07028 0.026183,0.02481 0.1185112,0.08406 0.1708766,0.09371 0.2480467,0.170877 0.1336696,0.135047 0.1336696,0.321083 0,0.190169 -0.1336696,0.325216 -0.1322916,0.13367 -0.3224607,0.13367 -0.1887911,0 -0.3224607,-0.135048 -0.092329,-0.09233 -0.1212673,-0.230132 z"
         style="font-weight:bold;font-family:'Caviar Dreams';-inkscape-font-specification:'Caviar Dreams Bold';fill:#e0ede6"
         id="path62700" />
      <path
         d="m 6.3784155,64.740799 q 0.071658,0.06339 0.260449,0.06339 0.2039495,0 0.3486434,-0.143316 0.017914,-0.01929 0.073036,-0.08544 l 0.2852537,0.101975 q -0.1047308,0.144694 -0.1515841,0.191547 -0.2301322,0.230132 -0.555349,0.230132 -0.3238387,0 -0.5539709,-0.230132 -0.2301322,-0.230132 -0.2301322,-0.555349 0,-0.325217 0.2301322,-0.555349 0.2301322,-0.230132 0.5539709,-0.230132 0.2783635,0 0.4878252,0.16812 0.034451,0.02894 0.067524,0.06201 0.01378,0.01378 0.078548,0.08682 l -0.1433158,0.144694 z m 0.4768009,-0.881943 q -0.048231,-0.03721 -0.2163519,-0.03721 -0.2025714,0 -0.3472653,0.144693 -0.1433159,0.143316 -0.1433159,0.347266 0,0.166742 0.037207,0.216352 z"
         style="font-weight:bold;font-family:'Caviar Dreams';-inkscape-font-specification:'Caviar Dreams Bold';fill:#e0ede6"
         id="path62702" />
      <path
         d="m 8.8726628,64.419717 v -0.21084 q -0.024805,-0.13367 -0.1336696,-0.242535 -0.1433159,-0.144693 -0.3472654,-0.144693 -0.2039495,0 -0.3486434,0.144693 -0.1433158,0.144694 -0.1433158,0.347266 0,0.203949 0.1433158,0.348643 0.1446939,0.143316 0.3486434,0.143316 0.2039495,0 0.3472654,-0.143316 0.1088649,-0.108865 0.1336696,-0.242534 z m 0,-0.677995 v -0.09784 h 0.2866317 v 1.894801 H 8.8726628 v -0.65319 q -0.2067056,0.213596 -0.480935,0.213596 -0.3252167,0 -0.5553489,-0.230132 -0.2287542,-0.230132 -0.2287542,-0.555349 0,-0.325217 0.2287542,-0.553971 0.2301322,-0.230132 0.5553489,-0.230132 0.2742294,0 0.480935,0.212217 z"
         style="font-weight:bold;font-family:'Caviar Dreams';-inkscape-font-specification:'Caviar Dreams Bold';fill:#e0ede6"
         id="path62704" />
    </g>
  </g>
</svg>
