<?xml version="1.0" encoding="UTF-8" standalone="no"?>
<svg
   width="15.24mm"
   height="128.5mm"
   viewBox="0 0 15.24 128.5"
   version="1.1"
   id="svg2424"
   sodipodi:docname="bss.svg"
   inkscape:version="1.1.2 (0a00cf5339, 2022-02-04)"
   xmlns:inkscape="http://www.inkscape.org/namespaces/inkscape"
   xmlns:sodipodi="http://sodipodi.sourceforge.net/DTD/sodipodi-0.dtd"
   xmlns:xlink="http://www.w3.org/1999/xlink"
   xmlns="http://www.w3.org/2000/svg"
   xmlns:svg="http://www.w3.org/2000/svg"
   xmlns:rdf="http://www.w3.org/1999/02/22-rdf-syntax-ns#"
   xmlns:cc="http://creativecommons.org/ns#"
   xmlns:dc="http://purl.org/dc/elements/1.1/">
  <defs
     id="defs2418">
    <linearGradient
       inkscape:collect="always"
       id="linearGradient4534">
      <stop
         style="stop-color:#100c11;stop-opacity:1"
         offset="0"
         id="stop4530" />
      <stop
         style="stop-color:#0aa0ab;stop-opacity:1"
         offset="1"
         id="stop4532" />
    </linearGradient>
    <linearGradient
       inkscape:collect="always"
       xlink:href="#linearGradient4534"
       id="linearGradient4536"
       x1="-4.4408921e-16"
       y1="0"
       x2="15.24"
       y2="128.5"
       gradientUnits="userSpaceOnUse" />
  </defs>
  <sodipodi:namedview
     id="base"
     pagecolor="#ffffff"
     bordercolor="#666666"
     borderopacity="1.0"
     inkscape:pageopacity="0.0"
     inkscape:pageshadow="2"
     inkscape:zoom="1.979899"
     inkscape:cx="9.343911"
     inkscape:cy="188.14091"
     inkscape:document-units="mm"
     inkscape:current-layer="layer1"
     inkscape:document-rotation="0"
     showgrid="false"
     inkscape:pagecheckerboard="true"
     inkscape:window-width="1866"
     inkscape:window-height="1050"
     inkscape:window-x="1920"
     inkscape:window-y="0"
     inkscape:window-maximized="1" />
  <metadata
     id="metadata2421">
    <rdf:RDF>
      <cc:Work
         rdf:about="">
        <dc:format>image/svg+xml</dc:format>
        <dc:type
           rdf:resource="http://purl.org/dc/dcmitype/StillImage" />
      </cc:Work>
    </rdf:RDF>
  </metadata>
  <g
     inkscape:label="Layer 1"
     inkscape:groupmode="layer"
     id="layer1"
     style="opacity:0.99199998">
    <rect
       style="display:inline;fill:url(#linearGradient4536);fill-opacity:1;stroke:none;stroke-width:0.290191;stroke-linecap:butt;stroke-linejoin:miter;stroke-miterlimit:4;stroke-dasharray:none;stroke-dashoffset:0;stroke-opacity:1"
       id="rect48062"
       width="15.24"
       height="128.5"
       x="-4.4408921e-16"
       y="0" />
    <rect
       style="fill:#100c11;fill-opacity:1;stroke:#e0ede6;stroke-width:0.264583;stroke-linecap:round;stroke-miterlimit:4;stroke-dasharray:none"
       id="rect6247"
       width="10.814"
       height="15.845904"
       x="2.2127728"
       y="91.201889" />
    <text
       xml:space="preserve"
       style="font-size:3.52777px;line-height:1.25;font-family:'Caviar Dreams';-inkscape-font-specification:'Caviar Dreams';stroke-width:0.264583"
       x="2.2678571"
       y="92.793159"
       id="text5020"><tspan
         sodipodi:role="line"
         id="tspan5018"
         x="2.2678571"
         y="92.793159"
         style="stroke-width:0.264583" /></text>
    <g
       aria-label="out"
       id="text5016-6"
       style="font-size:3.52777px;line-height:1.25;font-family:'Caviar Dreams';-inkscape-font-specification:'Caviar Dreams';opacity:0.992;fill:#64f6ed;fill-opacity:1;stroke-width:0.264583"
       transform="translate(0,4.2333335)">
      <path
         d="m 5.6366599,88.690197 q 0.4878251,0 0.8309564,0.345198 0.3451982,0.345198 0.3451982,0.833023 0,0.487825 -0.3451982,0.833024 -0.3431313,0.345198 -0.8309564,0.345198 -0.485758,0 -0.8309563,-0.345198 -0.3451983,-0.345199 -0.3451983,-0.833024 0,-0.487825 0.3451983,-0.833023 0.3451983,-0.345198 0.8309563,-0.345198 z m 0,0.440282 q -0.3059242,0 -0.522965,0.217041 -0.2149738,0.217041 -0.2149738,0.520898 0,0.305925 0.2149738,0.520898 0.2170408,0.214974 0.522965,0.214974 0.3059243,0 0.520898,-0.214974 0.2170409,-0.214973 0.2170409,-0.520898 0,-0.303857 -0.2170409,-0.520898 -0.2149737,-0.217041 -0.520898,-0.217041 z"
         style="font-style:normal;font-variant:normal;font-weight:bold;font-stretch:normal;font-size:4.23333px;font-family:'Caviar Dreams';-inkscape-font-specification:'Caviar Dreams Bold';fill:#64f6ed;fill-opacity:1;stroke-width:0.264583"
         id="path6130" />
      <path
         d="m 8.2101442,91.019768 q -0.4030758,0 -0.6490555,-0.245979 -0.2459796,-0.24598 -0.2521807,-0.615983 v -1.293977 h 0.4299475 v 1.277441 q 0,0.183968 0.1343586,0.316259 0.1343586,0.132292 0.334863,0.132292 0.183968,0 0.3183266,-0.130225 0.1364257,-0.132291 0.1364257,-0.318326 v -1.277441 h 0.4278805 v 1.293977 q -0.0062,0.370003 -0.2501138,0.615983 -0.2459796,0.245979 -0.6304519,0.245979 z"
         style="font-style:normal;font-variant:normal;font-weight:bold;font-stretch:normal;font-size:4.23333px;font-family:'Caviar Dreams';-inkscape-font-specification:'Caviar Dreams Bold';fill:#64f6ed;fill-opacity:1;stroke-width:0.264583"
         id="path6132" />
      <path
         d="m 9.9692086,88.863829 v -0.797883 h 0.4278804 v 0.797883 h 0.382405 v 0.427881 h -0.382405 v 1.699119 H 9.9692086 V 89.29171 H 9.5868033 v -0.427881 z"
         style="font-style:normal;font-variant:normal;font-weight:bold;font-stretch:normal;font-size:4.23333px;font-family:'Caviar Dreams';-inkscape-font-specification:'Caviar Dreams Bold';fill:#64f6ed;fill-opacity:1;stroke-width:0.264583"
         id="path6134" />
    </g>
    <g
       aria-label="harmonic"
       id="text6111"
       style="font-size:3.52777px;line-height:1.25;font-family:'Caviar Dreams';-inkscape-font-specification:'Caviar Dreams';fill:#e0ede6;fill-opacity:1;stroke-width:0.264583"
       transform="translate(1.0583333,-7.9374932)">
      <path
         d="m 3.651001,51.013176 h 0.2149743 v 0.704868 q 0.089917,-0.1726 0.2604496,-0.1726 0.1705325,0 0.2718184,0.12299 0.1023195,0.121957 0.1054201,0.306959 v 0.691431 H 4.2897227 v -0.683163 q 0,-0.09198 -0.05271,-0.157097 -0.051677,-0.06615 -0.1643313,-0.06615 -0.1333254,0 -0.206706,0.142628 V 52.66682 H 3.651001 Z"
         style="font-style:normal;font-variant:normal;font-weight:bold;font-stretch:normal;font-size:2.11667px;font-family:'Caviar Dreams';-inkscape-font-specification:'Caviar Dreams Bold';fill:#e0ede6;fill-opacity:1;stroke-width:0.264583"
         id="path6149" />
      <path
         d="M 5.7356314,52.185199 V 52.028103 Q 5.7170279,51.92785 5.6364125,51.846201 5.5278919,51.738714 5.3759629,51.738714 q -0.1529624,0 -0.2614831,0.107487 -0.1074872,0.107487 -0.1074872,0.26045 0,0.151929 0.1074872,0.26045 0.1085207,0.107487 0.2614831,0.107487 0.151929,0 0.2604496,-0.107487 0.080615,-0.08165 0.099219,-0.181902 z m 0,-0.507463 v -0.07441 h 0.2149743 v 1.064536 H 5.7356314 v -0.133326 q -0.1550295,0.160198 -0.3596685,0.160198 -0.2439131,0 -0.4165126,-0.171566 -0.1715661,-0.1726 -0.1715661,-0.416513 0,-0.243913 0.1715661,-0.415479 0.1725995,-0.1726 0.4165126,-0.1726 0.204639,0 0.3596685,0.159164 z"
         style="font-style:normal;font-variant:normal;font-weight:bold;font-stretch:normal;font-size:2.11667px;font-family:'Caviar Dreams';-inkscape-font-specification:'Caviar Dreams Bold';fill:#e0ede6;fill-opacity:1;stroke-width:0.264583"
         id="path6151" />
      <path
         d="M 6.475639,51.746982 Q 6.5955285,51.584718 6.7701951,51.57645 v 0.222209 q -0.1167889,0.0062 -0.1860354,0.07545 -0.1043866,0.103353 -0.1085207,0.24598 v 0.546737 H 6.2616982 V 51.603322 H 6.475639 Z"
         style="font-style:normal;font-variant:normal;font-weight:bold;font-stretch:normal;font-size:2.11667px;font-family:'Caviar Dreams';-inkscape-font-specification:'Caviar Dreams Bold';fill:#e0ede6;fill-opacity:1;stroke-width:0.264583"
         id="path6153" />
      <path
         d="m 7.0068736,51.603322 h 0.2139408 v 0.09922 q 0.062012,-0.156063 0.2387454,-0.156063 0.1757002,0 0.1974043,0.177767 0.050643,-0.177767 0.2790532,-0.177767 0.2253096,0 0.2253096,0.273885 v 0.846461 H 7.9463526 v -0.748276 q 0,-0.157096 -0.1271242,-0.157096 -0.05271,0 -0.090951,0.03721 -0.038241,0.03721 -0.038241,0.250114 v 0.618051 H 7.4760963 l 0.00103,-0.748276 q 0,-0.157096 -0.1281578,-0.157096 -0.05271,0 -0.090951,0.03721 -0.033073,0.03204 -0.037207,0.169499 v 0.698666 H 7.0068736 Z"
         style="font-style:normal;font-variant:normal;font-weight:bold;font-stretch:normal;font-size:2.11667px;font-family:'Caviar Dreams';-inkscape-font-specification:'Caviar Dreams Bold';fill:#e0ede6;fill-opacity:1;stroke-width:0.264583"
         id="path6155" />
      <path
         d="m 8.9984866,51.516505 q 0.2439132,0 0.4154792,0.1726 0.1725995,0.172599 0.1725995,0.416512 0,0.243914 -0.1725995,0.416513 -0.171566,0.1726 -0.4154792,0.1726 -0.2428796,0 -0.4154791,-0.1726 -0.1725996,-0.172599 -0.1725996,-0.416513 0,-0.243913 0.1725996,-0.416512 0.1725995,-0.1726 0.4154791,-0.1726 z m 0,0.220142 q -0.1529625,0 -0.2614831,0.108521 -0.1074872,0.10852 -0.1074872,0.260449 0,0.152963 0.1074872,0.26045 0.1085206,0.107487 0.2614831,0.107487 0.1529625,0 0.2604496,-0.107487 0.1085207,-0.107487 0.1085207,-0.26045 0,-0.151929 -0.1085207,-0.260449 -0.1074871,-0.108521 -0.2604496,-0.108521 z"
         style="font-style:normal;font-variant:normal;font-weight:bold;font-stretch:normal;font-size:2.11667px;font-family:'Caviar Dreams';-inkscape-font-specification:'Caviar Dreams Bold';fill:#e0ede6;fill-opacity:1;stroke-width:0.264583"
         id="path6157" />
      <path
         d="m 10.049587,51.888576 v 0.778248 H 9.8346124 v -1.063502 h 0.2149746 v 0.124023 q 0.06718,-0.181901 0.269751,-0.181901 0.1726,0 0.273886,0.12299 0.102319,0.121957 0.10542,0.306959 v 0.691431 h -0.213941 v -0.683163 q 0,-0.09198 -0.06718,-0.157097 -0.06718,-0.06615 -0.160197,-0.06615 -0.09198,0 -0.159163,0.06408 -0.03721,0.03824 -0.04858,0.06408 z"
         style="font-style:normal;font-variant:normal;font-weight:bold;font-stretch:normal;font-size:2.11667px;font-family:'Caviar Dreams';-inkscape-font-specification:'Caviar Dreams Bold';fill:#e0ede6;fill-opacity:1;stroke-width:0.264583"
         id="path6159" />
      <path
         d="m 11.243314,51.603322 v 1.063502 h -0.213941 v -1.063502 z m -0.107487,-0.437184 q 0.06201,0 0.106453,0.04341 0.04444,0.04341 0.04444,0.106453 0,0.06305 -0.04444,0.106454 -0.04444,0.04341 -0.106453,0.04341 -0.06098,0 -0.10542,-0.04341 -0.04444,-0.04341 -0.04444,-0.106454 0,-0.06305 0.04444,-0.106453 0.04444,-0.04341 0.10542,-0.04341 z"
         style="font-style:normal;font-variant:normal;font-weight:bold;font-stretch:normal;font-size:2.11667px;font-family:'Caviar Dreams';-inkscape-font-specification:'Caviar Dreams Bold';fill:#e0ede6;fill-opacity:1;stroke-width:0.264583"
         id="path6161" />
      <path
         d="m 12.41327,52.301988 0.213941,0.07648 q -0.07855,0.108521 -0.113689,0.143661 -0.172599,0.1726 -0.416512,0.1726 -0.24288,0 -0.415479,-0.1726 -0.1726,-0.172599 -0.1726,-0.416513 0,-0.243913 0.1726,-0.416512 0.172599,-0.1726 0.415479,-0.1726 0.243913,0 0.416512,0.1726 0.03514,0.03514 0.113689,0.141593 l -0.213941,0.07855 q -0.04134,-0.05064 -0.05581,-0.06511 -0.107487,-0.107487 -0.260449,-0.107487 -0.151929,0 -0.26045,0.108521 -0.107487,0.107487 -0.107487,0.260449 0,0.151929 0.107487,0.26045 0.108521,0.107487 0.26045,0.107487 0.152962,0 0.261483,-0.107487 0.01344,-0.01447 0.05478,-0.06408 z"
         style="font-style:normal;font-variant:normal;font-weight:bold;font-stretch:normal;font-size:2.11667px;font-family:'Caviar Dreams';-inkscape-font-specification:'Caviar Dreams Bold';fill:#e0ede6;fill-opacity:1;stroke-width:0.264583"
         id="path6163" />
    </g>
    <g
       aria-label="lowest"
       id="text6115"
       style="font-size:3.52777px;line-height:1.25;font-family:'Caviar Dreams';-inkscape-font-specification:'Caviar Dreams';fill:#e0ede6;stroke-width:0.264583"
       transform="translate(1.0583333,-7.9374932)">
      <path
         d="m 3.8659743,54.663769 v 1.654682 H 3.651 v -1.654682 z"
         style="font-style:normal;font-variant:normal;font-weight:bold;font-stretch:normal;font-size:2.11667px;font-family:'Caviar Dreams';-inkscape-font-specification:'Caviar Dreams Bold';fill:#e0ede6;fill-opacity:1;stroke-width:0.264583"
         id="path6166" />
      <path
         d="m 4.7021003,55.168132 q 0.2439131,0 0.4154791,0.172599 0.1725996,0.1726 0.1725996,0.416513 0,0.243913 -0.1725996,0.416513 -0.171566,0.172599 -0.4154791,0.172599 -0.2428796,0 -0.4154792,-0.172599 -0.1725995,-0.1726 -0.1725995,-0.416513 0,-0.243913 0.1725995,-0.416513 0.1725996,-0.172599 0.4154792,-0.172599 z m 0,0.220142 q -0.1529625,0 -0.2614832,0.10852 -0.1074871,0.108521 -0.1074871,0.26045 0,0.152962 0.1074871,0.26045 0.1085207,0.107487 0.2614832,0.107487 0.1529624,0 0.2604496,-0.107487 0.1085206,-0.107488 0.1085206,-0.26045 0,-0.151929 -0.1085206,-0.26045 -0.1074872,-0.10852 -0.2604496,-0.10852 z"
         style="font-style:normal;font-variant:normal;font-weight:bold;font-stretch:normal;font-size:2.11667px;font-family:'Caviar Dreams';-inkscape-font-specification:'Caviar Dreams Bold';fill:#e0ede6;fill-opacity:1;stroke-width:0.264583"
         id="path6168" />
      <path
         d="m 5.9867783,56.003224 v -0.748276 h 0.2139408 v 0.730706 q 0,0.05684 0.038241,0.09509 0.038241,0.03721 0.090951,0.03721 0.1271243,0 0.1271243,-0.15813 v -0.704868 h 0.2149742 v 0.745176 q -0.00517,0.136426 -0.1002524,0.23151 -0.1002524,0.101286 -0.2418461,0.101286 -0.1426271,0 -0.2346113,-0.09922 -0.094051,0.09922 -0.2356449,0.09922 -0.1426272,0 -0.2428796,-0.101286 -0.095085,-0.09508 -0.099219,-0.23151 V 55.254956 H 5.731497 v 0.704868 q 0,0.15813 0.1281578,0.15813 0.05271,0 0.090951,-0.03721 0.032039,-0.03204 0.036174,-0.07751 z"
         style="font-style:normal;font-variant:normal;font-weight:bold;font-stretch:normal;font-size:2.11667px;font-family:'Caviar Dreams';-inkscape-font-specification:'Caviar Dreams Bold';fill:#e0ede6;fill-opacity:1;stroke-width:0.264583"
         id="path6170" />
      <path
         d="m 7.2931606,56.077638 q 0.053744,0.04754 0.1953372,0.04754 0.1529625,0 0.2614832,-0.107487 0.013436,-0.01447 0.054777,-0.06408 l 0.2139407,0.07648 q -0.078548,0.108521 -0.1136883,0.143661 -0.1725995,0.172599 -0.4165127,0.172599 -0.2428796,0 -0.4154791,-0.172599 -0.1725996,-0.1726 -0.1725996,-0.416513 0,-0.243913 0.1725996,-0.416513 0.1725995,-0.172599 0.4154791,-0.172599 0.2087731,0 0.3658697,0.12609 0.025838,0.02171 0.050643,0.04651 0.010335,0.01034 0.058911,0.06511 l -0.1074871,0.10852 z m 0.3576015,-0.661459 q -0.036174,-0.0279 -0.1622643,-0.0279 -0.1519289,0 -0.2604496,0.10852 -0.1074871,0.107488 -0.1074871,0.26045 0,0.125057 0.027905,0.162264 z"
         style="font-style:normal;font-variant:normal;font-weight:bold;font-stretch:normal;font-size:2.11667px;font-family:'Caviar Dreams';-inkscape-font-specification:'Caviar Dreams Bold';fill:#e0ede6;fill-opacity:1;stroke-width:0.264583"
         id="path6172" />
      <path
         d="m 8.4527815,56.022861 q 0.0093,0.04754 0.028939,0.06718 0.038241,0.03721 0.090951,0.03721 0.05271,0 0.089917,-0.03721 0.038241,-0.03721 0.038241,-0.09198 0,-0.05271 -0.037207,-0.08992 -0.025838,-0.02584 -0.1105877,-0.07958 -0.1157554,-0.06305 -0.1643313,-0.111622 -0.08475,-0.08475 -0.08475,-0.203605 0,-0.11989 0.08475,-0.204639 0.084749,-0.08578 0.204639,-0.08578 0.1198895,0 0.1994713,0.08062 0.056844,0.05684 0.072347,0.127124 l -0.2077395,0.05994 q -0.00723,-0.02584 -0.01447,-0.03411 -0.018603,-0.0186 -0.049609,-0.0186 -0.031006,0 -0.053744,0.02274 -0.021704,0.0217 -0.021704,0.05271 0,0.03101 0.021704,0.05271 0.019637,0.0186 0.088884,0.06305 0.1281578,0.07028 0.1860355,0.128158 0.1002524,0.101286 0.1002524,0.240813 0,0.142627 -0.1002524,0.243913 -0.099219,0.100252 -0.2418461,0.100252 -0.1415937,0 -0.2418461,-0.101286 -0.069247,-0.06925 -0.090951,-0.172599 z"
         style="font-style:normal;font-variant:normal;font-weight:bold;font-stretch:normal;font-size:2.11667px;font-family:'Caviar Dreams';-inkscape-font-specification:'Caviar Dreams Bold';fill:#e0ede6;fill-opacity:1;stroke-width:0.264583"
         id="path6174" />
      <path
         d="m 9.3230141,55.254948 v -0.398942 h 0.2139408 v 0.398942 H 9.728158 v 0.213941 H 9.5369549 v 0.849562 H 9.3230141 V 55.468889 H 9.131811 v -0.213941 z"
         style="font-style:normal;font-variant:normal;font-weight:bold;font-stretch:normal;font-size:2.11667px;font-family:'Caviar Dreams';-inkscape-font-specification:'Caviar Dreams Bold';fill:#e0ede6;fill-opacity:1;stroke-width:0.264583"
         id="path6176" />
    </g>
    <path
       style="opacity:0.996;fill:#0aa0ab;stroke:#e0ede6;stroke-width:0.264583px;stroke-linecap:butt;stroke-linejoin:miter;stroke-opacity:1"
       d="M 1.6732523,59.848622 13.566746,59.714986"
       id="path8905" />
    <g
       aria-label="random"
       id="text6119"
       style="font-size:3.52777px;line-height:1.25;font-family:'Caviar Dreams';-inkscape-font-specification:'Caviar Dreams';fill:#e0ede6;stroke-width:0.264583"
       transform="translate(1.0583333,-7.9374932)">
      <path
         d="m 3.8649408,59.083877 q 0.1198895,-0.162264 0.2945561,-0.170532 v 0.222209 q -0.1167889,0.0062 -0.1860355,0.07545 -0.1043865,0.103353 -0.1085206,0.24598 v 0.546737 H 3.651 v -1.063502 h 0.2139408 z"
         style="font-style:normal;font-variant:normal;font-weight:bold;font-stretch:normal;font-size:2.11667px;font-family:'Caviar Dreams';-inkscape-font-specification:'Caviar Dreams Bold';fill:#e0ede6;fill-opacity:1;stroke-width:0.264583"
         id="path6179" />
      <path
         d="m 5.2891455,59.522094 v -0.157096 q -0.018604,-0.100253 -0.099219,-0.181902 -0.1085206,-0.107487 -0.2604496,-0.107487 -0.1529624,0 -0.2614831,0.107487 -0.1074872,0.107487 -0.1074872,0.26045 0,0.151929 0.1074872,0.26045 0.1085207,0.107487 0.2614831,0.107487 0.151929,0 0.2604496,-0.107487 0.080615,-0.08165 0.099219,-0.181902 z m 0,-0.507463 v -0.07441 h 0.2149742 v 1.064536 H 5.2891455 v -0.133326 q -0.1550296,0.160198 -0.3596686,0.160198 -0.2439131,0 -0.4165126,-0.171566 -0.1715661,-0.1726 -0.1715661,-0.416513 0,-0.243913 0.1715661,-0.415479 0.1725995,-0.1726 0.4165126,-0.1726 0.204639,0 0.3596686,0.159164 z"
         style="font-style:normal;font-variant:normal;font-weight:bold;font-stretch:normal;font-size:2.11667px;font-family:'Caviar Dreams';-inkscape-font-specification:'Caviar Dreams Bold';fill:#e0ede6;fill-opacity:1;stroke-width:0.264583"
         id="path6181" />
      <path
         d="m 6.0301865,59.225471 v 0.778248 H 5.8152122 v -1.063502 h 0.2149743 v 0.124023 q 0.067179,-0.181901 0.2697514,-0.181901 0.1725996,0 0.2738855,0.12299 0.1023195,0.121957 0.1054201,0.306959 v 0.691431 H 6.4653028 v -0.683163 q 0,-0.09198 -0.067179,-0.157097 -0.067179,-0.06615 -0.1601972,-0.06615 -0.091984,0 -0.1591636,0.06408 -0.037207,0.03824 -0.048576,0.06408 z"
         style="font-style:normal;font-variant:normal;font-weight:bold;font-stretch:normal;font-size:2.11667px;font-family:'Caviar Dreams';-inkscape-font-specification:'Caviar Dreams Bold';fill:#e0ede6;fill-opacity:1;stroke-width:0.264583"
         id="path6183" />
      <path
         d="m 7.9153458,59.522094 v -0.15813 Q 7.8967422,59.263712 7.8150933,59.182063 7.7076062,59.073542 7.5546437,59.073542 q -0.1529625,0 -0.2614831,0.108521 -0.1074872,0.10852 -0.1074872,0.260449 0,0.152963 0.1074872,0.26045 0.1085206,0.107487 0.2614831,0.107487 0.1529625,0 0.2604496,-0.107487 0.081649,-0.08165 0.1002525,-0.180868 z m 0,-0.508497 V 58.350071 H 8.13032 v 1.653648 H 7.9153458 v -0.132292 q -0.1550296,0.160198 -0.3607021,0.160198 -0.2439131,0 -0.4165127,-0.1726 -0.171566,-0.172599 -0.171566,-0.416513 0,-0.243913 0.171566,-0.416512 0.1725996,-0.1726 0.4165127,-0.1726 0.2056725,0 0.3607021,0.160197 z"
         style="font-style:normal;font-variant:normal;font-weight:bold;font-stretch:normal;font-size:2.11667px;font-family:'Caviar Dreams';-inkscape-font-specification:'Caviar Dreams Bold';fill:#e0ede6;fill-opacity:1;stroke-width:0.264583"
         id="path6185" />
      <path
         d="m 8.966446,58.8534 q 0.2439132,0 0.4154792,0.1726 0.1725995,0.172599 0.1725995,0.416512 0,0.243914 -0.1725995,0.416513 -0.171566,0.1726 -0.4154792,0.1726 -0.2428796,0 -0.4154791,-0.1726 -0.1725996,-0.172599 -0.1725996,-0.416513 0,-0.243913 0.1725996,-0.416512 0.1725995,-0.1726 0.4154791,-0.1726 z m 0,0.220142 q -0.1529624,0 -0.2614831,0.108521 -0.1074872,0.10852 -0.1074872,0.260449 0,0.152963 0.1074872,0.26045 0.1085207,0.107487 0.2614831,0.107487 0.1529625,0 0.2604496,-0.107487 0.1085207,-0.107487 0.1085207,-0.26045 0,-0.151929 -0.1085207,-0.260449 Q 9.1194085,59.073542 8.966446,59.073542 Z"
         style="font-style:normal;font-variant:normal;font-weight:bold;font-stretch:normal;font-size:2.11667px;font-family:'Caviar Dreams';-inkscape-font-specification:'Caviar Dreams Bold';fill:#e0ede6;fill-opacity:1;stroke-width:0.264583"
         id="path6187" />
      <path
         d="m 9.8025722,58.940217 h 0.2139408 v 0.09922 q 0.06201,-0.156063 0.238745,-0.156063 0.175701,0 0.197405,0.177767 0.05064,-0.177767 0.279053,-0.177767 0.22531,0 0.22531,0.273885 v 0.846461 h -0.214975 v -0.748276 q 0,-0.157096 -0.127124,-0.157096 -0.05271,0 -0.09095,0.03721 -0.03824,0.03721 -0.03824,0.250114 v 0.618051 h -0.213941 l 10e-4,-0.748276 q 0,-0.157096 -0.128157,-0.157096 -0.05271,0 -0.09095,0.03721 -0.03307,0.03204 -0.03721,0.169499 v 0.698666 H 9.8025722 Z"
         style="font-style:normal;font-variant:normal;font-weight:bold;font-stretch:normal;font-size:2.11667px;font-family:'Caviar Dreams';-inkscape-font-specification:'Caviar Dreams Bold';fill:#e0ede6;fill-opacity:1;stroke-width:0.264583"
         id="path6189" />
    </g>
    <rect
       style="opacity:0.992;fill:#25232d;fill-opacity:0.6;stroke:#e0ede6;stroke-width:0.264583;stroke-linecap:round;stroke-miterlimit:4;stroke-dasharray:none"
       id="rect6247-1"
       width="10.951"
       height="5.8593249"
       x="2.1446455"
       y="61.260872" />
    <g
       aria-label="oct"
       id="text5016-9-1"
       style="font-size:3.52777px;line-height:1.25;font-family:'Caviar Dreams';-inkscape-font-specification:'Caviar Dreams';opacity:0.992;fill:#64f6ed;fill-opacity:1;stroke-width:0.264583"
       transform="rotate(-90,7.2698146,73.263882)">
      <path
         d="m 5.5333074,66.882908 q 0.4878251,0 0.8309563,0.345198 0.3451983,0.345198 0.3451983,0.833023 0,0.487825 -0.3451983,0.833024 -0.3431312,0.345198 -0.8309563,0.345198 -0.4857581,0 -0.8309563,-0.345198 -0.3451983,-0.345199 -0.3451983,-0.833024 0,-0.487825 0.3451983,-0.833023 0.3451982,-0.345198 0.8309563,-0.345198 z m 0,0.440282 q -0.3059242,0 -0.5229651,0.217041 -0.2149737,0.217041 -0.2149737,0.520898 0,0.305924 0.2149737,0.520898 0.2170409,0.214974 0.5229651,0.214974 0.3059242,0 0.520898,-0.214974 0.2170408,-0.214974 0.2170408,-0.520898 0,-0.303857 -0.2170408,-0.520898 Q 5.8392316,67.32319 5.5333074,67.32319 Z"
         style="font-style:normal;font-variant:normal;font-weight:bold;font-stretch:normal;font-size:4.23333px;font-family:'Caviar Dreams';-inkscape-font-specification:'Caviar Dreams Bold';fill:#64f6ed;fill-opacity:1;stroke-width:0.264583"
         id="path6142" />
      <path
         d="m 8.8902057,68.45387 0.4278805,0.152962 q -0.1570962,0.217041 -0.2273761,0.287321 -0.3451983,0.345198 -0.8330234,0.345198 -0.4857581,0 -0.8309563,-0.345198 -0.3451983,-0.345199 -0.3451983,-0.833024 0,-0.487825 0.3451983,-0.833023 0.3451982,-0.345198 0.8309563,-0.345198 0.4878251,0 0.8330234,0.345198 0.07028,0.07028 0.2273761,0.283186 L 8.8902057,67.668389 Q 8.8075235,67.567103 8.7785847,67.538164 8.5636109,67.32319 8.2576867,67.32319 q -0.3038572,0 -0.520898,0.217041 -0.2149738,0.214974 -0.2149738,0.520898 0,0.303857 0.2149738,0.520898 0.2170408,0.214974 0.520898,0.214974 0.3059242,0 0.522965,-0.214974 0.026872,-0.02894 0.109554,-0.128157 z"
         style="font-style:normal;font-variant:normal;font-weight:bold;font-stretch:normal;font-size:4.23333px;font-family:'Caviar Dreams';-inkscape-font-specification:'Caviar Dreams Bold';fill:#64f6ed;fill-opacity:1;stroke-width:0.264583"
         id="path6144" />
      <path
         d="m 10.072562,67.05654 v -0.797883 h 0.42788 v 0.797883 h 0.382405 v 0.427881 h -0.382405 v 1.699119 h -0.42788 V 67.484421 H 9.6901563 V 67.05654 Z"
         style="font-style:normal;font-variant:normal;font-weight:bold;font-stretch:normal;font-size:4.23333px;font-family:'Caviar Dreams';-inkscape-font-specification:'Caviar Dreams Bold';fill:#64f6ed;fill-opacity:1;stroke-width:0.264583"
         id="path6146" />
    </g>
    <g
       aria-label="note"
       id="text8899"
       style="font-style:normal;font-variant:normal;font-weight:bold;font-stretch:normal;font-size:4.23333px;line-height:1.25;font-family:'Caviar Dreams';-inkscape-font-specification:'Caviar Dreams Bold';opacity:0.996;fill:#64f6ed;fill-opacity:1;stroke-width:0.264583"
       transform="rotate(-90,16.182064,75.591557)">
      <path
         d="m 3.6708902,61.042468 v 1.556493 H 3.2409427 v -2.127 h 0.4299475 v 0.248046 q 0.1343587,-0.363801 0.5395015,-0.363801 0.3451983,0 0.5477698,0.245979 0.2046385,0.243913 0.2108396,0.613916 v 1.38286 H 4.5411206 v -1.366324 q 0,-0.183968 -0.1343586,-0.314192 -0.1343586,-0.132292 -0.3203936,-0.132292 -0.1839679,0 -0.3183265,0.128158 -0.074414,0.07648 -0.097152,0.128157 z"
         style="font-style:normal;font-variant:normal;font-weight:bold;font-stretch:normal;font-size:4.23333px;font-family:'Caviar Dreams';-inkscape-font-specification:'Caviar Dreams Bold';fill:#64f6ed;fill-opacity:1;stroke-width:0.264583"
         id="path8943" />
      <path
         d="m 6.6474503,60.298328 q 0.4878251,0 0.8309563,0.345198 0.3451983,0.345199 0.3451983,0.833024 0,0.487825 -0.3451983,0.833023 -0.3431312,0.345198 -0.8309563,0.345198 -0.4857581,0 -0.8309563,-0.345198 -0.3451983,-0.345198 -0.3451983,-0.833023 0,-0.487825 0.3451983,-0.833024 0.3451982,-0.345198 0.8309563,-0.345198 z m 0,0.440283 q -0.3059242,0 -0.5229651,0.217041 -0.2149737,0.217041 -0.2149737,0.520898 0,0.305924 0.2149737,0.520898 0.2170409,0.214973 0.5229651,0.214973 0.3059242,0 0.520898,-0.214973 0.2170408,-0.214974 0.2170408,-0.520898 0,-0.303857 -0.2170408,-0.520898 -0.2149738,-0.217041 -0.520898,-0.217041 z"
         style="font-style:normal;font-variant:normal;font-weight:bold;font-stretch:normal;font-size:4.23333px;font-family:'Caviar Dreams';-inkscape-font-specification:'Caviar Dreams Bold';fill:#64f6ed;fill-opacity:1;stroke-width:0.264583"
         id="path8945" />
      <path
         d="m 8.57808,60.471961 v -0.797884 h 0.4278805 v 0.797884 h 0.3824053 v 0.42788 H 9.0059605 v 1.69912 H 8.57808 v -1.69912 H 8.1956747 v -0.42788 z"
         style="font-style:normal;font-variant:normal;font-weight:bold;font-stretch:normal;font-size:4.23333px;font-family:'Caviar Dreams';-inkscape-font-specification:'Caviar Dreams Bold';fill:#64f6ed;fill-opacity:1;stroke-width:0.264583"
         id="path8947" />
      <path
         d="m 10.547984,62.117337 q 0.107487,0.09508 0.390674,0.09508 0.305924,0 0.522965,-0.214973 0.02687,-0.02894 0.109554,-0.128158 l 0.42788,0.152962 q -0.157096,0.217041 -0.227376,0.287321 -0.345198,0.345198 -0.833023,0.345198 -0.485758,0 -0.830957,-0.345198 -0.345198,-0.345198 -0.345198,-0.833023 0,-0.487825 0.345198,-0.833024 0.345199,-0.345198 0.830957,-0.345198 0.417545,0 0.731737,0.252181 0.05168,0.04341 0.101286,0.09302 0.02067,0.02067 0.117822,0.130225 l -0.214974,0.217041 z m 0.715201,-1.322916 q -0.07235,-0.05581 -0.324527,-0.05581 -0.303858,0 -0.520898,0.217041 -0.214974,0.214973 -0.214974,0.520898 0,0.250113 0.05581,0.324527 z"
         style="font-style:normal;font-variant:normal;font-weight:bold;font-stretch:normal;font-size:4.23333px;font-family:'Caviar Dreams';-inkscape-font-specification:'Caviar Dreams Bold';fill:#64f6ed;fill-opacity:1;stroke-width:0.264583"
         id="path8949" />
    </g>
    <g
       aria-label="base"
       id="text8903"
       style="font-size:3.52777px;line-height:1.25;font-family:'Caviar Dreams';-inkscape-font-specification:'Caviar Dreams';opacity:0.996;fill:#64f6ed;stroke-width:0.264583"
       transform="translate(-6.6666668e-7,17.991792)">
      <path
         d="m 3.1851322,39.048437 v 0.332795 q 0.039274,0.194304 0.1984373,0.353467 0.2170409,0.214974 0.5229651,0.214974 0.3059242,0 0.520898,-0.214974 0.2170408,-0.214974 0.2170408,-0.520898 0,-0.303857 -0.2170408,-0.520898 -0.2149738,-0.217041 -0.520898,-0.217041 -0.3059242,0 -0.5229651,0.217041 -0.1591632,0.159163 -0.1984373,0.355534 z m 0,1.023192 v 0.264583 H 2.7572517 v -3.307289 h 0.4278805 v 1.32705 q 0.3100583,-0.320394 0.7214024,-0.320394 0.4878251,0 0.8309563,0.345199 0.3451983,0.345198 0.3451983,0.833023 0,0.487825 -0.3451983,0.833023 -0.3431312,0.345199 -0.8309563,0.345199 -0.4113441,0 -0.7214024,-0.320394 z"
         style="font-style:normal;font-variant:normal;font-weight:bold;font-stretch:normal;font-size:4.23333px;font-family:'Caviar Dreams';-inkscape-font-specification:'Caviar Dreams Bold';fill:#64f6ed;fill-opacity:1;stroke-width:0.264583"
         id="path8952" />
      <path
         d="M 7.494943,39.372964 V 39.058772 Q 7.457736,38.858267 7.2965057,38.69497 7.0794648,38.479996 6.7756077,38.479996 q -0.3059242,0 -0.5229651,0.214974 -0.2149737,0.214974 -0.2149737,0.520898 0,0.303857 0.2149737,0.520898 0.2170409,0.214974 0.5229651,0.214974 0.3038571,0 0.520898,-0.214974 0.1612303,-0.163297 0.1984373,-0.363802 z m 0,-1.014924 v -0.148828 h 0.4299476 v 2.129067 H 7.494943 v -0.26665 q -0.3100583,0.320394 -0.7193353,0.320394 -0.4878251,0 -0.8330234,-0.343132 -0.3431312,-0.345198 -0.3431312,-0.833023 0,-0.487825 0.3431312,-0.830956 0.3451983,-0.345199 0.8330234,-0.345199 0.409277,0 0.7193353,0.318327 z"
         style="font-style:normal;font-variant:normal;font-weight:bold;font-stretch:normal;font-size:4.23333px;font-family:'Caviar Dreams';-inkscape-font-specification:'Caviar Dreams Bold';fill:#64f6ed;fill-opacity:1;stroke-width:0.264583"
         id="path8954" />
      <path
         d="m 8.9191443,39.745034 q 0.018604,0.09509 0.057878,0.134359 0.076481,0.07441 0.1819008,0.07441 0.1054199,0 0.1798339,-0.07441 0.076481,-0.07441 0.076481,-0.183968 0,-0.10542 -0.074414,-0.179834 -0.051676,-0.05168 -0.2211749,-0.159163 -0.2315102,-0.126091 -0.3286618,-0.223242 -0.1694986,-0.169499 -0.1694986,-0.40721 0,-0.239779 0.1694986,-0.409277 0.1694985,-0.171566 0.409277,-0.171566 0.2397784,0 0.3989417,0.161231 0.113688,0.113688 0.1446939,0.254247 l -0.4154782,0.11989 q -0.014469,-0.05168 -0.028939,-0.06821 -0.037207,-0.03721 -0.099219,-0.03721 -0.062012,0 -0.1074869,0.04548 -0.043408,0.04341 -0.043408,0.10542 0,0.06201 0.043408,0.10542 0.039274,0.03721 0.1777667,0.12609 0.2563149,0.14056 0.37207,0.256315 0.2005044,0.202571 0.2005044,0.481624 0,0.285254 -0.2005044,0.487825 -0.1984373,0.200504 -0.483691,0.200504 -0.2831866,0 -0.483691,-0.202571 Q 8.536739,40.04269 8.4933309,39.835985 Z"
         style="font-style:normal;font-variant:normal;font-weight:bold;font-stretch:normal;font-size:4.23333px;font-family:'Caviar Dreams';-inkscape-font-specification:'Caviar Dreams Bold';fill:#64f6ed;fill-opacity:1;stroke-width:0.264583"
         id="path8956" />
      <path
         d="m 11.031675,39.854588 q 0.107487,0.09508 0.390674,0.09508 0.305924,0 0.522965,-0.214974 0.02687,-0.02894 0.109554,-0.128157 l 0.42788,0.152962 q -0.157096,0.21704 -0.227376,0.28732 -0.345198,0.345199 -0.833023,0.345199 -0.485758,0 -0.830957,-0.345199 -0.345198,-0.345198 -0.345198,-0.833023 0,-0.487825 0.345198,-0.833023 0.345199,-0.345199 0.830957,-0.345199 0.417545,0 0.731737,0.252181 0.05168,0.04341 0.101286,0.09302 0.02067,0.02067 0.117822,0.130224 L 12.15822,38.72804 Z m 0.715201,-1.322915 q -0.07235,-0.05581 -0.324527,-0.05581 -0.303858,0 -0.520898,0.217041 -0.214974,0.214974 -0.214974,0.520898 0,0.250114 0.05581,0.324528 z"
         style="font-style:normal;font-variant:normal;font-weight:bold;font-stretch:normal;font-size:4.23333px;font-family:'Caviar Dreams';-inkscape-font-specification:'Caviar Dreams Bold';fill:#64f6ed;fill-opacity:1;stroke-width:0.264583"
         id="path8958" />
    </g>
    <g
       aria-label="bss by cvly"
       id="text3734"
       style="font-size:3.52777px;line-height:1.25;font-family:'Caviar Dreams';-inkscape-font-specification:'Caviar Dreams';text-align:center;text-anchor:middle;opacity:0.992;fill:#78d8c8;fill-opacity:1;stroke-width:0.264583"
       transform="translate(-0.4281349,-0.0764)">
      <path
         d="m 1.8560154,120.09591 v 0.3328 q 0.039274,0.1943 0.1984373,0.35347 0.2170409,0.21497 0.5229651,0.21497 0.3059242,0 0.520898,-0.21497 0.2170408,-0.21498 0.2170408,-0.5209 0,-0.30386 -0.2170408,-0.5209 -0.2149738,-0.21704 -0.520898,-0.21704 -0.3059242,0 -0.5229651,0.21704 -0.1591632,0.15916 -0.1984373,0.35553 z m 0,1.0232 v 0.26458 H 1.4281349 v -3.30729 h 0.4278805 v 1.32705 q 0.3100583,-0.32039 0.7214024,-0.32039 0.4878251,0 0.8309563,0.3452 0.3451983,0.34519 0.3451983,0.83302 0,0.48782 -0.3451983,0.83302 -0.3431312,0.3452 -0.8309563,0.3452 -0.4113441,0 -0.7214024,-0.32039 z"
         style="font-style:normal;font-variant:normal;font-weight:bold;font-stretch:normal;font-size:4.23333px;font-family:'Caviar Dreams';-inkscape-font-specification:'Caviar Dreams Bold';text-align:center;writing-mode:lr-tb;text-anchor:middle;fill:#64f6ed;fill-opacity:1;stroke-width:0.264583"
         id="path6192" />
      <path
         d="m 4.6940827,120.79251 q 0.018604,0.0951 0.057878,0.13436 0.076481,0.0744 0.1819009,0.0744 0.1054198,0 0.1798338,-0.0744 0.076481,-0.0744 0.076481,-0.18397 0,-0.10542 -0.074414,-0.17983 -0.051676,-0.0517 -0.221175,-0.15916 -0.2315102,-0.12609 -0.3286618,-0.22325 -0.1694985,-0.1695 -0.1694985,-0.40721 0,-0.23977 0.1694985,-0.40927 0.1694986,-0.17157 0.409277,-0.17157 0.2397785,0 0.3989417,0.16123 0.1136881,0.11369 0.1446939,0.25425 l -0.4154781,0.11989 q -0.014469,-0.0517 -0.028939,-0.0682 -0.037207,-0.0372 -0.099219,-0.0372 -0.062012,0 -0.1074869,0.0455 -0.043408,0.0434 -0.043408,0.10542 0,0.062 0.043408,0.10542 0.039274,0.0372 0.1777668,0.12609 0.2563149,0.14056 0.37207,0.25632 0.2005044,0.20257 0.2005044,0.48162 0,0.28526 -0.2005044,0.48783 -0.1984373,0.2005 -0.483691,0.2005 -0.2831866,0 -0.483691,-0.20257 -0.1384927,-0.13849 -0.1819009,-0.3452 z"
         style="font-style:normal;font-variant:normal;font-weight:bold;font-stretch:normal;font-size:4.23333px;font-family:'Caviar Dreams';-inkscape-font-specification:'Caviar Dreams Bold';text-align:center;writing-mode:lr-tb;text-anchor:middle;fill:#64f6ed;fill-opacity:1;stroke-width:0.264583"
         id="path6194" />
      <path
         d="m 6.5172259,120.79251 q 0.018604,0.0951 0.057878,0.13436 0.076481,0.0744 0.1819008,0.0744 0.1054199,0 0.1798339,-0.0744 0.076481,-0.0744 0.076481,-0.18397 0,-0.10542 -0.074414,-0.17983 -0.051676,-0.0517 -0.2211749,-0.15916 -0.2315102,-0.12609 -0.3286618,-0.22325 -0.1694986,-0.1695 -0.1694986,-0.40721 0,-0.23977 0.1694986,-0.40927 0.1694985,-0.17157 0.409277,-0.17157 0.2397784,0 0.3989417,0.16123 0.113688,0.11369 0.1446939,0.25425 l -0.4154782,0.11989 q -0.014469,-0.0517 -0.028939,-0.0682 -0.037207,-0.0372 -0.099219,-0.0372 -0.062012,0 -0.1074869,0.0455 -0.043408,0.0434 -0.043408,0.10542 0,0.062 0.043408,0.10542 0.039274,0.0372 0.1777667,0.12609 0.2563149,0.14056 0.37207,0.25632 0.2005044,0.20257 0.2005044,0.48162 0,0.28526 -0.2005044,0.48783 -0.1984373,0.2005 -0.483691,0.2005 -0.2831866,0 -0.483691,-0.20257 -0.1384927,-0.13849 -0.1819008,-0.3452 z"
         style="font-style:normal;font-variant:normal;font-weight:bold;font-stretch:normal;font-size:4.23333px;font-family:'Caviar Dreams';-inkscape-font-specification:'Caviar Dreams Bold';text-align:center;writing-mode:lr-tb;text-anchor:middle;fill:#64f6ed;fill-opacity:1;stroke-width:0.264583"
         id="path6196" />
      <path
         d="m 9.4317741,118.0764 h 0.186035 v 1.56269 q 0.051676,-0.0703 0.1178222,-0.13642 0.3327957,-0.3328 0.8020177,-0.3328 0.471289,0 0.802017,0.3328 0.332796,0.3328 0.332796,0.80408 0,0.46923 -0.332796,0.80202 -0.330728,0.3328 -0.802017,0.3328 -0.469222,0 -0.8020177,-0.3328 -0.066146,-0.0661 -0.1178222,-0.13642 v 0.41134 h -0.186035 z m 0.186035,2.03605 v 0.38861 q 0.053743,0.26458 0.2563149,0.46715 0.274918,0.27492 0.663525,0.27492 0.388606,0 0.663525,-0.27285 0.274918,-0.27492 0.274918,-0.66353 0,-0.3886 -0.274918,-0.66352 -0.274919,-0.27492 -0.663525,-0.27492 -0.388607,0 -0.663525,0.27492 -0.2025714,0.20257 -0.2563149,0.46922 z"
         style="font-style:normal;font-variant:normal;font-weight:normal;font-stretch:normal;font-family:'Caviar Dreams';-inkscape-font-specification:'Caviar Dreams';text-align:center;text-anchor:middle;fill:#e0ede6;fill-opacity:1"
         id="path6198" />
      <path
         d="m 12.929232,121.20179 -0.458887,0.95705 h -0.1819 l 0.547769,-1.14929 -0.791682,-1.65571 h 0.21084 l 0.67386,1.45521 0.67386,-1.45521 h 0.208772 l -0.882632,1.85002 z"
         style="font-style:normal;font-variant:normal;font-weight:normal;font-stretch:normal;font-family:'Caviar Dreams';-inkscape-font-specification:'Caviar Dreams';text-align:center;text-anchor:middle;fill:#e0ede6;fill-opacity:1"
         id="path6200" />
      <g
         id="g6215"
         transform="translate(0.0506448)"
         style="fill:#64f6ed">
        <path
           d="m 3.1861637,125.99679 0.4278805,0.15296 q -0.1570962,0.21704 -0.2273761,0.28732 -0.3451982,0.3452 -0.8330234,0.3452 -0.485758,0 -0.8309563,-0.3452 -0.3451983,-0.3452 -0.3451983,-0.83302 0,-0.48783 0.3451983,-0.83302 0.3451983,-0.3452 0.8309563,-0.3452 0.4878252,0 0.8330234,0.3452 0.07028,0.0703 0.2273761,0.28318 l -0.4278805,0.1571 q -0.082682,-0.10129 -0.111621,-0.13023 -0.2149737,-0.21497 -0.520898,-0.21497 -0.3038571,0 -0.520898,0.21704 -0.2149737,0.21497 -0.2149737,0.5209 0,0.30386 0.2149737,0.5209 0.2170409,0.21497 0.520898,0.21497 0.3059243,0 0.5229651,-0.21497 0.026872,-0.0289 0.1095539,-0.12816 z"
           style="font-style:normal;font-variant:normal;font-weight:bold;font-stretch:normal;font-size:4.23333px;font-family:'Caviar Dreams';-inkscape-font-specification:'Caviar Dreams Bold';text-align:center;writing-mode:lr-tb;text-anchor:middle;fill:#64f6ed;fill-opacity:1;stroke-width:0.264583"
           id="path6202" />
        <path
           d="m 4.9183564,126.72646 -1.0149243,-2.127 h 0.483691 l 0.6387202,1.38079 0.6407872,-1.38079 h 0.483691 l -1.0169913,2.127 z"
           style="font-style:normal;font-variant:normal;font-weight:bold;font-stretch:normal;font-size:4.23333px;font-family:'Caviar Dreams';-inkscape-font-specification:'Caviar Dreams Bold';text-align:center;writing-mode:lr-tb;text-anchor:middle;fill:#64f6ed;fill-opacity:1;stroke-width:0.264583"
           id="path6204" />
        <path
           d="m 6.9957473,123.4171 v 3.30936 H 6.5657997 v -3.30936 z"
           style="font-style:normal;font-variant:normal;font-weight:bold;font-stretch:normal;font-size:4.23333px;font-family:'Caviar Dreams';-inkscape-font-specification:'Caviar Dreams Bold';text-align:center;writing-mode:lr-tb;text-anchor:middle;fill:#64f6ed;fill-opacity:1;stroke-width:0.264583"
           id="path6206" />
        <path
           d="M 8.1388292,127.44166 H 7.6861437 l 0.5663735,-1.18856 -0.7916826,-1.65364 h 0.4816236 l 0.5395017,1.16375 0.5395007,-1.16375 h 0.4795567 z"
           style="font-style:normal;font-variant:normal;font-weight:bold;font-stretch:normal;font-size:4.23333px;font-family:'Caviar Dreams';-inkscape-font-specification:'Caviar Dreams Bold';text-align:center;writing-mode:lr-tb;text-anchor:middle;fill:#64f6ed;fill-opacity:1;stroke-width:0.264583"
           id="path6208" />
      </g>
    </g>
    <path
       style="opacity:0.996;fill:#100c11;fill-opacity:1;stroke:#64f6ed;stroke-width:0.28881;stroke-linecap:round;stroke-linejoin:round;stroke-miterlimit:4;stroke-dasharray:none;stroke-opacity:1;paint-order:stroke fill markers"
       d="m 7.1974678,116.78076 c -1.414876,-0.0838 -2.64874,-0.59387 -3.64433,-1.50649 -0.379428,-0.34781 -0.84483,-0.94938 -1.118245,-1.44543 -0.237244,-0.43043 -0.41256,-0.88603 -0.523708,-1.36099 -0.05942,-0.25393 -0.109146,-0.56148 -0.09333,-0.57725 0.01957,-0.0195 0.72472,0.0239 1.041677,0.0724 1.47337,0.22521 2.93515,0.50535 4.14267,1.12205 0.245984,0.12562 0.2706,0.14676 0.384522,-7.7e-4 0.183526,-0.23789 0.454247,-0.45611 0.749793,-0.60439 0.246849,-0.12384 0.746056,-0.29043 0.777154,-0.25934 -0.08606,0.19472 -0.143156,0.42871 -0.169016,0.62534 -0.0238,0.18099 0.02546,0.67299 0.05945,0.74001 0.422764,0.18315 1.00646,0.10763 1.4566672,-0.034 1.754905,-0.86084 2.257434,-2.33697 2.30413,-3.9466 0.01263,-0.43523 0.0075,-0.4547 -0.126558,-0.48855 -0.401877,-0.1503 -0.959278,-0.81803 -0.607278,-0.71528 0.886624,0.25877 0.920652,0.2518 1.491898,-0.22184 0.251075,-0.20818 -0.01591,0.58491 -0.255634,0.77082 -0.235607,0.17694 -0.2369,0.18013 -0.162014,0.4008 0.210751,0.71117 0.29584,1.38164 0.226785,2.13733 -0.195716,1.97102 -1.376055,3.77305 -3.032124,4.62916 -0.6831052,0.35314 -1.3809452,0.56747 -2.0728632,0.63664 -0.206272,0.0206 -0.67597,0.0357 -0.829644,0.0266 z"
       id="path10930"
       sodipodi:nodetypes="csssssscscsccccsscccsscc" />
    <g
       aria-label="cv"
       id="text35027"
       style="font-size:4.23333px;line-height:1.25;font-family:'Odin Rounded';-inkscape-font-specification:'Odin Rounded';stroke-width:0.264583"
       transform="translate(-0.77223836,-6.0560387)">
      <path
         d="m 7.8144961,11.406643 0.4278805,0.152962 q -0.1570962,0.217041 -0.2273761,0.287321 -0.3451983,0.345198 -0.8330234,0.345198 -0.485758,0 -0.8309563,-0.345198 -0.3451983,-0.345199 -0.3451983,-0.833024 0,-0.487825 0.3451983,-0.833023 0.3451983,-0.3451984 0.8309563,-0.3451984 0.4878251,0 0.8330234,0.3451984 0.07028,0.07028 0.2273761,0.283186 l -0.4278805,0.157097 q -0.082682,-0.101286 -0.111621,-0.130225 -0.2149738,-0.214974 -0.520898,-0.214974 -0.3038572,0 -0.520898,0.217041 -0.2149738,0.214974 -0.2149738,0.520898 0,0.303857 0.2149738,0.520898 0.2170408,0.214974 0.520898,0.214974 0.3059242,0 0.5229651,-0.214974 0.026872,-0.02894 0.1095539,-0.128157 z"
         style="font-weight:bold;font-family:'Caviar Dreams';-inkscape-font-specification:'Caviar Dreams Bold';fill:#64f6ed"
         id="path62619" />
      <path
         d="m 9.5466888,12.136313 -1.0149243,-2.127 h 0.483691 l 0.6387202,1.380793 0.6407873,-1.380793 h 0.483691 l -1.0169914,2.127 z"
         style="font-weight:bold;font-family:'Caviar Dreams';-inkscape-font-specification:'Caviar Dreams Bold';fill:#64f6ed"
         id="path62621" />
    </g>
    <g
       aria-label="mode"
       id="text35027-3"
       style="font-size:4.23333px;line-height:1.25;font-family:'Odin Rounded';-inkscape-font-specification:'Odin Rounded';stroke-width:0.264583"
       transform="translate(-0.77223831,-6.0560387)">
      <path
         d="m 3.0602684,37.602172 h 0.4278805 v 0.198437 q 0.1240233,-0.312125 0.4774898,-0.312125 0.3513995,0 0.3948076,0.355533 0.1012857,-0.355533 0.558105,-0.355533 0.4506181,0 0.4506181,0.547769 v 1.692919 H 4.9392219 v -1.496548 q 0,-0.314193 -0.2542479,-0.314193 -0.1054198,0 -0.1819008,0.07441 -0.076481,0.07441 -0.076481,0.500228 v 1.236099 H 3.9987116 l 0.00207,-1.496548 q 0,-0.314193 -0.2563149,-0.314193 -0.1054199,0 -0.1819009,0.07441 -0.066146,0.06408 -0.074414,0.338997 v 1.39733 H 3.0602684 Z"
         style="font-weight:bold;font-family:'Caviar Dreams';-inkscape-font-specification:'Caviar Dreams Bold';fill:#64f6ed"
         id="path62624" />
      <path
         d="m 7.0434845,37.428539 q 0.4878251,0 0.8309564,0.345198 0.3451982,0.345198 0.3451982,0.833024 0,0.487825 -0.3451982,0.833023 -0.3431313,0.345198 -0.8309564,0.345198 -0.485758,0 -0.8309563,-0.345198 -0.3451983,-0.345198 -0.3451983,-0.833023 0,-0.487826 0.3451983,-0.833024 0.3451983,-0.345198 0.8309563,-0.345198 z m 0,0.440283 q -0.3059242,0 -0.522965,0.217041 -0.2149738,0.21704 -0.2149738,0.520898 0,0.305924 0.2149738,0.520898 0.2170408,0.214973 0.522965,0.214973 0.3059242,0 0.520898,-0.214973 0.2170409,-0.214974 0.2170409,-0.520898 0,-0.303858 -0.2170409,-0.520898 -0.2149738,-0.217041 -0.520898,-0.217041 z"
         style="font-weight:bold;font-family:'Caviar Dreams';-inkscape-font-specification:'Caviar Dreams Bold';fill:#64f6ed"
         id="path62626" />
      <path
         d="m 10.561613,38.765924 v -0.31626 q -0.03721,-0.200504 -0.200504,-0.363801 -0.214974,-0.217041 -0.5208982,-0.217041 -0.3059242,0 -0.5229651,0.217041 -0.2149738,0.21704 -0.2149738,0.520898 0,0.305924 0.2149738,0.520898 0.2170409,0.214973 0.5229651,0.214973 0.3059242,0 0.5208982,-0.214973 0.163297,-0.163298 0.200504,-0.361735 z m 0,-1.016991 v -1.32705 h 0.429948 v 3.307289 h -0.429948 v -0.264583 q -0.310058,0.320393 -0.7214022,0.320393 -0.4878251,0 -0.8330234,-0.345198 -0.3431312,-0.345198 -0.3431312,-0.833023 0,-0.487826 0.3431312,-0.833024 0.3451983,-0.345198 0.8330234,-0.345198 0.4113442,0 0.7214022,0.320394 z"
         style="font-weight:bold;font-family:'Caviar Dreams';-inkscape-font-specification:'Caviar Dreams Bold';fill:#64f6ed"
         id="path62628" />
      <path
         d="m 12.273135,39.247548 q 0.107487,0.09508 0.390673,0.09508 0.305925,0 0.522965,-0.214973 0.02687,-0.02894 0.109554,-0.128158 l 0.427881,0.152962 q -0.157096,0.217041 -0.227376,0.287321 -0.345198,0.345198 -0.833024,0.345198 -0.485758,0 -0.830956,-0.345198 -0.345198,-0.345198 -0.345198,-0.833023 0,-0.487826 0.345198,-0.833024 0.345198,-0.345198 0.830956,-0.345198 0.417546,0 0.731738,0.252181 0.05168,0.04341 0.101286,0.09302 0.02067,0.02067 0.117822,0.130225 l -0.214974,0.217041 z m 0.715201,-1.322916 q -0.07235,-0.05581 -0.324528,-0.05581 -0.303857,0 -0.520898,0.217041 -0.214973,0.214973 -0.214973,0.520898 0,0.250113 0.05581,0.324527 z"
         style="font-weight:bold;font-family:'Caviar Dreams';-inkscape-font-specification:'Caviar Dreams Bold';fill:#64f6ed"
         id="path62630" />
    </g>
    <g
       aria-label="gate"
       id="text35027-3-0"
       style="font-size:4.23333px;line-height:1.25;font-family:'Odin Rounded';-inkscape-font-specification:'Odin Rounded';stroke-width:0.264583"
       transform="translate(-0.77223801,-6.0560387)">
      <path
         d="m 5.5324668,24.451406 q -0.039274,-0.19637 -0.1984374,-0.355534 -0.2149737,-0.21704 -0.520898,-0.21704 -0.3059242,0 -0.522965,0.21704 -0.2149738,0.217041 -0.2149738,0.520898 0,0.305925 0.2149738,0.522965 0.2170408,0.214974 0.522965,0.214974 0.3059243,0 0.520898,-0.214974 0.1591633,-0.159163 0.1984374,-0.351399 z m 0.00207,-0.692464 v -0.146761 h 0.4299476 v 1.581298 q 0,0.620117 -0.3369301,0.957047 -0.3451983,0.303857 -0.8330234,0.303857 -0.4878251,0 -0.8330234,-0.303857 -0.07028,-0.07028 -0.225309,-0.285254 L 4.1620089,25.71231 q 0.082682,0.09922 0.111621,0.128157 0.2170409,0.214974 0.520898,0.214974 0.5105628,0 0.706933,-0.669726 -0.2005044,0.388606 -0.6883295,0.388606 -0.4878251,0 -0.8330234,-0.334863 -0.3431312,-0.334863 -0.3431312,-0.822688 0,-0.487825 0.3431312,-0.830956 0.3451983,-0.345198 0.8330234,-0.345198 0.4113441,0 0.7214024,0.318326 z"
         style="font-weight:bold;font-family:'Caviar Dreams';-inkscape-font-specification:'Caviar Dreams Bold';fill:#64f6ed"
         id="path62633" />
      <path
         d="m 8.4056739,24.775934 v -0.314193 q -0.037207,-0.200504 -0.1984374,-0.363802 -0.2170408,-0.214973 -0.520898,-0.214973 -0.3059242,0 -0.522965,0.214973 -0.2149738,0.214974 -0.2149738,0.520898 0,0.303858 0.2149738,0.520898 0.2170408,0.214974 0.522965,0.214974 0.3038572,0 0.520898,-0.214974 0.1612304,-0.163297 0.1984374,-0.363801 z m 0,-1.014925 v -0.148828 h 0.4299475 v 2.129068 H 8.4056739 v -0.266651 q -0.3100584,0.320394 -0.7193354,0.320394 -0.4878251,0 -0.8330234,-0.343131 -0.3431312,-0.345198 -0.3431312,-0.833024 0,-0.487825 0.3431312,-0.830956 0.3451983,-0.345198 0.8330234,-0.345198 0.409277,0 0.7193354,0.318326 z"
         style="font-weight:bold;font-family:'Caviar Dreams';-inkscape-font-specification:'Caviar Dreams Bold';fill:#64f6ed"
         id="path62635" />
      <path
         d="m 9.7265223,23.612181 v -0.797883 h 0.4278807 v 0.797883 h 0.382405 v 0.427881 h -0.382405 v 1.69912 H 9.7265223 v -1.69912 H 9.344117 v -0.427881 z"
         style="font-weight:bold;font-family:'Caviar Dreams';-inkscape-font-specification:'Caviar Dreams Bold';fill:#64f6ed"
         id="path62637" />
      <path
         d="m 11.696426,25.257558 q 0.107487,0.09508 0.390674,0.09508 0.305924,0 0.522965,-0.214974 0.02687,-0.02894 0.109554,-0.128157 l 0.42788,0.152962 q -0.157096,0.217041 -0.227376,0.287321 -0.345198,0.345198 -0.833023,0.345198 -0.485758,0 -0.830956,-0.345198 -0.345199,-0.345199 -0.345199,-0.833024 0,-0.487825 0.345199,-0.833023 0.345198,-0.345198 0.830956,-0.345198 0.417545,0 0.731738,0.25218 0.05168,0.04341 0.101285,0.09302 0.02067,0.02067 0.117822,0.130224 l -0.214973,0.217041 z m 0.715202,-1.322916 q -0.07235,-0.05581 -0.324528,-0.05581 -0.303857,0 -0.520898,0.21704 -0.214974,0.214974 -0.214974,0.520898 0,0.250114 0.05581,0.324528 z"
         style="font-weight:bold;font-family:'Caviar Dreams';-inkscape-font-specification:'Caviar Dreams Bold';fill:#64f6ed"
         id="path62639" />
    </g>
  </g>
</svg>
