<?xml version="1.0" encoding="UTF-8" standalone="no"?>
<svg
   width="101.6mm"
   height="128.5mm"
   viewBox="0 0 101.6 128.5"
   version="1.1"
   id="svg5"
   inkscape:version="1.1.2 (0a00cf5339, 2022-02-04)"
   sodipodi:docname="crcl.svg"
   xmlns:inkscape="http://www.inkscape.org/namespaces/inkscape"
   xmlns:sodipodi="http://sodipodi.sourceforge.net/DTD/sodipodi-0.dtd"
   xmlns:xlink="http://www.w3.org/1999/xlink"
   xmlns="http://www.w3.org/2000/svg"
   xmlns:svg="http://www.w3.org/2000/svg"
   xmlns:rdf="http://www.w3.org/1999/02/22-rdf-syntax-ns#"
   xmlns:cc="http://creativecommons.org/ns#"
   xmlns:dc="http://purl.org/dc/elements/1.1/">
  <metadata
     id="metadata104">
    <rdf:RDF>
      <cc:Work
         rdf:about="">
        <dc:format>image/svg+xml</dc:format>
        <dc:type
           rdf:resource="http://purl.org/dc/dcmitype/StillImage" />
      </cc:Work>
    </rdf:RDF>
  </metadata>
  <sodipodi:namedview
     id="namedview7"
     pagecolor="#505050"
     bordercolor="#eeeeee"
     borderopacity="1"
     inkscape:pageshadow="0"
     inkscape:pageopacity="0"
     inkscape:pagecheckerboard="0"
     inkscape:document-units="mm"
     showgrid="false"
     showguides="false"
     inkscape:guide-bbox="true"
     inkscape:zoom="1.0985948"
     inkscape:cx="127.89065"
     inkscape:cy="244.40312"
     inkscape:window-width="1920"
     inkscape:window-height="1050"
     inkscape:window-x="0"
     inkscape:window-y="0"
     inkscape:window-maximized="1"
     inkscape:current-layer="layer1"
     width="142.24mm"
     units="mm"
     inkscape:document-rotation="0">
    <inkscape:grid
       type="xygrid"
       id="grid1050"
       units="mm"
       spacingx="5.0800001"
       spacingy="5.0800001"
       empspacing="0" />
  </sodipodi:namedview>
  <defs
     id="defs2">
    <linearGradient
       inkscape:collect="always"
       id="linearGradient5802">
      <stop
         style="stop-color:#100c11;stop-opacity:1"
         offset="0"
         id="stop5798" />
      <stop
         style="stop-color:#0aa0ab;stop-opacity:1"
         offset="1"
         id="stop5800" />
    </linearGradient>
    <linearGradient
       id="linearGradient47039"
       inkscape:swatch="solid">
      <stop
         style="stop-color:#859998;stop-opacity:1;"
         offset="0"
         id="stop47037" />
    </linearGradient>
    <pattern
       id="EMFhbasepattern"
       patternUnits="userSpaceOnUse"
       width="6"
       height="6"
       x="0"
       y="0" />
    <pattern
       id="EMFhbasepattern-7"
       patternUnits="userSpaceOnUse"
       width="6"
       height="6"
       x="0"
       y="0" />
    <pattern
       id="EMFhbasepattern-72"
       patternUnits="userSpaceOnUse"
       width="6"
       height="6"
       x="0"
       y="0" />
    <pattern
       id="EMFhbasepattern-8"
       patternUnits="userSpaceOnUse"
       width="6"
       height="6"
       x="0"
       y="0" />
    <linearGradient
       inkscape:collect="always"
       xlink:href="#linearGradient5802"
       id="linearGradient5804"
       x1="0"
       y1="-1.7763568e-15"
       x2="101.6"
       y2="128.5"
       gradientUnits="userSpaceOnUse" />
  </defs>
  <g
     inkscape:label="background"
     inkscape:groupmode="layer"
     id="layer1"
     style="display:inline">
    <rect
       style="fill:url(#linearGradient5804);fill-opacity:1;stroke:none;stroke-width:0.74927;stroke-linecap:butt;stroke-linejoin:miter;stroke-miterlimit:4;stroke-dasharray:none;stroke-dashoffset:0;stroke-opacity:1"
       id="rect48062"
       width="101.6"
       height="128.5"
       x="0"
       y="-1.7763568e-15" />
    <rect
       style="fill:#100c11;fill-opacity:1;stroke:#e0ede6;stroke-width:0.26458333;stroke-linecap:round;stroke-miterlimit:4;stroke-dasharray:none;stroke-opacity:1"
       id="rect40273"
       width="17.086224"
       height="35.746002"
       x="81.809998"
       y="2.1156645" />
    <path
       style="display:inline;fill:none;fill-opacity:1;stroke:#e0ede6;stroke-width:0.26458333;stroke-linecap:round;stroke-linejoin:miter;stroke-miterlimit:0;stroke-dasharray:none;stroke-opacity:1;stroke-dashoffset:0"
       d="M 50.799999,71.385065 V 42.167258 Z"
       id="path2574" />
    <path
       id="path1184"
       style="fill:none;stroke:#0aa0ab;stroke-width:0.26458333;stroke-linecap:butt;stroke-linejoin:miter;stroke-miterlimit:4;stroke-dasharray:none;stroke-opacity:1"
       d="M 48.71237,80.521675 41.68792,109.17841" />
    <path
       id="path1194"
       style="fill:none;stroke:#0aa0ab;stroke-width:0.26458333;stroke-linecap:butt;stroke-linejoin:miter;stroke-miterlimit:4;stroke-dasharray:none;stroke-opacity:1"
       d="m 60.583633,26.829797 h 1.332256 l -9.754493,39.794111" />
    <g
       id="g8182"
       transform="translate(-2.0320988,4.5408933)">
      <path
         style="fill:#100c11;fill-opacity:1;stroke:#64f6ed;stroke-width:0.375882;stroke-linecap:round;stroke-linejoin:round;stroke-miterlimit:4;stroke-dasharray:none;stroke-opacity:1;paint-order:stroke fill markers"
         d="m 76.533547,118.35544 c -1.841437,-0.10907 -3.44729,-0.7729 -4.743033,-1.96067 -0.49382,-0.45266 -1.099532,-1.2356 -1.455378,-1.8812 -0.308769,-0.56018 -0.536939,-1.15314 -0.681597,-1.7713 -0.07734,-0.33048 -0.142051,-0.73075 -0.121466,-0.75128 0.02547,-0.0254 0.943211,0.0311 1.355725,0.0942 1.917566,0.29311 3.820048,0.65771 5.391615,1.46032 0.320145,0.16351 0.352182,0.19101 0.500449,-10e-4 0.238857,-0.3096 0.591195,-0.59361 0.975844,-0.78659 0.321269,-0.16119 0.970979,-0.37799 1.011452,-0.33752 -0.112005,0.25341 -0.186315,0.55795 -0.219971,0.81386 -0.03098,0.23555 0.03313,0.87588 0.07737,0.9631 0.55022,0.23838 1.30989,0.14009 1.895827,-0.0443 2.283981,-1.12037 2.938015,-3.04152 2.998788,-5.13642 0.01644,-0.56645 0.0098,-0.59179 -0.164712,-0.63584 -0.523037,-0.19562 -1.248485,-1.06465 -0.790363,-0.93094 1.153926,0.3368 1.198214,0.32773 1.941681,-0.28871 0.32677,-0.27095 -0.02071,0.76124 -0.332704,1.0032 -0.306638,0.23028 -0.308321,0.23445 -0.210858,0.52164 0.274289,0.92557 0.38503,1.79818 0.295156,2.78171 -0.254721,2.56524 -1.790912,4.91055 -3.94626,6.02477 -0.88905,0.4596 -1.797277,0.73854 -2.697796,0.82858 -0.268459,0.0268 -0.879763,0.0464 -1.079768,0.0346 z"
         id="path10930"
         sodipodi:nodetypes="csssssscscsccccsscccsscc" />
      <g
         aria-label="crcl by cvly"
         id="text22874"
         style="font-size:8.46667px;line-height:1.25;font-family:'Odin Rounded';-inkscape-font-specification:'Odin Rounded';text-align:end;text-anchor:end;fill:#64f6ed;stroke-width:0.375882">
        <path
           d="m 24.454883,115.6578 0.855762,0.30592 q -0.314193,0.43409 -0.454753,0.57465 -0.690397,0.69039 -1.666049,0.69039 -0.971517,0 -1.661915,-0.69039 -0.690397,-0.6904 -0.690397,-1.66605 0,-0.97565 0.690397,-1.66605 0.690398,-0.6904 1.661915,-0.6904 0.975652,0 1.666049,0.6904 0.14056,0.14056 0.454753,0.56637 l -0.855762,0.31419 q -0.165365,-0.20257 -0.223243,-0.26044 -0.429948,-0.42995 -1.041797,-0.42995 -0.607715,0 -1.041797,0.43408 -0.429948,0.42995 -0.429948,1.0418 0,0.60771 0.429948,1.04179 0.434082,0.42995 1.041797,0.42995 0.611849,0 1.045931,-0.42995 0.05374,-0.0579 0.219109,-0.25631 z"
           style="font-weight:bold;font-family:'Caviar Dreams';-inkscape-font-specification:'Caviar Dreams Bold'"
           id="path8131" />
        <path
           d="m 27.158595,113.43778 q 0.479557,-0.64906 1.178223,-0.68213 v 0.88883 q -0.467155,0.0248 -0.744141,0.30179 -0.417546,0.41342 -0.434082,0.98392 v 2.18695 h -0.855762 v -4.254 h 0.855762 z"
           style="font-weight:bold;font-family:'Caviar Dreams';-inkscape-font-specification:'Caviar Dreams Bold'"
           id="path8133" />
        <path
           d="m 32.508142,115.6578 0.855762,0.30592 q -0.314193,0.43409 -0.454753,0.57465 -0.690398,0.69039 -1.666049,0.69039 -0.971517,0 -1.661915,-0.69039 -0.690397,-0.6904 -0.690397,-1.66605 0,-0.97565 0.690397,-1.66605 0.690398,-0.6904 1.661915,-0.6904 0.975651,0 1.666049,0.6904 0.14056,0.14056 0.454753,0.56637 l -0.855762,0.31419 q -0.165365,-0.20257 -0.223243,-0.26044 -0.429948,-0.42995 -1.041797,-0.42995 -0.607715,0 -1.041797,0.43408 -0.429948,0.42995 -0.429948,1.0418 0,0.60771 0.429948,1.04179 0.434082,0.42995 1.041797,0.42995 0.611849,0 1.045931,-0.42995 0.05374,-0.0579 0.219109,-0.25631 z"
           style="font-weight:bold;font-family:'Caviar Dreams';-inkscape-font-specification:'Caviar Dreams Bold'"
           id="path8135" />
        <path
           d="m 35.215988,110.49842 v 6.61872 h -0.859897 v -6.61872 z"
           style="font-weight:bold;font-family:'Caviar Dreams';-inkscape-font-specification:'Caviar Dreams Bold'"
           id="path8137" />
        <path
           d="m 39.383176,110.50256 h 0.37207 v 3.12539 q 0.103353,-0.14056 0.235645,-0.27285 0.665593,-0.6656 1.604037,-0.6656 0.942578,0 1.604037,0.6656 0.665593,0.66559 0.665593,1.60817 0,0.93844 -0.665593,1.60403 -0.661459,0.6656 -1.604037,0.6656 -0.938444,0 -1.604037,-0.6656 -0.132292,-0.13229 -0.235645,-0.27285 v 0.82269 h -0.37207 z m 0.37207,4.0721 v 0.77721 q 0.107487,0.52917 0.512631,0.93431 0.549837,0.54984 1.327051,0.54984 0.777214,0 1.327051,-0.5457 0.549838,-0.54984 0.549838,-1.32705 0,-0.77722 -0.549838,-1.32705 -0.549837,-0.54984 -1.327051,-0.54984 -0.777214,0 -1.327051,0.54984 -0.405144,0.40514 -0.512631,0.93844 z"
           style="font-weight:normal;-inkscape-font-specification:'Caviar Dreams';fill:#e0ede6"
           id="path8139" />
        <path
           d="m 46.3781,116.75334 -0.917773,1.9141 h -0.363803 l 1.095541,-2.29857 -1.583366,-3.31143 h 0.42168 l 1.347721,2.91042 1.347722,-2.91042 h 0.417546 l -1.765268,3.70003 z"
           style="font-weight:normal;-inkscape-font-specification:'Caviar Dreams';fill:#e0ede6"
           id="path8141" />
        <path
           d="m 55.369803,115.6578 0.855763,0.30592 q -0.314193,0.43409 -0.454753,0.57465 -0.690398,0.69039 -1.666049,0.69039 -0.971517,0 -1.661915,-0.69039 -0.690397,-0.6904 -0.690397,-1.66605 0,-0.97565 0.690397,-1.66605 0.690398,-0.6904 1.661915,-0.6904 0.975651,0 1.666049,0.6904 0.14056,0.14056 0.454753,0.56637 l -0.855763,0.31419 q -0.165364,-0.20257 -0.223242,-0.26044 -0.429948,-0.42995 -1.041797,-0.42995 -0.607715,0 -1.041797,0.43408 -0.429948,0.42995 -0.429948,1.0418 0,0.60771 0.429948,1.04179 0.434082,0.42995 1.041797,0.42995 0.611849,0 1.045931,-0.42995 0.05374,-0.0579 0.219108,-0.25631 z"
           style="font-weight:bold;font-family:'Caviar Dreams';-inkscape-font-specification:'Caviar Dreams Bold'"
           id="path8143" />
        <path
           d="m 58.834193,117.11714 -2.029851,-4.254 h 0.967383 l 1.277442,2.76159 1.281576,-2.76159 h 0.967383 l -2.033985,4.254 z"
           style="font-weight:bold;font-family:'Caviar Dreams';-inkscape-font-specification:'Caviar Dreams Bold'"
           id="path8145" />
        <path
           d="m 62.988981,110.49842 v 6.61872 h -0.859896 v -6.61872 z"
           style="font-weight:bold;font-family:'Caviar Dreams';-inkscape-font-specification:'Caviar Dreams Bold'"
           id="path8147" />
        <path
           d="m 65.275148,118.54755 h -0.905372 l 1.132748,-2.37712 -1.583366,-3.30729 h 0.963249 l 1.079004,2.3275 1.079005,-2.3275 h 0.959115 z"
           style="font-weight:bold;font-family:'Caviar Dreams';-inkscape-font-specification:'Caviar Dreams Bold'"
           id="path8149" />
      </g>
    </g>
  </g>
  <g
     inkscape:groupmode="layer"
     id="layer4"
     inkscape:label="labels"
     style="display:inline">
    <g
       id="text61781"
       style="font-style:normal;font-weight:normal;font-size:10.5833px;line-height:1.25;font-family:sans-serif;fill:#000000;fill-opacity:1;stroke:none;stroke-width:0.264583" />
    <g
       id="text31548"
       style="font-size:5.64444px;line-height:1.25;font-family:Poppins;-inkscape-font-specification:'Poppins, Normal';stroke-width:0.264583" />
    <g
       aria-label="cv in"
       id="text927"
       style="font-size:6.35px;line-height:1.25;font-family:'Caviar Dreams';-inkscape-font-specification:'Caviar Dreams';fill:#64f6ed;fill-opacity:1;stroke-width:0.264583">
      <path
         d="M 6.6475754,6.5931505 7.0754559,6.7461126 Q 6.9183597,6.9631535 6.8480798,7.0334334 6.5028816,7.3786316 6.0150564,7.3786316 q -0.485758,0 -0.8309563,-0.3451982 Q 4.8389018,6.6882351 4.8389018,6.20041 q 0,-0.4878251 0.3451983,-0.8330234 0.3451983,-0.3451983 0.8309563,-0.3451983 0.4878252,0 0.8330234,0.3451983 0.07028,0.07028 0.2273761,0.2831866 L 6.6475754,5.8076694 Q 6.5648932,5.7063837 6.5359544,5.6774449 6.3209807,5.4624711 6.0150564,5.4624711 q -0.3038571,0 -0.5208979,0.2170409 -0.2149738,0.2149738 -0.2149738,0.520898 0,0.3038571 0.2149738,0.520898 0.2170408,0.2149738 0.5208979,0.2149738 0.3059243,0 0.5229651,-0.2149738 0.026872,-0.028939 0.1095539,-0.1281575 z"
         style="font-style:normal;font-variant:normal;font-weight:bold;font-stretch:normal;font-size:4.23333px;font-family:'Caviar Dreams';-inkscape-font-specification:'Caviar Dreams Bold';fill:#64f6ed;fill-opacity:1;stroke-width:0.264583"
         id="path2823" />
      <path
         d="M 8.3797681,7.3228211 7.3648438,5.195821 h 0.483691 L 8.487255,6.5766141 9.1280422,5.195821 h 0.483691 L 8.5947419,7.3228211 Z"
         style="font-style:normal;font-variant:normal;font-weight:bold;font-stretch:normal;font-size:4.23333px;font-family:'Caviar Dreams';-inkscape-font-specification:'Caviar Dreams Bold';fill:#64f6ed;fill-opacity:1;stroke-width:0.264583"
         id="path2825" />
      <path
         d="m 11.953707,5.195821 v 2.1270001 h -0.42788 V 5.195821 Z M 11.738733,4.3214565 q 0.124024,0 0.212907,0.086816 0.08888,0.086816 0.08888,0.2129067 0,0.1260904 -0.08888,0.2129068 -0.08888,0.086816 -0.212907,0.086816 -0.121956,0 -0.210839,-0.086816 -0.08888,-0.086816 -0.08888,-0.2129068 0,-0.1260904 0.08888,-0.2129067 0.08888,-0.086816 0.210839,-0.086816 z"
         style="font-style:normal;font-variant:normal;font-weight:bold;font-stretch:normal;font-size:4.23333px;font-family:'Caviar Dreams';-inkscape-font-specification:'Caviar Dreams Bold';fill:#64f6ed;fill-opacity:1;stroke-width:0.264583"
         id="path2827" />
      <path
         d="M 13.038911,5.7663283 V 7.3228211 H 12.608964 V 5.195821 h 0.429947 v 0.2480466 q 0.134359,-0.3638017 0.539502,-0.3638017 0.345198,0 0.547769,0.2459796 0.204639,0.2439125 0.21084,0.6139155 v 1.3828601 h -0.42788 V 5.9564974 q 0,-0.1839679 -0.134359,-0.3141924 -0.134359,-0.1322916 -0.320394,-0.1322916 -0.183968,0 -0.318326,0.1281575 -0.07441,0.076481 -0.09715,0.1281574 z"
         style="font-style:normal;font-variant:normal;font-weight:bold;font-stretch:normal;font-size:4.23333px;font-family:'Caviar Dreams';-inkscape-font-specification:'Caviar Dreams Bold';fill:#64f6ed;fill-opacity:1;stroke-width:0.264583"
         id="path2829" />
    </g>
    <g
       aria-label="tg in"
       id="text927-1"
       style="font-size:6.35px;line-height:1.25;font-family:'Caviar Dreams';-inkscape-font-specification:'Caviar Dreams';display:inline;fill:#64f6ed;fill-opacity:1;stroke-width:0.264583"
       transform="translate(0,2.6458856)">
      <path
         d="m 5.5179299,18.939269 v -0.797884 h 0.4278805 v 0.797884 h 0.3824052 v 0.42788 H 5.9458104 v 1.69912 H 5.5179299 v -1.69912 H 5.1355246 v -0.42788 z"
         style="font-style:normal;font-variant:normal;font-weight:bold;font-stretch:normal;font-size:4.23333px;font-family:'Caviar Dreams';-inkscape-font-specification:'Caviar Dreams Bold';fill:#64f6ed;fill-opacity:1;stroke-width:0.264583"
         id="path2814" />
      <path
         d="m 8.6701896,19.778493 q -0.039274,-0.19637 -0.1984373,-0.355533 -0.2149738,-0.217041 -0.520898,-0.217041 -0.3059242,0 -0.5229651,0.217041 -0.2149738,0.217041 -0.2149738,0.520898 0,0.305924 0.2149738,0.522965 0.2170409,0.214974 0.5229651,0.214974 0.3059242,0 0.520898,-0.214974 0.1591633,-0.159163 0.1984373,-0.3514 z m 0.00207,-0.692463 v -0.146761 h 0.4299475 v 1.581297 q 0,0.620117 -0.33693,0.957047 -0.3451983,0.303857 -0.8330234,0.303857 -0.4878251,0 -0.8330234,-0.303857 -0.07028,-0.07028 -0.2253091,-0.285254 l 0.4258135,-0.152962 q 0.082682,0.09922 0.111621,0.128158 0.2170408,0.214973 0.520898,0.214973 0.5105627,0 0.706933,-0.669726 -0.2005044,0.388607 -0.6883295,0.388607 -0.4878251,0 -0.8330234,-0.334863 -0.3431312,-0.334863 -0.3431312,-0.822688 0,-0.487825 0.3431312,-0.830957 0.3451983,-0.345198 0.8330234,-0.345198 0.411344,0 0.7214024,0.318327 z"
         style="font-style:normal;font-variant:normal;font-weight:bold;font-stretch:normal;font-size:4.23333px;font-family:'Caviar Dreams';-inkscape-font-specification:'Caviar Dreams Bold';fill:#64f6ed;fill-opacity:1;stroke-width:0.264583"
         id="path2816" />
      <path
         d="m 11.657085,18.939269 v 2.127 h -0.427881 v -2.127 z m -0.214974,-0.874365 q 0.124023,0 0.212907,0.08682 0.08888,0.08682 0.08888,0.212906 0,0.126091 -0.08888,0.212907 -0.08888,0.08682 -0.212907,0.08682 -0.121956,0 -0.21084,-0.08682 -0.08888,-0.08682 -0.08888,-0.212907 0,-0.12609 0.08888,-0.212906 0.08888,-0.08682 0.21084,-0.08682 z"
         style="font-style:normal;font-variant:normal;font-weight:bold;font-stretch:normal;font-size:4.23333px;font-family:'Caviar Dreams';-inkscape-font-specification:'Caviar Dreams Bold';fill:#64f6ed;fill-opacity:1;stroke-width:0.264583"
         id="path2818" />
      <path
         d="m 12.742289,19.509776 v 1.556493 h -0.429948 v -2.127 h 0.429948 v 0.248046 q 0.134359,-0.363801 0.539501,-0.363801 0.345199,0 0.54777,0.245979 0.204639,0.243913 0.21084,0.613916 v 1.38286 h -0.427881 v -1.366324 q 0,-0.183968 -0.134358,-0.314192 -0.134359,-0.132292 -0.320394,-0.132292 -0.183968,0 -0.318326,0.128158 -0.07441,0.07648 -0.09715,0.128157 z"
         style="font-style:normal;font-variant:normal;font-weight:bold;font-stretch:normal;font-size:4.23333px;font-family:'Caviar Dreams';-inkscape-font-specification:'Caviar Dreams Bold';fill:#64f6ed;fill-opacity:1;stroke-width:0.264583"
         id="path2820" />
    </g>
    <g
       aria-label="cv out"
       id="text927-13"
       style="font-size:6.35px;line-height:1.25;font-family:'Caviar Dreams';-inkscape-font-specification:'Caviar Dreams';display:inline;fill:#64f6ed;fill-opacity:1;stroke-width:0.264583">
      <path
         d="m 85.738407,6.5931505 0.42788,0.1529621 q -0.157096,0.2170409 -0.227376,0.2873208 -0.345198,0.3451982 -0.833023,0.3451982 -0.485758,0 -0.830957,-0.3451982 -0.345198,-0.3451983 -0.345198,-0.8330234 0,-0.4878251 0.345198,-0.8330234 0.345199,-0.3451983 0.830957,-0.3451983 0.487825,0 0.833023,0.3451983 0.07028,0.07028 0.227376,0.2831866 l -0.42788,0.1570962 Q 85.655725,5.7063837 85.626786,5.6774449 85.411812,5.4624711 85.105888,5.4624711 q -0.303857,0 -0.520898,0.2170409 -0.214974,0.2149738 -0.214974,0.520898 0,0.3038571 0.214974,0.520898 0.217041,0.2149738 0.520898,0.2149738 0.305924,0 0.522965,-0.2149738 0.02687,-0.028939 0.109554,-0.1281575 z"
         style="font-style:normal;font-variant:normal;font-weight:bold;font-stretch:normal;font-size:4.23333px;font-family:'Caviar Dreams';-inkscape-font-specification:'Caviar Dreams Bold';fill:#64f6ed;fill-opacity:1;stroke-width:0.264583"
         id="path2803" />
      <path
         d="M 87.470599,7.3228211 86.455675,5.195821 h 0.483691 l 0.63872,1.3807931 0.640788,-1.3807931 h 0.483691 l -1.016992,2.1270001 z"
         style="font-style:normal;font-variant:normal;font-weight:bold;font-stretch:normal;font-size:4.23333px;font-family:'Caviar Dreams';-inkscape-font-specification:'Caviar Dreams Bold';fill:#64f6ed;fill-opacity:1;stroke-width:0.264583"
         id="path2805" />
      <path
         d="m 91.633649,5.0221883 q 0.487825,0 0.830957,0.3451983 0.345198,0.3451983 0.345198,0.8330234 0,0.4878251 -0.345198,0.8330234 -0.343132,0.3451982 -0.830957,0.3451982 -0.485758,0 -0.830956,-0.3451982 -0.345198,-0.3451983 -0.345198,-0.8330234 0,-0.4878251 0.345198,-0.8330234 0.345198,-0.3451983 0.830956,-0.3451983 z m 0,0.4402828 q -0.305924,0 -0.522965,0.2170409 -0.214974,0.2170408 -0.214974,0.520898 0,0.3059242 0.214974,0.520898 0.217041,0.2149738 0.522965,0.2149738 0.305924,0 0.520898,-0.2149738 0.217041,-0.2149738 0.217041,-0.520898 0,-0.3038572 -0.217041,-0.520898 -0.214974,-0.2170409 -0.520898,-0.2170409 z"
         style="font-style:normal;font-variant:normal;font-weight:bold;font-stretch:normal;font-size:4.23333px;font-family:'Caviar Dreams';-inkscape-font-specification:'Caviar Dreams Bold';fill:#64f6ed;fill-opacity:1;stroke-width:0.264583"
         id="path2807" />
      <path
         d="m 94.207134,7.3517599 q -0.403076,0 -0.649056,-0.2459796 Q 93.312099,6.8598007 93.305897,6.4897978 V 5.195821 h 0.429948 v 1.2774403 q 0,0.183968 0.134359,0.3162595 0.134358,0.1322916 0.334863,0.1322916 0.183968,0 0.318326,-0.1302245 0.136426,-0.1322916 0.136426,-0.3183266 V 5.195821 h 0.42788 v 1.2939768 q -0.0062,0.3700029 -0.250113,0.6159825 -0.24598,0.2459796 -0.630452,0.2459796 z"
         style="font-style:normal;font-variant:normal;font-weight:bold;font-stretch:normal;font-size:4.23333px;font-family:'Caviar Dreams';-inkscape-font-specification:'Caviar Dreams Bold';fill:#64f6ed;fill-opacity:1;stroke-width:0.264583"
         id="path2809" />
      <path
         d="M 95.966198,5.195821 V 4.3979375 h 0.42788 V 5.195821 h 0.382406 v 0.4278805 h -0.382406 v 1.6991196 h -0.42788 V 5.6237015 H 95.583793 V 5.195821 Z"
         style="font-style:normal;font-variant:normal;font-weight:bold;font-stretch:normal;font-size:4.23333px;font-family:'Caviar Dreams';-inkscape-font-specification:'Caviar Dreams Bold';fill:#64f6ed;fill-opacity:1;stroke-width:0.264583"
         id="path2811" />
    </g>
    <g
       aria-label="tg out"
       id="text927-1-3"
       style="font-size:6.35px;line-height:1.25;font-family:'Caviar Dreams';-inkscape-font-specification:'Caviar Dreams';display:inline;fill:#64f6ed;fill-opacity:1;stroke-width:0.264583"
       transform="translate(0,2.6458692)">
      <path
         d="m 84.608762,18.939269 v -0.797884 h 0.42788 v 0.797884 h 0.382405 v 0.42788 h -0.382405 v 1.69912 h -0.42788 v -1.69912 h -0.382406 v -0.42788 z"
         style="font-style:normal;font-variant:normal;font-weight:bold;font-stretch:normal;font-size:4.23333px;font-family:'Caviar Dreams';-inkscape-font-specification:'Caviar Dreams Bold';fill:#64f6ed;fill-opacity:1;stroke-width:0.264583"
         id="path2792" />
      <path
         d="m 87.761021,19.778493 q -0.03927,-0.19637 -0.198437,-0.355533 -0.214974,-0.217041 -0.520898,-0.217041 -0.305924,0 -0.522965,0.217041 -0.214974,0.217041 -0.214974,0.520898 0,0.305924 0.214974,0.522965 0.217041,0.214974 0.522965,0.214974 0.305924,0 0.520898,-0.214974 0.159163,-0.159163 0.198437,-0.3514 z m 0.0021,-0.692463 v -0.146761 h 0.429948 v 1.581297 q 0,0.620117 -0.33693,0.957047 -0.345198,0.303857 -0.833023,0.303857 -0.487826,0 -0.833024,-0.303857 -0.07028,-0.07028 -0.225309,-0.285254 l 0.425814,-0.152962 q 0.08268,0.09922 0.111621,0.128158 0.21704,0.214973 0.520898,0.214973 0.510562,0 0.706933,-0.669726 -0.200505,0.388607 -0.68833,0.388607 -0.487825,0 -0.833023,-0.334863 -0.343132,-0.334863 -0.343132,-0.822688 0,-0.487825 0.343132,-0.830957 0.345198,-0.345198 0.833023,-0.345198 0.411344,0 0.721402,0.318327 z"
         style="font-style:normal;font-variant:normal;font-weight:bold;font-stretch:normal;font-size:4.23333px;font-family:'Caviar Dreams';-inkscape-font-specification:'Caviar Dreams Bold';fill:#64f6ed;fill-opacity:1;stroke-width:0.264583"
         id="path2794" />
      <path
         d="m 91.337027,18.765636 q 0.487826,0 0.830957,0.345198 0.345198,0.345199 0.345198,0.833024 0,0.487825 -0.345198,0.833023 -0.343131,0.345198 -0.830957,0.345198 -0.485758,0 -0.830956,-0.345198 -0.345198,-0.345198 -0.345198,-0.833023 0,-0.487825 0.345198,-0.833024 0.345198,-0.345198 0.830956,-0.345198 z m 0,0.440283 q -0.305924,0 -0.522965,0.217041 -0.214973,0.217041 -0.214973,0.520898 0,0.305924 0.214973,0.520898 0.217041,0.214974 0.522965,0.214974 0.305925,0 0.520898,-0.214974 0.217041,-0.214974 0.217041,-0.520898 0,-0.303857 -0.217041,-0.520898 -0.214973,-0.217041 -0.520898,-0.217041 z"
         style="font-style:normal;font-variant:normal;font-weight:bold;font-stretch:normal;font-size:4.23333px;font-family:'Caviar Dreams';-inkscape-font-specification:'Caviar Dreams Bold';fill:#64f6ed;fill-opacity:1;stroke-width:0.264583"
         id="path2796" />
      <path
         d="m 93.910511,21.095208 q -0.403075,0 -0.649055,-0.24598 -0.24598,-0.24598 -0.252181,-0.615982 v -1.293977 h 0.429948 v 1.27744 q 0,0.183968 0.134358,0.31626 0.134359,0.132291 0.334863,0.132291 0.183968,0 0.318327,-0.130224 0.136426,-0.132292 0.136426,-0.318327 v -1.27744 h 0.42788 v 1.293977 q -0.0062,0.370002 -0.250114,0.615982 -0.245979,0.24598 -0.630452,0.24598 z"
         style="font-style:normal;font-variant:normal;font-weight:bold;font-stretch:normal;font-size:4.23333px;font-family:'Caviar Dreams';-inkscape-font-specification:'Caviar Dreams Bold';fill:#64f6ed;fill-opacity:1;stroke-width:0.264583"
         id="path2798" />
      <path
         d="m 95.669576,18.939269 v -0.797884 h 0.42788 v 0.797884 h 0.382405 v 0.42788 h -0.382405 v 1.69912 h -0.42788 v -1.69912 H 95.28717 v -0.42788 z"
         style="font-style:normal;font-variant:normal;font-weight:bold;font-stretch:normal;font-size:4.23333px;font-family:'Caviar Dreams';-inkscape-font-specification:'Caviar Dreams Bold';fill:#64f6ed;fill-opacity:1;stroke-width:0.264583"
         id="path2800" />
    </g>
    <g
       aria-label="P4"
       id="text2578"
       style="font-style:normal;font-variant:normal;font-weight:bold;font-stretch:normal;font-size:6.35px;line-height:1.25;font-family:'Caviar Dreams';-inkscape-font-specification:'Caviar Dreams Bold';stroke-width:0.264583;fill:#e0ede6">
      <path
         d="m 38.667333,51.910486 v 0.881945 h -0.356567 v -2.756078 h 0.782037 q 0.332452,0.04479 0.561551,0.273885 0.273885,0.275608 0.273885,0.661459 0,0.389296 -0.273885,0.664904 -0.273885,0.273885 -0.661459,0.273885 z m 0,-1.515843 v 1.157553 h 0.325562 q 0.237712,0 0.406522,-0.16881 0.170532,-0.170532 0.170532,-0.411689 0,-0.239435 -0.170532,-0.408244 -0.16881,-0.16881 -0.406522,-0.16881 z"
         style="font-style:normal;font-variant:normal;font-weight:bold;font-stretch:normal;font-size:3.52778px;font-family:'Caviar Dreams';-inkscape-font-specification:'Caviar Dreams Bold';fill:#e0ede6;fill-opacity:1;stroke-width:0.264583"
         id="path2787" />
      <path
         d="m 41.495759,50.036353 h 0.311781 v 1.655369 h 0.242879 V 52.04829 H 41.80754 v 0.744141 H 41.450972 V 52.04829 h -1.128269 z m -0.04479,0.80443 -0.508152,0.850939 h 0.508152 z"
         style="font-style:normal;font-variant:normal;font-weight:bold;font-stretch:normal;font-size:3.52778px;font-family:'Caviar Dreams';-inkscape-font-specification:'Caviar Dreams Bold';fill:#e0ede6;fill-opacity:1;stroke-width:0.264583"
         id="path2789" />
    </g>
    <g
       aria-label="P5"
       id="text2578-7"
       style="font-style:normal;font-variant:normal;font-weight:bold;font-stretch:normal;font-size:6.35px;line-height:1.25;font-family:'Caviar Dreams';-inkscape-font-specification:'Caviar Dreams Bold';display:inline;stroke-width:0.264583;fill:#e0ede6">
      <path
         d="m 59.86997,51.910486 v 0.881945 h -0.356568 v -2.756078 h 0.782038 q 0.332452,0.04479 0.561551,0.273885 0.273885,0.275608 0.273885,0.661459 0,0.389296 -0.273885,0.664904 -0.273886,0.273885 -0.661459,0.273885 z m 0,-1.515843 v 1.157553 h 0.325562 q 0.237712,0 0.406521,-0.16881 0.170533,-0.170532 0.170533,-0.411689 0,-0.239435 -0.170533,-0.408244 -0.168809,-0.16881 -0.406521,-0.16881 z"
         style="font-style:normal;font-variant:normal;font-weight:bold;font-stretch:normal;font-size:3.52778px;font-family:'Caviar Dreams';-inkscape-font-specification:'Caviar Dreams Bold';fill:#e0ede6;fill-opacity:1;stroke-width:0.264583"
         id="path2782" />
      <path
         d="m 62.002486,50.780494 q 0.09646,-0.02067 0.201538,-0.02067 0.192925,0 0.370348,0.06201 0.397909,0.136081 0.592557,0.502984 0.122301,0.227377 0.122301,0.468534 0,0.149861 -0.04651,0.299723 -0.122301,0.399631 -0.489204,0.597724 -0.223932,0.118856 -0.463366,0.118856 -0.151584,0 -0.306613,-0.04823 -0.320395,-0.09819 -0.554661,-0.416857 l 0.251492,-0.279053 q 0.191203,0.282498 0.409967,0.347955 0.09991,0.03101 0.194648,0.03101 0.151584,0 0.296278,-0.07579 0.235989,-0.125746 0.313504,-0.382406 0.03101,-0.09819 0.03101,-0.194648 0,-0.149862 -0.07752,-0.296278 -0.127469,-0.237712 -0.385851,-0.327285 -0.111966,-0.03962 -0.248047,-0.03962 -0.184313,0 -0.471978,0.09129 l -0.215319,-0.187758 0.310059,-0.856107 v -0.139526 h 1.009413 v 0.356567 h -0.707967 z"
         style="font-style:normal;font-variant:normal;font-weight:bold;font-stretch:normal;font-size:3.52778px;font-family:'Caviar Dreams';-inkscape-font-specification:'Caviar Dreams Bold';fill:#e0ede6;fill-opacity:1;stroke-width:0.264583"
         id="path2784" />
    </g>
    <g
       aria-label="m7"
       id="text2578-5"
       style="font-style:normal;font-variant:normal;font-weight:bold;font-stretch:normal;font-size:6.35px;line-height:1.25;font-family:'Caviar Dreams';-inkscape-font-specification:'Caviar Dreams Bold';display:inline;stroke-width:0.264583;fill:#e0ede6">
      <path
         d="m 28.618347,59.209889 h 0.356567 v 0.165364 q 0.103353,-0.260105 0.397909,-0.260105 0.292833,0 0.329007,0.296279 0.08441,-0.296279 0.465088,-0.296279 0.375516,0 0.375516,0.456476 v 1.410767 h -0.35829 v -1.247125 q 0,-0.261827 -0.211874,-0.261827 -0.08785,0 -0.151584,0.06201 -0.06373,0.06201 -0.06373,0.416857 v 1.030084 h -0.356567 l 0.0017,-1.247125 q 0,-0.261827 -0.213596,-0.261827 -0.08785,0 -0.151584,0.06201 -0.05512,0.0534 -0.06201,0.282498 v 1.164443 h -0.356567 z"
         style="font-style:normal;font-variant:normal;font-weight:bold;font-stretch:normal;font-size:3.52778px;font-family:'Caviar Dreams';-inkscape-font-specification:'Caviar Dreams Bold';fill:#e0ede6;fill-opacity:1;stroke-width:0.264583"
         id="path2777" />
      <path
         d="m 32.78347,58.226313 q -0.01206,0.561551 -0.440973,1.042142 -0.427192,0.478869 -0.661458,0.811321 -0.234267,0.332452 -0.251493,0.902615 h -0.363457 q 0.02067,-0.704522 0.285943,-1.07487 0.265272,-0.372071 0.632175,-0.782037 0.366903,-0.411689 0.394464,-0.542603 h -1.309137 v -0.356568 z"
         style="font-style:normal;font-variant:normal;font-weight:bold;font-stretch:normal;font-size:3.52778px;font-family:'Caviar Dreams';-inkscape-font-specification:'Caviar Dreams Bold';fill:#e0ede6;fill-opacity:1;stroke-width:0.264583"
         id="path2779" />
    </g>
    <g
       aria-label="M2"
       id="text2578-8"
       style="font-style:normal;font-variant:normal;font-weight:bold;font-stretch:normal;font-size:6.35px;line-height:1.25;font-family:'Caviar Dreams';-inkscape-font-specification:'Caviar Dreams Bold';display:inline;stroke-width:0.264583;fill:#e0ede6">
      <path
         d="m 68.537474,58.226313 0.894003,1.545127 0.890558,-1.545127 h 0.325562 v 2.756078 h -0.356568 v -1.991266 l -0.859552,1.488282 -0.862997,-1.488282 v 1.991266 h -0.356567 v -2.756078 z"
         style="font-style:normal;font-variant:normal;font-weight:bold;font-stretch:normal;font-size:3.52778px;font-family:'Caviar Dreams';-inkscape-font-specification:'Caviar Dreams Bold';fill:#e0ede6;fill-opacity:1;stroke-width:0.264583"
         id="path2772" />
      <path
         d="m 71.253934,60.982391 q 0.09646,-0.659736 0.377238,-0.868164 0.280776,-0.210151 0.478869,-0.35829 0.198093,-0.14814 0.353122,-0.318672 0.156752,-0.170532 0.156752,-0.378961 0,-0.208428 -0.148139,-0.354845 -0.146417,-0.146416 -0.354845,-0.146416 -0.204983,0 -0.353123,0.146416 -0.125746,0.125746 -0.156752,0.434083 L 71.250489,59.00835 q 0.05512,-0.35829 0.25666,-0.561551 0.253214,-0.254937 0.609782,-0.254937 0.360013,0 0.611505,0.253215 0.253214,0.253215 0.253214,0.613227 0,0.354845 -0.244602,0.618395 -0.155029,0.167088 -0.361735,0.322117 -0.204983,0.153307 -0.456475,0.342787 -0.220487,0.163642 -0.246325,0.282498 h 1.309137 v 0.35829 z"
         style="font-style:normal;font-variant:normal;font-weight:bold;font-stretch:normal;font-size:3.52778px;font-family:'Caviar Dreams';-inkscape-font-specification:'Caviar Dreams Bold';fill:#e0ede6;fill-opacity:1;stroke-width:0.264583"
         id="path2774" />
    </g>
    <g
       aria-label="m3"
       id="text2578-9"
       style="font-style:normal;font-variant:normal;font-weight:bold;font-stretch:normal;font-size:6.35px;line-height:1.25;font-family:'Caviar Dreams';-inkscape-font-specification:'Caviar Dreams Bold';display:inline;stroke-width:0.264583;fill:#e0ede6">
      <path
         d="m 25.372715,71.793682 h 0.356567 v 0.165365 q 0.103353,-0.260105 0.397909,-0.260105 0.292833,0 0.329007,0.296278 0.08441,-0.296278 0.465088,-0.296278 0.375516,0 0.375516,0.456475 v 1.410768 H 26.938511 V 72.31906 q 0,-0.261828 -0.211873,-0.261828 -0.08785,0 -0.151584,0.06201 -0.06374,0.06201 -0.06374,0.416857 v 1.030084 h -0.356567 l 0.0017,-1.247125 q 0,-0.261828 -0.213596,-0.261828 -0.08785,0 -0.151584,0.06201 -0.05512,0.0534 -0.06201,0.282498 v 1.164443 H 25.37269 Z"
         style="font-style:normal;font-variant:normal;font-weight:bold;font-stretch:normal;font-size:3.52778px;font-family:'Caviar Dreams';-inkscape-font-specification:'Caviar Dreams Bold';fill:#e0ede6;fill-opacity:1;stroke-width:0.264583"
         id="path2767" />
      <path
         d="m 28.588713,72.146805 -0.215318,-0.0052 v -0.353122 q 0.234266,-0.0034 0.308336,-0.03101 0.07407,-0.02928 0.161919,-0.122301 0.08785,-0.09302 0.08785,-0.213596 0,-0.118856 -0.08268,-0.199816 -0.08268,-0.08268 -0.201538,-0.08268 -0.117133,0 -0.199816,0.08096 -0.04651,0.04823 -0.106798,0.210151 l -0.332452,-0.130913 q 0.07407,-0.232544 0.180868,-0.334175 0.191203,-0.18948 0.458198,-0.18948 0.272163,0 0.461643,0.191203 0.18948,0.191203 0.18948,0.454753 0,0.268717 -0.318671,0.518487 0.153307,0.01033 0.322116,0.173977 0.246325,0.265273 0.246325,0.620118 0,0.35829 -0.253215,0.613227 -0.251492,0.253215 -0.611505,0.253215 -0.356567,0 -0.609782,-0.254937 -0.201538,-0.203261 -0.25666,-0.563274 l 0.356568,-0.129191 q 0.03101,0.310059 0.156752,0.435805 0.148139,0.146417 0.353122,0.146417 0.208429,0 0.354845,-0.146417 0.14814,-0.146417 0.14814,-0.354845 0,-0.210151 -0.14814,-0.370348 -0.146416,-0.160197 -0.449585,-0.217041 z"
         style="font-style:normal;font-variant:normal;font-weight:bold;font-stretch:normal;font-size:3.52778px;font-family:'Caviar Dreams';-inkscape-font-specification:'Caviar Dreams Bold';fill:#e0ede6;fill-opacity:1;stroke-width:0.264583"
         id="path2769" />
    </g>
    <g
       aria-label="M6"
       id="text2578-84"
       style="font-style:normal;font-variant:normal;font-weight:bold;font-stretch:normal;font-size:6.35px;line-height:1.25;font-family:'Caviar Dreams';-inkscape-font-specification:'Caviar Dreams Bold';display:inline;stroke-width:0.264583;fill:#e0ede6">
      <path
         d="m 71.678031,70.810107 0.894003,1.545126 0.890557,-1.545126 h 0.325562 v 2.756078 h -0.356568 v -1.991266 l -0.859551,1.488282 -0.862997,-1.488282 v 1.991266 h -0.356568 v -2.756078 z"
         style="font-style:normal;font-variant:normal;font-weight:bold;font-stretch:normal;font-size:3.52778px;font-family:'Caviar Dreams';-inkscape-font-specification:'Caviar Dreams Bold';fill:#e0ede6;fill-opacity:1;stroke-width:0.264583"
         id="path2762" />
      <path
         d="m 74.633924,72.630841 q 0,0.254937 0.179146,0.434082 0.180867,0.179145 0.435804,0.179145 0.253215,0 0.43236,-0.179145 0.180868,-0.179145 0.180868,-0.434082 0,-0.254937 -0.180868,-0.434082 -0.179145,-0.179145 -0.43236,-0.179145 -0.254937,0 -0.435804,0.179145 -0.179146,0.179145 -0.179146,0.434082 z m 0.206706,-0.764812 q 0.153307,-0.165364 0.508152,-0.165364 0.356568,0 0.592557,0.235989 0.285943,0.287665 0.285943,0.694187 0,0.404799 -0.285943,0.692465 -0.285943,0.285943 -0.692465,0.285943 -0.404799,0 -0.692464,-0.285943 -0.275608,-0.277331 -0.277331,-0.76998 v -0.0052 q 0,-0.487482 0.26355,-0.85783 0.265273,-0.37207 0.716581,-0.880222 h 0.468533 q -0.625285,0.647678 -0.887113,1.055922 z"
         style="font-style:normal;font-variant:normal;font-weight:bold;font-stretch:normal;font-size:3.52778px;font-family:'Caviar Dreams';-inkscape-font-specification:'Caviar Dreams Bold';fill:#e0ede6;fill-opacity:1;stroke-width:0.264583"
         id="path2764" />
    </g>
    <g
       aria-label="m6"
       id="text2578-0"
       style="font-style:normal;font-variant:normal;font-weight:bold;font-stretch:normal;font-size:6.35px;line-height:1.25;font-family:'Caviar Dreams';-inkscape-font-specification:'Caviar Dreams Bold';display:inline;stroke-width:0.264583;fill:#e0ede6"
       transform="translate(0,-0.52916667)">
      <path
         d="m 28.618347,84.614643 h 0.356567 v 0.165365 q 0.103353,-0.260105 0.397909,-0.260105 0.292833,0 0.329007,0.296278 0.08441,-0.296278 0.465088,-0.296278 0.375516,0 0.375516,0.456475 v 1.410768 h -0.35829 v -1.247125 q 0,-0.261828 -0.211874,-0.261828 -0.08785,0 -0.151584,0.06201 -0.06373,0.06201 -0.06373,0.416857 v 1.030084 h -0.356567 l 0.0017,-1.247125 q 0,-0.261828 -0.213596,-0.261828 -0.08785,0 -0.151584,0.06201 -0.05512,0.0534 -0.06201,0.282498 v 1.164443 h -0.356567 z"
         style="font-style:normal;font-variant:normal;font-weight:bold;font-stretch:normal;font-size:3.52778px;font-family:'Caviar Dreams';-inkscape-font-specification:'Caviar Dreams Bold';fill:#e0ede6;fill-opacity:1;stroke-width:0.264583"
         id="path2757" />
      <path
         d="m 31.305523,85.451802 q 0,0.254937 0.179145,0.434082 0.180868,0.179145 0.435805,0.179145 0.253215,0 0.43236,-0.179145 0.180867,-0.179145 0.180867,-0.434082 0,-0.254937 -0.180867,-0.434082 -0.179145,-0.179145 -0.43236,-0.179145 -0.254937,0 -0.435805,0.179145 -0.179145,0.179145 -0.179145,0.434082 z m 0.206706,-0.764812 q 0.153307,-0.165364 0.508152,-0.165364 0.356567,0 0.592556,0.235989 0.285944,0.287665 0.285944,0.694187 0,0.404799 -0.285944,0.692465 -0.285943,0.285943 -0.692464,0.285943 -0.404799,0 -0.692465,-0.285943 -0.275608,-0.277331 -0.27733,-0.76998 v -0.0052 q 0,-0.487482 0.26355,-0.85783 0.265272,-0.37207 0.71658,-0.880222 h 0.468533 q -0.625285,0.647678 -0.887112,1.055922 z"
         style="font-style:normal;font-variant:normal;font-weight:bold;font-stretch:normal;font-size:3.52778px;font-family:'Caviar Dreams';-inkscape-font-specification:'Caviar Dreams Bold';fill:#e0ede6;fill-opacity:1;stroke-width:0.264583"
         id="path2759" />
    </g>
    <g
       aria-label="M3"
       id="text2578-53"
       style="font-style:normal;font-variant:normal;font-weight:bold;font-stretch:normal;font-size:6.35px;line-height:1.25;font-family:'Caviar Dreams';-inkscape-font-specification:'Caviar Dreams Bold';display:inline;stroke-width:0.264583;fill:#e0ede6"
       transform="translate(0,-0.52916667)">
      <path
         d="m 68.537474,83.631068 0.894003,1.545126 0.890558,-1.545126 h 0.325562 v 2.756078 H 70.291029 V 84.39588 L 69.431477,85.884162 68.56848,84.39588 v 1.991266 h -0.356567 v -2.756078 z"
         style="font-style:normal;font-variant:normal;font-weight:bold;font-stretch:normal;font-size:3.52778px;font-family:'Caviar Dreams';-inkscape-font-specification:'Caviar Dreams Bold';fill:#e0ede6;fill-opacity:1;stroke-width:0.264583"
         id="path2752" />
      <path
         d="m 72.022191,84.967766 -0.215319,-0.0052 v -0.353122 q 0.234267,-0.0034 0.308336,-0.03101 0.07407,-0.02928 0.16192,-0.122301 0.08785,-0.09302 0.08785,-0.213596 0,-0.118856 -0.08268,-0.199816 -0.08268,-0.08268 -0.201539,-0.08268 -0.117133,0 -0.199815,0.08096 -0.04651,0.04823 -0.106798,0.210151 l -0.332452,-0.130913 q 0.07407,-0.232544 0.180867,-0.334175 0.191203,-0.18948 0.458198,-0.18948 0.272163,0 0.461643,0.191203 0.189481,0.191203 0.189481,0.454753 0,0.268717 -0.318672,0.518487 0.153307,0.01033 0.322117,0.173977 0.246324,0.265273 0.246324,0.620118 0,0.35829 -0.253214,0.613227 -0.251492,0.253215 -0.611505,0.253215 -0.356568,0 -0.609782,-0.254937 -0.201539,-0.203261 -0.25666,-0.563274 l 0.356567,-0.129191 q 0.03101,0.310059 0.156752,0.435805 0.14814,0.146417 0.353123,0.146417 0.208428,0 0.354845,-0.146417 0.148139,-0.146417 0.148139,-0.354845 0,-0.210151 -0.148139,-0.370348 -0.146417,-0.160197 -0.449585,-0.217041 z"
         style="font-style:normal;font-variant:normal;font-weight:bold;font-stretch:normal;font-size:3.52778px;font-family:'Caviar Dreams';-inkscape-font-specification:'Caviar Dreams Bold';fill:#e0ede6;fill-opacity:1;stroke-width:0.264583"
         id="path2754" />
    </g>
    <g
       aria-label="m2"
       id="text2578-2"
       style="font-style:normal;font-variant:normal;font-weight:bold;font-stretch:normal;font-size:6.35px;line-height:1.25;font-family:'Caviar Dreams';-inkscape-font-specification:'Caviar Dreams Bold';display:inline;stroke-width:0.264583;fill:#e0ede6"
       transform="translate(0,-0.52916667)">
      <path
         d="m 38.032484,93.610119 h 0.356567 v 0.165365 q 0.103353,-0.260105 0.397909,-0.260105 0.292833,0 0.329007,0.296278 0.08441,-0.296278 0.465088,-0.296278 0.375516,0 0.375516,0.456475 v 1.410768 H 39.59828 v -1.247126 q 0,-0.261827 -0.211873,-0.261827 -0.08785,0 -0.151584,0.06201 -0.06374,0.06201 -0.06374,0.416857 v 1.030084 h -0.356567 l 0.0017,-1.247126 q 0,-0.261827 -0.213596,-0.261827 -0.08785,0 -0.151584,0.06201 -0.05512,0.0534 -0.06201,0.282498 v 1.164443 h -0.356567 z"
         style="font-style:normal;font-variant:normal;font-weight:bold;font-stretch:normal;font-size:3.52778px;font-family:'Caviar Dreams';-inkscape-font-specification:'Caviar Dreams Bold';fill:#e0ede6;fill-opacity:1;stroke-width:0.264583"
         id="path2747" />
      <path
         d="m 40.480225,95.382622 q 0.09646,-0.659736 0.377239,-0.868165 0.280775,-0.210151 0.478868,-0.35829 0.198093,-0.148139 0.353123,-0.318672 0.156752,-0.170532 0.156752,-0.37896 0,-0.208429 -0.148139,-0.354845 -0.146417,-0.146417 -0.354846,-0.146417 -0.204983,0 -0.353122,0.146417 -0.125746,0.125746 -0.156752,0.434082 L 40.47678,93.408581 q 0.05512,-0.35829 0.25666,-0.561551 0.253215,-0.254937 0.609782,-0.254937 0.360013,0 0.611505,0.253214 0.253215,0.253215 0.253215,0.613228 0,0.354845 -0.244602,0.618395 -0.155029,0.167087 -0.361735,0.322116 -0.204984,0.153307 -0.456476,0.342788 -0.220486,0.163642 -0.246324,0.282498 h 1.309137 v 0.35829 z"
         style="font-style:normal;font-variant:normal;font-weight:bold;font-stretch:normal;font-size:3.52778px;font-family:'Caviar Dreams';-inkscape-font-specification:'Caviar Dreams Bold';fill:#e0ede6;fill-opacity:1;stroke-width:0.264583"
         id="path2749" />
    </g>
    <g
       aria-label="M7"
       id="text2578-1"
       style="font-style:normal;font-variant:normal;font-weight:bold;font-stretch:normal;font-size:6.35px;line-height:1.25;font-family:'Caviar Dreams';-inkscape-font-specification:'Caviar Dreams Bold';display:inline;stroke-width:0.264583;fill:#e0ede6"
       transform="translate(0,-0.52916667)">
      <path
         d="m 59.133677,92.626544 0.894003,1.545126 0.890558,-1.545126 H 61.2438 v 2.756078 h -0.356568 v -1.991267 l -0.859552,1.488282 -0.862997,-1.488282 v 1.991267 h -0.356568 v -2.756078 z"
         style="font-style:normal;font-variant:normal;font-weight:bold;font-stretch:normal;font-size:3.52778px;font-family:'Caviar Dreams';-inkscape-font-specification:'Caviar Dreams Bold';fill:#e0ede6;fill-opacity:1;stroke-width:0.264583"
         id="path2742" />
      <path
         d="m 63.567518,92.626544 q -0.01206,0.561551 -0.440973,1.042142 -0.427192,0.478868 -0.661458,0.81132 -0.234267,0.332452 -0.251493,0.902616 h -0.363457 q 0.02067,-0.704523 0.285943,-1.074871 0.265272,-0.37207 0.632175,-0.782037 0.366903,-0.411689 0.394464,-0.542603 h -1.309137 v -0.356567 z"
         style="font-style:normal;font-variant:normal;font-weight:bold;font-stretch:normal;font-size:3.52778px;font-family:'Caviar Dreams';-inkscape-font-specification:'Caviar Dreams Bold';fill:#e0ede6;fill-opacity:1;stroke-width:0.264583"
         id="path2744" />
    </g>
    <g
       aria-label="TT"
       id="text2578-16"
       style="font-style:normal;font-variant:normal;font-weight:bold;font-stretch:normal;font-size:6.35px;line-height:1.25;font-family:'Caviar Dreams';-inkscape-font-specification:'Caviar Dreams Bold';display:inline;stroke-width:0.264583;fill:#e0ede6"
       transform="translate(0,-0.52916667)">
      <path
         d="m 50.071361,95.726146 v 2.39951 H 49.71307 v -2.39951 h -0.64251 v -0.356568 h 1.643311 v 0.356568 z"
         style="font-style:normal;font-variant:normal;font-weight:bold;font-stretch:normal;font-size:3.52778px;font-family:'Caviar Dreams';-inkscape-font-specification:'Caviar Dreams Bold';fill:#e0ede6;fill-opacity:1;stroke-width:0.264583"
         id="path2737" />
      <path
         d="m 51.886927,95.726146 v 2.39951 h -0.35829 v -2.39951 h -0.642511 v -0.356568 h 1.643312 v 0.356568 z"
         style="font-style:normal;font-variant:normal;font-weight:bold;font-stretch:normal;font-size:3.52778px;font-family:'Caviar Dreams';-inkscape-font-specification:'Caviar Dreams Bold';fill:#e0ede6;fill-opacity:1;stroke-width:0.264583"
         id="path2739" />
    </g>
    <g
       aria-label="root"
       id="text1009"
       style="font-size:4.23333px;line-height:1.25;font-family:'Caviar Dreams';-inkscape-font-specification:'Caviar Dreams';stroke-width:0.264583;fill:#e0ede6">
      <path
         d="m 47.273602,77.75726 q 0.239779,-0.324528 0.589111,-0.341065 v 0.444417 q -0.233577,0.0124 -0.37207,0.150895 -0.208772,0.206706 -0.217041,0.49196 v 1.093472 h -0.42788 v -2.127 h 0.42788 z"
         style="font-style:normal;font-variant:normal;font-weight:bold;font-stretch:normal;font-size:4.23333px;font-family:'Caviar Dreams';-inkscape-font-specification:'Caviar Dreams Bold';fill:#e0ede6;fill-opacity:1;stroke-width:0.264583"
         id="path1011" />
      <path
         d="m 49.288982,77.296306 q 0.487825,0 0.830956,0.345199 0.345198,0.345198 0.345198,0.833023 0,0.487825 -0.345198,0.833023 -0.343131,0.345199 -0.830956,0.345199 -0.485758,0 -0.830957,-0.345199 -0.345198,-0.345198 -0.345198,-0.833023 0,-0.487825 0.345198,-0.833023 0.345199,-0.345199 0.830957,-0.345199 z m 0,0.440283 q -0.305925,0 -0.522965,0.217041 -0.214974,0.217041 -0.214974,0.520898 0,0.305924 0.214974,0.520898 0.21704,0.214974 0.522965,0.214974 0.305924,0 0.520898,-0.214974 0.21704,-0.214974 0.21704,-0.520898 0,-0.303857 -0.21704,-0.520898 -0.214974,-0.217041 -0.520898,-0.217041 z"
         style="font-style:normal;font-variant:normal;font-weight:bold;font-stretch:normal;font-size:4.23333px;font-family:'Caviar Dreams';-inkscape-font-specification:'Caviar Dreams Bold';fill:#e0ede6;fill-opacity:1;stroke-width:0.264583"
         id="path1013" />
      <path
         d="m 52.013361,77.296306 q 0.487825,0 0.830956,0.345199 0.345198,0.345198 0.345198,0.833023 0,0.487825 -0.345198,0.833023 -0.343131,0.345199 -0.830956,0.345199 -0.485758,0 -0.830957,-0.345199 -0.345198,-0.345198 -0.345198,-0.833023 0,-0.487825 0.345198,-0.833023 0.345199,-0.345199 0.830957,-0.345199 z m 0,0.440283 q -0.305924,0 -0.522965,0.217041 -0.214974,0.217041 -0.214974,0.520898 0,0.305924 0.214974,0.520898 0.217041,0.214974 0.522965,0.214974 0.305924,0 0.520898,-0.214974 0.217041,-0.214974 0.217041,-0.520898 0,-0.303857 -0.217041,-0.520898 -0.214974,-0.217041 -0.520898,-0.217041 z"
         style="font-style:normal;font-variant:normal;font-weight:bold;font-stretch:normal;font-size:4.23333px;font-family:'Caviar Dreams';-inkscape-font-specification:'Caviar Dreams Bold';fill:#e0ede6;fill-opacity:1;stroke-width:0.264583"
         id="path1015" />
      <path
         d="m 53.943991,77.469939 v -0.797884 h 0.42788 v 0.797884 h 0.382405 v 0.42788 h -0.382405 v 1.69912 h -0.42788 v -1.69912 h -0.382406 v -0.42788 z"
         style="font-style:normal;font-variant:normal;font-weight:bold;font-stretch:normal;font-size:4.23333px;font-family:'Caviar Dreams';-inkscape-font-specification:'Caviar Dreams Bold';fill:#e0ede6;fill-opacity:1;stroke-width:0.264583"
         id="path1017" />
    </g>
    <g
       aria-label="mode"
       id="text1037"
       style="font-style:normal;font-variant:normal;font-weight:bold;font-stretch:normal;font-size:4.23333px;line-height:1.25;font-family:'Caviar Dreams';-inkscape-font-specification:'Caviar Dreams Bold';fill:#64f6ed;fill-opacity:1;stroke-width:0.264583">
      <path
         d="m 45.468029,5.195821 h 0.42788 v 0.1984373 q 0.124024,-0.3121254 0.47749,-0.3121254 0.3514,0 0.394808,0.3555336 0.101285,-0.3555336 0.558105,-0.3555336 0.450618,0 0.450618,0.5477697 V 7.3228211 H 47.346982 V 5.8262729 q 0,-0.3141924 -0.254248,-0.3141924 -0.105419,0 -0.1819,0.074414 -0.07648,0.074414 -0.07648,0.5002274 v 1.2360992 h -0.42788 l 0.0021,-1.4965482 q 0,-0.3141924 -0.256315,-0.3141924 -0.10542,0 -0.181901,0.074414 -0.06615,0.064079 -0.07441,0.3389971 v 1.3973295 h -0.42788 z"
         style="font-style:normal;font-variant:normal;font-weight:bold;font-stretch:normal;font-size:4.23333px;font-family:'Caviar Dreams';-inkscape-font-specification:'Caviar Dreams Bold';fill:#64f6ed;fill-opacity:1;stroke-width:0.264583"
         id="path1079" />
      <path
         d="m 49.451245,5.0221883 q 0.487825,0 0.830956,0.3451983 0.345199,0.3451983 0.345199,0.8330234 0,0.4878251 -0.345199,0.8330234 -0.343131,0.3451982 -0.830956,0.3451982 -0.485758,0 -0.830956,-0.3451982 Q 48.27509,6.6882351 48.27509,6.20041 q 0,-0.4878251 0.345199,-0.8330234 0.345198,-0.3451983 0.830956,-0.3451983 z m 0,0.4402828 q -0.305924,0 -0.522965,0.2170409 -0.214974,0.2170408 -0.214974,0.520898 0,0.3059242 0.214974,0.520898 0.217041,0.2149738 0.522965,0.2149738 0.305924,0 0.520898,-0.2149738 0.217041,-0.2149738 0.217041,-0.520898 0,-0.3038572 -0.217041,-0.520898 -0.214974,-0.2170409 -0.520898,-0.2170409 z"
         style="font-style:normal;font-variant:normal;font-weight:bold;font-stretch:normal;font-size:4.23333px;font-family:'Caviar Dreams';-inkscape-font-specification:'Caviar Dreams Bold';fill:#64f6ed;fill-opacity:1;stroke-width:0.264583"
         id="path1081" />
      <path
         d="M 52.969374,6.3595733 V 6.0433138 Q 52.932167,5.8428094 52.768869,5.679512 52.553895,5.4624711 52.247971,5.4624711 q -0.305924,0 -0.522965,0.2170409 -0.214974,0.2170408 -0.214974,0.520898 0,0.3059242 0.214974,0.520898 0.217041,0.2149738 0.522965,0.2149738 0.305924,0 0.520898,-0.2149738 0.163298,-0.1632974 0.200505,-0.3617347 z m 0,-1.0169914 V 4.0155323 h 0.429947 V 7.3228211 H 52.969374 V 7.058238 q -0.310059,0.3203936 -0.721403,0.3203936 -0.487825,0 -0.833023,-0.3451982 -0.343131,-0.3451983 -0.343131,-0.8330234 0,-0.4878251 0.343131,-0.8330234 0.345198,-0.3451983 0.833023,-0.3451983 0.411344,0 0.721403,0.3203936 z"
         style="font-style:normal;font-variant:normal;font-weight:bold;font-stretch:normal;font-size:4.23333px;font-family:'Caviar Dreams';-inkscape-font-specification:'Caviar Dreams Bold';fill:#64f6ed;fill-opacity:1;stroke-width:0.264583"
         id="path1083" />
      <path
         d="m 54.680895,6.8411972 q 0.107487,0.095085 0.390674,0.095085 0.305924,0 0.522965,-0.2149738 0.02687,-0.028939 0.109554,-0.1281575 l 0.42788,0.1529621 q -0.157096,0.2170409 -0.227376,0.2873208 -0.345198,0.3451982 -0.833023,0.3451982 -0.485758,0 -0.830957,-0.3451982 -0.345198,-0.3451983 -0.345198,-0.8330234 0,-0.4878251 0.345198,-0.8330234 0.345199,-0.3451983 0.830957,-0.3451983 0.417545,0 0.731737,0.2521808 0.05168,0.043408 0.101286,0.093017 0.02067,0.020671 0.117822,0.1302245 l -0.214973,0.2170408 z m 0.715202,-1.3229156 q -0.07235,-0.05581 -0.324528,-0.05581 -0.303857,0 -0.520898,0.2170409 -0.214974,0.2149738 -0.214974,0.520898 0,0.2501137 0.05581,0.3245277 z"
         style="font-style:normal;font-variant:normal;font-weight:bold;font-stretch:normal;font-size:4.23333px;font-family:'Caviar Dreams';-inkscape-font-specification:'Caviar Dreams Bold';fill:#64f6ed;fill-opacity:1;stroke-width:0.264583"
         id="path1085" />
    </g>
    <g
       aria-label="quant + sh"
       id="text1041"
       style="font-size:2.11667px;line-height:1.25;font-family:'Caviar Dreams';-inkscape-font-specification:'Caviar Dreams';fill:#e0ede6;fill-opacity:1;stroke-width:0.264583"
       transform="translate(-3.501068,0.483996)">
      <path
         d="m 51.2811,19.103027 v -0.15813 q -0.0186,-0.100253 -0.100253,-0.181902 -0.107487,-0.10852 -0.26045,-0.10852 -0.152962,0 -0.261483,0.10852 -0.107487,0.108521 -0.107487,0.26045 0,0.152963 0.107487,0.261483 0.108521,0.107487 0.261483,0.107487 0.152963,0 0.26045,-0.107487 0.08165,-0.08165 0.100253,-0.181901 z m 0,-0.508497 v -0.07338 h 0.214974 v 1.421104 H 51.2811 V 19.45236 q -0.15503,0.160197 -0.360703,0.160197 -0.243913,0 -0.416512,-0.172599 -0.171566,-0.1726 -0.171566,-0.416513 0,-0.243913 0.171566,-0.415479 0.172599,-0.1726 0.416512,-0.1726 0.205673,0 0.360703,0.159164 z"
         style="font-style:normal;font-variant:normal;font-weight:bold;font-stretch:normal;font-size:2.11667px;font-family:'Caviar Dreams';-inkscape-font-specification:'Caviar Dreams Bold';fill:#e0ede6;fill-opacity:1;stroke-width:0.264583"
         id="path1088" />
      <path
         d="m 52.256752,19.599121 q -0.201538,0 -0.324528,-0.12299 -0.12299,-0.12299 -0.126091,-0.307992 v -0.64699 h 0.214974 v 0.638722 q 0,0.09198 0.06718,0.15813 0.06718,0.06615 0.167432,0.06615 0.09198,0 0.159163,-0.06511 0.06821,-0.06615 0.06821,-0.159164 v -0.638722 h 0.213941 v 0.64699 q -0.0031,0.185002 -0.125057,0.307992 -0.12299,0.12299 -0.315227,0.12299 z"
         style="font-style:normal;font-variant:normal;font-weight:bold;font-stretch:normal;font-size:2.11667px;font-family:'Caviar Dreams';-inkscape-font-specification:'Caviar Dreams Bold';fill:#e0ede6;fill-opacity:1;stroke-width:0.264583"
         id="path1090" />
      <path
         d="M 53.929004,19.103027 V 18.94593 q -0.0186,-0.100252 -0.09922,-0.181901 -0.108521,-0.107487 -0.260449,-0.107487 -0.152963,0 -0.261484,0.107487 -0.107487,0.107487 -0.107487,0.26045 0,0.151929 0.107487,0.260449 0.108521,0.107487 0.261484,0.107487 0.151928,0 0.260449,-0.107487 0.08062,-0.08165 0.09922,-0.181901 z m 0,-0.507463 v -0.07441 h 0.214974 v 1.064536 h -0.214974 v -0.13333 q -0.155029,0.160197 -0.359668,0.160197 -0.243914,0 -0.416513,-0.171566 -0.171566,-0.172599 -0.171566,-0.416512 0,-0.243914 0.171566,-0.41548 0.172599,-0.172599 0.416513,-0.172599 0.204639,0 0.359668,0.159164 z"
         style="font-style:normal;font-variant:normal;font-weight:bold;font-stretch:normal;font-size:2.11667px;font-family:'Caviar Dreams';-inkscape-font-specification:'Caviar Dreams Bold';fill:#e0ede6;fill-opacity:1;stroke-width:0.264583"
         id="path1092" />
      <path
         d="m 54.670045,18.806404 v 0.778248 h -0.214974 v -1.063503 h 0.214974 v 0.124024 q 0.06718,-0.181901 0.269751,-0.181901 0.1726,0 0.273886,0.12299 0.102319,0.121956 0.10542,0.306958 v 0.691432 h -0.213941 v -0.683164 q 0,-0.09198 -0.06718,-0.157096 -0.06718,-0.06615 -0.160197,-0.06615 -0.09199,0 -0.159164,0.06408 -0.03721,0.03824 -0.04858,0.06408 z"
         style="font-style:normal;font-variant:normal;font-weight:bold;font-stretch:normal;font-size:2.11667px;font-family:'Caviar Dreams';-inkscape-font-specification:'Caviar Dreams Bold';fill:#e0ede6;fill-opacity:1;stroke-width:0.264583"
         id="path1094" />
      <path
         d="m 55.761453,18.521149 v -0.398942 h 0.213941 v 0.398942 h 0.191203 v 0.213941 h -0.191203 v 0.849562 H 55.761453 V 18.73509 H 55.57025 v -0.213941 z"
         style="font-style:normal;font-variant:normal;font-weight:bold;font-stretch:normal;font-size:2.11667px;font-family:'Caviar Dreams';-inkscape-font-specification:'Caviar Dreams Bold';fill:#e0ede6;fill-opacity:1;stroke-width:0.264583"
         id="path1096" />
      <path
         d="m 57.459543,19.062719 h -0.337964 v -0.213941 h 0.337964 v -0.337964 h 0.214975 v 0.337964 h 0.337964 v 0.213941 h -0.337964 v 0.338998 h -0.214975 z"
         style="font-style:normal;font-variant:normal;font-weight:bold;font-stretch:normal;font-size:2.11667px;font-family:'Caviar Dreams';-inkscape-font-specification:'Caviar Dreams Bold';fill:#e0ede6;fill-opacity:1;stroke-width:0.264583"
         id="path1098" />
      <path
         d="m 59.214477,19.289062 q 0.0093,0.04754 0.02894,0.06718 0.03824,0.03721 0.09095,0.03721 0.05271,0 0.08992,-0.03721 0.03824,-0.03721 0.03824,-0.09198 0,-0.05271 -0.03721,-0.08992 -0.02584,-0.02584 -0.110587,-0.07958 -0.115756,-0.06305 -0.164332,-0.111622 -0.08475,-0.08475 -0.08475,-0.203605 0,-0.11989 0.08475,-0.204639 0.08475,-0.08578 0.204639,-0.08578 0.11989,0 0.199472,0.08061 0.05684,0.05684 0.07235,0.127124 l -0.20774,0.05994 q -0.0072,-0.02584 -0.01447,-0.03411 -0.0186,-0.0186 -0.04961,-0.0186 -0.03101,0 -0.05374,0.02274 -0.0217,0.0217 -0.0217,0.05271 0,0.03101 0.0217,0.05271 0.01964,0.0186 0.08888,0.06304 0.128158,0.07028 0.186036,0.128158 0.100252,0.101286 0.100252,0.240813 0,0.142627 -0.100252,0.243913 -0.09922,0.100252 -0.241846,0.100252 -0.141594,0 -0.241846,-0.101286 -0.06925,-0.06925 -0.09095,-0.172599 z"
         style="font-style:normal;font-variant:normal;font-weight:bold;font-stretch:normal;font-size:2.11667px;font-family:'Caviar Dreams';-inkscape-font-specification:'Caviar Dreams Bold';fill:#e0ede6;fill-opacity:1;stroke-width:0.264583"
         id="path1100" />
      <path
         d="m 59.940016,17.931004 h 0.214974 v 0.704867 q 0.08992,-0.172599 0.26045,-0.172599 0.170532,0 0.271818,0.12299 0.10232,0.121956 0.10542,0.306958 v 0.691432 h -0.21394 v -0.683164 q 0,-0.09198 -0.05271,-0.157096 -0.05168,-0.06615 -0.164332,-0.06615 -0.133325,0 -0.206706,0.142627 v 0.763779 h -0.214974 z"
         style="font-style:normal;font-variant:normal;font-weight:bold;font-stretch:normal;font-size:2.11667px;font-family:'Caviar Dreams';-inkscape-font-specification:'Caviar Dreams Bold';fill:#e0ede6;fill-opacity:1;stroke-width:0.264583"
         id="path1102" />
    </g>
    <g
       aria-label="sequencer"
       id="text1041-8"
       style="font-size:2.11667px;line-height:1.25;font-family:'Caviar Dreams';-inkscape-font-specification:'Caviar Dreams';display:inline;fill:#e0ede6;fill-opacity:1;stroke-width:0.264583"
       transform="translate(-3.501068,0.483066)">
      <path
         d="m 50.545228,22.914169 q 0.0093,0.04754 0.02894,0.06718 0.03824,0.03721 0.09095,0.03721 0.05271,0 0.08992,-0.03721 0.03824,-0.03721 0.03824,-0.09199 0,-0.05271 -0.03721,-0.08992 -0.02584,-0.02584 -0.110588,-0.07958 -0.115755,-0.06304 -0.164331,-0.111621 -0.08475,-0.08475 -0.08475,-0.203605 0,-0.11989 0.08475,-0.204639 0.08475,-0.08578 0.204639,-0.08578 0.119889,0 0.199471,0.08062 0.05684,0.05684 0.07235,0.127124 l -0.207739,0.05994 q -0.0072,-0.02584 -0.01447,-0.03411 -0.0186,-0.0186 -0.04961,-0.0186 -0.03101,0 -0.05374,0.02274 -0.0217,0.0217 -0.0217,0.05271 0,0.03101 0.0217,0.05271 0.01964,0.0186 0.08888,0.06304 0.128157,0.07028 0.186035,0.128158 0.100253,0.101286 0.100253,0.240812 0,0.142628 -0.100253,0.243914 -0.09922,0.100252 -0.241846,0.100252 -0.141594,0 -0.241846,-0.101286 -0.06925,-0.06925 -0.09095,-0.1726 z"
         style="font-style:normal;font-variant:normal;font-weight:bold;font-stretch:normal;font-size:2.11667px;font-family:'Caviar Dreams';-inkscape-font-specification:'Caviar Dreams Bold';fill:#e0ede6;fill-opacity:1;stroke-width:0.264583"
         id="path1105" />
      <path
         d="m 51.601495,22.968946 q 0.05374,0.04754 0.195338,0.04754 0.152962,0 0.261483,-0.107488 0.01344,-0.01447 0.05478,-0.06408 l 0.213941,0.07648 q -0.07855,0.108521 -0.113689,0.143661 -0.172599,0.172599 -0.416512,0.172599 -0.24288,0 -0.415479,-0.172599 -0.1726,-0.1726 -0.1726,-0.416513 0,-0.243913 0.1726,-0.416513 0.172599,-0.172599 0.415479,-0.172599 0.208773,0 0.365869,0.12609 0.02584,0.0217 0.05064,0.04651 0.01034,0.01034 0.05891,0.06511 l -0.107488,0.10852 z m 0.357602,-0.661459 q -0.03617,-0.0279 -0.162264,-0.0279 -0.151929,0 -0.26045,0.10852 -0.107487,0.107487 -0.107487,0.26045 0,0.125057 0.0279,0.162264 z"
         style="font-style:normal;font-variant:normal;font-weight:bold;font-stretch:normal;font-size:2.11667px;font-family:'Caviar Dreams';-inkscape-font-specification:'Caviar Dreams Bold';fill:#e0ede6;fill-opacity:1;stroke-width:0.264583"
         id="path1107" />
      <path
         d="m 53.472185,22.728134 v -0.15813 q -0.0186,-0.100253 -0.100252,-0.181902 -0.107487,-0.10852 -0.26045,-0.10852 -0.152962,0 -0.261483,0.10852 -0.107487,0.108521 -0.107487,0.26045 0,0.152962 0.107487,0.261483 0.108521,0.107487 0.261483,0.107487 0.152963,0 0.26045,-0.107487 0.08165,-0.08165 0.100252,-0.181901 z m 0,-0.508497 v -0.07338 h 0.214974 v 1.421104 h -0.214974 v -0.489893 q -0.155029,0.160197 -0.360702,0.160197 -0.243913,0 -0.416513,-0.172599 -0.171566,-0.1726 -0.171566,-0.416513 0,-0.243913 0.171566,-0.415479 0.1726,-0.1726 0.416513,-0.1726 0.205673,0 0.360702,0.159164 z"
         style="font-style:normal;font-variant:normal;font-weight:bold;font-stretch:normal;font-size:2.11667px;font-family:'Caviar Dreams';-inkscape-font-specification:'Caviar Dreams Bold';fill:#e0ede6;fill-opacity:1;stroke-width:0.264583"
         id="path1109" />
      <path
         d="m 54.447838,23.224228 q -0.201539,0 -0.324529,-0.12299 -0.12299,-0.12299 -0.126091,-0.307992 v -0.64699 h 0.214975 v 0.638722 q 0,0.09198 0.06718,0.15813 0.06718,0.06615 0.167432,0.06615 0.09198,0 0.159164,-0.06511 0.06821,-0.06614 0.06821,-0.159163 v -0.638722 h 0.21394 v 0.64699 q -0.0031,0.185002 -0.125057,0.307992 -0.12299,0.12299 -0.315226,0.12299 z"
         style="font-style:normal;font-variant:normal;font-weight:bold;font-stretch:normal;font-size:2.11667px;font-family:'Caviar Dreams';-inkscape-font-specification:'Caviar Dreams Bold';fill:#e0ede6;fill-opacity:1;stroke-width:0.264583"
         id="path1111" />
      <path
         d="m 55.52891,22.968946 q 0.05374,0.04754 0.195337,0.04754 0.152963,0 0.261483,-0.107488 0.01344,-0.01447 0.05478,-0.06408 l 0.21394,0.07648 q -0.07855,0.108521 -0.113688,0.143661 -0.1726,0.172599 -0.416513,0.172599 -0.242879,0 -0.415479,-0.172599 -0.172599,-0.1726 -0.172599,-0.416513 0,-0.243913 0.172599,-0.416513 0.1726,-0.172599 0.415479,-0.172599 0.208773,0 0.36587,0.12609 0.02584,0.0217 0.05064,0.04651 0.01033,0.01034 0.05891,0.06511 l -0.107487,0.10852 z m 0.357602,-0.661459 q -0.03617,-0.0279 -0.162265,-0.0279 -0.151929,0 -0.260449,0.10852 -0.107487,0.107487 -0.107487,0.26045 0,0.125057 0.02791,0.162264 z"
         style="font-style:normal;font-variant:normal;font-weight:bold;font-stretch:normal;font-size:2.11667px;font-family:'Caviar Dreams';-inkscape-font-specification:'Caviar Dreams Bold';fill:#e0ede6;fill-opacity:1;stroke-width:0.264583"
         id="path1113" />
      <path
         d="m 56.71747,22.431511 v 0.778248 h -0.214974 v -1.063503 h 0.214974 v 0.124024 q 0.06718,-0.181902 0.269751,-0.181902 0.1726,0 0.273886,0.122991 0.102319,0.121956 0.10542,0.306958 v 0.691432 h -0.213941 v -0.683164 q 0,-0.09198 -0.06718,-0.157096 -0.06718,-0.06615 -0.160198,-0.06615 -0.09198,0 -0.159163,0.06408 -0.03721,0.03824 -0.04858,0.06408 z"
         style="font-style:normal;font-variant:normal;font-weight:bold;font-stretch:normal;font-size:2.11667px;font-family:'Caviar Dreams';-inkscape-font-specification:'Caviar Dreams Bold';fill:#e0ede6;fill-opacity:1;stroke-width:0.264583"
         id="path1115" />
      <path
         d="m 58.522014,22.844923 0.213941,0.07648 q -0.07855,0.108521 -0.113689,0.143661 -0.172599,0.172599 -0.416512,0.172599 -0.24288,0 -0.415479,-0.172599 -0.1726,-0.1726 -0.1726,-0.416513 0,-0.243913 0.1726,-0.416513 0.172599,-0.172599 0.415479,-0.172599 0.243913,0 0.416512,0.172599 0.03514,0.03514 0.113689,0.141594 l -0.213941,0.07855 q -0.04134,-0.05064 -0.05581,-0.06511 -0.107487,-0.107487 -0.260449,-0.107487 -0.151929,0 -0.26045,0.10852 -0.107487,0.107487 -0.107487,0.26045 0,0.151929 0.107487,0.260449 0.108521,0.107488 0.26045,0.107488 0.152962,0 0.261483,-0.107488 0.01344,-0.01447 0.05478,-0.06408 z"
         style="font-style:normal;font-variant:normal;font-weight:bold;font-stretch:normal;font-size:2.11667px;font-family:'Caviar Dreams';-inkscape-font-specification:'Caviar Dreams Bold';fill:#e0ede6;fill-opacity:1;stroke-width:0.264583"
         id="path1117" />
      <path
         d="m 59.314731,22.968946 q 0.05374,0.04754 0.195337,0.04754 0.152963,0 0.261483,-0.107488 0.01344,-0.01447 0.05478,-0.06408 l 0.21394,0.07648 q -0.07855,0.108521 -0.113688,0.143661 -0.1726,0.172599 -0.416513,0.172599 -0.242879,0 -0.415479,-0.172599 -0.172599,-0.1726 -0.172599,-0.416513 0,-0.243913 0.172599,-0.416513 0.1726,-0.172599 0.415479,-0.172599 0.208773,0 0.36587,0.12609 0.02584,0.0217 0.05064,0.04651 0.01033,0.01034 0.05891,0.06511 l -0.107487,0.10852 z m 0.357602,-0.661459 q -0.03617,-0.0279 -0.162265,-0.0279 -0.151929,0 -0.260449,0.10852 -0.107487,0.107487 -0.107487,0.26045 0,0.125057 0.02791,0.162264 z"
         style="font-style:normal;font-variant:normal;font-weight:bold;font-stretch:normal;font-size:2.11667px;font-family:'Caviar Dreams';-inkscape-font-specification:'Caviar Dreams Bold';fill:#e0ede6;fill-opacity:1;stroke-width:0.264583"
         id="path1119" />
      <path
         d="m 60.502258,22.289917 q 0.119889,-0.162264 0.294556,-0.170533 v 0.222209 q -0.116789,0.0062 -0.186036,0.07545 -0.104386,0.103353 -0.10852,0.24598 v 0.546738 h -0.213941 v -1.063503 h 0.213941 z"
         style="font-style:normal;font-variant:normal;font-weight:bold;font-stretch:normal;font-size:2.11667px;font-family:'Caviar Dreams';-inkscape-font-specification:'Caviar Dreams Bold';fill:#e0ede6;fill-opacity:1;stroke-width:0.264583"
         id="path1121" />
    </g>
    <g
       aria-label="neg harmony"
       id="text1041-0"
       style="font-size:2.11667px;line-height:1.25;font-family:'Caviar Dreams';-inkscape-font-specification:'Caviar Dreams';display:inline;fill:#e0ede6;fill-opacity:1;stroke-width:0.264583"
       transform="translate(-3.501068,0.58982933)">
      <path
         d="m 50.547292,26.056617 v 0.778249 h -0.214974 v -1.063503 h 0.214974 v 0.124024 q 0.06718,-0.181902 0.269751,-0.181902 0.1726,0 0.273886,0.12299 0.102319,0.121957 0.10542,0.306959 v 0.691432 h -0.213941 v -0.683164 q 0,-0.09198 -0.06718,-0.157096 -0.06718,-0.06615 -0.160198,-0.06615 -0.09198,0 -0.159163,0.06408 -0.03721,0.03824 -0.04858,0.06408 z"
         style="font-style:normal;font-variant:normal;font-weight:bold;font-stretch:normal;font-size:2.11667px;font-family:'Caviar Dreams';-inkscape-font-specification:'Caviar Dreams Bold';fill:#e0ede6;fill-opacity:1;stroke-width:0.264583"
         id="path1124" />
      <path
         d="m 51.840238,26.594053 q 0.05374,0.04754 0.195337,0.04754 0.152963,0 0.261484,-0.107487 0.01344,-0.01447 0.05478,-0.06408 l 0.21394,0.07648 q -0.07855,0.10852 -0.113688,0.14366 -0.172599,0.1726 -0.416513,0.1726 -0.242879,0 -0.415479,-0.1726 -0.172599,-0.172599 -0.172599,-0.416512 0,-0.243913 0.172599,-0.416513 0.1726,-0.1726 0.415479,-0.1726 0.208773,0 0.36587,0.126091 0.02584,0.0217 0.05064,0.04651 0.01033,0.01034 0.05891,0.06511 l -0.107487,0.108521 z m 0.357602,-0.661459 q -0.03617,-0.02791 -0.162265,-0.02791 -0.151929,0 -0.260449,0.108521 -0.107487,0.107487 -0.107487,0.26045 0,0.125057 0.0279,0.162264 z"
         style="font-style:normal;font-variant:normal;font-weight:bold;font-stretch:normal;font-size:2.11667px;font-family:'Caviar Dreams';-inkscape-font-specification:'Caviar Dreams Bold';fill:#e0ede6;fill-opacity:1;stroke-width:0.264583"
         id="path1126" />
      <path
         d="m 53.735732,26.190976 q -0.01964,-0.09819 -0.09922,-0.177767 -0.107488,-0.108521 -0.26045,-0.108521 -0.152963,0 -0.261483,0.108521 -0.107487,0.108521 -0.107487,0.26045 0,0.152962 0.107487,0.261483 0.10852,0.107487 0.261483,0.107487 0.152962,0 0.26045,-0.107487 0.07958,-0.07958 0.09922,-0.1757 z m 0.001,-0.346232 v -0.07338 h 0.214974 v 0.790651 q 0,0.310059 -0.168465,0.478524 -0.1726,0.151929 -0.416513,0.151929 -0.243913,0 -0.416513,-0.151929 -0.03514,-0.03514 -0.112654,-0.142627 l 0.212907,-0.07648 q 0.04134,0.04961 0.05581,0.06408 0.10852,0.107487 0.260449,0.107487 0.255282,0 0.353467,-0.334864 -0.100252,0.194304 -0.344165,0.194304 -0.243913,0 -0.416513,-0.167432 -0.171566,-0.167432 -0.171566,-0.411345 0,-0.243913 0.171566,-0.415479 0.1726,-0.1726 0.416513,-0.1726 0.205672,0 0.360702,0.159164 z"
         style="font-style:normal;font-variant:normal;font-weight:bold;font-stretch:normal;font-size:2.11667px;font-family:'Caviar Dreams';-inkscape-font-specification:'Caviar Dreams Bold';fill:#e0ede6;fill-opacity:1;stroke-width:0.264583"
         id="path1128" />
      <path
         d="m 54.997673,25.181217 h 0.214974 v 0.704868 q 0.08992,-0.1726 0.26045,-0.1726 0.170532,0 0.271818,0.12299 0.10232,0.121957 0.10542,0.306959 v 0.691432 h -0.213941 v -0.683164 q 0,-0.09198 -0.05271,-0.157096 -0.05168,-0.06615 -0.164331,-0.06615 -0.133325,0 -0.206706,0.142627 v 0.763779 h -0.214974 z"
         style="font-style:normal;font-variant:normal;font-weight:bold;font-stretch:normal;font-size:2.11667px;font-family:'Caviar Dreams';-inkscape-font-specification:'Caviar Dreams Bold';fill:#e0ede6;fill-opacity:1;stroke-width:0.264583"
         id="path1130" />
      <path
         d="m 57.082303,26.35324 v -0.157096 q -0.0186,-0.100253 -0.09922,-0.181901 -0.10852,-0.107488 -0.260449,-0.107488 -0.152963,0 -0.261483,0.107488 -0.107487,0.107487 -0.107487,0.260449 0,0.151929 0.107487,0.26045 0.10852,0.107487 0.261483,0.107487 0.151929,0 0.260449,-0.107487 0.08062,-0.08165 0.09922,-0.181902 z m 0,-0.507463 v -0.07441 h 0.214975 v 1.064536 h -0.214975 v -0.133325 q -0.155029,0.160197 -0.359668,0.160197 -0.243913,0 -0.416513,-0.171566 -0.171566,-0.1726 -0.171566,-0.416513 0,-0.243913 0.171566,-0.415479 0.1726,-0.1726 0.416513,-0.1726 0.204639,0 0.359668,0.159164 z"
         style="font-style:normal;font-variant:normal;font-weight:bold;font-stretch:normal;font-size:2.11667px;font-family:'Caviar Dreams';-inkscape-font-specification:'Caviar Dreams Bold';fill:#e0ede6;fill-opacity:1;stroke-width:0.264583"
         id="path1132" />
      <path
         d="M 57.822311,25.915024 Q 57.9422,25.752759 58.116867,25.744491 V 25.9667 q -0.116789,0.0062 -0.186036,0.07545 -0.104386,0.103353 -0.10852,0.24598 v 0.546738 H 57.60837 v -1.063503 h 0.213941 z"
         style="font-style:normal;font-variant:normal;font-weight:bold;font-stretch:normal;font-size:2.11667px;font-family:'Caviar Dreams';-inkscape-font-specification:'Caviar Dreams Bold';fill:#e0ede6;fill-opacity:1;stroke-width:0.264583"
         id="path1134" />
      <path
         d="m 58.353545,25.771363 h 0.213941 v 0.09922 q 0.06201,-0.156063 0.238746,-0.156063 0.1757,0 0.197404,0.177767 0.05064,-0.177767 0.279053,-0.177767 0.22531,0 0.22531,0.273885 v 0.846462 H 59.293024 V 26.08659 q 0,-0.157097 -0.127124,-0.157097 -0.05271,0 -0.09095,0.03721 -0.03824,0.03721 -0.03824,0.250114 v 0.618052 h -0.213941 l 10e-4,-0.748276 q 0,-0.157097 -0.128158,-0.157097 -0.05271,0 -0.09095,0.03721 -0.03307,0.03204 -0.03721,0.169499 v 0.698667 H 58.35351 Z"
         style="font-style:normal;font-variant:normal;font-weight:bold;font-stretch:normal;font-size:2.11667px;font-family:'Caviar Dreams';-inkscape-font-specification:'Caviar Dreams Bold';fill:#e0ede6;fill-opacity:1;stroke-width:0.264583"
         id="path1136" />
      <path
         d="m 60.345158,25.684546 q 0.243913,0 0.415479,0.1726 0.1726,0.1726 0.1726,0.416513 0,0.243913 -0.1726,0.416512 -0.171566,0.1726 -0.415479,0.1726 -0.24288,0 -0.415479,-0.1726 -0.1726,-0.172599 -0.1726,-0.416512 0,-0.243913 0.1726,-0.416513 0.172599,-0.1726 0.415479,-0.1726 z m 0,0.220142 q -0.152963,0 -0.261483,0.108521 -0.107487,0.108521 -0.107487,0.26045 0,0.152962 0.107487,0.260449 0.10852,0.107487 0.261483,0.107487 0.152962,0 0.26045,-0.107487 0.10852,-0.107487 0.10852,-0.260449 0,-0.151929 -0.10852,-0.26045 -0.107488,-0.108521 -0.26045,-0.108521 z"
         style="font-style:normal;font-variant:normal;font-weight:bold;font-stretch:normal;font-size:2.11667px;font-family:'Caviar Dreams';-inkscape-font-specification:'Caviar Dreams Bold';fill:#e0ede6;fill-opacity:1;stroke-width:0.264583"
         id="path1138" />
      <path
         d="m 61.396258,26.056617 v 0.778249 h -0.214974 v -1.063503 h 0.214974 v 0.124024 q 0.06718,-0.181902 0.269752,-0.181902 0.172599,0 0.273885,0.12299 0.10232,0.121957 0.10542,0.306959 v 0.691432 h -0.21394 v -0.683164 q 0,-0.09198 -0.06718,-0.157096 -0.06718,-0.06615 -0.160197,-0.06615 -0.09198,0 -0.159164,0.06408 -0.03721,0.03824 -0.04858,0.06408 z"
         style="font-style:normal;font-variant:normal;font-weight:bold;font-stretch:normal;font-size:2.11667px;font-family:'Caviar Dreams';-inkscape-font-specification:'Caviar Dreams Bold';fill:#e0ede6;fill-opacity:1;stroke-width:0.264583"
         id="path1140" />
      <path
         d="m 62.604455,27.192467 h -0.226343 l 0.283187,-0.59428 -0.395842,-0.826824 h 0.240813 l 0.269751,0.581877 0.269752,-0.581877 h 0.239779 z"
         style="font-style:normal;font-variant:normal;font-weight:bold;font-stretch:normal;font-size:2.11667px;font-family:'Caviar Dreams';-inkscape-font-specification:'Caviar Dreams Bold';fill:#e0ede6;fill-opacity:1;stroke-width:0.264583"
         id="path1142" />
    </g>
    <g
       aria-label="reset"
       id="text1108"
       style="font-size:3.52777px;line-height:1.25;font-family:'Caviar Dreams';-inkscape-font-specification:'Caviar Dreams';fill:#64f6ed;fill-opacity:1;stroke-width:0.264583">
      <path
         d="m 5.2492127,38.259163 q 0.2397784,-0.324528 0.5891108,-0.341064 v 0.444417 q -0.2335773,0.0124 -0.37207,0.150895 -0.2087726,0.206706 -0.2170408,0.491959 v 1.093473 H 4.8213322 v -2.127001 h 0.4278805 z"
         style="font-style:normal;font-variant:normal;font-weight:bold;font-stretch:normal;font-size:4.23333px;font-family:'Caviar Dreams';-inkscape-font-specification:'Caviar Dreams Bold';fill:#64f6ed;fill-opacity:1;stroke-width:0.264583"
         id="path1112" />
      <path
         d="m 6.9069913,39.617219 q 0.1074869,0.09508 0.3906735,0.09508 0.3059243,0 0.5229651,-0.214974 0.026872,-0.02894 0.1095539,-0.128157 l 0.4278805,0.152962 q -0.1570962,0.217041 -0.2273761,0.287321 -0.3451982,0.345198 -0.8330234,0.345198 -0.485758,0 -0.8309563,-0.345198 -0.3451983,-0.345198 -0.3451983,-0.833024 0,-0.487825 0.3451983,-0.833023 0.3451983,-0.345198 0.8309563,-0.345198 0.4175453,0 0.7317377,0.252181 0.051676,0.04341 0.1012857,0.09302 0.020671,0.02067 0.1178222,0.130225 l -0.2149738,0.21704 z m 0.7152013,-1.322916 q -0.072347,-0.05581 -0.3245278,-0.05581 -0.3038571,0 -0.520898,0.21704 -0.2149737,0.214974 -0.2149737,0.520898 0,0.250114 0.05581,0.324528 z"
         style="font-style:normal;font-variant:normal;font-weight:bold;font-stretch:normal;font-size:4.23333px;font-family:'Caviar Dreams';-inkscape-font-specification:'Caviar Dreams Bold';fill:#64f6ed;fill-opacity:1;stroke-width:0.264583"
         id="path1114" />
      <path
         d="m 9.2262277,39.507665 q 0.018603,0.09508 0.057878,0.134358 0.076481,0.07441 0.1819009,0.07441 0.1054198,0 0.1798338,-0.07441 0.076481,-0.07441 0.076481,-0.183968 0,-0.105419 -0.074414,-0.179833 -0.051676,-0.05168 -0.2211749,-0.159164 -0.2315103,-0.12609 -0.3286619,-0.223242 -0.1694985,-0.169498 -0.1694985,-0.40721 0,-0.239778 0.1694985,-0.409277 0.1694986,-0.171565 0.409277,-0.171565 0.2397785,0 0.3989417,0.16123 0.1136881,0.113688 0.1446941,0.254248 l -0.4154783,0.119889 q -0.014469,-0.05168 -0.028939,-0.06821 -0.037207,-0.03721 -0.099219,-0.03721 -0.062012,0 -0.1074869,0.04548 -0.043408,0.04341 -0.043408,0.105419 0,0.06201 0.043408,0.10542 0.039274,0.03721 0.1777668,0.126091 0.2563149,0.140559 0.37207,0.256314 0.2005039,0.202572 0.2005039,0.481624 0,0.285254 -0.2005039,0.487826 -0.1984373,0.200504 -0.483691,0.200504 -0.2831866,0 -0.483691,-0.202572 -0.1384927,-0.138492 -0.1819009,-0.345198 z"
         style="font-style:normal;font-variant:normal;font-weight:bold;font-stretch:normal;font-size:4.23333px;font-family:'Caviar Dreams';-inkscape-font-specification:'Caviar Dreams Bold';fill:#64f6ed;fill-opacity:1;stroke-width:0.264583"
         id="path1116" />
      <path
         d="m 11.338758,39.617219 q 0.107487,0.09508 0.390674,0.09508 0.305924,0 0.522965,-0.214974 0.02687,-0.02894 0.109554,-0.128157 l 0.42788,0.152962 q -0.157096,0.217041 -0.227376,0.287321 -0.345198,0.345198 -0.833023,0.345198 -0.485758,0 -0.830956,-0.345198 -0.345199,-0.345198 -0.345199,-0.833024 0,-0.487825 0.345199,-0.833023 0.345198,-0.345198 0.830956,-0.345198 0.417545,0 0.731738,0.252181 0.05168,0.04341 0.101285,0.09302 0.02067,0.02067 0.117823,0.130225 l -0.214974,0.21704 z m 0.715202,-1.322916 q -0.07235,-0.05581 -0.324528,-0.05581 -0.303857,0 -0.520898,0.21704 -0.214974,0.214974 -0.214974,0.520898 0,0.250114 0.05581,0.324528 z"
         style="font-style:normal;font-variant:normal;font-weight:bold;font-stretch:normal;font-size:4.23333px;font-family:'Caviar Dreams';-inkscape-font-specification:'Caviar Dreams Bold';fill:#64f6ed;fill-opacity:1;stroke-width:0.264583"
         id="path1118" />
      <path
         d="m 13.544307,37.971842 v -0.797883 h 0.427881 v 0.797883 h 0.382405 v 0.427881 h -0.382405 v 1.69912 h -0.427881 v -1.69912 h -0.382405 v -0.427881 z"
         style="font-style:normal;font-variant:normal;font-weight:bold;font-stretch:normal;font-size:4.23333px;font-family:'Caviar Dreams';-inkscape-font-specification:'Caviar Dreams Bold';fill:#64f6ed;fill-opacity:1;stroke-width:0.264583"
         id="path1120" />
    </g>
    <path
       style="color:#000000;font-style:normal;font-variant:normal;font-weight:normal;font-stretch:normal;font-size:medium;line-height:normal;font-family:sans-serif;font-variant-ligatures:normal;font-variant-position:normal;font-variant-caps:normal;font-variant-numeric:normal;font-variant-alternates:normal;font-variant-east-asian:normal;font-feature-settings:normal;font-variation-settings:normal;text-indent:0;text-align:start;text-decoration:none;text-decoration-line:none;text-decoration-style:solid;text-decoration-color:#000000;letter-spacing:normal;word-spacing:normal;text-transform:none;writing-mode:lr-tb;direction:ltr;text-orientation:mixed;dominant-baseline:auto;baseline-shift:baseline;text-anchor:start;white-space:normal;shape-padding:0;shape-margin:0;inline-size:0;clip-rule:nonzero;display:inline;overflow:visible;visibility:visible;isolation:auto;mix-blend-mode:normal;color-interpolation:sRGB;color-interpolation-filters:linearRGB;solid-color:#000000;solid-opacity:1;vector-effect:none;fill:#e0ede6;fill-opacity:1;fill-rule:nonzero;stroke:none;stroke-linecap:round;stroke-linejoin:miter;stroke-miterlimit:4;stroke-dasharray:0.264583, 2.11666;stroke-dashoffset:0;stroke-opacity:1;color-rendering:auto;image-rendering:auto;shape-rendering:auto;text-rendering:auto;enable-background:accumulate;stop-color:#000000;stop-opacity:1;opacity:1"
       d="M 25.769531 22.919922 A 0.1322915 0.1322915 0 0 0 25.636719 23.052734 A 0.1322915 0.1322915 0 0 0 25.769531 23.185547 L 26.035156 23.185547 A 0.1322915 0.1322915 0 0 0 26.166016 23.052734 A 0.1322915 0.1322915 0 0 0 26.035156 22.919922 L 25.769531 22.919922 z M 28.150391 22.919922 A 0.1322915 0.1322915 0 0 0 28.019531 23.052734 A 0.1322915 0.1322915 0 0 0 28.150391 23.185547 L 28.416016 23.185547 A 0.1322915 0.1322915 0 0 0 28.548828 23.052734 A 0.1322915 0.1322915 0 0 0 28.416016 22.919922 L 28.150391 22.919922 z M 30.533203 22.919922 A 0.1322915 0.1322915 0 0 0 30.400391 23.052734 A 0.1322915 0.1322915 0 0 0 30.533203 23.185547 L 30.796875 23.185547 A 0.1322915 0.1322915 0 0 0 30.929688 23.052734 A 0.1322915 0.1322915 0 0 0 30.796875 22.919922 L 30.533203 22.919922 z M 32.914062 22.919922 A 0.1322915 0.1322915 0 0 0 32.78125 23.052734 A 0.1322915 0.1322915 0 0 0 32.914062 23.185547 L 33.177734 23.185547 A 0.1322915 0.1322915 0 0 0 33.310547 23.052734 A 0.1322915 0.1322915 0 0 0 33.177734 22.919922 L 32.914062 22.919922 z M 35.294922 22.919922 A 0.1322915 0.1322915 0 0 0 35.162109 23.052734 A 0.1322915 0.1322915 0 0 0 35.294922 23.185547 L 35.558594 23.185547 A 0.1322915 0.1322915 0 0 0 35.691406 23.052734 A 0.1322915 0.1322915 0 0 0 35.558594 22.919922 L 35.294922 22.919922 z M 37.675781 22.919922 A 0.1322915 0.1322915 0 0 0 37.542969 23.052734 A 0.1322915 0.1322915 0 0 0 37.675781 23.185547 L 37.941406 23.185547 A 0.1322915 0.1322915 0 0 0 38.072266 23.052734 A 0.1322915 0.1322915 0 0 0 37.941406 22.919922 L 37.675781 22.919922 z M 40.056641 22.919922 A 0.1322915 0.1322915 0 0 0 39.925781 23.052734 A 0.1322915 0.1322915 0 0 0 40.056641 23.185547 L 40.322266 23.185547 A 0.1322915 0.1322915 0 0 0 40.455078 23.052734 A 0.1322915 0.1322915 0 0 0 40.322266 22.919922 L 40.056641 22.919922 z M 24.625 24.199219 A 0.1322915 0.1322915 0 0 0 24.492188 24.294922 L 24.417969 24.548828 A 0.1322915 0.1322915 0 0 0 24.509766 24.712891 A 0.1322915 0.1322915 0 0 0 24.673828 24.623047 L 24.746094 24.367188 A 0.1322915 0.1322915 0 0 0 24.654297 24.205078 A 0.1322915 0.1322915 0 0 0 24.625 24.199219 z M 23.972656 26.490234 A 0.1322915 0.1322915 0 0 0 23.837891 26.585938 L 23.765625 26.839844 A 0.1322915 0.1322915 0 0 0 23.857422 27.003906 A 0.1322915 0.1322915 0 0 0 24.021484 26.912109 L 24.09375 26.658203 A 0.1322915 0.1322915 0 0 0 24.001953 26.494141 A 0.1322915 0.1322915 0 0 0 23.972656 26.490234 z M 23.318359 28.779297 A 0.1322915 0.1322915 0 0 0 23.185547 28.875 L 23.113281 29.128906 A 0.1322915 0.1322915 0 0 0 23.205078 29.292969 A 0.1322915 0.1322915 0 0 0 23.367188 29.203125 L 23.439453 28.947266 A 0.1322915 0.1322915 0 0 0 23.349609 28.785156 A 0.1322915 0.1322915 0 0 0 23.318359 28.779297 z M 22.666016 31.070312 A 0.1322915 0.1322915 0 0 0 22.533203 31.166016 L 22.460938 31.419922 A 0.1322915 0.1322915 0 0 0 22.550781 31.583984 A 0.1322915 0.1322915 0 0 0 22.714844 31.492188 L 22.787109 31.238281 A 0.1322915 0.1322915 0 0 0 22.697266 31.074219 A 0.1322915 0.1322915 0 0 0 22.666016 31.070312 z M 22.013672 33.359375 A 0.1322915 0.1322915 0 0 0 21.880859 33.455078 L 21.808594 33.708984 A 0.1322915 0.1322915 0 0 0 21.898438 33.873047 A 0.1322915 0.1322915 0 0 0 22.0625 33.783203 L 22.134766 33.527344 A 0.1322915 0.1322915 0 0 0 22.044922 33.365234 A 0.1322915 0.1322915 0 0 0 22.013672 33.359375 z M 21.361328 35.650391 A 0.1322915 0.1322915 0 0 0 21.228516 35.746094 L 21.154297 36 A 0.1322915 0.1322915 0 0 0 21.246094 36.164062 A 0.1322915 0.1322915 0 0 0 21.410156 36.072266 L 21.482422 35.818359 A 0.1322915 0.1322915 0 0 0 21.390625 35.654297 A 0.1322915 0.1322915 0 0 0 21.361328 35.650391 z M 20.708984 37.939453 A 0.1322915 0.1322915 0 0 0 20.574219 38.035156 L 20.501953 38.289062 A 0.1322915 0.1322915 0 0 0 20.59375 38.453125 A 0.1322915 0.1322915 0 0 0 20.757812 38.363281 L 20.830078 38.107422 A 0.1322915 0.1322915 0 0 0 20.738281 37.945312 A 0.1322915 0.1322915 0 0 0 20.708984 37.939453 z M 20.056641 40.230469 A 0.1322915 0.1322915 0 0 0 19.921875 40.326172 L 19.849609 40.580078 A 0.1322915 0.1322915 0 0 0 19.941406 40.744141 A 0.1322915 0.1322915 0 0 0 20.103516 40.652344 L 20.177734 40.398438 A 0.1322915 0.1322915 0 0 0 20.085938 40.234375 A 0.1322915 0.1322915 0 0 0 20.056641 40.230469 z M 19.402344 42.519531 A 0.1322915 0.1322915 0 0 0 19.269531 42.615234 L 19.197266 42.869141 A 0.1322915 0.1322915 0 0 0 19.289062 43.033203 A 0.1322915 0.1322915 0 0 0 19.451172 42.943359 L 19.523438 42.6875 A 0.1322915 0.1322915 0 0 0 19.433594 42.525391 A 0.1322915 0.1322915 0 0 0 19.402344 42.519531 z M 18.75 44.810547 A 0.1322915 0.1322915 0 0 0 18.617188 44.90625 L 18.544922 45.160156 A 0.1322915 0.1322915 0 0 0 18.634766 45.324219 A 0.1322915 0.1322915 0 0 0 18.798828 45.232422 L 18.871094 44.978516 A 0.1322915 0.1322915 0 0 0 18.78125 44.814453 A 0.1322915 0.1322915 0 0 0 18.75 44.810547 z M 18.097656 47.099609 A 0.1322915 0.1322915 0 0 0 17.964844 47.195312 L 17.892578 47.449219 A 0.1322915 0.1322915 0 0 0 17.982422 47.613281 A 0.1322915 0.1322915 0 0 0 18.146484 47.523438 L 18.21875 47.267578 A 0.1322915 0.1322915 0 0 0 18.126953 47.105469 A 0.1322915 0.1322915 0 0 0 18.097656 47.099609 z M 11.240234 47.837891 A 0.1322915 0.1322915 0 0 0 11.107422 47.96875 A 0.1322915 0.1322915 0 0 0 11.240234 48.101562 L 11.503906 48.101562 A 0.1322915 0.1322915 0 0 0 11.636719 47.96875 A 0.1322915 0.1322915 0 0 0 11.503906 47.837891 L 11.240234 47.837891 z M 13.621094 47.837891 A 0.1322915 0.1322915 0 0 0 13.488281 47.96875 A 0.1322915 0.1322915 0 0 0 13.621094 48.101562 L 13.884766 48.101562 A 0.1322915 0.1322915 0 0 0 14.017578 47.96875 A 0.1322915 0.1322915 0 0 0 13.884766 47.837891 L 13.621094 47.837891 z M 16.001953 47.837891 A 0.1322915 0.1322915 0 0 0 15.869141 47.96875 A 0.1322915 0.1322915 0 0 0 16.001953 48.101562 L 16.267578 48.101562 A 0.1322915 0.1322915 0 0 0 16.398438 47.96875 A 0.1322915 0.1322915 0 0 0 16.267578 47.837891 L 16.001953 47.837891 z "
       id="path1127" />
  </g>
</svg>
