<?xml version="1.0" encoding="UTF-8" standalone="no"?>
<!-- Created with Inkscape (http://www.inkscape.org/) -->

<svg
   width="142.24001mm"
   height="128.5mm"
   viewBox="0 0 142.24 128.5"
   version="1.1"
   id="svg5"
   inkscape:version="1.1 (c68e22c387, 2021-05-23)"
   sodipodi:docname="ntrvlc.svg"
   xmlns:inkscape="http://www.inkscape.org/namespaces/inkscape"
   xmlns:sodipodi="http://sodipodi.sourceforge.net/DTD/sodipodi-0.dtd"
   xmlns="http://www.w3.org/2000/svg"
   xmlns:svg="http://www.w3.org/2000/svg">
  <sodipodi:namedview
     id="namedview7"
     pagecolor="#505050"
     bordercolor="#eeeeee"
     borderopacity="1"
     inkscape:pageshadow="0"
     inkscape:pageopacity="0"
     inkscape:pagecheckerboard="0"
     inkscape:document-units="mm"
     showgrid="false"
     showguides="false"
     inkscape:guide-bbox="true"
     inkscape:zoom="1.5536477"
     inkscape:cx="282.88266"
     inkscape:cy="257.78045"
     inkscape:window-width="1856"
     inkscape:window-height="1057"
     inkscape:window-x="56"
     inkscape:window-y="-8"
     inkscape:window-maximized="1"
     inkscape:current-layer="layer1"
     width="142.24mm"
     units="mm">
    <inkscape:grid
       type="xygrid"
       id="grid1050"
       units="mm"
       spacingx="5.0800001"
       spacingy="5.0800001"
       empspacing="0" />
  </sodipodi:namedview>
  <defs
     id="defs2">
    <linearGradient
       id="linearGradient47039"
       inkscape:swatch="solid">
      <stop
         style="stop-color:#859998;stop-opacity:1;"
         offset="0"
         id="stop47037" />
    </linearGradient>
    <pattern
       id="EMFhbasepattern"
       patternUnits="userSpaceOnUse"
       width="6"
       height="6"
       x="0"
       y="0" />
    <pattern
       id="EMFhbasepattern-7"
       patternUnits="userSpaceOnUse"
       width="6"
       height="6"
       x="0"
       y="0" />
    <pattern
       id="EMFhbasepattern-72"
       patternUnits="userSpaceOnUse"
       width="6"
       height="6"
       x="0"
       y="0" />
  </defs>
  <g
     inkscape:label="background"
     inkscape:groupmode="layer"
     id="layer1"
     style="display:inline">
    <rect
       style="fill:#1c1c21;fill-opacity:1;stroke:none;stroke-width:0.880765;stroke-linecap:butt;stroke-linejoin:miter;stroke-miterlimit:4;stroke-dasharray:none;stroke-dashoffset:0;stroke-opacity:1"
       id="rect48062"
       width="141.35924"
       height="127.61923"
       x="0.44038391"
       y="0.44038531" />
    <rect
       style="fill:#616061;fill-opacity:1;stroke-width:0.412071"
       id="rect40273"
       width="14.980062"
       height="106.22254"
       x="123.23751"
       y="4.1585965" />
    <path
       style="display:inline;fill:none;stroke:#616061;stroke-width:0.529167;stroke-linecap:butt;stroke-linejoin:miter;stroke-miterlimit:4;stroke-dasharray:none;stroke-opacity:1"
       d="m 121.04544,50.80112 c -104.733361,0 -104.563063,0 -104.563063,0"
       id="path2341" />
    <path
       style="display:inline;fill:none;stroke:#616061;stroke-width:0.529167;stroke-linecap:butt;stroke-linejoin:miter;stroke-miterlimit:4;stroke-dasharray:none;stroke-opacity:1"
       d="m 121.04544,71.160888 c -104.733359,0 -104.563061,0 -104.563061,0"
       id="path2341-4" />
    <path
       style="display:inline;fill:none;stroke:#616061;stroke-width:0.529167;stroke-linecap:butt;stroke-linejoin:miter;stroke-miterlimit:4;stroke-dasharray:none;stroke-opacity:1"
       d="m 121.04544,91.520651 c -104.733358,0 -104.56306,0 -104.56306,0"
       id="path2341-7" />
  </g>
  <g
     inkscape:groupmode="layer"
     id="layer4"
     inkscape:label="labels"
     style="display:inline">
    <text
       xml:space="preserve"
       style="font-style:normal;font-weight:normal;font-size:10.5833px;line-height:1.25;font-family:sans-serif;fill:#000000;fill-opacity:1;stroke:none;stroke-width:0.264583"
       x="53.81422"
       y="122.95528"
       id="text61781"><tspan
         sodipodi:role="line"
         id="tspan61779"
         style="stroke-width:0.264583"
         x="53.81422"
         y="122.95528" /></text>
    <g
       aria-label="ntrvlc by cvly"
       id="text3184"
       style="font-size:7.05556px;line-height:1.25;font-family:'Caviar Dreams';-inkscape-font-specification:'Caviar Dreams';display:inline;stroke-width:0.264583">
      <path
         d="m 49.007641,119.32227 v 2.59416 H 48.29106 v -3.54501 h 0.716581 v 0.41341 q 0.223931,-0.60633 0.89917,-0.60633 0.575332,0 0.912951,0.40996 0.341065,0.40652 0.3514,1.0232 v 2.30477 h -0.713135 v -2.27721 q 0,-0.30662 -0.223931,-0.52366 -0.223932,-0.22048 -0.533991,-0.22048 -0.306613,0 -0.530545,0.21359 -0.124023,0.12747 -0.161919,0.2136 z"
         style="font-weight:bold;-inkscape-font-specification:'Caviar Dreams Bold';fill:#78d8c8"
         id="path2552" />
      <path
         d="m 52.645664,118.37142 v -1.32981 h 0.713135 v 1.32981 h 0.637343 v 0.71314 h -0.637343 v 2.83187 h -0.713135 v -2.83187 h -0.637343 v -0.71314 z"
         style="font-weight:bold;-inkscape-font-specification:'Caviar Dreams Bold';fill:#78d8c8"
         id="path2554" />
      <path
         d="m 55.539546,118.85029 q 0.399632,-0.54088 0.981853,-0.56844 v 0.7407 q -0.389296,0.0207 -0.620117,0.25149 -0.347955,0.34451 -0.361736,0.81993 v 1.82246 h -0.713135 v -3.54501 h 0.713135 z"
         style="font-weight:bold;-inkscape-font-specification:'Caviar Dreams Bold';fill:#78d8c8"
         id="path2556" />
      <path
         d="m 58.819279,121.91643 -1.691543,-3.54501 h 0.806153 l 1.064535,2.30133 1.067981,-2.30133 h 0.806153 l -1.694988,3.54501 z"
         style="font-weight:bold;-inkscape-font-specification:'Caviar Dreams Bold';fill:#78d8c8"
         id="path2558" />
      <path
         d="m 62.281603,116.40083 v 5.5156 h -0.716581 v -5.5156 z"
         style="font-weight:bold;-inkscape-font-specification:'Caviar Dreams Bold';fill:#78d8c8"
         id="path2560" />
      <path
         d="m 66.122886,120.70031 0.713135,0.25494 q -0.261827,0.36173 -0.378961,0.47886 -0.575331,0.57534 -1.388374,0.57534 -0.809598,0 -1.384929,-0.57534 -0.575332,-0.57533 -0.575332,-1.38837 0,-0.81304 0.575332,-1.38837 0.575331,-0.57534 1.384929,-0.57534 0.813043,0 1.388374,0.57534 0.117134,0.11713 0.378961,0.47197 l -0.713135,0.26183 q -0.137804,-0.16881 -0.186035,-0.21704 -0.358291,-0.35829 -0.868165,-0.35829 -0.506429,0 -0.868165,0.36173 -0.35829,0.3583 -0.35829,0.86817 0,0.50643 0.35829,0.86816 0.361736,0.35829 0.868165,0.35829 0.509874,0 0.87161,-0.35829 0.04479,-0.0482 0.18259,-0.21359 z"
         style="font-weight:bold;-inkscape-font-specification:'Caviar Dreams Bold';fill:#78d8c8"
         id="path2562" />
      <path
         d="m 70.101974,116.40427 h 0.310058 v 2.6045 q 0.08613,-0.11714 0.196371,-0.22738 0.554661,-0.55466 1.336698,-0.55466 0.785482,0 1.336698,0.55466 0.55466,0.55466 0.55466,1.34014 0,0.78204 -0.55466,1.3367 -0.551216,0.55466 -1.336698,0.55466 -0.782037,0 -1.336698,-0.55466 -0.110243,-0.11024 -0.196371,-0.22738 v 0.68558 h -0.310058 z m 0.310058,3.39342 v 0.64768 q 0.08957,0.44097 0.427192,0.77859 0.458198,0.4582 1.105877,0.4582 0.647678,0 1.105876,-0.45475 0.458198,-0.4582 0.458198,-1.10588 0,-0.64768 -0.458198,-1.10587 -0.458198,-0.4582 -1.105876,-0.4582 -0.647679,0 -1.105877,0.4582 -0.337619,0.33761 -0.427192,0.78203 z"
         style="fill:#989998"
         id="path2564" />
      <path
         d="m 75.931081,121.61326 -0.764812,1.59508 H 74.8631 l 0.912951,-1.91548 -1.319472,-2.75952 h 0.3514 l 1.123102,2.42535 1.123101,-2.42535 h 0.347955 l -1.471056,3.08336 z"
         style="fill:#989998"
         id="path2566" />
      <path
         d="m 83.424167,120.70031 0.713135,0.25494 q -0.261827,0.36173 -0.378961,0.47886 -0.575331,0.57534 -1.388374,0.57534 -0.809598,0 -1.384929,-0.57534 -0.575332,-0.57533 -0.575332,-1.38837 0,-0.81304 0.575332,-1.38837 0.575331,-0.57534 1.384929,-0.57534 0.813043,0 1.388374,0.57534 0.117134,0.11713 0.378961,0.47197 l -0.713135,0.26183 q -0.137804,-0.16881 -0.186035,-0.21704 -0.358291,-0.35829 -0.868165,-0.35829 -0.506429,0 -0.868165,0.36173 -0.35829,0.3583 -0.35829,0.86817 0,0.50643 0.35829,0.86816 0.361736,0.35829 0.868165,0.35829 0.509874,0 0.87161,-0.35829 0.04479,-0.0482 0.18259,-0.21359 z"
         style="font-weight:bold;-inkscape-font-specification:'Caviar Dreams Bold';fill:#78d8c8"
         id="path2568" />
      <path
         d="m 86.311159,121.91643 -1.691543,-3.54501 h 0.806153 l 1.064535,2.30133 1.06798,-2.30133 h 0.806153 l -1.694988,3.54501 z"
         style="font-weight:bold;-inkscape-font-specification:'Caviar Dreams Bold';fill:#78d8c8"
         id="path2570" />
      <path
         d="m 89.773483,116.40083 v 5.5156 h -0.71658 v -5.5156 z"
         style="font-weight:bold;-inkscape-font-specification:'Caviar Dreams Bold';fill:#78d8c8"
         id="path2572" />
      <path
         d="m 91.678623,123.10843 h -0.754476 l 0.943957,-1.98093 -1.319473,-2.75608 h 0.802708 l 0.89917,1.93959 0.899171,-1.93959 h 0.799263 z"
         style="font-weight:bold;-inkscape-font-specification:'Caviar Dreams Bold';fill:#78d8c8"
         id="path2574" />
    </g>
    <text
       xml:space="preserve"
       style="font-size:5.64444px;line-height:1.25;font-family:Poppins;-inkscape-font-specification:'Poppins, Normal';stroke-width:0.264583"
       x="6.1307335"
       y="7.833715"
       id="text31548"><tspan
         sodipodi:role="line"
         id="tspan31546"
         style="stroke-width:0.264583"
         x="6.1307335"
         y="7.833715" /></text>
    <g
       aria-label="reset"
       id="text2749"
       style="font-weight:bold;font-size:4.23333px;line-height:1.25;font-family:'Caviar Dreams';-inkscape-font-specification:'Caviar Dreams Bold';stroke-width:0.264583"
       transform="translate(-1.0583333)">
      <path
         d="M 6.8138551,7.2034591 Q 7.0536336,6.8789313 7.402966,6.8623949 V 7.3068118 Q 7.1693887,7.3192142 7.030896,7.4577069 6.8221233,7.6644125 6.8138551,7.9496661 V 9.0431385 H 6.3859746 V 6.9161383 h 0.4278805 z"
         style="fill:#78d8c8"
         id="path2577" />
      <path
         d="m 8.4716338,8.5615146 q 0.1074869,0.095084 0.3906735,0.095084 0.3059242,0 0.522965,-0.2149738 0.026872,-0.028939 0.109554,-0.1281574 L 9.9227068,8.46643 Q 9.7656105,8.6834708 9.6953307,8.7537507 9.3501324,9.098949 8.8623073,9.098949 q -0.4857581,0 -0.8309564,-0.3451983 -0.3451982,-0.3451983 -0.3451982,-0.8330234 0,-0.4878251 0.3451982,-0.8330233 0.3451983,-0.3451983 0.8309564,-0.3451983 0.4175452,0 0.7317376,0.2521808 0.051676,0.043408 0.1012858,0.093017 0.02067,0.020671 0.1178221,0.1302245 L 9.598179,7.4349693 Z M 9.186835,7.238599 q -0.072347,-0.05581 -0.3245277,-0.05581 -0.3038572,0 -0.520898,0.2170408 -0.2149738,0.2149738 -0.2149738,0.520898 0,0.2501138 0.05581,0.3245278 z"
         style="fill:#78d8c8"
         id="path2579" />
      <path
         d="m 10.79087,8.4519606 q 0.0186,0.095085 0.05788,0.1343586 0.07648,0.074414 0.181901,0.074414 0.105419,0 0.179833,-0.074414 0.07648,-0.074414 0.07648,-0.1839679 0,-0.1054199 -0.07441,-0.1798339 -0.05168,-0.051676 -0.221175,-0.1591632 -0.23151,-0.1260904 -0.328661,-0.223242 -0.169499,-0.1694986 -0.169499,-0.40721 0,-0.2397784 0.169499,-0.409277 0.169498,-0.1715656 0.409277,-0.1715656 0.239778,0 0.398941,0.1612304 0.113688,0.113688 0.144694,0.2542478 L 11.200147,7.387427 q -0.01447,-0.051676 -0.02894,-0.068213 -0.03721,-0.037207 -0.09922,-0.037207 -0.06201,0 -0.107487,0.045475 -0.04341,0.043408 -0.04341,0.1054198 0,0.062012 0.04341,0.1054199 0.03927,0.037207 0.177767,0.1260904 0.256314,0.1405597 0.37207,0.2563148 0.200504,0.2025715 0.200504,0.481624 0,0.2852536 -0.200504,0.4878251 -0.198438,0.2005044 -0.483691,0.2005044 -0.283187,0 -0.483691,-0.2025715 -0.138493,-0.1384927 -0.181901,-0.3451982 z"
         style="fill:#78d8c8"
         id="path2581" />
      <path
         d="m 12.903401,8.5615146 q 0.107487,0.095084 0.390673,0.095084 0.305925,0 0.522965,-0.2149738 0.02687,-0.028939 0.109554,-0.1281574 L 14.354474,8.46643 q -0.157096,0.2170408 -0.227376,0.2873207 -0.345199,0.3451983 -0.833024,0.3451983 -0.485758,0 -0.830956,-0.3451983 -0.345198,-0.3451983 -0.345198,-0.8330234 0,-0.4878251 0.345198,-0.8330233 0.345198,-0.3451983 0.830956,-0.3451983 0.417546,0 0.731738,0.2521808 0.05168,0.043408 0.101286,0.093017 0.02067,0.020671 0.117822,0.1302245 L 14.029946,7.4349693 Z M 13.618602,7.238599 q -0.07235,-0.05581 -0.324528,-0.05581 -0.303857,0 -0.520898,0.2170408 -0.214973,0.2149738 -0.214973,0.520898 0,0.2501138 0.05581,0.3245278 z"
         style="fill:#78d8c8"
         id="path2583" />
      <path
         d="M 15.10895,6.9161383 V 6.1182549 h 0.42788 v 0.7978834 h 0.382405 V 7.3440188 H 15.53683 V 9.0431385 H 15.10895 V 7.3440188 H 14.726544 V 6.9161383 Z"
         style="fill:#78d8c8"
         id="path2585" />
    </g>
    <g
       aria-label="quantization"
       id="text2749-3"
       style="font-weight:bold;font-size:4.23333px;line-height:1.25;font-family:'Caviar Dreams';-inkscape-font-specification:'Caviar Dreams Bold';display:inline;stroke-width:0.264583">
      <path
         d="M 33.678222,8.0798906 V 7.7636311 Q 33.641015,7.5631267 33.477718,7.3998293 33.262744,7.1827885 32.95682,7.1827885 q -0.305925,0 -0.522966,0.2170408 -0.214973,0.2170409 -0.214973,0.520898 0,0.3059243 0.214973,0.5229651 0.217041,0.2149738 0.522966,0.2149738 0.305924,0 0.520898,-0.2149738 0.163297,-0.1632974 0.200504,-0.3638018 z m 0,-1.0169913 v -0.146761 h 0.429947 V 9.7583397 H 33.678222 V 8.7785554 Q 33.368164,9.098949 32.95682,9.098949 q -0.487826,0 -0.833024,-0.3451983 -0.343131,-0.3451983 -0.343131,-0.8330234 0,-0.4878251 0.343131,-0.8309563 0.345198,-0.3451983 0.833024,-0.3451983 0.411344,0 0.721402,0.3183266 z"
         style="fill:#78d8c8"
         id="path2588" />
      <path
         d="m 35.629522,9.0720773 q -0.403076,0 -0.649055,-0.2459796 -0.24598,-0.2459796 -0.252181,-0.6159826 V 6.9161383 h 0.429948 v 1.2774404 q 0,0.1839679 0.134358,0.3162595 0.134359,0.1322915 0.334863,0.1322915 0.183968,0 0.318327,-0.1302245 0.136425,-0.1322915 0.136425,-0.3183265 V 6.9161383 h 0.427881 v 1.2939768 q -0.0062,0.370003 -0.250114,0.6159826 -0.245979,0.2459796 -0.630452,0.2459796 z"
         style="fill:#78d8c8"
         id="path2590" />
      <path
         d="M 38.974018,8.0798906 V 7.7656982 Q 38.936811,7.5651938 38.775581,7.4018964 38.55854,7.1869226 38.254683,7.1869226 q -0.305924,0 -0.522965,0.2149738 -0.214974,0.2149738 -0.214974,0.520898 0,0.3038572 0.214974,0.520898 0.217041,0.2149738 0.522965,0.2149738 0.303857,0 0.520898,-0.2149738 0.16123,-0.1632974 0.198437,-0.3638018 z m 0,-1.0149243 v -0.148828 h 0.429948 V 9.0452056 H 38.974018 V 8.7785554 Q 38.66396,9.098949 38.254683,9.098949 q -0.487825,0 -0.833023,-0.3431312 -0.343131,-0.3451983 -0.343131,-0.8330234 0,-0.4878251 0.343131,-0.8309563 0.345198,-0.3451983 0.833023,-0.3451983 0.409277,0 0.719335,0.3183265 z"
         style="fill:#78d8c8"
         id="path2592" />
      <path
         d="M 40.456097,7.4866457 V 9.0431385 H 40.026149 V 6.9161383 h 0.429948 V 7.164185 q 0.134359,-0.3638018 0.539502,-0.3638018 0.345198,0 0.547769,0.2459796 0.204639,0.2439126 0.21084,0.6139155 V 9.0431385 H 41.326327 V 7.6768148 q 0,-0.183968 -0.134358,-0.3141925 -0.134359,-0.1322915 -0.320394,-0.1322915 -0.183968,0 -0.318326,0.1281574 -0.07441,0.076481 -0.09715,0.1281575 z"
         style="fill:#78d8c8"
         id="path2594" />
      <path
         d="M 42.638907,6.9161383 V 6.1182549 h 0.427881 v 0.7978834 h 0.382405 V 7.3440188 H 43.066788 V 9.0431385 H 42.638907 V 7.3440188 H 42.256502 V 6.9161383 Z"
         style="fill:#78d8c8"
         id="path2596" />
      <path
         d="m 44.410374,6.9161383 v 2.1270002 h -0.42788 V 6.9161383 Z M 44.195401,6.0417738 q 0.124023,0 0.212906,0.086816 0.08888,0.086816 0.08888,0.2129067 0,0.1260904 -0.08888,0.2129067 -0.08888,0.086816 -0.212906,0.086816 -0.121957,0 -0.21084,-0.086816 -0.08888,-0.086816 -0.08888,-0.2129067 0,-0.1260904 0.08888,-0.2129067 0.08888,-0.086816 0.21084,-0.086816 z"
         style="fill:#78d8c8"
         id="path2598" />
      <path
         d="M 46.033013,7.3440188 H 45.158648 V 6.9161383 h 1.612303 l -0.969449,1.6970526 h 0.948779 v 0.4299476 h -1.68465 z"
         style="fill:#78d8c8"
         id="path2600" />
      <path
         d="M 49.234882,8.0798906 V 7.7656982 q -0.03721,-0.2005044 -0.198438,-0.3638018 -0.21704,-0.2149738 -0.520898,-0.2149738 -0.305924,0 -0.522965,0.2149738 -0.214973,0.2149738 -0.214973,0.520898 0,0.3038572 0.214973,0.520898 0.217041,0.2149738 0.522965,0.2149738 0.303858,0 0.520898,-0.2149738 0.161231,-0.1632974 0.198438,-0.3638018 z m 0,-1.0149243 v -0.148828 h 0.429947 V 9.0452056 H 49.234882 V 8.7785554 q -0.310059,0.3203936 -0.719336,0.3203936 -0.487825,0 -0.833023,-0.3431312 -0.343131,-0.3451983 -0.343131,-0.8330234 0,-0.4878251 0.343131,-0.8309563 0.345198,-0.3451983 0.833023,-0.3451983 0.409277,0 0.719336,0.3183265 z"
         style="fill:#78d8c8"
         id="path2602" />
      <path
         d="M 50.55573,6.9161383 V 6.1182549 h 0.42788 v 0.7978834 h 0.382405 V 7.3440188 H 50.98361 V 9.0431385 H 50.55573 V 7.3440188 H 50.173324 V 6.9161383 Z"
         style="fill:#78d8c8"
         id="path2604" />
      <path
         d="M 52.327198,6.9161383 V 9.0431385 H 51.899317 V 6.9161383 Z M 52.112224,6.0417738 q 0.124023,0 0.212907,0.086816 0.08888,0.086816 0.08888,0.2129067 0,0.1260904 -0.08888,0.2129067 -0.08888,0.086816 -0.212907,0.086816 -0.121956,0 -0.21084,-0.086816 -0.08888,-0.086816 -0.08888,-0.2129067 0,-0.1260904 0.08888,-0.2129067 0.08888,-0.086816 0.21084,-0.086816 z"
         style="fill:#78d8c8"
         id="path2606" />
      <path
         d="m 54.034585,6.7425057 q 0.487825,0 0.830957,0.3451983 0.345198,0.3451982 0.345198,0.8330233 0,0.4878251 -0.345198,0.8330234 -0.343132,0.3451983 -0.830957,0.3451983 -0.485758,0 -0.830956,-0.3451983 -0.345198,-0.3451983 -0.345198,-0.8330234 0,-0.4878251 0.345198,-0.8330233 0.345198,-0.3451983 0.830956,-0.3451983 z m 0,0.4402828 q -0.305924,0 -0.522965,0.2170408 -0.214974,0.2170409 -0.214974,0.520898 0,0.3059243 0.214974,0.520898 0.217041,0.2149738 0.522965,0.2149738 0.305925,0 0.520898,-0.2149738 0.217041,-0.2149737 0.217041,-0.520898 0,-0.3038571 -0.217041,-0.520898 Q 54.34051,7.1827885 54.034585,7.1827885 Z"
         style="fill:#78d8c8"
         id="path2608" />
      <path
         d="M 56.13678,7.4866457 V 9.0431385 H 55.706833 V 6.9161383 H 56.13678 V 7.164185 q 0.134359,-0.3638018 0.539502,-0.3638018 0.345198,0 0.547769,0.2459796 0.204639,0.2439126 0.21084,0.6139155 v 1.3828602 h -0.42788 V 7.6768148 q 0,-0.183968 -0.134359,-0.3141925 -0.134359,-0.1322915 -0.320394,-0.1322915 -0.183968,0 -0.318326,0.1281574 -0.07441,0.076481 -0.09715,0.1281575 z"
         style="fill:#78d8c8"
         id="path2610" />
    </g>
    <g
       aria-label="stack"
       id="text2749-8"
       style="font-weight:bold;font-size:4.23333px;line-height:1.25;font-family:'Caviar Dreams';-inkscape-font-specification:'Caviar Dreams Bold';display:inline;stroke-width:0.264583"
       transform="translate(-0.52916667)">
      <path
         d="m 74.630355,8.4519606 q 0.0186,0.095085 0.05788,0.1343586 0.07648,0.074414 0.181901,0.074414 0.10542,0 0.179834,-0.074414 0.07648,-0.074414 0.07648,-0.1839679 0,-0.1054199 -0.07441,-0.1798339 -0.05168,-0.051676 -0.221175,-0.1591632 -0.231511,-0.1260904 -0.328662,-0.223242 -0.169499,-0.1694986 -0.169499,-0.40721 0,-0.2397784 0.169499,-0.409277 0.169498,-0.1715656 0.409277,-0.1715656 0.239778,0 0.398942,0.1612304 0.113688,0.113688 0.144693,0.2542478 L 75.039632,7.387427 q -0.01447,-0.051676 -0.02894,-0.068213 -0.03721,-0.037207 -0.09922,-0.037207 -0.06201,0 -0.107487,0.045475 -0.04341,0.043408 -0.04341,0.1054198 0,0.062012 0.04341,0.1054199 0.03927,0.037207 0.177767,0.1260904 0.256315,0.1405597 0.37207,0.2563148 0.200504,0.2025715 0.200504,0.481624 0,0.2852536 -0.200504,0.4878251 -0.198438,0.2005044 -0.483691,0.2005044 -0.283187,0 -0.483691,-0.2025715 -0.13849,-0.1384923 -0.181898,-0.3451978 z"
         style="fill:#78d8c8"
         id="path2613" />
      <path
         d="M 76.370816,6.9161383 V 6.1182549 h 0.427881 v 0.7978834 h 0.382405 V 7.3440188 H 76.798697 V 9.0431385 H 76.370816 V 7.3440188 H 75.988411 V 6.9161383 Z"
         style="fill:#78d8c8"
         id="path2615" />
      <path
         d="M 79.523076,8.0798906 V 7.7656982 Q 79.485869,7.5651938 79.324639,7.4018964 79.107598,7.1869226 78.803741,7.1869226 q -0.305925,0 -0.522965,0.2149738 -0.214974,0.2149738 -0.214974,0.520898 0,0.3038572 0.214974,0.520898 0.21704,0.2149738 0.522965,0.2149738 0.303857,0 0.520898,-0.2149738 0.16123,-0.1632974 0.198437,-0.3638018 z m 0,-1.0149243 v -0.148828 h 0.429947 V 9.0452056 H 79.523076 V 8.7785554 q -0.310058,0.3203936 -0.719335,0.3203936 -0.487826,0 -0.833024,-0.3431312 -0.343131,-0.3451983 -0.343131,-0.8330234 0,-0.4878251 0.343131,-0.8309563 0.345198,-0.3451983 0.833024,-0.3451983 0.409277,0 0.719335,0.3183265 z"
         style="fill:#78d8c8"
         id="path2617" />
      <path
         d="M 82.259857,8.3134679 82.687738,8.46643 q -0.157096,0.2170408 -0.227376,0.2873207 -0.345199,0.3451983 -0.833024,0.3451983 -0.485758,0 -0.830956,-0.3451983 -0.345198,-0.3451983 -0.345198,-0.8330234 0,-0.4878251 0.345198,-0.8330233 0.345198,-0.3451983 0.830956,-0.3451983 0.487825,0 0.833024,0.3451983 0.07028,0.07028 0.227376,0.2831866 L 82.259857,7.5279868 Q 82.177175,7.4267011 82.148236,7.3977623 81.933262,7.1827885 81.627338,7.1827885 q -0.303857,0 -0.520898,0.2170408 -0.214974,0.2149738 -0.214974,0.520898 0,0.3038572 0.214974,0.520898 0.217041,0.2149738 0.520898,0.2149738 0.305924,0 0.522965,-0.2149738 0.02687,-0.028939 0.109554,-0.1281574 z"
         style="fill:#78d8c8"
         id="path2619" />
      <path
         d="m 84.465405,6.9161383 -0.576708,0.7110672 0.802017,1.415933 H 84.180152 L 83.601376,7.982739 83.582776,8.005477 V 9.0431385 H 83.152825 V 6.1182549 h 0.429948 v 1.2030263 l 0.330729,-0.4051429 z"
         style="fill:#78d8c8"
         id="path2621" />
    </g>
    <g
       aria-label="length"
       id="text2749-1"
       style="font-weight:bold;font-size:4.23333px;line-height:1.25;font-family:'Caviar Dreams';-inkscape-font-specification:'Caviar Dreams Bold';display:inline;stroke-width:0.264583">
      <path
         d="M 98.269036,5.7337826 V 9.0431385 H 97.839088 V 5.7337826 Z"
         style="fill:#78d8c8"
         id="path2624" />
      <path
         d="m 99.55061,8.5615146 q 0.107487,0.095084 0.390674,0.095084 0.305926,0 0.522966,-0.2149738 0.0269,-0.028939 0.10955,-0.1281574 l 0.42788,0.1529621 q -0.15709,0.2170408 -0.22737,0.2873207 -0.3452,0.3451983 -0.833026,0.3451983 -0.485758,0 -0.830957,-0.3451983 -0.345198,-0.3451983 -0.345198,-0.8330234 0,-0.4878251 0.345198,-0.8330233 0.345199,-0.3451983 0.830957,-0.3451983 0.417546,0 0.731736,0.2521808 0.0517,0.043408 0.10129,0.093017 0.0207,0.020671 0.11782,0.1302245 l -0.21497,0.2170408 z m 0.7152,-1.3229156 q -0.0724,-0.05581 -0.324526,-0.05581 -0.303858,0 -0.520898,0.2170408 -0.214974,0.2149738 -0.214974,0.520898 0,0.2501138 0.05581,0.3245278 z"
         style="fill:#78d8c8"
         id="path2626" />
      <path
         d="m 101.92772,7.4866457 v 1.5564928 h -0.42994 V 6.9161383 h 0.42994 V 7.164185 q 0.13436,-0.3638018 0.53951,-0.3638018 0.34519,0 0.54777,0.2459796 0.20463,0.2439126 0.21084,0.6139155 v 1.3828602 h -0.42789 V 7.6768148 q 0,-0.183968 -0.13435,-0.3141925 -0.13436,-0.1322915 -0.3204,-0.1322915 -0.18397,0 -0.31832,0.1281574 -0.0744,0.076481 -0.0972,0.1281575 z"
         style="fill:#78d8c8"
         id="path2628" />
      <path
         d="m 105.69597,7.7553629 q -0.0393,-0.1963703 -0.19844,-0.3555336 -0.21497,-0.2170408 -0.5209,-0.2170408 -0.30592,0 -0.52296,0.2170408 -0.21498,0.2170409 -0.21498,0.520898 0,0.3059243 0.21498,0.5229651 0.21704,0.2149738 0.52296,0.2149738 0.30593,0 0.5209,-0.2149738 0.15916,-0.1591633 0.19844,-0.3513995 z m 0.002,-0.6924636 v -0.146761 h 0.42995 v 1.5812975 q 0,0.6201167 -0.33693,0.9570468 -0.3452,0.3038571 -0.83302,0.3038571 -0.48783,0 -0.83303,-0.3038571 -0.0703,-0.07028 -0.2253,-0.2852537 l 0.42581,-0.1529621 q 0.0827,0.099219 0.11162,0.1281574 0.21704,0.2149738 0.5209,0.2149738 0.51056,0 0.70693,-0.669726 -0.2005,0.3886064 -0.68833,0.3886064 -0.48782,0 -0.83302,-0.334863 -0.34313,-0.334863 -0.34313,-0.8226881 0,-0.4878251 0.34313,-0.8309563 0.3452,-0.3451983 0.83302,-0.3451983 0.41135,0 0.7214,0.3183266 z"
         style="fill:#78d8c8"
         id="path2630" />
      <path
         d="M 107.01475,6.9161383 V 6.1182549 h 0.42788 v 0.7978834 h 0.3824 v 0.4278805 h -0.3824 v 1.6991197 h -0.42788 V 7.3440188 h -0.38241 V 6.9161383 Z"
         style="fill:#78d8c8"
         id="path2632" />
      <path
         d="m 108.32319,5.7358496 h 0.42995 v 1.4097319 q 0.17984,-0.3451983 0.5209,-0.3451983 0.34106,0 0.54364,0.2459796 0.20463,0.2439126 0.21084,0.6139155 v 1.3828602 h -0.42789 V 7.6768148 q 0,-0.183968 -0.10542,-0.3141925 -0.10335,-0.1322915 -0.32866,-0.1322915 -0.26665,0 -0.41341,0.2852537 v 1.527554 h -0.42995 z"
         style="fill:#78d8c8"
         id="path2634" />
    </g>
    <g
       aria-label="poly out"
       id="text2749-7"
       style="font-weight:bold;font-size:4.23333px;line-height:1.25;font-family:'Caviar Dreams';-inkscape-font-specification:'Caviar Dreams Bold';display:inline;stroke-width:0.264583"
       transform="translate(0.42005145)">
      <path
         d="m 126.48447,7.7553629 v 0.3327959 q 0.0393,0.1963703 0.2005,0.3555336 0.21498,0.2149738 0.5209,0.2149738 0.30593,0 0.5209,-0.2149738 0.21704,-0.2170408 0.21704,-0.5229651 0,-0.3038571 -0.21704,-0.520898 -0.21497,-0.2170408 -0.5209,-0.2170408 -0.30592,0 -0.5209,0.2170408 -0.16123,0.1591633 -0.2005,0.3555336 z m 0,1.0231925 v 0.9797843 h -0.42788 V 6.9161383 h 0.42788 v 0.1922362 q 0.31006,-0.3638018 0.7214,-0.3638018 0.48783,0 0.83096,0.3451983 0.3452,0.3431312 0.3452,0.8309563 0,0.4878251 -0.3452,0.8330234 -0.34313,0.3451983 -0.83096,0.3451983 -0.41134,0 -0.7214,-0.3203936 z"
         style="text-align:center;text-anchor:middle;fill:#78d8c8"
         id="path2637" />
      <path
         d="m 129.95092,6.7425057 q 0.48783,0 0.83096,0.3451983 0.3452,0.3451982 0.3452,0.8330233 0,0.4878251 -0.3452,0.8330234 -0.34313,0.3451983 -0.83096,0.3451983 -0.48576,0 -0.83096,-0.3451983 -0.34519,-0.3451983 -0.34519,-0.8330234 0,-0.4878251 0.34519,-0.8330233 0.3452,-0.3451983 0.83096,-0.3451983 z m 0,0.4402828 q -0.30592,0 -0.52296,0.2170408 -0.21498,0.2170409 -0.21498,0.520898 0,0.3059243 0.21498,0.520898 0.21704,0.2149738 0.52296,0.2149738 0.30593,0 0.5209,-0.2149738 0.21704,-0.2149737 0.21704,-0.520898 0,-0.3038571 -0.21704,-0.520898 -0.21497,-0.2170408 -0.5209,-0.2170408 z"
         style="text-align:center;text-anchor:middle;fill:#78d8c8"
         id="path2639" />
      <path
         d="m 132.05312,5.7337826 v 3.3093559 h -0.42995 V 5.7337826 Z"
         style="text-align:center;text-anchor:middle;fill:#78d8c8"
         id="path2641" />
      <path
         d="m 133.1962,9.7583397 h -0.45269 l 0.56638,-1.1885569 -0.79169,-1.6536445 h 0.48163 l 0.5395,1.1637523 0.5395,-1.1637523 h 0.47956 z"
         style="text-align:center;text-anchor:middle;fill:#78d8c8"
         id="path2643" />
      <path
         d="m 128.24767,12.034168 q 0.48782,0 0.83095,0.345198 0.3452,0.345198 0.3452,0.833024 0,0.487825 -0.3452,0.833023 -0.34313,0.345198 -0.83095,0.345198 -0.48576,0 -0.83096,-0.345198 -0.3452,-0.345198 -0.3452,-0.833023 0,-0.487826 0.3452,-0.833024 0.3452,-0.345198 0.83096,-0.345198 z m 0,0.440283 q -0.30593,0 -0.52297,0.217041 -0.21497,0.21704 -0.21497,0.520898 0,0.305924 0.21497,0.520898 0.21704,0.214973 0.52297,0.214973 0.30592,0 0.5209,-0.214973 0.21704,-0.214974 0.21704,-0.520898 0,-0.303858 -0.21704,-0.520898 -0.21498,-0.217041 -0.5209,-0.217041 z"
         style="text-align:center;text-anchor:middle;fill:#78d8c8"
         id="path2645" />
      <path
         d="m 130.82115,14.363739 q -0.40307,0 -0.64905,-0.245979 -0.24598,-0.24598 -0.25218,-0.615983 v -1.293976 h 0.42994 v 1.27744 q 0,0.183968 0.13436,0.316259 0.13436,0.132292 0.33486,0.132292 0.18397,0 0.31833,-0.130225 0.13643,-0.132291 0.13643,-0.318326 v -1.27744 h 0.42788 v 1.293976 q -0.006,0.370003 -0.25012,0.615983 -0.24598,0.245979 -0.63045,0.245979 z"
         style="text-align:center;text-anchor:middle;fill:#78d8c8"
         id="path2647" />
      <path
         d="m 132.58022,12.207801 v -0.797884 h 0.42788 v 0.797884 h 0.3824 v 0.42788 h -0.3824 v 1.69912 h -0.42788 v -1.69912 h -0.38241 v -0.42788 z"
         style="text-align:center;text-anchor:middle;fill:#78d8c8"
         id="path2649" />
    </g>
    <g
       aria-label="cv out"
       id="text2749-0"
       style="font-weight:bold;font-size:4.23333px;line-height:1.25;font-family:'Caviar Dreams';-inkscape-font-specification:'Caviar Dreams Bold';display:inline;stroke-width:0.264583"
       transform="translate(0.42005145)">
      <path
         d="m 129.77108,30.452226 0.42788,0.152962 q -0.15709,0.217041 -0.22737,0.28732 -0.3452,0.345199 -0.83303,0.345199 -0.48575,0 -0.83095,-0.345199 -0.3452,-0.345198 -0.3452,-0.833023 0,-0.487825 0.3452,-0.833023 0.3452,-0.345199 0.83095,-0.345199 0.48783,0 0.83303,0.345199 0.0703,0.07028 0.22737,0.283186 l -0.42788,0.157096 q -0.0827,-0.101285 -0.11162,-0.130224 -0.21497,-0.214974 -0.5209,-0.214974 -0.30385,0 -0.52089,0.217041 -0.21498,0.214974 -0.21498,0.520898 0,0.303857 0.21498,0.520898 0.21704,0.214974 0.52089,0.214974 0.30593,0 0.52297,-0.214974 0.0269,-0.02894 0.10955,-0.128157 z"
         style="text-align:center;text-anchor:middle;fill:#78d8c8"
         id="path2652" />
      <path
         d="m 131.50328,31.181896 -1.01493,-2.127 h 0.48369 l 0.63872,1.380793 0.64079,-1.380793 h 0.48369 l -1.01699,2.127 z"
         style="text-align:center;text-anchor:middle;fill:#78d8c8"
         id="path2654" />
      <path
         d="m 128.32414,34.172926 q 0.48783,0 0.83096,0.345198 0.3452,0.345198 0.3452,0.833023 0,0.487825 -0.3452,0.833024 -0.34313,0.345198 -0.83096,0.345198 -0.48575,0 -0.83095,-0.345198 -0.3452,-0.345199 -0.3452,-0.833024 0,-0.487825 0.3452,-0.833023 0.3452,-0.345198 0.83095,-0.345198 z m 0,0.440282 q -0.30592,0 -0.52296,0.217041 -0.21497,0.217041 -0.21497,0.520898 0,0.305924 0.21497,0.520898 0.21704,0.214974 0.52296,0.214974 0.30593,0 0.5209,-0.214974 0.21704,-0.214974 0.21704,-0.520898 0,-0.303857 -0.21704,-0.520898 -0.21497,-0.217041 -0.5209,-0.217041 z"
         style="text-align:center;text-anchor:middle;fill:#78d8c8"
         id="path2656" />
      <path
         d="m 130.89763,36.502497 q -0.40308,0 -0.64906,-0.245979 -0.24598,-0.24598 -0.25218,-0.615983 v -1.293977 h 0.42995 v 1.277441 q 0,0.183968 0.13436,0.316259 0.13436,0.132292 0.33486,0.132292 0.18397,0 0.31833,-0.130225 0.13642,-0.132291 0.13642,-0.318326 v -1.277441 h 0.42788 v 1.293977 q -0.006,0.370003 -0.25011,0.615983 -0.24598,0.245979 -0.63045,0.245979 z"
         style="text-align:center;text-anchor:middle;fill:#78d8c8"
         id="path2658" />
      <path
         d="m 132.65669,34.346558 v -0.797883 h 0.42788 v 0.797883 h 0.38241 v 0.427881 h -0.38241 v 1.699119 h -0.42788 v -1.699119 h -0.3824 v -0.427881 z"
         style="text-align:center;text-anchor:middle;fill:#78d8c8"
         id="path2660" />
    </g>
    <g
       aria-label="clock"
       id="text2749-5"
       style="font-weight:bold;font-size:4.23333px;line-height:1.25;font-family:'Caviar Dreams';-inkscape-font-specification:'Caviar Dreams Bold';display:inline;stroke-width:0.264583"
       transform="translate(-1.0583333)">
      <path
         d="m 7.6499792,33.602418 0.4278805,0.152962 q -0.1570962,0.217041 -0.2273761,0.287321 -0.3451983,0.345198 -0.8330234,0.345198 -0.4857581,0 -0.8309563,-0.345198 -0.3451983,-0.345199 -0.3451983,-0.833024 0,-0.487825 0.3451983,-0.833023 0.3451982,-0.345198 0.8309563,-0.345198 0.4878251,0 0.8330234,0.345198 0.07028,0.07028 0.2273761,0.283187 l -0.4278805,0.157096 q -0.082682,-0.101286 -0.111621,-0.130225 -0.2149738,-0.214974 -0.520898,-0.214974 -0.3038572,0 -0.520898,0.217041 -0.2149738,0.214974 -0.2149738,0.520898 0,0.303857 0.2149738,0.520898 0.2170408,0.214974 0.520898,0.214974 0.3059242,0 0.522965,-0.214974 0.026872,-0.02894 0.109554,-0.128157 z"
         style="fill:#78d8c8"
         id="path2663" />
      <path
         d="m 9.0039007,31.022733 v 3.309355 H 8.5739531 v -3.309355 z"
         style="fill:#78d8c8"
         id="path2665" />
      <path
         d="m 10.676149,32.031456 q 0.487825,0 0.830956,0.345198 0.345198,0.345198 0.345198,0.833023 0,0.487825 -0.345198,0.833024 -0.343131,0.345198 -0.830956,0.345198 -0.485758,0 -0.8309566,-0.345198 -0.3451983,-0.345199 -0.3451983,-0.833024 0,-0.487825 0.3451983,-0.833023 0.3451986,-0.345198 0.8309566,-0.345198 z m 0,0.440282 q -0.305924,0 -0.522965,0.217041 -0.2149741,0.217041 -0.2149741,0.520898 0,0.305925 0.2149741,0.520898 0.217041,0.214974 0.522965,0.214974 0.305924,0 0.520898,-0.214974 0.217041,-0.214973 0.217041,-0.520898 0,-0.303857 -0.217041,-0.520898 -0.214974,-0.217041 -0.520898,-0.217041 z"
         style="fill:#78d8c8"
         id="path2667" />
      <path
         d="m 14.033047,33.602418 0.42788,0.152962 q -0.157096,0.217041 -0.227376,0.287321 -0.345198,0.345198 -0.833023,0.345198 -0.485758,0 -0.830957,-0.345198 -0.345198,-0.345199 -0.345198,-0.833024 0,-0.487825 0.345198,-0.833023 0.345199,-0.345198 0.830957,-0.345198 0.487825,0 0.833023,0.345198 0.07028,0.07028 0.227376,0.283187 l -0.42788,0.157096 q -0.08268,-0.101286 -0.111621,-0.130225 -0.214974,-0.214974 -0.520898,-0.214974 -0.303857,0 -0.520898,0.217041 -0.214974,0.214974 -0.214974,0.520898 0,0.303857 0.214974,0.520898 0.217041,0.214974 0.520898,0.214974 0.305924,0 0.522965,-0.214974 0.02687,-0.02894 0.109554,-0.128157 z"
         style="fill:#78d8c8"
         id="path2669" />
      <path
         d="m 16.238595,32.205088 -0.576709,0.711067 0.802018,1.415933 h -0.510563 l -0.578775,-1.060399 -0.0186,0.02274 v 1.037661 h -0.429947 v -2.924883 h 0.429947 v 1.203026 l 0.330729,-0.405143 z"
         style="fill:#78d8c8"
         id="path2671" />
    </g>
  </g>
</svg>
