<?xml version="1.0" encoding="UTF-8" standalone="no"?>
<svg
   width="142.24001mm"
   height="128.5mm"
   viewBox="0 0 142.24 128.5"
   version="1.1"
   id="svg5"
   inkscape:version="1.1.2 (0a00cf5339, 2022-02-04)"
   sodipodi:docname="ntrvlc.svg"
   xmlns:inkscape="http://www.inkscape.org/namespaces/inkscape"
   xmlns:sodipodi="http://sodipodi.sourceforge.net/DTD/sodipodi-0.dtd"
   xmlns:xlink="http://www.w3.org/1999/xlink"
   xmlns="http://www.w3.org/2000/svg"
   xmlns:svg="http://www.w3.org/2000/svg"
   xmlns:rdf="http://www.w3.org/1999/02/22-rdf-syntax-ns#"
   xmlns:cc="http://creativecommons.org/ns#"
   xmlns:dc="http://purl.org/dc/elements/1.1/">
  <metadata
     id="metadata6644">
    <rdf:RDF>
      <cc:Work
         rdf:about="">
        <dc:format>image/svg+xml</dc:format>
        <dc:type
           rdf:resource="http://purl.org/dc/dcmitype/StillImage" />
      </cc:Work>
    </rdf:RDF>
  </metadata>
  <sodipodi:namedview
     id="namedview7"
     pagecolor="#505050"
     bordercolor="#eeeeee"
     borderopacity="1"
     inkscape:pageshadow="0"
     inkscape:pageopacity="0"
     inkscape:pagecheckerboard="0"
     inkscape:document-units="mm"
     showgrid="false"
     showguides="false"
     inkscape:guide-bbox="true"
     inkscape:zoom="1.5536477"
     inkscape:cx="298.97383"
     inkscape:cy="233.32188"
     inkscape:window-width="1920"
     inkscape:window-height="1050"
     inkscape:window-x="0"
     inkscape:window-y="0"
     inkscape:window-maximized="1"
     inkscape:current-layer="g13980"
     width="142.24mm"
     units="mm"
     inkscape:document-rotation="0">
    <inkscape:grid
       type="xygrid"
       id="grid1050"
       units="mm"
       spacingx="5.0800001"
       spacingy="5.0800001"
       empspacing="0" />
  </sodipodi:namedview>
  <defs
     id="defs2">
    <linearGradient
       inkscape:collect="always"
       id="linearGradient7272">
      <stop
         style="stop-color:#100c11;stop-opacity:1;"
         offset="0"
         id="stop7268" />
      <stop
         style="stop-color:#0aa0ab;stop-opacity:1"
         offset="1"
         id="stop7270" />
    </linearGradient>
    <linearGradient
       id="linearGradient47039"
       inkscape:swatch="solid">
      <stop
         style="stop-color:#859998;stop-opacity:1;"
         offset="0"
         id="stop47037" />
    </linearGradient>
    <pattern
       id="EMFhbasepattern"
       patternUnits="userSpaceOnUse"
       width="6"
       height="6"
       x="0"
       y="0" />
    <pattern
       id="EMFhbasepattern-7"
       patternUnits="userSpaceOnUse"
       width="6"
       height="6"
       x="0"
       y="0" />
    <pattern
       id="EMFhbasepattern-72"
       patternUnits="userSpaceOnUse"
       width="6"
       height="6"
       x="0"
       y="0" />
    <linearGradient
       inkscape:collect="always"
       xlink:href="#linearGradient7272"
       id="linearGradient7274"
       x1="1.0547119e-14"
       y1="2.220446e-15"
       x2="142.24001"
       y2="128.5"
       gradientUnits="userSpaceOnUse" />
  </defs>
  <g
     inkscape:label="background"
     inkscape:groupmode="layer"
     id="layer1"
     style="display:inline">
    <rect
       style="fill:url(#linearGradient7274);fill-opacity:1;stroke:none;stroke-width:0.886549;stroke-linecap:butt;stroke-linejoin:miter;stroke-miterlimit:4;stroke-dasharray:none;stroke-dashoffset:0;stroke-opacity:1"
       id="rect48062"
       width="142.24001"
       height="128.5"
       x="1.0547119e-14"
       y="2.220446e-15" />
    <rect
       style="fill:#100c11;fill-opacity:1;stroke:#e0ede6;stroke-width:0.529167;stroke-miterlimit:4;stroke-dasharray:none;stroke-opacity:1"
       id="rect40273"
       width="14.98"
       height="106.22254"
       x="123.23751"
       y="4.1585965" />
    <path
       style="display:inline;fill:#e0ede6;stroke:#e0ede6;stroke-width:0.529167;stroke-linecap:butt;stroke-linejoin:miter;stroke-miterlimit:4;stroke-dasharray:none;stroke-opacity:1"
       d="m 121.04544,50.80112 c -104.733361,0 -104.563063,0 -104.563063,0"
       id="path2341" />
    <path
       style="display:inline;fill:#e0ede6;stroke:#e0ede6;stroke-width:0.529167;stroke-linecap:butt;stroke-linejoin:miter;stroke-miterlimit:4;stroke-dasharray:none;stroke-opacity:1"
       d="m 121.04544,71.160888 c -104.733359,0 -104.563061,0 -104.563061,0"
       id="path2341-4" />
    <path
       style="display:inline;fill:#e0ede6;stroke:#e0ede6;stroke-width:0.529167;stroke-linecap:butt;stroke-linejoin:miter;stroke-miterlimit:4;stroke-dasharray:none;stroke-opacity:1"
       d="m 121.04544,91.520651 c -104.733358,0 -104.56306,0 -104.56306,0"
       id="path2341-7" />
    <path
       style="fill:#100c11;fill-opacity:1;stroke:#64f6ed;stroke-width:0.375882;stroke-linecap:round;stroke-linejoin:round;stroke-miterlimit:4;stroke-dasharray:none;stroke-opacity:1;paint-order:stroke fill markers"
       d="m 98.635158,122.89634 c -1.84144,-0.10907 -3.447291,-0.7729 -4.743034,-1.96067 -0.49382,-0.45266 -1.099532,-1.2356 -1.455378,-1.8812 -0.308769,-0.56018 -0.536939,-1.15314 -0.681597,-1.7713 -0.07734,-0.33048 -0.142051,-0.73075 -0.121466,-0.75128 0.02547,-0.0254 0.943211,0.0311 1.355725,0.0942 1.917566,0.29311 3.82005,0.65771 5.39161,1.46032 0.32015,0.1635 0.35219,0.19101 0.50045,-0.001 0.23886,-0.3096 0.5912,-0.59361 0.97585,-0.78659 0.321272,-0.16119 0.970982,-0.37799 1.011452,-0.33752 -0.112,0.25341 -0.18631,0.55795 -0.21997,0.81386 -0.031,0.23555 0.0331,0.87588 0.0774,0.9631 0.55022,0.23838 1.30989,0.14009 1.89583,-0.0443 2.28398,-1.12037 2.93801,-3.04152 2.99878,-5.13643 0.0164,-0.56644 0.01,-0.59178 -0.16471,-0.63584 -0.52304,-0.19561 -1.24848,-1.06464 -0.79036,-0.93093 1.15392,0.33679 1.19821,0.32773 1.94168,-0.28872 0.32677,-0.27094 -0.0207,0.76125 -0.3327,1.00321 -0.30664,0.23028 -0.30833,0.23445 -0.21086,0.52164 0.27429,0.92557 0.38503,1.79818 0.29515,2.78171 -0.25472,2.56524 -1.79091,4.91055 -3.94626,6.02477 -0.88905,0.4596 -1.79727,0.73854 -2.697792,0.82858 -0.26846,0.0268 -0.87977,0.0464 -1.07977,0.0346 z"
       id="path10930"
       sodipodi:nodetypes="csssssscscsccccsscccsscc" />
    <g
       aria-label="ntrvlc by cvly"
       id="text22874"
       style="font-size:8.46667px;line-height:1.25;font-family:'Odin Rounded';-inkscape-font-specification:'Odin Rounded';text-align:end;text-anchor:end;fill:#64f6ed;stroke-width:0.375882">
      <path
         d="m 36.171591,118.54505 v 3.11299 h -0.859896 v -4.254 h 0.859896 v 0.49609 q 0.268718,-0.7276 1.079004,-0.7276 0.690398,0 1.095541,0.49196 0.409278,0.48782 0.42168,1.22783 v 2.76572 h -0.855762 v -2.73265 q 0,-0.36793 -0.268718,-0.62838 -0.268717,-0.26459 -0.640788,-0.26459 -0.367936,0 -0.636654,0.25632 -0.148828,0.15296 -0.194303,0.25631 z"
         style="font-weight:bold;font-family:'Caviar Dreams';-inkscape-font-specification:'Caviar Dreams Bold'"
         id="path4022" />
      <path
         d="m 40.537218,117.40404 v -1.59577 h 0.855762 v 1.59577 h 0.764811 v 0.85576 H 41.39298 v 3.39824 h -0.855762 v -3.39824 h -0.764812 v -0.85576 z"
         style="font-weight:bold;font-family:'Caviar Dreams';-inkscape-font-specification:'Caviar Dreams Bold'"
         id="path4024" />
      <path
         d="m 44.009876,117.97868 q 0.479557,-0.64906 1.178223,-0.68213 v 0.88884 q -0.467155,0.0248 -0.744141,0.30179 -0.417546,0.41341 -0.434082,0.98392 v 2.18694 h -0.855763 v -4.254 h 0.855763 z"
         style="font-weight:bold;font-family:'Caviar Dreams';-inkscape-font-specification:'Caviar Dreams Bold'"
         id="path4026" />
      <path
         d="m 47.945554,121.65804 -2.029851,-4.254 h 0.967383 l 1.277442,2.76159 1.281576,-2.76159 h 0.967383 l -2.033985,4.254 z"
         style="font-weight:bold;font-family:'Caviar Dreams';-inkscape-font-specification:'Caviar Dreams Bold'"
         id="path4028" />
      <path
         d="m 52.100341,115.03932 v 6.61872 h -0.859896 v -6.61872 z"
         style="font-weight:bold;font-family:'Caviar Dreams';-inkscape-font-specification:'Caviar Dreams Bold'"
         id="path4030" />
      <path
         d="m 56.709881,120.1987 0.855762,0.30592 q -0.314193,0.43409 -0.454753,0.57465 -0.690398,0.69039 -1.666049,0.69039 -0.971517,0 -1.661915,-0.69039 -0.690397,-0.6904 -0.690397,-1.66605 0,-0.97565 0.690397,-1.66605 0.690398,-0.6904 1.661915,-0.6904 0.975651,0 1.666049,0.6904 0.14056,0.14056 0.454753,0.56637 l -0.855762,0.3142 q -0.165365,-0.20258 -0.223243,-0.26045 -0.429948,-0.42995 -1.041797,-0.42995 -0.607715,0 -1.041797,0.43408 -0.429948,0.42995 -0.429948,1.0418 0,0.60771 0.429948,1.0418 0.434082,0.42994 1.041797,0.42994 0.611849,0 1.045931,-0.42994 0.05374,-0.0579 0.219109,-0.25632 z"
         style="font-weight:bold;font-family:'Caviar Dreams';-inkscape-font-specification:'Caviar Dreams Bold'"
         id="path4032" />
      <path
         d="m 61.484785,115.04346 h 0.37207 v 3.12539 q 0.103353,-0.14056 0.235645,-0.27285 0.665593,-0.6656 1.604037,-0.6656 0.942578,0 1.604037,0.6656 0.665593,0.66559 0.665593,1.60817 0,0.93844 -0.665593,1.60404 -0.661459,0.66559 -1.604037,0.66559 -0.938444,0 -1.604037,-0.66559 -0.132292,-0.1323 -0.235645,-0.27286 v 0.82269 h -0.37207 z m 0.37207,4.0721 v 0.77722 q 0.107487,0.52916 0.512631,0.93431 0.549837,0.54983 1.327051,0.54983 0.777214,0 1.327051,-0.5457 0.549838,-0.54984 0.549838,-1.32705 0,-0.77722 -0.549838,-1.32705 -0.549837,-0.54984 -1.327051,-0.54984 -0.777214,0 -1.327051,0.54984 -0.405144,0.40514 -0.512631,0.93844 z"
         style="font-weight:normal;-inkscape-font-specification:'Caviar Dreams';fill:#e0ede6"
         id="path4034" />
      <path
         d="m 68.479709,121.29424 -0.917773,1.9141 h -0.363803 l 1.095541,-2.29857 -1.583366,-3.31143 h 0.421679 l 1.347722,2.91042 1.347722,-2.91042 h 0.417546 l -1.765268,3.70003 z"
         style="font-weight:normal;-inkscape-font-specification:'Caviar Dreams';fill:#e0ede6"
         id="path4036" />
      <path
         d="m 77.471412,120.1987 0.855762,0.30592 q -0.314192,0.43409 -0.454752,0.57465 -0.690398,0.69039 -1.666049,0.69039 -0.971517,0 -1.661915,-0.69039 -0.690397,-0.6904 -0.690397,-1.66605 0,-0.97565 0.690397,-1.66605 0.690398,-0.6904 1.661915,-0.6904 0.975651,0 1.666049,0.6904 0.14056,0.14056 0.454752,0.56637 l -0.855762,0.3142 q -0.165364,-0.20258 -0.223242,-0.26045 -0.429948,-0.42995 -1.041797,-0.42995 -0.607715,0 -1.041797,0.43408 -0.429949,0.42995 -0.429949,1.0418 0,0.60771 0.429949,1.0418 0.434082,0.42994 1.041797,0.42994 0.611849,0 1.045931,-0.42994 0.05374,-0.0579 0.219108,-0.25632 z"
         style="font-weight:bold;font-family:'Caviar Dreams';-inkscape-font-specification:'Caviar Dreams Bold'"
         id="path4038" />
      <path
         d="m 80.935802,121.65804 -2.029851,-4.254 h 0.967383 l 1.277442,2.76159 1.281576,-2.76159 h 0.967383 l -2.033985,4.254 z"
         style="font-weight:bold;font-family:'Caviar Dreams';-inkscape-font-specification:'Caviar Dreams Bold'"
         id="path4040" />
      <path
         d="m 85.09059,115.03932 v 6.61872 h -0.859896 v -6.61872 z"
         style="font-weight:bold;font-family:'Caviar Dreams';-inkscape-font-specification:'Caviar Dreams Bold'"
         id="path4042" />
      <path
         d="m 87.376753,123.08845 h -0.905371 l 1.132747,-2.37712 -1.583366,-3.30729 h 0.963249 l 1.079004,2.3275 1.079005,-2.3275 h 0.959115 z"
         style="font-weight:bold;font-family:'Caviar Dreams';-inkscape-font-specification:'Caviar Dreams Bold'"
         id="path4044" />
    </g>
  </g>
  <g
     inkscape:groupmode="layer"
     id="layer4"
     inkscape:label="labels"
     style="display:inline">
    <text
       xml:space="preserve"
       style="font-style:normal;font-weight:normal;font-size:10.5833px;line-height:1.25;font-family:sans-serif;fill:#000000;fill-opacity:1;stroke:none;stroke-width:0.264583"
       x="53.81422"
       y="122.95528"
       id="text61781"><tspan
         sodipodi:role="line"
         id="tspan61779"
         style="stroke-width:0.264583"
         x="53.81422"
         y="122.95528" /></text>
    <text
       xml:space="preserve"
       style="font-size:5.64444px;line-height:1.25;font-family:Poppins;-inkscape-font-specification:'Poppins, Normal';stroke-width:0.264583"
       x="6.1307335"
       y="7.833715"
       id="text31548"><tspan
         sodipodi:role="line"
         id="tspan31546"
         style="stroke-width:0.264583"
         x="6.1307335"
         y="7.833715" /></text>
    <g
       aria-label="reset"
       id="text2749"
       style="font-weight:bold;font-size:4.23333px;line-height:1.25;font-family:'Caviar Dreams';-inkscape-font-specification:'Caviar Dreams Bold';fill:#64f6ed;fill-opacity:1;stroke-width:0.264583"
       transform="translate(-1.0583333)">
      <path
         d="M 6.8138551,7.2034591 Q 7.0536336,6.8789313 7.402966,6.8623949 V 7.3068118 Q 7.1693887,7.3192142 7.030896,7.4577069 6.8221233,7.6644125 6.8138551,7.9496661 V 9.0431385 H 6.3859746 V 6.9161383 h 0.4278805 z"
         style="fill:#64f6ed;fill-opacity:1"
         id="path2577" />
      <path
         d="m 8.4716338,8.5615146 q 0.1074869,0.095084 0.3906735,0.095084 0.3059242,0 0.522965,-0.2149738 0.026872,-0.028939 0.109554,-0.1281574 L 9.9227068,8.46643 Q 9.7656105,8.6834708 9.6953307,8.7537507 9.3501324,9.098949 8.8623073,9.098949 q -0.4857581,0 -0.8309564,-0.3451983 -0.3451982,-0.3451983 -0.3451982,-0.8330234 0,-0.4878251 0.3451982,-0.8330233 0.3451983,-0.3451983 0.8309564,-0.3451983 0.4175452,0 0.7317376,0.2521808 0.051676,0.043408 0.1012858,0.093017 0.02067,0.020671 0.1178221,0.1302245 L 9.598179,7.4349693 Z M 9.186835,7.238599 q -0.072347,-0.05581 -0.3245277,-0.05581 -0.3038572,0 -0.520898,0.2170408 -0.2149738,0.2149738 -0.2149738,0.520898 0,0.2501138 0.05581,0.3245278 z"
         style="fill:#64f6ed;fill-opacity:1"
         id="path2579" />
      <path
         d="m 10.79087,8.4519606 q 0.0186,0.095085 0.05788,0.1343586 0.07648,0.074414 0.181901,0.074414 0.105419,0 0.179833,-0.074414 0.07648,-0.074414 0.07648,-0.1839679 0,-0.1054199 -0.07441,-0.1798339 -0.05168,-0.051676 -0.221175,-0.1591632 -0.23151,-0.1260904 -0.328661,-0.223242 -0.169499,-0.1694986 -0.169499,-0.40721 0,-0.2397784 0.169499,-0.409277 0.169498,-0.1715656 0.409277,-0.1715656 0.239778,0 0.398941,0.1612304 0.113688,0.113688 0.144694,0.2542478 L 11.200147,7.387427 q -0.01447,-0.051676 -0.02894,-0.068213 -0.03721,-0.037207 -0.09922,-0.037207 -0.06201,0 -0.107487,0.045475 -0.04341,0.043408 -0.04341,0.1054198 0,0.062012 0.04341,0.1054199 0.03927,0.037207 0.177767,0.1260904 0.256314,0.1405597 0.37207,0.2563148 0.200504,0.2025715 0.200504,0.481624 0,0.2852536 -0.200504,0.4878251 -0.198438,0.2005044 -0.483691,0.2005044 -0.283187,0 -0.483691,-0.2025715 -0.138493,-0.1384927 -0.181901,-0.3451982 z"
         style="fill:#64f6ed;fill-opacity:1"
         id="path2581" />
      <path
         d="m 12.903401,8.5615146 q 0.107487,0.095084 0.390673,0.095084 0.305925,0 0.522965,-0.2149738 0.02687,-0.028939 0.109554,-0.1281574 L 14.354474,8.46643 q -0.157096,0.2170408 -0.227376,0.2873207 -0.345199,0.3451983 -0.833024,0.3451983 -0.485758,0 -0.830956,-0.3451983 -0.345198,-0.3451983 -0.345198,-0.8330234 0,-0.4878251 0.345198,-0.8330233 0.345198,-0.3451983 0.830956,-0.3451983 0.417546,0 0.731738,0.2521808 0.05168,0.043408 0.101286,0.093017 0.02067,0.020671 0.117822,0.1302245 L 14.029946,7.4349693 Z M 13.618602,7.238599 q -0.07235,-0.05581 -0.324528,-0.05581 -0.303857,0 -0.520898,0.2170408 -0.214973,0.2149738 -0.214973,0.520898 0,0.2501138 0.05581,0.3245278 z"
         style="fill:#64f6ed;fill-opacity:1"
         id="path2583" />
      <path
         d="M 15.10895,6.9161383 V 6.1182549 h 0.42788 v 0.7978834 h 0.382405 V 7.3440188 H 15.53683 V 9.0431385 H 15.10895 V 7.3440188 H 14.726544 V 6.9161383 Z"
         style="fill:#64f6ed;fill-opacity:1"
         id="path2585" />
    </g>
    <g
       aria-label="quantization"
       id="text2749-3"
       style="font-weight:bold;font-size:4.23333px;line-height:1.25;font-family:'Caviar Dreams';-inkscape-font-specification:'Caviar Dreams Bold';display:inline;fill:#64f6ed;fill-opacity:1;stroke-width:0.264583">
      <path
         d="M 33.678222,8.0798906 V 7.7636311 Q 33.641015,7.5631267 33.477718,7.3998293 33.262744,7.1827885 32.95682,7.1827885 q -0.305925,0 -0.522966,0.2170408 -0.214973,0.2170409 -0.214973,0.520898 0,0.3059243 0.214973,0.5229651 0.217041,0.2149738 0.522966,0.2149738 0.305924,0 0.520898,-0.2149738 0.163297,-0.1632974 0.200504,-0.3638018 z m 0,-1.0169913 v -0.146761 h 0.429947 V 9.7583397 H 33.678222 V 8.7785554 Q 33.368164,9.098949 32.95682,9.098949 q -0.487826,0 -0.833024,-0.3451983 -0.343131,-0.3451983 -0.343131,-0.8330234 0,-0.4878251 0.343131,-0.8309563 0.345198,-0.3451983 0.833024,-0.3451983 0.411344,0 0.721402,0.3183266 z"
         style="fill:#64f6ed;fill-opacity:1"
         id="path2588" />
      <path
         d="m 35.629522,9.0720773 q -0.403076,0 -0.649055,-0.2459796 -0.24598,-0.2459796 -0.252181,-0.6159826 V 6.9161383 h 0.429948 v 1.2774404 q 0,0.1839679 0.134358,0.3162595 0.134359,0.1322915 0.334863,0.1322915 0.183968,0 0.318327,-0.1302245 0.136425,-0.1322915 0.136425,-0.3183265 V 6.9161383 h 0.427881 v 1.2939768 q -0.0062,0.370003 -0.250114,0.6159826 -0.245979,0.2459796 -0.630452,0.2459796 z"
         style="fill:#64f6ed;fill-opacity:1"
         id="path2590" />
      <path
         d="M 38.974018,8.0798906 V 7.7656982 Q 38.936811,7.5651938 38.775581,7.4018964 38.55854,7.1869226 38.254683,7.1869226 q -0.305924,0 -0.522965,0.2149738 -0.214974,0.2149738 -0.214974,0.520898 0,0.3038572 0.214974,0.520898 0.217041,0.2149738 0.522965,0.2149738 0.303857,0 0.520898,-0.2149738 0.16123,-0.1632974 0.198437,-0.3638018 z m 0,-1.0149243 v -0.148828 h 0.429948 V 9.0452056 H 38.974018 V 8.7785554 Q 38.66396,9.098949 38.254683,9.098949 q -0.487825,0 -0.833023,-0.3431312 -0.343131,-0.3451983 -0.343131,-0.8330234 0,-0.4878251 0.343131,-0.8309563 0.345198,-0.3451983 0.833023,-0.3451983 0.409277,0 0.719335,0.3183265 z"
         style="fill:#64f6ed;fill-opacity:1"
         id="path2592" />
      <path
         d="M 40.456097,7.4866457 V 9.0431385 H 40.026149 V 6.9161383 h 0.429948 V 7.164185 q 0.134359,-0.3638018 0.539502,-0.3638018 0.345198,0 0.547769,0.2459796 0.204639,0.2439126 0.21084,0.6139155 V 9.0431385 H 41.326327 V 7.6768148 q 0,-0.183968 -0.134358,-0.3141925 -0.134359,-0.1322915 -0.320394,-0.1322915 -0.183968,0 -0.318326,0.1281574 -0.07441,0.076481 -0.09715,0.1281575 z"
         style="fill:#64f6ed;fill-opacity:1"
         id="path2594" />
      <path
         d="M 42.638907,6.9161383 V 6.1182549 h 0.427881 v 0.7978834 h 0.382405 V 7.3440188 H 43.066788 V 9.0431385 H 42.638907 V 7.3440188 H 42.256502 V 6.9161383 Z"
         style="fill:#64f6ed;fill-opacity:1"
         id="path2596" />
      <path
         d="m 44.410374,6.9161383 v 2.1270002 h -0.42788 V 6.9161383 Z M 44.195401,6.0417738 q 0.124023,0 0.212906,0.086816 0.08888,0.086816 0.08888,0.2129067 0,0.1260904 -0.08888,0.2129067 -0.08888,0.086816 -0.212906,0.086816 -0.121957,0 -0.21084,-0.086816 -0.08888,-0.086816 -0.08888,-0.2129067 0,-0.1260904 0.08888,-0.2129067 0.08888,-0.086816 0.21084,-0.086816 z"
         style="fill:#64f6ed;fill-opacity:1"
         id="path2598" />
      <path
         d="M 46.033013,7.3440188 H 45.158648 V 6.9161383 h 1.612303 l -0.969449,1.6970526 h 0.948779 v 0.4299476 h -1.68465 z"
         style="fill:#64f6ed;fill-opacity:1"
         id="path2600" />
      <path
         d="M 49.234882,8.0798906 V 7.7656982 q -0.03721,-0.2005044 -0.198438,-0.3638018 -0.21704,-0.2149738 -0.520898,-0.2149738 -0.305924,0 -0.522965,0.2149738 -0.214973,0.2149738 -0.214973,0.520898 0,0.3038572 0.214973,0.520898 0.217041,0.2149738 0.522965,0.2149738 0.303858,0 0.520898,-0.2149738 0.161231,-0.1632974 0.198438,-0.3638018 z m 0,-1.0149243 v -0.148828 h 0.429947 V 9.0452056 H 49.234882 V 8.7785554 q -0.310059,0.3203936 -0.719336,0.3203936 -0.487825,0 -0.833023,-0.3431312 -0.343131,-0.3451983 -0.343131,-0.8330234 0,-0.4878251 0.343131,-0.8309563 0.345198,-0.3451983 0.833023,-0.3451983 0.409277,0 0.719336,0.3183265 z"
         style="fill:#64f6ed;fill-opacity:1"
         id="path2602" />
      <path
         d="M 50.55573,6.9161383 V 6.1182549 h 0.42788 v 0.7978834 h 0.382405 V 7.3440188 H 50.98361 V 9.0431385 H 50.55573 V 7.3440188 H 50.173324 V 6.9161383 Z"
         style="fill:#64f6ed;fill-opacity:1"
         id="path2604" />
      <path
         d="M 52.327198,6.9161383 V 9.0431385 H 51.899317 V 6.9161383 Z M 52.112224,6.0417738 q 0.124023,0 0.212907,0.086816 0.08888,0.086816 0.08888,0.2129067 0,0.1260904 -0.08888,0.2129067 -0.08888,0.086816 -0.212907,0.086816 -0.121956,0 -0.21084,-0.086816 -0.08888,-0.086816 -0.08888,-0.2129067 0,-0.1260904 0.08888,-0.2129067 0.08888,-0.086816 0.21084,-0.086816 z"
         style="fill:#64f6ed;fill-opacity:1"
         id="path2606" />
      <path
         d="m 54.034585,6.7425057 q 0.487825,0 0.830957,0.3451983 0.345198,0.3451982 0.345198,0.8330233 0,0.4878251 -0.345198,0.8330234 -0.343132,0.3451983 -0.830957,0.3451983 -0.485758,0 -0.830956,-0.3451983 -0.345198,-0.3451983 -0.345198,-0.8330234 0,-0.4878251 0.345198,-0.8330233 0.345198,-0.3451983 0.830956,-0.3451983 z m 0,0.4402828 q -0.305924,0 -0.522965,0.2170408 -0.214974,0.2170409 -0.214974,0.520898 0,0.3059243 0.214974,0.520898 0.217041,0.2149738 0.522965,0.2149738 0.305925,0 0.520898,-0.2149738 0.217041,-0.2149737 0.217041,-0.520898 0,-0.3038571 -0.217041,-0.520898 Q 54.34051,7.1827885 54.034585,7.1827885 Z"
         style="fill:#64f6ed;fill-opacity:1"
         id="path2608" />
      <path
         d="M 56.13678,7.4866457 V 9.0431385 H 55.706833 V 6.9161383 H 56.13678 V 7.164185 q 0.134359,-0.3638018 0.539502,-0.3638018 0.345198,0 0.547769,0.2459796 0.204639,0.2439126 0.21084,0.6139155 v 1.3828602 h -0.42788 V 7.6768148 q 0,-0.183968 -0.134359,-0.3141925 -0.134359,-0.1322915 -0.320394,-0.1322915 -0.183968,0 -0.318326,0.1281574 -0.07441,0.076481 -0.09715,0.1281575 z"
         style="fill:#64f6ed;fill-opacity:1"
         id="path2610" />
    </g>
    <g
       aria-label="stack"
       id="text2749-8"
       style="font-weight:bold;font-size:4.23333px;line-height:1.25;font-family:'Caviar Dreams';-inkscape-font-specification:'Caviar Dreams Bold';display:inline;fill:#64f6ed;fill-opacity:1;stroke-width:0.264583"
       transform="translate(-0.52916667)">
      <path
         d="m 74.630355,8.4519606 q 0.0186,0.095085 0.05788,0.1343586 0.07648,0.074414 0.181901,0.074414 0.10542,0 0.179834,-0.074414 0.07648,-0.074414 0.07648,-0.1839679 0,-0.1054199 -0.07441,-0.1798339 -0.05168,-0.051676 -0.221175,-0.1591632 -0.231511,-0.1260904 -0.328662,-0.223242 -0.169499,-0.1694986 -0.169499,-0.40721 0,-0.2397784 0.169499,-0.409277 0.169498,-0.1715656 0.409277,-0.1715656 0.239778,0 0.398942,0.1612304 0.113688,0.113688 0.144693,0.2542478 L 75.039632,7.387427 q -0.01447,-0.051676 -0.02894,-0.068213 -0.03721,-0.037207 -0.09922,-0.037207 -0.06201,0 -0.107487,0.045475 -0.04341,0.043408 -0.04341,0.1054198 0,0.062012 0.04341,0.1054199 0.03927,0.037207 0.177767,0.1260904 0.256315,0.1405597 0.37207,0.2563148 0.200504,0.2025715 0.200504,0.481624 0,0.2852536 -0.200504,0.4878251 -0.198438,0.2005044 -0.483691,0.2005044 -0.283187,0 -0.483691,-0.2025715 -0.13849,-0.1384923 -0.181898,-0.3451978 z"
         style="fill:#64f6ed;fill-opacity:1"
         id="path2613" />
      <path
         d="M 76.370816,6.9161383 V 6.1182549 h 0.427881 v 0.7978834 h 0.382405 V 7.3440188 H 76.798697 V 9.0431385 H 76.370816 V 7.3440188 H 75.988411 V 6.9161383 Z"
         style="fill:#64f6ed;fill-opacity:1"
         id="path2615" />
      <path
         d="M 79.523076,8.0798906 V 7.7656982 Q 79.485869,7.5651938 79.324639,7.4018964 79.107598,7.1869226 78.803741,7.1869226 q -0.305925,0 -0.522965,0.2149738 -0.214974,0.2149738 -0.214974,0.520898 0,0.3038572 0.214974,0.520898 0.21704,0.2149738 0.522965,0.2149738 0.303857,0 0.520898,-0.2149738 0.16123,-0.1632974 0.198437,-0.3638018 z m 0,-1.0149243 v -0.148828 h 0.429947 V 9.0452056 H 79.523076 V 8.7785554 q -0.310058,0.3203936 -0.719335,0.3203936 -0.487826,0 -0.833024,-0.3431312 -0.343131,-0.3451983 -0.343131,-0.8330234 0,-0.4878251 0.343131,-0.8309563 0.345198,-0.3451983 0.833024,-0.3451983 0.409277,0 0.719335,0.3183265 z"
         style="fill:#64f6ed;fill-opacity:1"
         id="path2617" />
      <path
         d="M 82.259857,8.3134679 82.687738,8.46643 q -0.157096,0.2170408 -0.227376,0.2873207 -0.345199,0.3451983 -0.833024,0.3451983 -0.485758,0 -0.830956,-0.3451983 -0.345198,-0.3451983 -0.345198,-0.8330234 0,-0.4878251 0.345198,-0.8330233 0.345198,-0.3451983 0.830956,-0.3451983 0.487825,0 0.833024,0.3451983 0.07028,0.07028 0.227376,0.2831866 L 82.259857,7.5279868 Q 82.177175,7.4267011 82.148236,7.3977623 81.933262,7.1827885 81.627338,7.1827885 q -0.303857,0 -0.520898,0.2170408 -0.214974,0.2149738 -0.214974,0.520898 0,0.3038572 0.214974,0.520898 0.217041,0.2149738 0.520898,0.2149738 0.305924,0 0.522965,-0.2149738 0.02687,-0.028939 0.109554,-0.1281574 z"
         style="fill:#64f6ed;fill-opacity:1"
         id="path2619" />
      <path
         d="m 84.465405,6.9161383 -0.576708,0.7110672 0.802017,1.415933 H 84.180152 L 83.601376,7.982739 83.582776,8.005477 V 9.0431385 H 83.152825 V 6.1182549 h 0.429948 v 1.2030263 l 0.330729,-0.4051429 z"
         style="fill:#64f6ed;fill-opacity:1"
         id="path2621" />
    </g>
    <g
       aria-label="length"
       id="text2749-1"
       style="font-weight:bold;font-size:4.23333px;line-height:1.25;font-family:'Caviar Dreams';-inkscape-font-specification:'Caviar Dreams Bold';display:inline;fill:#64f6ed;fill-opacity:1;stroke-width:0.264583">
      <path
         d="M 98.269036,5.7337826 V 9.0431385 H 97.839088 V 5.7337826 Z"
         style="fill:#64f6ed;fill-opacity:1"
         id="path2624" />
      <path
         d="m 99.55061,8.5615146 q 0.107487,0.095084 0.390674,0.095084 0.305926,0 0.522966,-0.2149738 0.0269,-0.028939 0.10955,-0.1281574 l 0.42788,0.1529621 q -0.15709,0.2170408 -0.22737,0.2873207 -0.3452,0.3451983 -0.833026,0.3451983 -0.485758,0 -0.830957,-0.3451983 -0.345198,-0.3451983 -0.345198,-0.8330234 0,-0.4878251 0.345198,-0.8330233 0.345199,-0.3451983 0.830957,-0.3451983 0.417546,0 0.731736,0.2521808 0.0517,0.043408 0.10129,0.093017 0.0207,0.020671 0.11782,0.1302245 l -0.21497,0.2170408 z m 0.7152,-1.3229156 q -0.0724,-0.05581 -0.324526,-0.05581 -0.303858,0 -0.520898,0.2170408 -0.214974,0.2149738 -0.214974,0.520898 0,0.2501138 0.05581,0.3245278 z"
         style="fill:#64f6ed;fill-opacity:1"
         id="path2626" />
      <path
         d="m 101.92772,7.4866457 v 1.5564928 h -0.42994 V 6.9161383 h 0.42994 V 7.164185 q 0.13436,-0.3638018 0.53951,-0.3638018 0.34519,0 0.54777,0.2459796 0.20463,0.2439126 0.21084,0.6139155 v 1.3828602 h -0.42789 V 7.6768148 q 0,-0.183968 -0.13435,-0.3141925 -0.13436,-0.1322915 -0.3204,-0.1322915 -0.18397,0 -0.31832,0.1281574 -0.0744,0.076481 -0.0972,0.1281575 z"
         style="fill:#64f6ed;fill-opacity:1"
         id="path2628" />
      <path
         d="m 105.69597,7.7553629 q -0.0393,-0.1963703 -0.19844,-0.3555336 -0.21497,-0.2170408 -0.5209,-0.2170408 -0.30592,0 -0.52296,0.2170408 -0.21498,0.2170409 -0.21498,0.520898 0,0.3059243 0.21498,0.5229651 0.21704,0.2149738 0.52296,0.2149738 0.30593,0 0.5209,-0.2149738 0.15916,-0.1591633 0.19844,-0.3513995 z m 0.002,-0.6924636 v -0.146761 h 0.42995 v 1.5812975 q 0,0.6201167 -0.33693,0.9570468 -0.3452,0.3038571 -0.83302,0.3038571 -0.48783,0 -0.83303,-0.3038571 -0.0703,-0.07028 -0.2253,-0.2852537 l 0.42581,-0.1529621 q 0.0827,0.099219 0.11162,0.1281574 0.21704,0.2149738 0.5209,0.2149738 0.51056,0 0.70693,-0.669726 -0.2005,0.3886064 -0.68833,0.3886064 -0.48782,0 -0.83302,-0.334863 -0.34313,-0.334863 -0.34313,-0.8226881 0,-0.4878251 0.34313,-0.8309563 0.3452,-0.3451983 0.83302,-0.3451983 0.41135,0 0.7214,0.3183266 z"
         style="fill:#64f6ed;fill-opacity:1"
         id="path2630" />
      <path
         d="M 107.01475,6.9161383 V 6.1182549 h 0.42788 v 0.7978834 h 0.3824 v 0.4278805 h -0.3824 v 1.6991197 h -0.42788 V 7.3440188 h -0.38241 V 6.9161383 Z"
         style="fill:#64f6ed;fill-opacity:1"
         id="path2632" />
      <path
         d="m 108.32319,5.7358496 h 0.42995 v 1.4097319 q 0.17984,-0.3451983 0.5209,-0.3451983 0.34106,0 0.54364,0.2459796 0.20463,0.2439126 0.21084,0.6139155 v 1.3828602 h -0.42789 V 7.6768148 q 0,-0.183968 -0.10542,-0.3141925 -0.10335,-0.1322915 -0.32866,-0.1322915 -0.26665,0 -0.41341,0.2852537 v 1.527554 h -0.42995 z"
         style="fill:#64f6ed;fill-opacity:1"
         id="path2634" />
    </g>
    <g
       aria-label="poly out"
       id="text2749-7"
       style="font-weight:bold;font-size:4.23333px;line-height:1.25;font-family:'Caviar Dreams';-inkscape-font-specification:'Caviar Dreams Bold';display:inline;fill:#64f6ed;fill-opacity:1;stroke-width:0.264583"
       transform="translate(0.42005145)">
      <path
         d="m 126.48447,7.7553629 v 0.3327959 q 0.0393,0.1963703 0.2005,0.3555336 0.21498,0.2149738 0.5209,0.2149738 0.30593,0 0.5209,-0.2149738 0.21704,-0.2170408 0.21704,-0.5229651 0,-0.3038571 -0.21704,-0.520898 -0.21497,-0.2170408 -0.5209,-0.2170408 -0.30592,0 -0.5209,0.2170408 -0.16123,0.1591633 -0.2005,0.3555336 z m 0,1.0231925 v 0.9797843 h -0.42788 V 6.9161383 h 0.42788 v 0.1922362 q 0.31006,-0.3638018 0.7214,-0.3638018 0.48783,0 0.83096,0.3451983 0.3452,0.3431312 0.3452,0.8309563 0,0.4878251 -0.3452,0.8330234 -0.34313,0.3451983 -0.83096,0.3451983 -0.41134,0 -0.7214,-0.3203936 z"
         style="text-align:center;text-anchor:middle;fill:#64f6ed;fill-opacity:1"
         id="path2637" />
      <path
         d="m 129.95092,6.7425057 q 0.48783,0 0.83096,0.3451983 0.3452,0.3451982 0.3452,0.8330233 0,0.4878251 -0.3452,0.8330234 -0.34313,0.3451983 -0.83096,0.3451983 -0.48576,0 -0.83096,-0.3451983 -0.34519,-0.3451983 -0.34519,-0.8330234 0,-0.4878251 0.34519,-0.8330233 0.3452,-0.3451983 0.83096,-0.3451983 z m 0,0.4402828 q -0.30592,0 -0.52296,0.2170408 -0.21498,0.2170409 -0.21498,0.520898 0,0.3059243 0.21498,0.520898 0.21704,0.2149738 0.52296,0.2149738 0.30593,0 0.5209,-0.2149738 0.21704,-0.2149737 0.21704,-0.520898 0,-0.3038571 -0.21704,-0.520898 -0.21497,-0.2170408 -0.5209,-0.2170408 z"
         style="text-align:center;text-anchor:middle;fill:#64f6ed;fill-opacity:1"
         id="path2639" />
      <path
         d="m 132.05312,5.7337826 v 3.3093559 h -0.42995 V 5.7337826 Z"
         style="text-align:center;text-anchor:middle;fill:#64f6ed;fill-opacity:1"
         id="path2641" />
      <path
         d="m 133.1962,9.7583397 h -0.45269 l 0.56638,-1.1885569 -0.79169,-1.6536445 h 0.48163 l 0.5395,1.1637523 0.5395,-1.1637523 h 0.47956 z"
         style="text-align:center;text-anchor:middle;fill:#64f6ed;fill-opacity:1"
         id="path2643" />
      <path
         d="m 128.24767,12.034168 q 0.48782,0 0.83095,0.345198 0.3452,0.345198 0.3452,0.833024 0,0.487825 -0.3452,0.833023 -0.34313,0.345198 -0.83095,0.345198 -0.48576,0 -0.83096,-0.345198 -0.3452,-0.345198 -0.3452,-0.833023 0,-0.487826 0.3452,-0.833024 0.3452,-0.345198 0.83096,-0.345198 z m 0,0.440283 q -0.30593,0 -0.52297,0.217041 -0.21497,0.21704 -0.21497,0.520898 0,0.305924 0.21497,0.520898 0.21704,0.214973 0.52297,0.214973 0.30592,0 0.5209,-0.214973 0.21704,-0.214974 0.21704,-0.520898 0,-0.303858 -0.21704,-0.520898 -0.21498,-0.217041 -0.5209,-0.217041 z"
         style="text-align:center;text-anchor:middle;fill:#64f6ed;fill-opacity:1"
         id="path2645" />
      <path
         d="m 130.82115,14.363739 q -0.40307,0 -0.64905,-0.245979 -0.24598,-0.24598 -0.25218,-0.615983 v -1.293976 h 0.42994 v 1.27744 q 0,0.183968 0.13436,0.316259 0.13436,0.132292 0.33486,0.132292 0.18397,0 0.31833,-0.130225 0.13643,-0.132291 0.13643,-0.318326 v -1.27744 h 0.42788 v 1.293976 q -0.006,0.370003 -0.25012,0.615983 -0.24598,0.245979 -0.63045,0.245979 z"
         style="text-align:center;text-anchor:middle;fill:#64f6ed;fill-opacity:1"
         id="path2647" />
      <path
         d="m 132.58022,12.207801 v -0.797884 h 0.42788 v 0.797884 h 0.3824 v 0.42788 h -0.3824 v 1.69912 h -0.42788 v -1.69912 h -0.38241 v -0.42788 z"
         style="text-align:center;text-anchor:middle;fill:#64f6ed;fill-opacity:1"
         id="path2649" />
    </g>
    <g
       aria-label="cv out"
       id="text2749-0"
       style="font-weight:bold;font-size:4.23333px;line-height:1.25;font-family:'Caviar Dreams';-inkscape-font-specification:'Caviar Dreams Bold';display:inline;fill:#64f6ed;fill-opacity:1;stroke-width:0.264583"
       transform="translate(0.42005145)">
      <path
         d="m 129.77108,30.452226 0.42788,0.152962 q -0.15709,0.217041 -0.22737,0.28732 -0.3452,0.345199 -0.83303,0.345199 -0.48575,0 -0.83095,-0.345199 -0.3452,-0.345198 -0.3452,-0.833023 0,-0.487825 0.3452,-0.833023 0.3452,-0.345199 0.83095,-0.345199 0.48783,0 0.83303,0.345199 0.0703,0.07028 0.22737,0.283186 l -0.42788,0.157096 q -0.0827,-0.101285 -0.11162,-0.130224 -0.21497,-0.214974 -0.5209,-0.214974 -0.30385,0 -0.52089,0.217041 -0.21498,0.214974 -0.21498,0.520898 0,0.303857 0.21498,0.520898 0.21704,0.214974 0.52089,0.214974 0.30593,0 0.52297,-0.214974 0.0269,-0.02894 0.10955,-0.128157 z"
         style="text-align:center;text-anchor:middle;fill:#64f6ed;fill-opacity:1"
         id="path2652" />
      <path
         d="m 131.50328,31.181896 -1.01493,-2.127 h 0.48369 l 0.63872,1.380793 0.64079,-1.380793 h 0.48369 l -1.01699,2.127 z"
         style="text-align:center;text-anchor:middle;fill:#64f6ed;fill-opacity:1"
         id="path2654" />
      <path
         d="m 128.32414,34.172926 q 0.48783,0 0.83096,0.345198 0.3452,0.345198 0.3452,0.833023 0,0.487825 -0.3452,0.833024 -0.34313,0.345198 -0.83096,0.345198 -0.48575,0 -0.83095,-0.345198 -0.3452,-0.345199 -0.3452,-0.833024 0,-0.487825 0.3452,-0.833023 0.3452,-0.345198 0.83095,-0.345198 z m 0,0.440282 q -0.30592,0 -0.52296,0.217041 -0.21497,0.217041 -0.21497,0.520898 0,0.305924 0.21497,0.520898 0.21704,0.214974 0.52296,0.214974 0.30593,0 0.5209,-0.214974 0.21704,-0.214974 0.21704,-0.520898 0,-0.303857 -0.21704,-0.520898 -0.21497,-0.217041 -0.5209,-0.217041 z"
         style="text-align:center;text-anchor:middle;fill:#64f6ed;fill-opacity:1"
         id="path2656" />
      <path
         d="m 130.89763,36.502497 q -0.40308,0 -0.64906,-0.245979 -0.24598,-0.24598 -0.25218,-0.615983 v -1.293977 h 0.42995 v 1.277441 q 0,0.183968 0.13436,0.316259 0.13436,0.132292 0.33486,0.132292 0.18397,0 0.31833,-0.130225 0.13642,-0.132291 0.13642,-0.318326 v -1.277441 h 0.42788 v 1.293977 q -0.006,0.370003 -0.25011,0.615983 -0.24598,0.245979 -0.63045,0.245979 z"
         style="text-align:center;text-anchor:middle;fill:#64f6ed;fill-opacity:1"
         id="path2658" />
      <path
         d="m 132.65669,34.346558 v -0.797883 h 0.42788 v 0.797883 h 0.38241 v 0.427881 h -0.38241 v 1.699119 h -0.42788 v -1.699119 h -0.3824 v -0.427881 z"
         style="text-align:center;text-anchor:middle;fill:#64f6ed;fill-opacity:1"
         id="path2660" />
    </g>
    <g
       aria-label="clock"
       id="text2749-5"
       style="font-weight:bold;font-size:4.23333px;line-height:1.25;font-family:'Caviar Dreams';-inkscape-font-specification:'Caviar Dreams Bold';display:inline;fill:#64f6ed;fill-opacity:1;stroke-width:0.264583"
       transform="translate(-1.0583333)">
      <path
         d="m 7.6499792,33.602418 0.4278805,0.152962 q -0.1570962,0.217041 -0.2273761,0.287321 -0.3451983,0.345198 -0.8330234,0.345198 -0.4857581,0 -0.8309563,-0.345198 -0.3451983,-0.345199 -0.3451983,-0.833024 0,-0.487825 0.3451983,-0.833023 0.3451982,-0.345198 0.8309563,-0.345198 0.4878251,0 0.8330234,0.345198 0.07028,0.07028 0.2273761,0.283187 l -0.4278805,0.157096 q -0.082682,-0.101286 -0.111621,-0.130225 -0.2149738,-0.214974 -0.520898,-0.214974 -0.3038572,0 -0.520898,0.217041 -0.2149738,0.214974 -0.2149738,0.520898 0,0.303857 0.2149738,0.520898 0.2170408,0.214974 0.520898,0.214974 0.3059242,0 0.522965,-0.214974 0.026872,-0.02894 0.109554,-0.128157 z"
         style="fill:#64f6ed;fill-opacity:1"
         id="path2663" />
      <path
         d="m 9.0039007,31.022733 v 3.309355 H 8.5739531 v -3.309355 z"
         style="fill:#64f6ed;fill-opacity:1"
         id="path2665" />
      <path
         d="m 10.676149,32.031456 q 0.487825,0 0.830956,0.345198 0.345198,0.345198 0.345198,0.833023 0,0.487825 -0.345198,0.833024 -0.343131,0.345198 -0.830956,0.345198 -0.485758,0 -0.8309566,-0.345198 -0.3451983,-0.345199 -0.3451983,-0.833024 0,-0.487825 0.3451983,-0.833023 0.3451986,-0.345198 0.8309566,-0.345198 z m 0,0.440282 q -0.305924,0 -0.522965,0.217041 -0.2149741,0.217041 -0.2149741,0.520898 0,0.305925 0.2149741,0.520898 0.217041,0.214974 0.522965,0.214974 0.305924,0 0.520898,-0.214974 0.217041,-0.214973 0.217041,-0.520898 0,-0.303857 -0.217041,-0.520898 -0.214974,-0.217041 -0.520898,-0.217041 z"
         style="fill:#64f6ed;fill-opacity:1"
         id="path2667" />
      <path
         d="m 14.033047,33.602418 0.42788,0.152962 q -0.157096,0.217041 -0.227376,0.287321 -0.345198,0.345198 -0.833023,0.345198 -0.485758,0 -0.830957,-0.345198 -0.345198,-0.345199 -0.345198,-0.833024 0,-0.487825 0.345198,-0.833023 0.345199,-0.345198 0.830957,-0.345198 0.487825,0 0.833023,0.345198 0.07028,0.07028 0.227376,0.283187 l -0.42788,0.157096 q -0.08268,-0.101286 -0.111621,-0.130225 -0.214974,-0.214974 -0.520898,-0.214974 -0.303857,0 -0.520898,0.217041 -0.214974,0.214974 -0.214974,0.520898 0,0.303857 0.214974,0.520898 0.217041,0.214974 0.520898,0.214974 0.305924,0 0.522965,-0.214974 0.02687,-0.02894 0.109554,-0.128157 z"
         style="fill:#64f6ed;fill-opacity:1"
         id="path2669" />
      <path
         d="m 16.238595,32.205088 -0.576709,0.711067 0.802018,1.415933 h -0.510563 l -0.578775,-1.060399 -0.0186,0.02274 v 1.037661 h -0.429947 v -2.924883 h 0.429947 v 1.203026 l 0.330729,-0.405143 z"
         style="fill:#64f6ed;fill-opacity:1"
         id="path2671" />
    </g>
    <g
       id="g13980"
       transform="translate(-3.2380527)"
       style="fill:#64f6ed">
      <rect
         style="opacity:0.992;fill:#25232d;fill-opacity:0.60000002;stroke:#e0ede6;stroke-width:0.264583;stroke-linecap:round;stroke-miterlimit:4;stroke-dasharray:none;stroke-opacity:1"
         id="rect6247-1"
         width="10.951"
         height="5.8593249"
         x="107.11745"
         y="23.677311" />
      <g
         aria-label="note"
         id="text13975"
         style="font-size:3.52777px;line-height:1.25;font-family:'Caviar Dreams';-inkscape-font-specification:'Caviar Dreams';fill:#64f6ed;fill-opacity:1;stroke-width:0.264583">
        <path
           d="m 96.624428,26.542703 v 1.556492 h -0.429947 v -2.127 h 0.429947 v 0.248047 q 0.134359,-0.363802 0.539502,-0.363802 0.345198,0 0.547769,0.24598 0.204639,0.243912 0.21084,0.613915 v 1.38286 h -0.42788 v -1.366323 q 0,-0.183968 -0.134359,-0.314193 -0.134359,-0.132291 -0.320394,-0.132291 -0.183968,0 -0.318326,0.128157 -0.07441,0.07648 -0.09715,0.128158 z"
           style="font-style:normal;font-variant:normal;font-weight:bold;font-stretch:normal;font-size:4.23333px;font-family:'Caviar Dreams';-inkscape-font-specification:'Caviar Dreams Bold';fill:#64f6ed;fill-opacity:1;stroke-width:0.264583"
           id="path13982" />
        <path
           d="m 99.600988,25.798563 q 0.487822,0 0.830952,0.345198 0.3452,0.345198 0.3452,0.833023 0,0.487825 -0.3452,0.833024 -0.34313,0.345198 -0.830952,0.345198 -0.485758,0 -0.830956,-0.345198 -0.345198,-0.345199 -0.345198,-0.833024 0,-0.487825 0.345198,-0.833023 0.345198,-0.345198 0.830956,-0.345198 z m 0,0.440282 q -0.305924,0 -0.522965,0.217041 -0.214974,0.217041 -0.214974,0.520898 0,0.305925 0.214974,0.520898 0.217041,0.214974 0.522965,0.214974 0.305924,0 0.520902,-0.214974 0.21704,-0.214973 0.21704,-0.520898 0,-0.303857 -0.21704,-0.520898 -0.214978,-0.217041 -0.520902,-0.217041 z"
           style="font-style:normal;font-variant:normal;font-weight:bold;font-stretch:normal;font-size:4.23333px;font-family:'Caviar Dreams';-inkscape-font-specification:'Caviar Dreams Bold';fill:#64f6ed;fill-opacity:1;stroke-width:0.264583"
           id="path13984" />
        <path
           d="m 101.53162,25.972195 v -0.797883 h 0.42788 v 0.797883 h 0.3824 v 0.427881 h -0.3824 v 1.699119 h -0.42788 v -1.699119 h -0.38241 v -0.427881 z"
           style="font-style:normal;font-variant:normal;font-weight:bold;font-stretch:normal;font-size:4.23333px;font-family:'Caviar Dreams';-inkscape-font-specification:'Caviar Dreams Bold';fill:#64f6ed;fill-opacity:1;stroke-width:0.264583"
           id="path13986" />
        <path
           d="m 103.50152,27.617572 q 0.10749,0.09508 0.39068,0.09508 0.30592,0 0.52296,-0.214974 0.0269,-0.02894 0.10955,-0.128157 l 0.42789,0.152962 q -0.1571,0.217041 -0.22738,0.287321 -0.3452,0.345198 -0.83302,0.345198 -0.48576,0 -0.83096,-0.345198 -0.3452,-0.345199 -0.3452,-0.833024 0,-0.487825 0.3452,-0.833023 0.3452,-0.345198 0.83096,-0.345198 0.41754,0 0.73173,0.25218 0.0517,0.04341 0.10129,0.09302 0.0207,0.02067 0.11782,0.130224 l -0.21497,0.217041 z m 0.7152,-1.322916 q -0.0723,-0.05581 -0.32452,-0.05581 -0.30386,0 -0.5209,0.217041 -0.21498,0.214974 -0.21498,0.520898 0,0.250114 0.0558,0.324528 z"
           style="font-style:normal;font-variant:normal;font-weight:bold;font-stretch:normal;font-size:4.23333px;font-family:'Caviar Dreams';-inkscape-font-specification:'Caviar Dreams Bold';fill:#64f6ed;fill-opacity:1;stroke-width:0.264583"
           id="path13988" />
      </g>
    </g>
  </g>
</svg>
