<?xml version="1.0" encoding="UTF-8" standalone="no"?>
<svg
   width="25.4mm"
   height="128.5mm"
   viewBox="0 0 25.399999 128.5"
   version="1.1"
   id="svg5"
   inkscape:version="1.1.2 (0a00cf5339, 2022-02-04)"
   sodipodi:docname="ntrvlx.svg"
   xmlns:inkscape="http://www.inkscape.org/namespaces/inkscape"
   xmlns:sodipodi="http://sodipodi.sourceforge.net/DTD/sodipodi-0.dtd"
   xmlns:xlink="http://www.w3.org/1999/xlink"
   xmlns="http://www.w3.org/2000/svg"
   xmlns:svg="http://www.w3.org/2000/svg"
   xmlns:rdf="http://www.w3.org/1999/02/22-rdf-syntax-ns#"
   xmlns:cc="http://creativecommons.org/ns#"
   xmlns:dc="http://purl.org/dc/elements/1.1/">
  <metadata
     id="metadata1239">
    <rdf:RDF>
      <cc:Work
         rdf:about="">
        <dc:format>image/svg+xml</dc:format>
        <dc:type
           rdf:resource="http://purl.org/dc/dcmitype/StillImage" />
      </cc:Work>
    </rdf:RDF>
  </metadata>
  <sodipodi:namedview
     id="namedview7"
     pagecolor="#505050"
     bordercolor="#eeeeee"
     borderopacity="1"
     inkscape:pageshadow="0"
     inkscape:pageopacity="0"
     inkscape:pagecheckerboard="0"
     inkscape:document-units="mm"
     showgrid="false"
     showguides="false"
     inkscape:guide-bbox="true"
     inkscape:zoom="1.0985949"
     inkscape:cx="18.660199"
     inkscape:cy="280.81325"
     inkscape:window-width="1920"
     inkscape:window-height="1050"
     inkscape:window-x="0"
     inkscape:window-y="0"
     inkscape:window-maximized="1"
     inkscape:current-layer="layer1"
     width="142.24mm"
     units="mm"
     inkscape:document-rotation="0">
    <inkscape:grid
       type="xygrid"
       id="grid1050"
       units="mm"
       spacingx="5.0800001"
       spacingy="5.0800001"
       empspacing="0" />
  </sodipodi:namedview>
  <defs
     id="defs2">
    <linearGradient
       inkscape:collect="always"
       id="linearGradient9600">
      <stop
         style="stop-color:#100c11;stop-opacity:1"
         offset="0"
         id="stop9596" />
      <stop
         style="stop-color:#0aa0ab;stop-opacity:1"
         offset="1"
         id="stop9598" />
    </linearGradient>
    <marker
       style="overflow:visible"
       id="marker1779"
       refX="0.0"
       refY="0.0"
       orient="auto"
       inkscape:stockid="DiamondM"
       inkscape:isstock="true">
      <path
         transform="scale(0.4)"
         style="fill-rule:evenodd;stroke:#78d8c8;stroke-width:1pt;stroke-opacity:1;fill:#78d8c8;fill-opacity:1"
         d="M 0,-7.0710768 L -7.0710894,0 L 0,7.0710589 L 7.0710462,0 L 0,-7.0710768 z "
         id="path1777" />
    </marker>
    <marker
       style="overflow:visible"
       id="DiamondM"
       refX="0.0"
       refY="0.0"
       orient="auto"
       inkscape:stockid="DiamondM"
       inkscape:isstock="true">
      <path
         transform="scale(0.4)"
         style="fill-rule:evenodd;stroke:#78d8c8;stroke-width:1pt;stroke-opacity:1;fill:#78d8c8;fill-opacity:1"
         d="M 0,-7.0710768 L -7.0710894,0 L 0,7.0710589 L 7.0710462,0 L 0,-7.0710768 z "
         id="path1325" />
    </marker>
    <marker
       style="overflow:visible"
       id="DiamondSstart"
       refX="0.0"
       refY="0.0"
       orient="auto"
       inkscape:stockid="DiamondSstart"
       inkscape:isstock="true">
      <path
         transform="scale(0.2) translate(6,0)"
         style="fill-rule:evenodd;stroke:#78d8c8;stroke-width:1pt;stroke-opacity:1;fill:#78d8c8;fill-opacity:1"
         d="M 0,-7.0710768 L -7.0710894,0 L 0,7.0710589 L 7.0710462,0 L 0,-7.0710768 z "
         id="path1337" />
    </marker>
    <marker
       style="overflow:visible;"
       id="Arrow1Send"
       refX="0.0"
       refY="0.0"
       orient="auto"
       inkscape:stockid="Arrow1Send"
       inkscape:isstock="true">
      <path
         transform="scale(0.2) rotate(180) translate(6,0)"
         style="fill-rule:evenodd;stroke:#78d8c8;stroke-width:1pt;stroke-opacity:1;fill:#78d8c8;fill-opacity:1"
         d="M 0.0,0.0 L 5.0,-5.0 L -12.5,0.0 L 5.0,5.0 L 0.0,0.0 z "
         id="path1258" />
    </marker>
    <marker
       style="overflow:visible;"
       id="Arrow1Lend"
       refX="0.0"
       refY="0.0"
       orient="auto"
       inkscape:stockid="Arrow1Lend"
       inkscape:isstock="true">
      <path
         transform="scale(0.8) rotate(180) translate(12.5,0)"
         style="fill-rule:evenodd;stroke:#78d8c8;stroke-width:1pt;stroke-opacity:1;fill:#78d8c8;fill-opacity:1"
         d="M 0.0,0.0 L 5.0,-5.0 L -12.5,0.0 L 5.0,5.0 L 0.0,0.0 z "
         id="path1246" />
    </marker>
    <linearGradient
       id="linearGradient47039"
       inkscape:swatch="solid">
      <stop
         style="stop-color:#859998;stop-opacity:1;"
         offset="0"
         id="stop47037" />
    </linearGradient>
    <pattern
       id="EMFhbasepattern"
       patternUnits="userSpaceOnUse"
       width="6"
       height="6"
       x="0"
       y="0" />
    <pattern
       id="EMFhbasepattern-7"
       patternUnits="userSpaceOnUse"
       width="6"
       height="6"
       x="0"
       y="0" />
    <pattern
       id="EMFhbasepattern-72"
       patternUnits="userSpaceOnUse"
       width="6"
       height="6"
       x="0"
       y="0" />
    <linearGradient
       inkscape:collect="always"
       xlink:href="#linearGradient9600"
       id="linearGradient9602"
       x1="0"
       y1="0"
       x2="25.4"
       y2="128.5"
       gradientUnits="userSpaceOnUse" />
  </defs>
  <g
     inkscape:label="background"
     inkscape:groupmode="layer"
     id="layer1"
     style="display:inline">
    <path
       id="rect48062"
       style="fill:url(#linearGradient9602);stroke-width:0.374635;fill-opacity:1"
       d="M 0,0 H 25.4 V 128.5 H 0 Z" />
    <rect
       style="fill:#100c11;fill-opacity:1;stroke:#e0ede6;stroke-width:0.264583;stroke-miterlimit:4;stroke-dasharray:none;stroke-opacity:1"
       id="rect40273"
       width="14.98"
       height="76.091553"
       x="7.4894338"
       y="34.289585" />
  </g>
  <g
     inkscape:groupmode="layer"
     id="layer4"
     inkscape:label="labels"
     style="display:inline">
    <text
       xml:space="preserve"
       style="font-style:normal;font-weight:normal;font-size:10.5833px;line-height:1.25;font-family:sans-serif;fill:#000000;fill-opacity:1;stroke:none;stroke-width:0.264583"
       x="53.81422"
       y="122.95528"
       id="text61781"><tspan
         sodipodi:role="line"
         id="tspan61779"
         style="stroke-width:0.264583"
         x="53.81422"
         y="122.95528" /></text>
    <text
       xml:space="preserve"
       style="font-size:5.64444px;line-height:1.25;font-family:Poppins;-inkscape-font-specification:'Poppins, Normal';stroke-width:0.264583"
       x="6.1307335"
       y="7.833715"
       id="text31548"><tspan
         sodipodi:role="line"
         id="tspan31546"
         style="stroke-width:0.264583"
         x="6.1307335"
         y="7.833715" /></text>
    <g
       aria-label="triggers"
       transform="rotate(-90,-0.91520176,-0.91520176)"
       id="text2432"
       style="font-size:4.23333px;line-height:1.25;font-family:Poppins;-inkscape-font-specification:'Poppins, Normal';fill:#64f6ed;stroke-width:0.264583">
      <path
         d="M -81.518283,2.8498937 V 2.0520103 h 0.42788 v 0.7978834 h 0.382406 v 0.4278805 h -0.382406 v 1.6991197 h -0.42788 V 3.2777742 h -0.382405 V 2.8498937 Z"
         style="font-weight:bold;font-family:'Caviar Dreams';-inkscape-font-specification:'Caviar Dreams Bold';fill:#64f6ed"
         id="path12111" />
      <path
         d="m -79.781956,3.1372145 c 0.159852,-0.2163519 0.356222,-0.3300399 0.58911,-0.3410642 v 0.4444169 c -0.155718,0.00827 -0.279741,0.058566 -0.37207,0.1508951 -0.139181,0.1378037 -0.211528,0.3017901 -0.21704,0.4919592 v 1.0934724 h -0.427881 V 2.8498937 h 0.427881 z"
         style="font-weight:bold;font-family:'Caviar Dreams';-inkscape-font-specification:'Caviar Dreams Bold';fill:#64f6ed"
         id="path12113"
         sodipodi:nodetypes="cccccccccc" />
      <path
         d="m -78.273006,2.8498937 v 2.1270002 h -0.42788 V 2.8498937 Z M -78.48798,1.9755292 q 0.124024,0 0.212907,0.086816 0.08888,0.086816 0.08888,0.2129067 0,0.1260904 -0.08888,0.2129067 -0.08888,0.086816 -0.212907,0.086816 -0.121956,0 -0.210839,-0.086816 -0.08888,-0.086816 -0.08888,-0.2129067 0,-0.1260904 0.08888,-0.2129067 0.08888,-0.086816 0.210839,-0.086816 z"
         style="font-weight:bold;font-family:'Caviar Dreams';-inkscape-font-specification:'Caviar Dreams Bold';fill:#64f6ed"
         id="path12115" />
      <path
         d="m -75.773936,3.6891183 q -0.03927,-0.1963703 -0.198437,-0.3555336 -0.214974,-0.2170408 -0.520898,-0.2170408 -0.305924,0 -0.522965,0.2170408 -0.214974,0.2170409 -0.214974,0.520898 0,0.3059243 0.214974,0.5229651 0.217041,0.2149738 0.522965,0.2149738 0.305924,0 0.520898,-0.2149738 0.159163,-0.1591633 0.198437,-0.3513995 z m 0.0021,-0.6924636 v -0.146761 h 0.429948 v 1.5812975 q 0,0.6201167 -0.33693,0.9570468 -0.345199,0.3038571 -0.833024,0.3038571 -0.487825,0 -0.833023,-0.3038571 -0.07028,-0.07028 -0.225309,-0.2852537 l 0.425813,-0.1529621 q 0.08268,0.099219 0.111621,0.1281574 0.217041,0.2149738 0.520898,0.2149738 0.510563,0 0.706933,-0.669726 -0.200504,0.3886064 -0.688329,0.3886064 -0.487825,0 -0.833024,-0.334863 -0.343131,-0.334863 -0.343131,-0.8226881 0,-0.4878251 0.343131,-0.8309563 0.345199,-0.3451983 0.833024,-0.3451983 0.411344,0 0.721402,0.3183266 z"
         style="font-weight:bold;font-family:'Caviar Dreams';-inkscape-font-specification:'Caviar Dreams Bold';fill:#64f6ed"
         id="path12117" />
      <path
         d="m -72.869723,3.6891183 q -0.03927,-0.1963703 -0.198437,-0.3555336 -0.214974,-0.2170408 -0.520898,-0.2170408 -0.305925,0 -0.522965,0.2170408 -0.214974,0.2170409 -0.214974,0.520898 0,0.3059243 0.214974,0.5229651 0.21704,0.2149738 0.522965,0.2149738 0.305924,0 0.520898,-0.2149738 0.159163,-0.1591633 0.198437,-0.3513995 z m 0.0021,-0.6924636 v -0.146761 h 0.429948 v 1.5812975 q 0,0.6201167 -0.33693,0.9570468 -0.345199,0.3038571 -0.833024,0.3038571 -0.487825,0 -0.833023,-0.3038571 -0.07028,-0.07028 -0.225309,-0.2852537 l 0.425813,-0.1529621 q 0.08268,0.099219 0.111621,0.1281574 0.217041,0.2149738 0.520898,0.2149738 0.510563,0 0.706933,-0.669726 -0.200504,0.3886064 -0.688329,0.3886064 -0.487825,0 -0.833024,-0.334863 -0.343131,-0.334863 -0.343131,-0.8226881 0,-0.4878251 0.343131,-0.8309563 0.345199,-0.3451983 0.833024,-0.3451983 0.411344,0 0.721402,0.3183266 z"
         style="font-weight:bold;font-family:'Caviar Dreams';-inkscape-font-specification:'Caviar Dreams Bold';fill:#64f6ed"
         id="path12119" />
      <path
         d="m -71.147866,4.49527 q 0.107487,0.095085 0.390674,0.095085 0.305924,0 0.522965,-0.2149738 0.02687,-0.028939 0.109554,-0.1281574 l 0.42788,0.1529621 q -0.157096,0.2170408 -0.227376,0.2873207 -0.345198,0.3451983 -0.833023,0.3451983 -0.485758,0 -0.830957,-0.3451983 -0.345198,-0.3451983 -0.345198,-0.8330234 0,-0.4878251 0.345198,-0.8330234 0.345199,-0.3451982 0.830957,-0.3451982 0.417545,0 0.731737,0.2521807 0.05168,0.043408 0.101286,0.093018 0.02067,0.020671 0.117822,0.1302245 l -0.214974,0.2170409 z m 0.715201,-1.3229156 q -0.07235,-0.055811 -0.324527,-0.055811 -0.303857,0 -0.520898,0.2170408 -0.214974,0.2149738 -0.214974,0.520898 0,0.2501138 0.05581,0.3245278 z"
         style="font-weight:bold;font-family:'Caviar Dreams';-inkscape-font-specification:'Caviar Dreams Bold';fill:#64f6ed"
         id="path12121" />
      <path
         d="m -68.772819,3.1372145 q 0.239779,-0.3245278 0.589111,-0.3410642 v 0.4444169 q -0.233577,0.012402 -0.37207,0.1508951 -0.208772,0.2067055 -0.217041,0.4919592 v 1.0934724 h -0.42788 V 2.8498937 h 0.42788 z"
         style="font-weight:bold;font-family:'Caviar Dreams';-inkscape-font-specification:'Caviar Dreams Bold';fill:#64f6ed"
         id="path12123" />
      <path
         d="m -67.354818,4.385716 q 0.0186,0.095085 0.05788,0.1343586 0.07648,0.074414 0.1819,0.074414 0.10542,0 0.179834,-0.074414 0.07648,-0.074414 0.07648,-0.1839679 0,-0.1054199 -0.07441,-0.1798339 -0.05168,-0.051676 -0.221175,-0.1591632 -0.23151,-0.1260904 -0.328661,-0.223242 -0.169499,-0.1694986 -0.169499,-0.40721 0,-0.2397784 0.169499,-0.409277 0.169498,-0.1715656 0.409277,-0.1715656 0.239778,0 0.398941,0.1612303 0.113688,0.1136881 0.144694,0.2542479 l -0.415478,0.1198892 q -0.01447,-0.051676 -0.02894,-0.068213 -0.03721,-0.037207 -0.09922,-0.037207 -0.06201,0 -0.107487,0.045475 -0.04341,0.043408 -0.04341,0.1054198 0,0.062012 0.04341,0.1054199 0.03927,0.037207 0.177766,0.1260903 0.256315,0.1405598 0.37207,0.2563149 0.200505,0.2025715 0.200505,0.481624 0,0.2852536 -0.200505,0.4878251 -0.198437,0.2005044 -0.483691,0.2005044 -0.283186,0 -0.483691,-0.2025715 -0.138492,-0.1384927 -0.1819,-0.3451982 z"
         style="font-weight:bold;font-family:'Caviar Dreams';-inkscape-font-specification:'Caviar Dreams Bold';fill:#64f6ed"
         id="path12125" />
    </g>
    <g
       aria-label="snap"
       transform="rotate(-90,-1.0583333,-1.0583333)"
       id="text2432-1"
       style="font-size:4.23333px;line-height:1.25;font-family:Poppins;-inkscape-font-specification:'Poppins, Normal';display:inline;fill:#64f6ed;stroke-width:0.264583">
      <path
         d="m -31.628007,4.385716 q 0.0186,0.095085 0.05788,0.1343586 0.07648,0.074414 0.181901,0.074414 0.10542,0 0.179834,-0.074414 0.07648,-0.074414 0.07648,-0.1839679 0,-0.1054199 -0.07441,-0.1798339 -0.05168,-0.051676 -0.221175,-0.1591632 -0.23151,-0.1260904 -0.328662,-0.223242 -0.169499,-0.1694986 -0.169499,-0.40721 0,-0.2397784 0.169499,-0.409277 0.169499,-0.1715656 0.409277,-0.1715656 0.239778,0 0.398942,0.1612303 0.113688,0.1136881 0.144694,0.2542479 l -0.415479,0.1198892 q -0.01447,-0.051676 -0.02894,-0.068213 -0.03721,-0.037207 -0.09922,-0.037207 -0.06201,0 -0.107487,0.045475 -0.04341,0.043408 -0.04341,0.1054198 0,0.062012 0.04341,0.1054199 0.03927,0.037207 0.177767,0.1260903 0.256315,0.1405598 0.37207,0.2563149 0.200504,0.2025715 0.200504,0.481624 0,0.2852536 -0.200504,0.4878251 -0.198437,0.2005044 -0.483691,0.2005044 -0.283187,0 -0.483691,-0.2025715 -0.138493,-0.1384927 -0.181901,-0.3451982 z"
         style="font-weight:bold;font-family:'Caviar Dreams';-inkscape-font-specification:'Caviar Dreams Bold';fill:#64f6ed"
         id="path12102" />
      <path
         d="m -29.746986,3.4204011 v 1.5564928 h -0.429948 V 2.8498937 h 0.429948 v 0.2480467 q 0.134359,-0.3638018 0.539502,-0.3638018 0.345198,0 0.547769,0.2459796 0.204639,0.2439126 0.21084,0.6139155 v 1.3828602 h -0.427881 V 3.6105702 q 0,-0.183968 -0.134358,-0.3141925 -0.134359,-0.1322915 -0.320394,-0.1322915 -0.183968,0 -0.318326,0.1281574 -0.07441,0.076481 -0.09715,0.1281575 z"
         style="font-weight:bold;font-family:'Caviar Dreams';-inkscape-font-specification:'Caviar Dreams Bold';fill:#64f6ed"
         id="path12104" />
      <path
         d="M -25.978744,4.013646 V 3.6994536 q -0.03721,-0.2005044 -0.198437,-0.3638018 -0.217041,-0.2149738 -0.520898,-0.2149738 -0.305924,0 -0.522965,0.2149738 -0.214974,0.2149738 -0.214974,0.520898 0,0.3038572 0.214974,0.520898 0.217041,0.2149738 0.522965,0.2149738 0.303857,0 0.520898,-0.2149738 0.16123,-0.1632974 0.198437,-0.3638018 z m 0,-1.0149243 v -0.148828 h 0.429948 V 4.978961 h -0.429948 V 4.7123108 q -0.310058,0.3203936 -0.719335,0.3203936 -0.487825,0 -0.833023,-0.3431312 -0.343132,-0.3451983 -0.343132,-0.8330234 0,-0.4878251 0.343132,-0.8309563 0.345198,-0.3451983 0.833023,-0.3451983 0.409277,0 0.719335,0.3183265 z"
         style="font-weight:bold;font-family:'Caviar Dreams';-inkscape-font-specification:'Caviar Dreams Bold';fill:#64f6ed"
         id="path12106" />
      <path
         d="m -24.457391,3.6891183 v 0.3327959 q 0.03927,0.1963703 0.200505,0.3555336 0.214973,0.2149738 0.520898,0.2149738 0.305924,0 0.520898,-0.2149738 0.21704,-0.2170408 0.21704,-0.5229651 0,-0.3038571 -0.21704,-0.520898 -0.214974,-0.2170408 -0.520898,-0.2170408 -0.305925,0 -0.520898,0.2170408 -0.161231,0.1591633 -0.200505,0.3555336 z m 0,1.0231925 v 0.9797843 h -0.42788 V 2.8498937 h 0.42788 v 0.1922362 q 0.310058,-0.3638018 0.721403,-0.3638018 0.487825,0 0.830956,0.3451983 0.345198,0.3431312 0.345198,0.8309563 0,0.4878251 -0.345198,0.8330234 -0.343131,0.3451983 -0.830956,0.3451983 -0.411345,0 -0.721403,-0.3203936 z"
         style="font-weight:bold;font-family:'Caviar Dreams';-inkscape-font-specification:'Caviar Dreams Bold';fill:#64f6ed"
         id="path12108" />
    </g>
    <g
       aria-label="weight"
       transform="rotate(-90,-0.52916666,-0.52916666)"
       id="text2432-1-7"
       style="font-size:4.23333px;line-height:1.25;font-family:Poppins;-inkscape-font-specification:'Poppins, Normal';display:inline;fill:#64f6ed;stroke-width:0.264583">
      <path
         d="M -16.697465,4.346442 V 2.8498937 h 0.42788 V 4.311302 q 0,0.1136881 0.07648,0.1901691 0.07648,0.074414 0.181901,0.074414 0.254248,0 0.254248,-0.3162595 V 2.8498937 h 0.429948 v 1.4903471 q -0.01034,0.2728513 -0.200505,0.4630204 -0.200504,0.2025715 -0.483691,0.2025715 -0.285253,0 -0.469221,-0.1984374 -0.188102,0.1984374 -0.471289,0.1984374 -0.285254,0 -0.485758,-0.2025715 -0.190169,-0.1901691 -0.198437,-0.4630204 V 2.8498937 h 0.42788 v 1.4097319 q 0,0.3162595 0.256315,0.3162595 0.10542,0 0.181901,-0.074414 0.06408,-0.064079 0.07235,-0.1550291 z"
         style="font-weight:bold;font-family:'Caviar Dreams';-inkscape-font-specification:'Caviar Dreams Bold';fill:#64f6ed"
         id="path12089" />
      <path
         d="m -14.084707,4.49527 q 0.107487,0.095085 0.390673,0.095085 0.305925,0 0.522966,-0.2149738 0.02687,-0.028939 0.109553,-0.1281574 l 0.427881,0.1529621 q -0.157096,0.2170408 -0.227376,0.2873207 -0.345198,0.3451983 -0.833024,0.3451983 -0.485758,0 -0.830956,-0.3451983 -0.345198,-0.3451983 -0.345198,-0.8330234 0,-0.4878251 0.345198,-0.8330234 0.345198,-0.3451982 0.830956,-0.3451982 0.417546,0 0.731738,0.2521807 0.05168,0.043408 0.101286,0.093018 0.02067,0.020671 0.117822,0.1302245 l -0.214974,0.2170409 z m 0.715201,-1.3229156 q -0.07235,-0.055811 -0.324528,-0.055811 -0.303857,0 -0.520898,0.2170408 -0.214973,0.2149738 -0.214973,0.520898 0,0.2501138 0.05581,0.3245278 z"
         style="font-weight:bold;font-family:'Caviar Dreams';-inkscape-font-specification:'Caviar Dreams Bold';fill:#64f6ed"
         id="path12091" />
      <path
         d="m -11.67452,2.8498937 v 2.1270002 h -0.427881 V 2.8498937 Z m -0.214974,-0.8743645 q 0.124023,0 0.212907,0.086816 0.08888,0.086816 0.08888,0.2129067 0,0.1260904 -0.08888,0.2129067 -0.08888,0.086816 -0.212907,0.086816 -0.121956,0 -0.21084,-0.086816 -0.08888,-0.086816 -0.08888,-0.2129067 0,-0.1260904 0.08888,-0.2129067 0.08888,-0.086816 0.21084,-0.086816 z"
         style="font-weight:bold;font-family:'Caviar Dreams';-inkscape-font-specification:'Caviar Dreams Bold';fill:#64f6ed"
         id="path12093" />
      <path
         d="M -9.17545,3.6891183 Q -9.214724,3.492748 -9.3738873,3.3335847 -9.5888611,3.1165439 -9.8947853,3.1165439 q -0.3059247,0 -0.5229647,0.2170408 -0.214974,0.2170409 -0.214974,0.520898 0,0.3059243 0.214974,0.5229651 0.21704,0.2149738 0.5229647,0.2149738 0.3059242,0 0.520898,-0.2149738 Q -9.214724,4.2182845 -9.17545,4.0260483 Z m 0.00207,-0.6924636 v -0.146761 h 0.4299475 v 1.5812975 q 0,0.6201167 -0.33693,0.9570468 -0.3451983,0.3038571 -0.8330234,0.3038571 -0.4878251,0 -0.8330231,-0.3038571 -0.07028,-0.07028 -0.225309,-0.2852537 l 0.425813,-0.1529621 q 0.08268,0.099219 0.111621,0.1281574 0.217041,0.2149738 0.5208981,0.2149738 0.5105627,0 0.706933,-0.669726 -0.2005044,0.3886064 -0.6883295,0.3886064 -0.4878246,0 -0.8330236,-0.334863 -0.343131,-0.334863 -0.343131,-0.8226881 0,-0.4878251 0.343131,-0.8309563 0.345199,-0.3451983 0.8330236,-0.3451983 0.411344,0 0.7214024,0.3183266 z"
         style="font-weight:bold;font-family:'Caviar Dreams';-inkscape-font-specification:'Caviar Dreams Bold';fill:#64f6ed"
         id="path12095" />
      <path
         d="m -8.1150506,1.669605 h 0.4299476 v 1.4097319 q 0.1798338,-0.3451983 0.520898,-0.3451983 0.3410641,0 0.5436356,0.2459796 0.2046385,0.2439126 0.2108397,0.6139155 V 4.9768939 H -6.8376102 V 3.6105702 q 0,-0.183968 -0.1054199,-0.3141925 -0.1033528,-0.1322915 -0.3286618,-0.1322915 -0.2666502,0 -0.4134111,0.2852536 v 1.5275541 h -0.4299476 z"
         style="font-weight:bold;font-family:'Caviar Dreams';-inkscape-font-specification:'Caviar Dreams Bold';fill:#64f6ed"
         id="path12097" />
      <path
         d="M -5.5312311,2.8498937 V 2.0520103 h 0.4278805 v 0.7978834 h 0.3824053 V 3.2777742 H -5.1033506 V 4.9768939 H -5.5312311 V 3.2777742 H -5.9136364 V 2.8498937 Z"
         style="font-weight:bold;font-family:'Caviar Dreams';-inkscape-font-specification:'Caviar Dreams Bold';fill:#64f6ed"
         id="path12099" />
    </g>
    <g
       id="path1241"
       style="opacity:1;fill:#e0ede6">
      <path
         style="color:#000000;font-style:normal;font-variant:normal;font-weight:normal;font-stretch:normal;font-size:medium;line-height:normal;font-family:sans-serif;font-variant-ligatures:normal;font-variant-position:normal;font-variant-caps:normal;font-variant-numeric:normal;font-variant-alternates:normal;font-variant-east-asian:normal;font-feature-settings:normal;font-variation-settings:normal;text-indent:0;text-align:start;text-decoration:none;text-decoration-line:none;text-decoration-style:solid;text-decoration-color:#000000;letter-spacing:normal;word-spacing:normal;text-transform:none;writing-mode:lr-tb;direction:ltr;text-orientation:mixed;dominant-baseline:auto;baseline-shift:baseline;text-anchor:start;white-space:normal;shape-padding:0;shape-margin:0;inline-size:0;clip-rule:nonzero;display:inline;overflow:visible;visibility:visible;isolation:auto;mix-blend-mode:normal;color-interpolation:sRGB;color-interpolation-filters:linearRGB;solid-color:#000000;solid-opacity:1;vector-effect:none;fill:#e0ede6;fill-opacity:1;fill-rule:nonzero;stroke:none;stroke-linecap:butt;stroke-linejoin:miter;stroke-miterlimit:4;stroke-dasharray:none;stroke-dashoffset:0;stroke-opacity:1;color-rendering:auto;image-rendering:auto;shape-rendering:auto;text-rendering:auto;enable-background:accumulate;stop-color:#000000;stop-opacity:1"
         d="M 2.2988281 99.619141 L 2.2988281 99.884766 L 3.6152344 99.884766 L 3.6152344 103.72266 L 3.8789062 103.72266 L 3.8789062 99.619141 L 2.2988281 99.619141 z "
         id="path1847" />
      <g
         id="g1837"
         style="fill:#e0ede6">
        <g
           id="path1839"
           style="opacity:1;fill:#e0ede6">
          <path
             style="color:#000000;font-style:normal;font-variant:normal;font-weight:normal;font-stretch:normal;font-size:medium;line-height:normal;font-family:sans-serif;font-variant-ligatures:normal;font-variant-position:normal;font-variant-caps:normal;font-variant-numeric:normal;font-variant-alternates:normal;font-variant-east-asian:normal;font-feature-settings:normal;font-variation-settings:normal;text-indent:0;text-align:start;text-decoration:none;text-decoration-line:none;text-decoration-style:solid;text-decoration-color:#000000;letter-spacing:normal;word-spacing:normal;text-transform:none;writing-mode:lr-tb;direction:ltr;text-orientation:mixed;dominant-baseline:auto;baseline-shift:baseline;text-anchor:start;white-space:normal;shape-padding:0;shape-margin:0;inline-size:0;clip-rule:nonzero;display:inline;overflow:visible;visibility:visible;isolation:auto;mix-blend-mode:normal;color-interpolation:sRGB;color-interpolation-filters:linearRGB;solid-color:#000000;solid-opacity:1;vector-effect:none;fill:#e0ede6;fill-opacity:1;fill-rule:evenodd;stroke:none;stroke-width:0.105833pt;stroke-linecap:butt;stroke-linejoin:miter;stroke-miterlimit:4;stroke-dasharray:none;stroke-dashoffset:0;stroke-opacity:1;color-rendering:auto;image-rendering:auto;shape-rendering:auto;text-rendering:auto;enable-background:accumulate;stop-color:#000000;stop-opacity:1"
             d="M 2.299025,100.50068 3.047381,99.752324 2.299025,99.003971 1.5506736,99.752324 Z"
             id="path1843" />
          <path
             style="color:#000000;font-style:normal;font-variant:normal;font-weight:normal;font-stretch:normal;font-size:medium;line-height:normal;font-family:sans-serif;font-variant-ligatures:normal;font-variant-position:normal;font-variant-caps:normal;font-variant-numeric:normal;font-variant-alternates:normal;font-variant-east-asian:normal;font-feature-settings:normal;font-variation-settings:normal;text-indent:0;text-align:start;text-decoration:none;text-decoration-line:none;text-decoration-style:solid;text-decoration-color:#000000;letter-spacing:normal;word-spacing:normal;text-transform:none;writing-mode:lr-tb;direction:ltr;text-orientation:mixed;dominant-baseline:auto;baseline-shift:baseline;text-anchor:start;white-space:normal;shape-padding:0;shape-margin:0;inline-size:0;clip-rule:nonzero;display:inline;overflow:visible;visibility:visible;isolation:auto;mix-blend-mode:normal;color-interpolation:sRGB;color-interpolation-filters:linearRGB;solid-color:#000000;solid-opacity:1;vector-effect:none;fill:#e0ede6;fill-opacity:1;fill-rule:evenodd;stroke:none;stroke-linecap:butt;stroke-linejoin:miter;stroke-miterlimit:4;stroke-dasharray:none;stroke-dashoffset:0;stroke-opacity:1;color-rendering:auto;image-rendering:auto;shape-rendering:auto;text-rendering:auto;enable-background:accumulate;stop-color:#000000;stop-opacity:1"
             d="M 2.2988281 98.904297 L 1.4511719 99.751953 L 2.2988281 100.59961 L 2.3496094 100.55078 L 3.1464844 99.751953 L 2.2988281 98.904297 z M 2.2988281 99.103516 L 2.9492188 99.753906 L 2.3007812 100.40234 L 1.6503906 99.751953 L 2.2988281 99.103516 z "
             id="path1845" />
        </g>
      </g>
    </g>
    <g
       aria-label="ntrvlx"
       id="text22874"
       style="font-size:8.46667px;line-height:1.25;font-family:'Odin Rounded';-inkscape-font-specification:'Odin Rounded';text-align:end;text-anchor:end;fill:#64f6ed;stroke-width:0.375882">
      <path
         d="m 2.8794068,120.09535 v 3.11299 H 2.0195107 v -4.254 h 0.8598961 v 0.49609 q 0.2687176,-0.7276 1.0790044,-0.7276 0.6903974,0 1.0955408,0.49196 0.4092775,0.48782 0.4216798,1.22783 v 2.76572 h -0.855762 v -2.73265 q 0,-0.36793 -0.2687176,-0.62838 -0.2687175,-0.26459 -0.640788,-0.26459 -0.3679363,0 -0.6366539,0.25632 -0.1488282,0.15296 -0.1943035,0.25631 z"
         style="font-weight:bold;font-family:'Caviar Dreams';-inkscape-font-specification:'Caviar Dreams Bold'"
         id="path1609" />
      <path
         d="m 7.2450336,118.95434 v -1.59577 h 0.855762 v 1.59577 h 0.7648115 v 0.85576 H 8.1007956 v 3.39824 H 7.2450336 V 119.8101 H 6.4802221 v -0.85576 z"
         style="font-weight:bold;font-family:'Caviar Dreams';-inkscape-font-specification:'Caviar Dreams Bold'"
         id="path1611" />
      <path
         d="m 10.717691,119.52898 q 0.479558,-0.64906 1.178224,-0.68213 v 0.88884 q -0.467156,0.0248 -0.744141,0.30179 -0.417546,0.41341 -0.434083,0.98392 v 2.18694 H 9.8619293 v -4.254 h 0.8557617 z"
         style="font-weight:bold;font-family:'Caviar Dreams';-inkscape-font-specification:'Caviar Dreams Bold'"
         id="path1613" />
      <path
         d="m 14.65337,123.20834 -2.029851,-4.254 h 0.967383 l 1.277442,2.76159 1.281576,-2.76159 h 0.967383 l -2.033985,4.254 z"
         style="font-weight:bold;font-family:'Caviar Dreams';-inkscape-font-specification:'Caviar Dreams Bold'"
         id="path1615" />
      <path
         d="m 18.808157,116.58962 v 6.61872 h -0.859896 v -6.61872 z"
         style="font-weight:bold;font-family:'Caviar Dreams';-inkscape-font-specification:'Caviar Dreams Bold'"
         id="path1617" />
      <path
         d="m 23.173784,118.95434 -1.12448,1.94303 1.331185,2.31097 h -0.988053 l -0.830958,-1.4304 -0.826823,1.4304 h -0.996322 l 1.33532,-2.31097 -1.120346,-1.94303 h 0.988054 l 0.620117,1.06247 0.615984,-1.06247 z"
         style="font-weight:bold;font-family:'Caviar Dreams';-inkscape-font-specification:'Caviar Dreams Bold'"
         id="path1619" />
    </g>
  </g>
</svg>
