<?xml version="1.0" encoding="UTF-8" standalone="no"?>
<svg
   xmlns:dc="http://purl.org/dc/elements/1.1/"
   xmlns:cc="http://creativecommons.org/ns#"
   xmlns:rdf="http://www.w3.org/1999/02/22-rdf-syntax-ns#"
   xmlns:svg="http://www.w3.org/2000/svg"
   xmlns="http://www.w3.org/2000/svg"
   xmlns:sodipodi="http://sodipodi.sourceforge.net/DTD/sodipodi-0.dtd"
   xmlns:inkscape="http://www.inkscape.org/namespaces/inkscape"
   width="15.24mm"
   height="128.5mm"
   viewBox="0 0 15.24 128.5"
   version="1.1"
   id="svg2424"
   sodipodi:docname="spc.svg"
   inkscape:version="1.0.2-2 (e86c870879, 2021-01-15)">
  <defs
     id="defs2418" />
  <sodipodi:namedview
     id="base"
     pagecolor="#ffffff"
     bordercolor="#666666"
     borderopacity="1.0"
     inkscape:pageopacity="0.0"
     inkscape:pageshadow="2"
     inkscape:zoom="1.4"
     inkscape:cx="204.63751"
     inkscape:cy="316.94688"
     inkscape:document-units="mm"
     inkscape:current-layer="layer1"
     inkscape:document-rotation="0"
     showgrid="false"
     inkscape:pagecheckerboard="true"
     inkscape:window-width="1856"
     inkscape:window-height="1057"
     inkscape:window-x="56"
     inkscape:window-y="-8"
     inkscape:window-maximized="1" />
  <metadata
     id="metadata2421">
    <rdf:RDF>
      <cc:Work
         rdf:about="">
        <dc:format>image/svg+xml</dc:format>
        <dc:type
           rdf:resource="http://purl.org/dc/dcmitype/StillImage" />
        <dc:title></dc:title>
      </cc:Work>
    </rdf:RDF>
  </metadata>
  <g
     inkscape:label="Layer 1"
     inkscape:groupmode="layer"
     id="layer1"
     style="opacity:0.996">
    <rect
       style="display:inline;fill:#1c1c21;fill-opacity:1;stroke:none;stroke-width:0.290191;stroke-linecap:butt;stroke-linejoin:miter;stroke-miterlimit:4;stroke-dasharray:none;stroke-dashoffset:0;stroke-opacity:1"
       id="rect48062"
       width="15.24"
       height="128.5"
       x="-4.4408921e-16"
       y="0" />
    <g
       aria-label="spc by
cvly"
       id="text3734"
       style="font-size:3.52777px;line-height:1.25;font-family:'Caviar Dreams';-inkscape-font-specification:'Caviar Dreams';text-align:center;text-anchor:middle;fill:#78d8c8;fill-opacity:1;stroke-width:0.264583">
      <path
         d="m 1.4953144,120.79251 q 0.018603,0.0951 0.057878,0.13436 0.076481,0.0744 0.1819009,0.0744 0.1054198,0 0.1798338,-0.0744 0.076481,-0.0744 0.076481,-0.18397 0,-0.10542 -0.074414,-0.17983 -0.051676,-0.0517 -0.221175,-0.15916 -0.2315102,-0.12609 -0.3286618,-0.22325 -0.1694986,-0.1695 -0.1694986,-0.40721 0,-0.23977 0.1694986,-0.40927 0.1694986,-0.17157 0.409277,-0.17157 0.2397784,0 0.3989417,0.16123 0.1136881,0.11369 0.1446939,0.25425 l -0.4154782,0.11989 q -0.014469,-0.0517 -0.028939,-0.0682 -0.037207,-0.0372 -0.099219,-0.0372 -0.062012,0 -0.1074869,0.0455 -0.043408,0.0434 -0.043408,0.10542 0,0.062 0.043408,0.10542 0.039274,0.0372 0.1777668,0.12609 0.2563149,0.14056 0.37207,0.25632 0.2005044,0.20257 0.2005044,0.48162 0,0.28526 -0.2005044,0.48783 -0.1984373,0.2005 -0.483691,0.2005 -0.2831866,0 -0.483691,-0.20257 -0.1384927,-0.13849 -0.1819009,-0.3452 z"
         style="font-style:normal;font-variant:normal;font-weight:bold;font-stretch:normal;font-size:4.23333px;font-family:'Caviar Dreams';-inkscape-font-specification:'Caviar Dreams Bold';text-align:start;writing-mode:lr-tb;text-anchor:start;fill:#78d8c8;fill-opacity:1;stroke-width:0.264583"
         id="path8915" />
      <path
         d="m 3.3742679,120.09591 v 0.3328 q 0.039274,0.19637 0.2005044,0.35553 0.2149738,0.21498 0.520898,0.21498 0.3059243,0 0.520898,-0.21498 0.2170409,-0.21704 0.2170409,-0.52296 0,-0.30386 -0.2170409,-0.5209 -0.2149737,-0.21704 -0.520898,-0.21704 -0.3059242,0 -0.520898,0.21704 -0.1612303,0.15916 -0.2005044,0.35553 z m 0,1.0232 v 0.97978 H 2.9463874 v -2.8422 h 0.4278805 v 0.19224 q 0.3100584,-0.36381 0.7214024,-0.36381 0.4878251,0 0.8309564,0.3452 0.3451982,0.34313 0.3451982,0.83096 0,0.48782 -0.3451982,0.83302 -0.3431313,0.3452 -0.8309564,0.3452 -0.411344,0 -0.7214024,-0.32039 z"
         style="font-style:normal;font-variant:normal;font-weight:bold;font-stretch:normal;font-size:4.23333px;font-family:'Caviar Dreams';-inkscape-font-specification:'Caviar Dreams Bold';text-align:start;writing-mode:lr-tb;text-anchor:start;fill:#78d8c8;fill-opacity:1;stroke-width:0.264583"
         id="path8917" />
      <path
         d="m 7.473239,120.65402 0.4278805,0.15296 q -0.1570963,0.21704 -0.2273762,0.28732 -0.3451982,0.3452 -0.8330233,0.3452 -0.4857581,0 -0.8309564,-0.3452 -0.3451983,-0.3452 -0.3451983,-0.83302 0,-0.48783 0.3451983,-0.83302 0.3451983,-0.3452 0.8309564,-0.3452 0.4878251,0 0.8330233,0.3452 0.07028,0.0703 0.2273762,0.28318 l -0.4278805,0.1571 q -0.082682,-0.10129 -0.111621,-0.13023 -0.2149738,-0.21497 -0.520898,-0.21497 -0.3038572,0 -0.520898,0.21704 -0.2149738,0.21497 -0.2149738,0.5209 0,0.30386 0.2149738,0.5209 0.2170408,0.21497 0.520898,0.21497 0.3059242,0 0.522965,-0.21497 0.026872,-0.0289 0.109554,-0.12816 z"
         style="font-style:normal;font-variant:normal;font-weight:bold;font-stretch:normal;font-size:4.23333px;font-family:'Caviar Dreams';-inkscape-font-specification:'Caviar Dreams Bold';text-align:start;writing-mode:lr-tb;text-anchor:start;fill:#78d8c8;fill-opacity:1;stroke-width:0.264583"
         id="path8919" />
      <path
         d="m 9.8606884,118.0764 h 0.1860346 v 1.56269 q 0.05168,-0.0703 0.117823,-0.13642 0.332795,-0.3328 0.802017,-0.3328 0.471289,0 0.802018,0.3328 0.332796,0.3328 0.332796,0.80408 0,0.46923 -0.332796,0.80202 -0.330729,0.3328 -0.802018,0.3328 -0.469222,0 -0.802017,-0.3328 -0.06615,-0.0661 -0.117823,-0.13642 v 0.41134 H 9.8606884 Z m 0.1860346,2.03605 v 0.38861 q 0.05374,0.26458 0.256315,0.46715 0.274919,0.27492 0.663525,0.27492 0.388607,0 0.663525,-0.27285 0.274918,-0.27492 0.274918,-0.66353 0,-0.3886 -0.274918,-0.66352 -0.274918,-0.27492 -0.663525,-0.27492 -0.388606,0 -0.663525,0.27492 -0.202571,0.20257 -0.256315,0.46922 z"
         style="font-style:normal;font-variant:normal;font-weight:normal;font-stretch:normal;font-family:'Caviar Dreams';-inkscape-font-specification:'Caviar Dreams';text-align:start;text-anchor:start;fill:#989998;fill-opacity:1"
         id="path8921" />
      <path
         d="m 13.358146,121.20179 -0.458886,0.95705 h -0.181901 l 0.547769,-1.14929 -0.791682,-1.65571 h 0.21084 l 0.67386,1.45521 0.67386,-1.45521 h 0.208773 l -0.882633,1.85002 z"
         style="font-style:normal;font-variant:normal;font-weight:normal;font-stretch:normal;font-family:'Caviar Dreams';-inkscape-font-specification:'Caviar Dreams';text-align:start;text-anchor:start;fill:#989998;fill-opacity:1"
         id="path8923" />
      <path
         d="m 2.8078947,125.99679 0.4278805,0.15296 q -0.1570962,0.21704 -0.2273761,0.28732 -0.3451983,0.3452 -0.8330234,0.3452 -0.485758,0 -0.8309563,-0.3452 -0.34519829,-0.3452 -0.34519829,-0.83302 0,-0.48783 0.34519829,-0.83302 0.3451983,-0.3452 0.8309563,-0.3452 0.4878251,0 0.8330234,0.3452 0.07028,0.0703 0.2273761,0.28318 l -0.4278805,0.1571 q -0.082682,-0.10129 -0.111621,-0.13023 -0.2149738,-0.21497 -0.520898,-0.21497 -0.3038571,0 -0.520898,0.21704 -0.2149738,0.21497 -0.2149738,0.5209 0,0.30386 0.2149738,0.5209 0.2170409,0.21497 0.520898,0.21497 0.3059242,0 0.5229651,-0.21497 0.026872,-0.0289 0.1095539,-0.12816 z"
         style="font-style:normal;font-variant:normal;font-weight:bold;font-stretch:normal;font-size:4.23333px;font-family:'Caviar Dreams';-inkscape-font-specification:'Caviar Dreams Bold';text-align:start;writing-mode:lr-tb;text-anchor:start;fill:#78d8c8;fill-opacity:1;stroke-width:0.264583"
         id="path8925" />
      <path
         d="m 4.5400874,126.72646 -1.0149243,-2.127 h 0.483691 l 0.6387202,1.38079 0.6407872,-1.38079 h 0.483691 l -1.0169913,2.127 z"
         style="font-style:normal;font-variant:normal;font-weight:bold;font-stretch:normal;font-size:4.23333px;font-family:'Caviar Dreams';-inkscape-font-specification:'Caviar Dreams Bold';text-align:start;writing-mode:lr-tb;text-anchor:start;fill:#78d8c8;fill-opacity:1;stroke-width:0.264583"
         id="path8927" />
      <path
         d="m 6.6174782,123.4171 v 3.30936 H 6.1875307 v -3.30936 z"
         style="font-style:normal;font-variant:normal;font-weight:bold;font-stretch:normal;font-size:4.23333px;font-family:'Caviar Dreams';-inkscape-font-specification:'Caviar Dreams Bold';text-align:start;writing-mode:lr-tb;text-anchor:start;fill:#78d8c8;fill-opacity:1;stroke-width:0.264583"
         id="path8929" />
      <path
         d="M 7.7605598,127.44166 H 7.3078746 l 0.5663733,-1.18856 -0.7916823,-1.65364 h 0.4816239 l 0.5395015,1.16375 0.5395015,-1.16375 h 0.4795569 z"
         style="font-style:normal;font-variant:normal;font-weight:bold;font-stretch:normal;font-size:4.23333px;font-family:'Caviar Dreams';-inkscape-font-specification:'Caviar Dreams Bold';text-align:start;writing-mode:lr-tb;text-anchor:start;fill:#78d8c8;fill-opacity:1;stroke-width:0.264583"
         id="path8931" />
    </g>
    <path
       id="path15640"
       style="display:inline;fill:#161516;fill-opacity:1;stroke-width:0.26499999;stroke-linejoin:miter;stroke-dasharray:none;stroke:#78d8c8;stroke-opacity:1;stroke-miterlimit:4;stroke-dashoffset:0;stroke-linecap:round"
       d="m 13.17625,108.01938 c -0.606898,0.8956 -1.560811,1.03162 -2.235738,0.37735 0.06813,0.53065 0.538701,1.04332 1.050457,1.1322 0.04133,2.30086 -1.560135,4.19887 -3.6693143,3.93821 -0.04771,-0.48158 0.171595,-1.0093 0.623202,-1.50232 -0.549835,0.16075 -0.583755,0.11125 -1.047404,0.3809 -0.383814,0.22815 -0.683843,0.49751 -0.900276,0.78967 l -4.9334271,-1.3219 c 0.08401,0.90865 0.406739,1.80148 0.996006,2.57662 1.3841841,1.98369 4.1802591,2.73245 6.3758881,1.76054 2.5483873,-1.01056 3.9439093,-4.15217 3.0398903,-6.68281 0.286129,-0.12119 0.505923,-0.37147 0.637914,-0.84232 0.07693,-0.28383 0.0489,-0.29397 0.0628,-0.60614 z" />
    <rect
       style="opacity:0.992;fill:#616061;fill-opacity:1;stroke:#78d8c8;stroke-width:0.26458333;stroke-linecap:round;stroke-miterlimit:4;stroke-dasharray:none"
       id="rect6247"
       width="10.814454"
       height="15.845904"
       x="2.2127728"
       y="86.968719"
       rx="1"
       ry="1" />
    <g
       aria-label="out"
       id="text5016-6"
       style="font-size:3.52777px;line-height:1.25;font-family:'Caviar Dreams';-inkscape-font-specification:'Caviar Dreams';opacity:0.992;fill:#78d8c8;fill-opacity:1;stroke-width:0.264583"
       transform="translate(2.3555908e-7,1.662e-4)">
      <path
         d="m 5.6366599,88.690197 q 0.4878251,0 0.8309564,0.345198 0.3451982,0.345198 0.3451982,0.833023 0,0.487825 -0.3451982,0.833024 -0.3431313,0.345198 -0.8309564,0.345198 -0.485758,0 -0.8309563,-0.345198 -0.3451983,-0.345199 -0.3451983,-0.833024 0,-0.487825 0.3451983,-0.833023 0.3451983,-0.345198 0.8309563,-0.345198 z m 0,0.440282 q -0.3059242,0 -0.522965,0.217041 -0.2149738,0.217041 -0.2149738,0.520898 0,0.305925 0.2149738,0.520898 0.2170408,0.214974 0.522965,0.214974 0.3059243,0 0.520898,-0.214974 0.2170409,-0.214973 0.2170409,-0.520898 0,-0.303857 -0.2170409,-0.520898 -0.2149737,-0.217041 -0.520898,-0.217041 z"
         style="font-style:normal;font-variant:normal;font-weight:bold;font-stretch:normal;font-size:4.23333px;font-family:'Caviar Dreams';-inkscape-font-specification:'Caviar Dreams Bold';fill:#78d8c8;fill-opacity:1;stroke-width:0.264583"
         id="path6130" />
      <path
         d="m 8.2101442,91.019768 q -0.4030758,0 -0.6490555,-0.245979 -0.2459796,-0.24598 -0.2521807,-0.615983 v -1.293977 h 0.4299475 v 1.277441 q 0,0.183968 0.1343586,0.316259 0.1343586,0.132292 0.334863,0.132292 0.183968,0 0.3183266,-0.130225 0.1364257,-0.132291 0.1364257,-0.318326 v -1.277441 h 0.4278805 v 1.293977 q -0.0062,0.370003 -0.2501138,0.615983 -0.2459796,0.245979 -0.6304519,0.245979 z"
         style="font-style:normal;font-variant:normal;font-weight:bold;font-stretch:normal;font-size:4.23333px;font-family:'Caviar Dreams';-inkscape-font-specification:'Caviar Dreams Bold';fill:#78d8c8;fill-opacity:1;stroke-width:0.264583"
         id="path6132" />
      <path
         d="m 9.9692086,88.863829 v -0.797883 h 0.4278804 v 0.797883 h 0.382405 v 0.427881 h -0.382405 v 1.699119 H 9.9692086 V 89.29171 H 9.5868033 v -0.427881 z"
         style="font-style:normal;font-variant:normal;font-weight:bold;font-stretch:normal;font-size:4.23333px;font-family:'Caviar Dreams';-inkscape-font-specification:'Caviar Dreams Bold';fill:#78d8c8;fill-opacity:1;stroke-width:0.264583"
         id="path6134" />
    </g>
    <g
       aria-label="oct"
       id="text5016-9-1"
       style="font-size:3.52777px;line-height:1.25;font-family:'Caviar Dreams';-inkscape-font-specification:'Caviar Dreams';opacity:0.992;fill:#78d8c8;fill-opacity:1;stroke-width:0.264583"
       transform="rotate(-90,-0.93230607,65.061766)">
      <path
         d="m 5.5333074,66.882908 q 0.4878251,0 0.8309563,0.345198 0.3451983,0.345198 0.3451983,0.833023 0,0.487825 -0.3451983,0.833024 -0.3431312,0.345198 -0.8309563,0.345198 -0.4857581,0 -0.8309563,-0.345198 -0.3451983,-0.345199 -0.3451983,-0.833024 0,-0.487825 0.3451983,-0.833023 0.3451982,-0.345198 0.8309563,-0.345198 z m 0,0.440282 q -0.3059242,0 -0.5229651,0.217041 -0.2149737,0.217041 -0.2149737,0.520898 0,0.305924 0.2149737,0.520898 0.2170409,0.214974 0.5229651,0.214974 0.3059242,0 0.520898,-0.214974 0.2170408,-0.214974 0.2170408,-0.520898 0,-0.303857 -0.2170408,-0.520898 Q 5.8392316,67.32319 5.5333074,67.32319 Z"
         style="font-style:normal;font-variant:normal;font-weight:bold;font-stretch:normal;font-size:4.23333px;font-family:'Caviar Dreams';-inkscape-font-specification:'Caviar Dreams Bold';fill:#78d8c8;fill-opacity:1;stroke-width:0.264583"
         id="path6142" />
      <path
         d="m 8.8902057,68.45387 0.4278805,0.152962 q -0.1570962,0.217041 -0.2273761,0.287321 -0.3451983,0.345198 -0.8330234,0.345198 -0.4857581,0 -0.8309563,-0.345198 -0.3451983,-0.345199 -0.3451983,-0.833024 0,-0.487825 0.3451983,-0.833023 0.3451982,-0.345198 0.8309563,-0.345198 0.4878251,0 0.8330234,0.345198 0.07028,0.07028 0.2273761,0.283186 L 8.8902057,67.668389 Q 8.8075235,67.567103 8.7785847,67.538164 8.5636109,67.32319 8.2576867,67.32319 q -0.3038572,0 -0.520898,0.217041 -0.2149738,0.214974 -0.2149738,0.520898 0,0.303857 0.2149738,0.520898 0.2170408,0.214974 0.520898,0.214974 0.3059242,0 0.522965,-0.214974 0.026872,-0.02894 0.109554,-0.128157 z"
         style="font-style:normal;font-variant:normal;font-weight:bold;font-stretch:normal;font-size:4.23333px;font-family:'Caviar Dreams';-inkscape-font-specification:'Caviar Dreams Bold';fill:#78d8c8;fill-opacity:1;stroke-width:0.264583"
         id="path6144" />
      <path
         d="m 10.072562,67.05654 v -0.797883 h 0.42788 v 0.797883 h 0.382405 v 0.427881 h -0.382405 v 1.699119 h -0.42788 V 67.484421 H 9.6901563 V 67.05654 Z"
         style="font-style:normal;font-variant:normal;font-weight:bold;font-stretch:normal;font-size:4.23333px;font-family:'Caviar Dreams';-inkscape-font-specification:'Caviar Dreams Bold';fill:#78d8c8;fill-opacity:1;stroke-width:0.264583"
         id="path6146" />
    </g>
    <g
       aria-label="dist"
       id="text8895"
       style="font-style:normal;font-variant:normal;font-weight:bold;font-stretch:normal;font-size:4.23333px;line-height:1.25;font-family:'Caviar Dreams';-inkscape-font-specification:'Caviar Dreams Bold';fill:#78d8c8;fill-opacity:1;stroke-width:0.264583"
       transform="translate(0,-2.2237057)">
      <path
         d="M 6.0231994,22.691705 V 22.375446 Q 5.9859924,22.174941 5.822695,22.011644 5.6077212,21.794603 5.301797,21.794603 q -0.3059242,0 -0.522965,0.217041 -0.2149738,0.217041 -0.2149738,0.520898 0,0.305924 0.2149738,0.520898 0.2170408,0.214974 0.522965,0.214974 0.3059242,0 0.520898,-0.214974 0.1632974,-0.163298 0.2005044,-0.361735 z m 0,-1.016991 v -1.32705 H 6.453147 v 3.307289 H 6.0231994 V 23.39037 q -0.3100583,0.320394 -0.7214024,0.320394 -0.4878251,0 -0.8330234,-0.345199 -0.3431312,-0.345198 -0.3431312,-0.833023 0,-0.487825 0.3431312,-0.833024 0.3451983,-0.345198 0.8330234,-0.345198 0.4113441,0 0.7214024,0.320394 z"
         style="font-style:normal;font-variant:normal;font-weight:bold;font-stretch:normal;font-size:4.23333px;font-family:'Caviar Dreams';-inkscape-font-specification:'Caviar Dreams Bold';fill:#78d8c8;fill-opacity:1;stroke-width:0.264583"
         id="path8934" />
      <path
         d="m 7.5362841,21.527953 v 2.127 H 7.1084036 v -2.127 z M 7.3213103,20.653588 q 0.1240233,0 0.2129067,0.08682 0.088883,0.08682 0.088883,0.212906 0,0.126091 -0.088883,0.212907 -0.088883,0.08682 -0.2129067,0.08682 -0.1219563,0 -0.2108397,-0.08682 -0.088883,-0.08682 -0.088883,-0.212907 0,-0.12609 0.088883,-0.212906 0.088883,-0.08682 0.2108397,-0.08682 z"
         style="font-style:normal;font-variant:normal;font-weight:bold;font-stretch:normal;font-size:4.23333px;font-family:'Caviar Dreams';-inkscape-font-specification:'Caviar Dreams Bold';fill:#78d8c8;fill-opacity:1;stroke-width:0.264583"
         id="path8936" />
      <path
         d="m 8.5636109,23.063775 q 0.018603,0.09509 0.057878,0.134359 0.076481,0.07441 0.1819009,0.07441 0.1054198,0 0.1798338,-0.07441 0.076481,-0.07441 0.076481,-0.183968 0,-0.10542 -0.074414,-0.179834 -0.051676,-0.05168 -0.221175,-0.159163 -0.2315102,-0.126091 -0.3286618,-0.223242 -0.1694986,-0.169499 -0.1694986,-0.40721 0,-0.239779 0.1694986,-0.409277 0.1694985,-0.171566 0.409277,-0.171566 0.2397784,0 0.3989417,0.16123 0.1136881,0.113689 0.1446939,0.254248 l -0.4154782,0.11989 q -0.014469,-0.05168 -0.028939,-0.06821 -0.037207,-0.03721 -0.099219,-0.03721 -0.062012,0 -0.1074869,0.04547 -0.043408,0.04341 -0.043408,0.10542 0,0.06201 0.043408,0.10542 0.039274,0.03721 0.1777668,0.12609 0.2563149,0.14056 0.37207,0.256315 0.2005044,0.202571 0.2005044,0.481624 0,0.285253 -0.2005044,0.487825 -0.1984374,0.200504 -0.483691,0.200504 -0.2831866,0 -0.483691,-0.202571 -0.1384927,-0.138493 -0.1819009,-0.345198 z"
         style="font-style:normal;font-variant:normal;font-weight:bold;font-stretch:normal;font-size:4.23333px;font-family:'Caviar Dreams';-inkscape-font-specification:'Caviar Dreams Bold';fill:#78d8c8;fill-opacity:1;stroke-width:0.264583"
         id="path8938" />
      <path
         d="m 10.304072,21.527953 v -0.797884 h 0.42788 v 0.797884 h 0.382406 v 0.42788 h -0.382406 v 1.69912 h -0.42788 v -1.69912 H 9.9216665 v -0.42788 z"
         style="font-style:normal;font-variant:normal;font-weight:bold;font-stretch:normal;font-size:4.23333px;font-family:'Caviar Dreams';-inkscape-font-specification:'Caviar Dreams Bold';fill:#78d8c8;fill-opacity:1;stroke-width:0.264583"
         id="path8940" />
    </g>
    <g
       aria-label="note"
       id="text8899"
       style="font-style:normal;font-variant:normal;font-weight:bold;font-stretch:normal;font-size:4.23333px;line-height:1.25;font-family:'Caviar Dreams';-inkscape-font-specification:'Caviar Dreams Bold';fill:#78d8c8;fill-opacity:1;stroke-width:0.264583"
       transform="rotate(-90,8.7736966,68.18319)">
      <path
         d="m 3.6708902,61.042468 v 1.556493 H 3.2409427 v -2.127 h 0.4299475 v 0.248046 q 0.1343587,-0.363801 0.5395015,-0.363801 0.3451983,0 0.5477698,0.245979 0.2046385,0.243913 0.2108396,0.613916 v 1.38286 H 4.5411206 v -1.366324 q 0,-0.183968 -0.1343586,-0.314192 -0.1343586,-0.132292 -0.3203936,-0.132292 -0.1839679,0 -0.3183265,0.128158 -0.074414,0.07648 -0.097152,0.128157 z"
         style="font-style:normal;font-variant:normal;font-weight:bold;font-stretch:normal;font-size:4.23333px;font-family:'Caviar Dreams';-inkscape-font-specification:'Caviar Dreams Bold';fill:#78d8c8;fill-opacity:1;stroke-width:0.264583"
         id="path8943" />
      <path
         d="m 6.6474503,60.298328 q 0.4878251,0 0.8309563,0.345198 0.3451983,0.345199 0.3451983,0.833024 0,0.487825 -0.3451983,0.833023 -0.3431312,0.345198 -0.8309563,0.345198 -0.4857581,0 -0.8309563,-0.345198 -0.3451983,-0.345198 -0.3451983,-0.833023 0,-0.487825 0.3451983,-0.833024 0.3451982,-0.345198 0.8309563,-0.345198 z m 0,0.440283 q -0.3059242,0 -0.5229651,0.217041 -0.2149737,0.217041 -0.2149737,0.520898 0,0.305924 0.2149737,0.520898 0.2170409,0.214973 0.5229651,0.214973 0.3059242,0 0.520898,-0.214973 0.2170408,-0.214974 0.2170408,-0.520898 0,-0.303857 -0.2170408,-0.520898 -0.2149738,-0.217041 -0.520898,-0.217041 z"
         style="font-style:normal;font-variant:normal;font-weight:bold;font-stretch:normal;font-size:4.23333px;font-family:'Caviar Dreams';-inkscape-font-specification:'Caviar Dreams Bold';fill:#78d8c8;fill-opacity:1;stroke-width:0.264583"
         id="path8945" />
      <path
         d="m 8.57808,60.471961 v -0.797884 h 0.4278805 v 0.797884 h 0.3824053 v 0.42788 H 9.0059605 v 1.69912 H 8.57808 v -1.69912 H 8.1956747 v -0.42788 z"
         style="font-style:normal;font-variant:normal;font-weight:bold;font-stretch:normal;font-size:4.23333px;font-family:'Caviar Dreams';-inkscape-font-specification:'Caviar Dreams Bold';fill:#78d8c8;fill-opacity:1;stroke-width:0.264583"
         id="path8947" />
      <path
         d="m 10.547984,62.117337 q 0.107487,0.09508 0.390674,0.09508 0.305924,0 0.522965,-0.214973 0.02687,-0.02894 0.109554,-0.128158 l 0.42788,0.152962 q -0.157096,0.217041 -0.227376,0.287321 -0.345198,0.345198 -0.833023,0.345198 -0.485758,0 -0.830957,-0.345198 -0.345198,-0.345198 -0.345198,-0.833023 0,-0.487825 0.345198,-0.833024 0.345199,-0.345198 0.830957,-0.345198 0.417545,0 0.731737,0.252181 0.05168,0.04341 0.101286,0.09302 0.02067,0.02067 0.117822,0.130225 l -0.214974,0.217041 z m 0.715201,-1.322916 q -0.07235,-0.05581 -0.324527,-0.05581 -0.303858,0 -0.520898,0.217041 -0.214974,0.214973 -0.214974,0.520898 0,0.250113 0.05581,0.324527 z"
         style="font-style:normal;font-variant:normal;font-weight:bold;font-stretch:normal;font-size:4.23333px;font-family:'Caviar Dreams';-inkscape-font-specification:'Caviar Dreams Bold';fill:#78d8c8;fill-opacity:1;stroke-width:0.264583"
         id="path8949" />
    </g>
    <g
       aria-label="base"
       id="text8903"
       style="font-size:3.52777px;line-height:1.25;font-family:'Caviar Dreams';-inkscape-font-specification:'Caviar Dreams';stroke-width:0.264583"
       transform="translate(0,4.3666667e-5)">
      <path
         d="m 3.1851322,39.048437 v 0.332795 q 0.039274,0.194304 0.1984373,0.353467 0.2170409,0.214974 0.5229651,0.214974 0.3059242,0 0.520898,-0.214974 0.2170408,-0.214974 0.2170408,-0.520898 0,-0.303857 -0.2170408,-0.520898 -0.2149738,-0.217041 -0.520898,-0.217041 -0.3059242,0 -0.5229651,0.217041 -0.1591632,0.159163 -0.1984373,0.355534 z m 0,1.023192 v 0.264583 H 2.7572517 v -3.307289 h 0.4278805 v 1.32705 q 0.3100583,-0.320394 0.7214024,-0.320394 0.4878251,0 0.8309563,0.345199 0.3451983,0.345198 0.3451983,0.833023 0,0.487825 -0.3451983,0.833023 -0.3431312,0.345199 -0.8309563,0.345199 -0.4113441,0 -0.7214024,-0.320394 z"
         style="font-style:normal;font-variant:normal;font-weight:bold;font-stretch:normal;font-size:4.23333px;font-family:'Caviar Dreams';-inkscape-font-specification:'Caviar Dreams Bold';fill:#78d8c8;fill-opacity:1;stroke-width:0.264583"
         id="path8952" />
      <path
         d="M 7.494943,39.372964 V 39.058772 Q 7.457736,38.858267 7.2965057,38.69497 7.0794648,38.479996 6.7756077,38.479996 q -0.3059242,0 -0.5229651,0.214974 -0.2149737,0.214974 -0.2149737,0.520898 0,0.303857 0.2149737,0.520898 0.2170409,0.214974 0.5229651,0.214974 0.3038571,0 0.520898,-0.214974 0.1612303,-0.163297 0.1984373,-0.363802 z m 0,-1.014924 v -0.148828 h 0.4299476 v 2.129067 H 7.494943 v -0.26665 q -0.3100583,0.320394 -0.7193353,0.320394 -0.4878251,0 -0.8330234,-0.343132 -0.3431312,-0.345198 -0.3431312,-0.833023 0,-0.487825 0.3431312,-0.830956 0.3451983,-0.345199 0.8330234,-0.345199 0.409277,0 0.7193353,0.318327 z"
         style="font-style:normal;font-variant:normal;font-weight:bold;font-stretch:normal;font-size:4.23333px;font-family:'Caviar Dreams';-inkscape-font-specification:'Caviar Dreams Bold';fill:#78d8c8;fill-opacity:1;stroke-width:0.264583"
         id="path8954" />
      <path
         d="m 8.9191443,39.745034 q 0.018604,0.09509 0.057878,0.134359 0.076481,0.07441 0.1819008,0.07441 0.1054199,0 0.1798339,-0.07441 0.076481,-0.07441 0.076481,-0.183968 0,-0.10542 -0.074414,-0.179834 -0.051676,-0.05168 -0.2211749,-0.159163 -0.2315102,-0.126091 -0.3286618,-0.223242 -0.1694986,-0.169499 -0.1694986,-0.40721 0,-0.239779 0.1694986,-0.409277 0.1694985,-0.171566 0.409277,-0.171566 0.2397784,0 0.3989417,0.161231 0.113688,0.113688 0.1446939,0.254247 l -0.4154782,0.11989 q -0.014469,-0.05168 -0.028939,-0.06821 -0.037207,-0.03721 -0.099219,-0.03721 -0.062012,0 -0.1074869,0.04548 -0.043408,0.04341 -0.043408,0.10542 0,0.06201 0.043408,0.10542 0.039274,0.03721 0.1777667,0.12609 0.2563149,0.14056 0.37207,0.256315 0.2005044,0.202571 0.2005044,0.481624 0,0.285254 -0.2005044,0.487825 -0.1984373,0.200504 -0.483691,0.200504 -0.2831866,0 -0.483691,-0.202571 Q 8.536739,40.04269 8.4933309,39.835985 Z"
         style="font-style:normal;font-variant:normal;font-weight:bold;font-stretch:normal;font-size:4.23333px;font-family:'Caviar Dreams';-inkscape-font-specification:'Caviar Dreams Bold';fill:#78d8c8;fill-opacity:1;stroke-width:0.264583"
         id="path8956" />
      <path
         d="m 11.031675,39.854588 q 0.107487,0.09508 0.390674,0.09508 0.305924,0 0.522965,-0.214974 0.02687,-0.02894 0.109554,-0.128157 l 0.42788,0.152962 q -0.157096,0.21704 -0.227376,0.28732 -0.345198,0.345199 -0.833023,0.345199 -0.485758,0 -0.830957,-0.345199 -0.345198,-0.345198 -0.345198,-0.833023 0,-0.487825 0.345198,-0.833023 0.345199,-0.345199 0.830957,-0.345199 0.417545,0 0.731737,0.252181 0.05168,0.04341 0.101286,0.09302 0.02067,0.02067 0.117822,0.130224 L 12.15822,38.72804 Z m 0.715201,-1.322915 q -0.07235,-0.05581 -0.324527,-0.05581 -0.303858,0 -0.520898,0.217041 -0.214974,0.214974 -0.214974,0.520898 0,0.250114 0.05581,0.324528 z"
         style="font-style:normal;font-variant:normal;font-weight:bold;font-stretch:normal;font-size:4.23333px;font-family:'Caviar Dreams';-inkscape-font-specification:'Caviar Dreams Bold';fill:#78d8c8;fill-opacity:1;stroke-width:0.264583"
         id="path8958" />
    </g>
    <path
       style="fill:none;stroke:#989998;stroke-width:0.264583px;stroke-linecap:butt;stroke-linejoin:miter;stroke-opacity:1"
       d="M 1.6732531,41.856872 13.566747,41.723236"
       id="path8905" />
    <g
       aria-label="in"
       id="text8913"
       style="font-size:3.52777px;line-height:1.25;font-family:'Caviar Dreams';-inkscape-font-specification:'Caviar Dreams';fill:#78d8c8;fill-opacity:1;stroke-width:0.264583"
       transform="translate(0,0.10039733)">
      <path
         d="M 6.6856907,5.0073005 V 7.1343007 H 6.2578102 V 5.0073005 Z M 6.470717,4.132936 q 0.1240233,0 0.2129067,0.086816 0.088883,0.086816 0.088883,0.2129067 0,0.1260904 -0.088883,0.2129067 -0.088883,0.086816 -0.2129067,0.086816 -0.1219563,0 -0.2108397,-0.086816 -0.088883,-0.086816 -0.088883,-0.2129067 0,-0.1260904 0.088883,-0.2129067 0.088883,-0.086816 0.2108397,-0.086816 z"
         style="font-style:normal;font-variant:normal;font-weight:bold;font-stretch:normal;font-size:4.23333px;font-family:'Caviar Dreams';-inkscape-font-specification:'Caviar Dreams Bold';fill:#78d8c8;fill-opacity:1;stroke-width:0.264583"
         id="path8961" />
      <path
         d="M 7.7708949,5.5778079 V 7.1343007 H 7.3409474 V 5.0073005 h 0.4299475 v 0.2480467 q 0.1343586,-0.3638018 0.5395015,-0.3638018 0.3451983,0 0.5477697,0.2459796 0.2046385,0.2439126 0.2108397,0.6139155 V 7.1343007 H 8.6411253 V 5.767977 q 0,-0.183968 -0.1343586,-0.3141925 Q 8.3724081,5.321493 8.1863731,5.321493 q -0.183968,0 -0.3183266,0.1281574 -0.074414,0.076481 -0.097152,0.1281575 z"
         style="font-style:normal;font-variant:normal;font-weight:bold;font-stretch:normal;font-size:4.23333px;font-family:'Caviar Dreams';-inkscape-font-specification:'Caviar Dreams Bold';fill:#78d8c8;fill-opacity:1;stroke-width:0.264583"
         id="path8963" />
    </g>
    <rect
       style="opacity:0.992;fill:#161516;fill-opacity:1;stroke:#78d8c8;stroke-width:0.26458333;stroke-linecap:round;stroke-miterlimit:4;stroke-dasharray:none"
       id="rect6247-1"
       width="10.950708"
       height="5.8593249"
       x="2.1446457"
       y="43.269119"
       rx="1"
       ry="1" />
  </g>
</svg>
