<?xml version="1.0" encoding="UTF-8" standalone="no"?>
<svg
   width="15.24mm"
   height="128.5mm"
   viewBox="0 0 15.24 128.5"
   version="1.1"
   id="svg2424"
   sodipodi:docname="spc.svg"
   inkscape:version="1.1.2 (0a00cf5339, 2022-02-04)"
   xmlns:inkscape="http://www.inkscape.org/namespaces/inkscape"
   xmlns:sodipodi="http://sodipodi.sourceforge.net/DTD/sodipodi-0.dtd"
   xmlns:xlink="http://www.w3.org/1999/xlink"
   xmlns="http://www.w3.org/2000/svg"
   xmlns:svg="http://www.w3.org/2000/svg"
   xmlns:rdf="http://www.w3.org/1999/02/22-rdf-syntax-ns#"
   xmlns:cc="http://creativecommons.org/ns#"
   xmlns:dc="http://purl.org/dc/elements/1.1/">
  <defs
     id="defs2418">
    <linearGradient
       inkscape:collect="always"
       id="linearGradient10965">
      <stop
         style="stop-color:#100c11;stop-opacity:1"
         offset="0"
         id="stop10961" />
      <stop
         style="stop-color:#0aa0ab;stop-opacity:1"
         offset="1"
         id="stop10963" />
    </linearGradient>
    <linearGradient
       inkscape:collect="always"
       xlink:href="#linearGradient10965"
       id="linearGradient10967"
       x1="-4.4408921e-16"
       y1="0"
       x2="15.24"
       y2="128.5"
       gradientUnits="userSpaceOnUse" />
  </defs>
  <sodipodi:namedview
     id="base"
     pagecolor="#ffffff"
     bordercolor="#666666"
     borderopacity="1.0"
     inkscape:pageopacity="0.0"
     inkscape:pageshadow="2"
     inkscape:zoom="7.9195959"
     inkscape:cx="28.978751"
     inkscape:cy="130.49908"
     inkscape:document-units="mm"
     inkscape:current-layer="layer1"
     inkscape:document-rotation="0"
     showgrid="false"
     inkscape:pagecheckerboard="true"
     inkscape:window-width="1920"
     inkscape:window-height="1050"
     inkscape:window-x="0"
     inkscape:window-y="0"
     inkscape:window-maximized="1" />
  <metadata
     id="metadata2421">
    <rdf:RDF>
      <cc:Work
         rdf:about="">
        <dc:format>image/svg+xml</dc:format>
        <dc:type
           rdf:resource="http://purl.org/dc/dcmitype/StillImage" />
      </cc:Work>
    </rdf:RDF>
  </metadata>
  <g
     inkscape:label="Layer 1"
     inkscape:groupmode="layer"
     id="layer1"
     style="opacity:0.996">
    <path
       id="rect48062"
       style="display:inline;fill:url(#linearGradient10967);stroke-width:0.290191"
       d="M 0,0 H 15.24 V 128.5 H 0 Z" />
    <path
       style="fill:#100c11;fill-opacity:1;stroke:#64f6ed;stroke-width:0.28881;stroke-linecap:round;stroke-linejoin:round;stroke-miterlimit:4;stroke-dasharray:none;stroke-opacity:1;paint-order:stroke fill markers"
       d="m 7.1969867,116.78076 c -1.4148758,-0.0838 -2.6487397,-0.59387 -3.6443292,-1.50649 -0.3794287,-0.34781 -0.84483,-0.94938 -1.1182458,-1.44543 -0.2372439,-0.43043 -0.4125593,-0.88603 -0.5237079,-1.36099 -0.059424,-0.25393 -0.1091455,-0.56148 -0.093329,-0.57725 0.01957,-0.0195 0.7247201,0.0239 1.041677,0.0724 1.4733698,0.22521 2.9351498,0.50535 4.1426699,1.12205 0.2459847,0.12562 0.2706005,0.14676 0.384522,-7.7e-4 0.1835268,-0.23789 0.4542472,-0.45611 0.7497938,-0.60439 0.2468484,-0.12384 0.7460558,-0.29043 0.7771534,-0.25934 -0.08606,0.19472 -0.1431559,0.42871 -0.1690156,0.62534 -0.023804,0.18099 0.025455,0.67299 0.059448,0.74001 0.4227639,0.18315 1.0064595,0.10763 1.4566667,-0.034 1.754906,-0.86084 2.257435,-2.33697 2.304131,-3.9466 0.01263,-0.43523 0.0075,-0.4547 -0.126558,-0.48855 -0.401877,-0.1503 -0.959278,-0.81803 -0.607278,-0.71528 0.886624,0.25877 0.920652,0.2518 1.491898,-0.22184 0.251075,-0.20818 -0.01591,0.58491 -0.255634,0.77082 -0.235607,0.17694 -0.2369,0.18013 -0.162014,0.4008 0.210751,0.71117 0.29584,1.38164 0.226785,2.13733 -0.195716,1.97102 -1.376055,3.77305 -3.032125,4.62916 -0.6831054,0.35314 -1.3809454,0.56747 -2.0728629,0.63664 -0.2062716,0.0206 -0.6759696,0.0357 -0.8296443,0.0266 z"
       id="path10930"
       sodipodi:nodetypes="csssssscscsccccsscccsscc" />
    <g
       aria-label="spc by cvly"
       id="text3734"
       style="font-size:3.52777px;line-height:1.25;font-family:'Caviar Dreams';-inkscape-font-specification:'Caviar Dreams';text-align:center;text-anchor:middle;opacity:0.996;fill:#78d8c8;fill-opacity:1;stroke-width:0.264583"
       transform="translate(7.7889e-4,-0.0764)">
      <path
         d="m 1.4953144,120.79251 q 0.018603,0.0951 0.057878,0.13436 0.076481,0.0744 0.1819009,0.0744 0.1054198,0 0.1798338,-0.0744 0.076481,-0.0744 0.076481,-0.18397 0,-0.10542 -0.074414,-0.17983 -0.051676,-0.0517 -0.221175,-0.15916 -0.2315102,-0.12609 -0.3286618,-0.22325 -0.1694986,-0.1695 -0.1694986,-0.40721 0,-0.23977 0.1694986,-0.40927 0.1694986,-0.17157 0.409277,-0.17157 0.2397784,0 0.3989417,0.16123 0.1136881,0.11369 0.1446939,0.25425 l -0.4154782,0.11989 q -0.014469,-0.0517 -0.028939,-0.0682 -0.037207,-0.0372 -0.099219,-0.0372 -0.062012,0 -0.1074869,0.0455 -0.043408,0.0434 -0.043408,0.10542 0,0.062 0.043408,0.10542 0.039274,0.0372 0.1777668,0.12609 0.2563149,0.14056 0.37207,0.25632 0.2005044,0.20257 0.2005044,0.48162 0,0.28526 -0.2005044,0.48783 -0.1984373,0.2005 -0.483691,0.2005 -0.2831866,0 -0.483691,-0.20257 -0.1384927,-0.13849 -0.1819009,-0.3452 z"
         style="font-style:normal;font-variant:normal;font-weight:bold;font-stretch:normal;font-size:4.23333px;font-family:'Caviar Dreams';-inkscape-font-specification:'Caviar Dreams Bold';text-align:start;writing-mode:lr-tb;text-anchor:start;fill:#64f6ed;fill-opacity:1;stroke-width:0.264583"
         id="path8915" />
      <path
         d="m 3.3742679,120.09591 v 0.3328 q 0.039274,0.19637 0.2005044,0.35553 0.2149738,0.21498 0.520898,0.21498 0.3059243,0 0.520898,-0.21498 0.2170409,-0.21704 0.2170409,-0.52296 0,-0.30386 -0.2170409,-0.5209 -0.2149737,-0.21704 -0.520898,-0.21704 -0.3059242,0 -0.520898,0.21704 -0.1612303,0.15916 -0.2005044,0.35553 z m 0,1.0232 v 0.97978 H 2.9463874 v -2.8422 h 0.4278805 v 0.19224 q 0.3100584,-0.36381 0.7214024,-0.36381 0.4878251,0 0.8309564,0.3452 0.3451982,0.34313 0.3451982,0.83096 0,0.48782 -0.3451982,0.83302 -0.3431313,0.3452 -0.8309564,0.3452 -0.411344,0 -0.7214024,-0.32039 z"
         style="font-style:normal;font-variant:normal;font-weight:bold;font-stretch:normal;font-size:4.23333px;font-family:'Caviar Dreams';-inkscape-font-specification:'Caviar Dreams Bold';text-align:start;writing-mode:lr-tb;text-anchor:start;fill:#64f6ed;fill-opacity:1;stroke-width:0.264583"
         id="path8917" />
      <path
         d="m 7.473239,120.65402 0.4278805,0.15296 q -0.1570963,0.21704 -0.2273762,0.28732 -0.3451982,0.3452 -0.8330233,0.3452 -0.4857581,0 -0.8309564,-0.3452 -0.3451983,-0.3452 -0.3451983,-0.83302 0,-0.48783 0.3451983,-0.83302 0.3451983,-0.3452 0.8309564,-0.3452 0.4878251,0 0.8330233,0.3452 0.07028,0.0703 0.2273762,0.28318 l -0.4278805,0.1571 q -0.082682,-0.10129 -0.111621,-0.13023 -0.2149738,-0.21497 -0.520898,-0.21497 -0.3038572,0 -0.520898,0.21704 -0.2149738,0.21497 -0.2149738,0.5209 0,0.30386 0.2149738,0.5209 0.2170408,0.21497 0.520898,0.21497 0.3059242,0 0.522965,-0.21497 0.026872,-0.0289 0.109554,-0.12816 z"
         style="font-style:normal;font-variant:normal;font-weight:bold;font-stretch:normal;font-size:4.23333px;font-family:'Caviar Dreams';-inkscape-font-specification:'Caviar Dreams Bold';text-align:start;writing-mode:lr-tb;text-anchor:start;fill:#64f6ed;fill-opacity:1;stroke-width:0.264583"
         id="path8919" />
      <path
         d="m 9.8606884,118.0764 h 0.1860346 v 1.56269 q 0.05168,-0.0703 0.117823,-0.13642 0.332795,-0.3328 0.802017,-0.3328 0.471289,0 0.802018,0.3328 0.332796,0.3328 0.332796,0.80408 0,0.46923 -0.332796,0.80202 -0.330729,0.3328 -0.802018,0.3328 -0.469222,0 -0.802017,-0.3328 -0.06615,-0.0661 -0.117823,-0.13642 v 0.41134 H 9.8606884 Z m 0.1860346,2.03605 v 0.38861 q 0.05374,0.26458 0.256315,0.46715 0.274919,0.27492 0.663525,0.27492 0.388607,0 0.663525,-0.27285 0.274918,-0.27492 0.274918,-0.66353 0,-0.3886 -0.274918,-0.66352 -0.274918,-0.27492 -0.663525,-0.27492 -0.388606,0 -0.663525,0.27492 -0.202571,0.20257 -0.256315,0.46922 z"
         style="font-style:normal;font-variant:normal;font-weight:normal;font-stretch:normal;font-family:'Caviar Dreams';-inkscape-font-specification:'Caviar Dreams';text-align:start;text-anchor:start;fill:#e0ede6;fill-opacity:1"
         id="path8921" />
      <path
         d="m 13.358146,121.20179 -0.458886,0.95705 h -0.181901 l 0.547769,-1.14929 -0.791682,-1.65571 h 0.21084 l 0.67386,1.45521 0.67386,-1.45521 h 0.208773 l -0.882633,1.85002 z"
         style="font-style:normal;font-variant:normal;font-weight:normal;font-stretch:normal;font-family:'Caviar Dreams';-inkscape-font-specification:'Caviar Dreams';text-align:start;text-anchor:start;fill:#e0ede6;fill-opacity:1"
         id="path8923" />
      <path
         d="m 2.8078947,125.99679 0.4278805,0.15296 q -0.1570962,0.21704 -0.2273761,0.28732 -0.3451983,0.3452 -0.8330234,0.3452 -0.485758,0 -0.8309563,-0.3452 -0.34519829,-0.3452 -0.34519829,-0.83302 0,-0.48783 0.34519829,-0.83302 0.3451983,-0.3452 0.8309563,-0.3452 0.4878251,0 0.8330234,0.3452 0.07028,0.0703 0.2273761,0.28318 l -0.4278805,0.1571 q -0.082682,-0.10129 -0.111621,-0.13023 -0.2149738,-0.21497 -0.520898,-0.21497 -0.3038571,0 -0.520898,0.21704 -0.2149738,0.21497 -0.2149738,0.5209 0,0.30386 0.2149738,0.5209 0.2170409,0.21497 0.520898,0.21497 0.3059242,0 0.5229651,-0.21497 0.026872,-0.0289 0.1095539,-0.12816 z"
         style="font-style:normal;font-variant:normal;font-weight:bold;font-stretch:normal;font-size:4.23333px;font-family:'Caviar Dreams';-inkscape-font-specification:'Caviar Dreams Bold';text-align:start;writing-mode:lr-tb;text-anchor:start;fill:#64f6ed;fill-opacity:1;stroke-width:0.264583"
         id="path8925" />
      <path
         d="m 4.5400874,126.72646 -1.0149243,-2.127 h 0.483691 l 0.6387202,1.38079 0.6407872,-1.38079 h 0.483691 l -1.0169913,2.127 z"
         style="font-style:normal;font-variant:normal;font-weight:bold;font-stretch:normal;font-size:4.23333px;font-family:'Caviar Dreams';-inkscape-font-specification:'Caviar Dreams Bold';text-align:start;writing-mode:lr-tb;text-anchor:start;fill:#64f6ed;fill-opacity:1;stroke-width:0.264583"
         id="path8927" />
      <path
         d="m 6.6174782,123.4171 v 3.30936 H 6.1875307 v -3.30936 z"
         style="font-style:normal;font-variant:normal;font-weight:bold;font-stretch:normal;font-size:4.23333px;font-family:'Caviar Dreams';-inkscape-font-specification:'Caviar Dreams Bold';text-align:start;writing-mode:lr-tb;text-anchor:start;fill:#64f6ed;fill-opacity:1;stroke-width:0.264583"
         id="path8929" />
      <path
         d="M 7.7605598,127.44166 H 7.3078746 l 0.5663733,-1.18856 -0.7916823,-1.65364 h 0.4816239 l 0.5395015,1.16375 0.5395015,-1.16375 h 0.4795569 z"
         style="font-style:normal;font-variant:normal;font-weight:bold;font-stretch:normal;font-size:4.23333px;font-family:'Caviar Dreams';-inkscape-font-specification:'Caviar Dreams Bold';text-align:start;writing-mode:lr-tb;text-anchor:start;fill:#64f6ed;fill-opacity:1;stroke-width:0.264583"
         id="path8931" />
    </g>
    <path
       style="opacity:0.996;fill:#0aa0ab;stroke:#e0ede6;stroke-width:0.264583px;stroke-linecap:butt;stroke-linejoin:miter;stroke-opacity:1"
       d="M 1.673668,59.848907 13.567162,59.715271"
       id="path8905" />
    <rect
       style="opacity:0.992;fill:#25232d;fill-opacity:0.6;stroke:#e0ede6;stroke-width:0.264583;stroke-linecap:round;stroke-miterlimit:4;stroke-dasharray:none"
       id="rect6247-1"
       width="10.951"
       height="5.8593249"
       x="2.1450603"
       y="61.261154" />
    <g
       aria-label="oct"
       id="text5016-9-1"
       style="font-size:3.52777px;line-height:1.25;font-family:'Caviar Dreams';-inkscape-font-specification:'Caviar Dreams';opacity:0.992;fill:#64f6ed;fill-opacity:1;stroke-width:0.264583"
       transform="rotate(-90,7.2701655,73.263817)">
      <path
         d="m 5.5333074,66.882908 q 0.4878251,0 0.8309563,0.345198 0.3451983,0.345198 0.3451983,0.833023 0,0.487825 -0.3451983,0.833024 -0.3431312,0.345198 -0.8309563,0.345198 -0.4857581,0 -0.8309563,-0.345198 -0.3451983,-0.345199 -0.3451983,-0.833024 0,-0.487825 0.3451983,-0.833023 0.3451982,-0.345198 0.8309563,-0.345198 z m 0,0.440282 q -0.3059242,0 -0.5229651,0.217041 -0.2149737,0.217041 -0.2149737,0.520898 0,0.305924 0.2149737,0.520898 0.2170409,0.214974 0.5229651,0.214974 0.3059242,0 0.520898,-0.214974 0.2170408,-0.214974 0.2170408,-0.520898 0,-0.303857 -0.2170408,-0.520898 Q 5.8392316,67.32319 5.5333074,67.32319 Z"
         style="font-style:normal;font-variant:normal;font-weight:bold;font-stretch:normal;font-size:4.23333px;font-family:'Caviar Dreams';-inkscape-font-specification:'Caviar Dreams Bold';fill:#64f6ed;fill-opacity:1;stroke-width:0.264583"
         id="path6142" />
      <path
         d="m 8.8902057,68.45387 0.4278805,0.152962 q -0.1570962,0.217041 -0.2273761,0.287321 -0.3451983,0.345198 -0.8330234,0.345198 -0.4857581,0 -0.8309563,-0.345198 -0.3451983,-0.345199 -0.3451983,-0.833024 0,-0.487825 0.3451983,-0.833023 0.3451982,-0.345198 0.8309563,-0.345198 0.4878251,0 0.8330234,0.345198 0.07028,0.07028 0.2273761,0.283186 L 8.8902057,67.668389 Q 8.8075235,67.567103 8.7785847,67.538164 8.5636109,67.32319 8.2576867,67.32319 q -0.3038572,0 -0.520898,0.217041 -0.2149738,0.214974 -0.2149738,0.520898 0,0.303857 0.2149738,0.520898 0.2170408,0.214974 0.520898,0.214974 0.3059242,0 0.522965,-0.214974 0.026872,-0.02894 0.109554,-0.128157 z"
         style="font-style:normal;font-variant:normal;font-weight:bold;font-stretch:normal;font-size:4.23333px;font-family:'Caviar Dreams';-inkscape-font-specification:'Caviar Dreams Bold';fill:#64f6ed;fill-opacity:1;stroke-width:0.264583"
         id="path6144" />
      <path
         d="m 10.072562,67.05654 v -0.797883 h 0.42788 v 0.797883 h 0.382405 v 0.427881 h -0.382405 v 1.699119 h -0.42788 V 67.484421 H 9.6901563 V 67.05654 Z"
         style="font-style:normal;font-variant:normal;font-weight:bold;font-stretch:normal;font-size:4.23333px;font-family:'Caviar Dreams';-inkscape-font-specification:'Caviar Dreams Bold';fill:#64f6ed;fill-opacity:1;stroke-width:0.264583"
         id="path6146" />
    </g>
    <g
       aria-label="note"
       id="text8899"
       style="font-style:normal;font-variant:normal;font-weight:bold;font-stretch:normal;font-size:4.23333px;line-height:1.25;font-family:'Caviar Dreams';-inkscape-font-specification:'Caviar Dreams Bold';opacity:0.996;fill:#64f6ed;fill-opacity:1;stroke-width:0.264583"
       transform="rotate(-90,16.182414,75.591491)">
      <path
         d="m 3.6708902,61.042468 v 1.556493 H 3.2409427 v -2.127 h 0.4299475 v 0.248046 q 0.1343587,-0.363801 0.5395015,-0.363801 0.3451983,0 0.5477698,0.245979 0.2046385,0.243913 0.2108396,0.613916 v 1.38286 H 4.5411206 v -1.366324 q 0,-0.183968 -0.1343586,-0.314192 -0.1343586,-0.132292 -0.3203936,-0.132292 -0.1839679,0 -0.3183265,0.128158 -0.074414,0.07648 -0.097152,0.128157 z"
         style="font-style:normal;font-variant:normal;font-weight:bold;font-stretch:normal;font-size:4.23333px;font-family:'Caviar Dreams';-inkscape-font-specification:'Caviar Dreams Bold';fill:#64f6ed;fill-opacity:1;stroke-width:0.264583"
         id="path8943" />
      <path
         d="m 6.6474503,60.298328 q 0.4878251,0 0.8309563,0.345198 0.3451983,0.345199 0.3451983,0.833024 0,0.487825 -0.3451983,0.833023 -0.3431312,0.345198 -0.8309563,0.345198 -0.4857581,0 -0.8309563,-0.345198 -0.3451983,-0.345198 -0.3451983,-0.833023 0,-0.487825 0.3451983,-0.833024 0.3451982,-0.345198 0.8309563,-0.345198 z m 0,0.440283 q -0.3059242,0 -0.5229651,0.217041 -0.2149737,0.217041 -0.2149737,0.520898 0,0.305924 0.2149737,0.520898 0.2170409,0.214973 0.5229651,0.214973 0.3059242,0 0.520898,-0.214973 0.2170408,-0.214974 0.2170408,-0.520898 0,-0.303857 -0.2170408,-0.520898 -0.2149738,-0.217041 -0.520898,-0.217041 z"
         style="font-style:normal;font-variant:normal;font-weight:bold;font-stretch:normal;font-size:4.23333px;font-family:'Caviar Dreams';-inkscape-font-specification:'Caviar Dreams Bold';fill:#64f6ed;fill-opacity:1;stroke-width:0.264583"
         id="path8945" />
      <path
         d="m 8.57808,60.471961 v -0.797884 h 0.4278805 v 0.797884 h 0.3824053 v 0.42788 H 9.0059605 v 1.69912 H 8.57808 v -1.69912 H 8.1956747 v -0.42788 z"
         style="font-style:normal;font-variant:normal;font-weight:bold;font-stretch:normal;font-size:4.23333px;font-family:'Caviar Dreams';-inkscape-font-specification:'Caviar Dreams Bold';fill:#64f6ed;fill-opacity:1;stroke-width:0.264583"
         id="path8947" />
      <path
         d="m 10.547984,62.117337 q 0.107487,0.09508 0.390674,0.09508 0.305924,0 0.522965,-0.214973 0.02687,-0.02894 0.109554,-0.128158 l 0.42788,0.152962 q -0.157096,0.217041 -0.227376,0.287321 -0.345198,0.345198 -0.833023,0.345198 -0.485758,0 -0.830957,-0.345198 -0.345198,-0.345198 -0.345198,-0.833023 0,-0.487825 0.345198,-0.833024 0.345199,-0.345198 0.830957,-0.345198 0.417545,0 0.731737,0.252181 0.05168,0.04341 0.101286,0.09302 0.02067,0.02067 0.117822,0.130225 l -0.214974,0.217041 z m 0.715201,-1.322916 q -0.07235,-0.05581 -0.324527,-0.05581 -0.303858,0 -0.520898,0.217041 -0.214974,0.214973 -0.214974,0.520898 0,0.250113 0.05581,0.324527 z"
         style="font-style:normal;font-variant:normal;font-weight:bold;font-stretch:normal;font-size:4.23333px;font-family:'Caviar Dreams';-inkscape-font-specification:'Caviar Dreams Bold';fill:#64f6ed;fill-opacity:1;stroke-width:0.264583"
         id="path8949" />
    </g>
    <g
       aria-label="base"
       id="text8903"
       style="font-size:3.52777px;line-height:1.25;font-family:'Caviar Dreams';-inkscape-font-specification:'Caviar Dreams';opacity:0.996;fill:#64f6ed;stroke-width:0.264583"
       transform="translate(4.15e-4,17.992077)">
      <path
         d="m 3.1851322,39.048437 v 0.332795 q 0.039274,0.194304 0.1984373,0.353467 0.2170409,0.214974 0.5229651,0.214974 0.3059242,0 0.520898,-0.214974 0.2170408,-0.214974 0.2170408,-0.520898 0,-0.303857 -0.2170408,-0.520898 -0.2149738,-0.217041 -0.520898,-0.217041 -0.3059242,0 -0.5229651,0.217041 -0.1591632,0.159163 -0.1984373,0.355534 z m 0,1.023192 v 0.264583 H 2.7572517 v -3.307289 h 0.4278805 v 1.32705 q 0.3100583,-0.320394 0.7214024,-0.320394 0.4878251,0 0.8309563,0.345199 0.3451983,0.345198 0.3451983,0.833023 0,0.487825 -0.3451983,0.833023 -0.3431312,0.345199 -0.8309563,0.345199 -0.4113441,0 -0.7214024,-0.320394 z"
         style="font-style:normal;font-variant:normal;font-weight:bold;font-stretch:normal;font-size:4.23333px;font-family:'Caviar Dreams';-inkscape-font-specification:'Caviar Dreams Bold';fill:#64f6ed;fill-opacity:1;stroke-width:0.264583"
         id="path8952" />
      <path
         d="M 7.494943,39.372964 V 39.058772 Q 7.457736,38.858267 7.2965057,38.69497 7.0794648,38.479996 6.7756077,38.479996 q -0.3059242,0 -0.5229651,0.214974 -0.2149737,0.214974 -0.2149737,0.520898 0,0.303857 0.2149737,0.520898 0.2170409,0.214974 0.5229651,0.214974 0.3038571,0 0.520898,-0.214974 0.1612303,-0.163297 0.1984373,-0.363802 z m 0,-1.014924 v -0.148828 h 0.4299476 v 2.129067 H 7.494943 v -0.26665 q -0.3100583,0.320394 -0.7193353,0.320394 -0.4878251,0 -0.8330234,-0.343132 -0.3431312,-0.345198 -0.3431312,-0.833023 0,-0.487825 0.3431312,-0.830956 0.3451983,-0.345199 0.8330234,-0.345199 0.409277,0 0.7193353,0.318327 z"
         style="font-style:normal;font-variant:normal;font-weight:bold;font-stretch:normal;font-size:4.23333px;font-family:'Caviar Dreams';-inkscape-font-specification:'Caviar Dreams Bold';fill:#64f6ed;fill-opacity:1;stroke-width:0.264583"
         id="path8954" />
      <path
         d="m 8.9191443,39.745034 q 0.018604,0.09509 0.057878,0.134359 0.076481,0.07441 0.1819008,0.07441 0.1054199,0 0.1798339,-0.07441 0.076481,-0.07441 0.076481,-0.183968 0,-0.10542 -0.074414,-0.179834 -0.051676,-0.05168 -0.2211749,-0.159163 -0.2315102,-0.126091 -0.3286618,-0.223242 -0.1694986,-0.169499 -0.1694986,-0.40721 0,-0.239779 0.1694986,-0.409277 0.1694985,-0.171566 0.409277,-0.171566 0.2397784,0 0.3989417,0.161231 0.113688,0.113688 0.1446939,0.254247 l -0.4154782,0.11989 q -0.014469,-0.05168 -0.028939,-0.06821 -0.037207,-0.03721 -0.099219,-0.03721 -0.062012,0 -0.1074869,0.04548 -0.043408,0.04341 -0.043408,0.10542 0,0.06201 0.043408,0.10542 0.039274,0.03721 0.1777667,0.12609 0.2563149,0.14056 0.37207,0.256315 0.2005044,0.202571 0.2005044,0.481624 0,0.285254 -0.2005044,0.487825 -0.1984373,0.200504 -0.483691,0.200504 -0.2831866,0 -0.483691,-0.202571 Q 8.536739,40.04269 8.4933309,39.835985 Z"
         style="font-style:normal;font-variant:normal;font-weight:bold;font-stretch:normal;font-size:4.23333px;font-family:'Caviar Dreams';-inkscape-font-specification:'Caviar Dreams Bold';fill:#64f6ed;fill-opacity:1;stroke-width:0.264583"
         id="path8956" />
      <path
         d="m 11.031675,39.854588 q 0.107487,0.09508 0.390674,0.09508 0.305924,0 0.522965,-0.214974 0.02687,-0.02894 0.109554,-0.128157 l 0.42788,0.152962 q -0.157096,0.21704 -0.227376,0.28732 -0.345198,0.345199 -0.833023,0.345199 -0.485758,0 -0.830957,-0.345199 -0.345198,-0.345198 -0.345198,-0.833023 0,-0.487825 0.345198,-0.833023 0.345199,-0.345199 0.830957,-0.345199 0.417545,0 0.731737,0.252181 0.05168,0.04341 0.101286,0.09302 0.02067,0.02067 0.117822,0.130224 L 12.15822,38.72804 Z m 0.715201,-1.322915 q -0.07235,-0.05581 -0.324527,-0.05581 -0.303858,0 -0.520898,0.217041 -0.214974,0.214974 -0.214974,0.520898 0,0.250114 0.05581,0.324528 z"
         style="font-style:normal;font-variant:normal;font-weight:bold;font-stretch:normal;font-size:4.23333px;font-family:'Caviar Dreams';-inkscape-font-specification:'Caviar Dreams Bold';fill:#64f6ed;fill-opacity:1;stroke-width:0.264583"
         id="path8958" />
    </g>
    <rect
       style="opacity:0.992;fill:#100c11;fill-opacity:1;stroke:#e0ede6;stroke-width:0.264583;stroke-linecap:round;stroke-miterlimit:4;stroke-dasharray:none"
       id="rect6247"
       width="10.814"
       height="15.845904"
       x="2.2122915"
       y="91.202293" />
    <g
       aria-label="out"
       id="text5016-6"
       style="font-size:3.52777px;line-height:1.25;font-family:'Caviar Dreams';-inkscape-font-specification:'Caviar Dreams';opacity:0.992;fill:#64f6ed;fill-opacity:1;stroke-width:0.264583"
       transform="translate(-4.8301934e-4,4.2337368)">
      <path
         d="m 5.6366599,88.690197 q 0.4878251,0 0.8309564,0.345198 0.3451982,0.345198 0.3451982,0.833023 0,0.487825 -0.3451982,0.833024 -0.3431313,0.345198 -0.8309564,0.345198 -0.485758,0 -0.8309563,-0.345198 -0.3451983,-0.345199 -0.3451983,-0.833024 0,-0.487825 0.3451983,-0.833023 0.3451983,-0.345198 0.8309563,-0.345198 z m 0,0.440282 q -0.3059242,0 -0.522965,0.217041 -0.2149738,0.217041 -0.2149738,0.520898 0,0.305925 0.2149738,0.520898 0.2170408,0.214974 0.522965,0.214974 0.3059243,0 0.520898,-0.214974 0.2170409,-0.214973 0.2170409,-0.520898 0,-0.303857 -0.2170409,-0.520898 -0.2149737,-0.217041 -0.520898,-0.217041 z"
         style="font-style:normal;font-variant:normal;font-weight:bold;font-stretch:normal;font-size:4.23333px;font-family:'Caviar Dreams';-inkscape-font-specification:'Caviar Dreams Bold';fill:#64f6ed;fill-opacity:1;stroke-width:0.264583"
         id="path6130" />
      <path
         d="m 8.2101442,91.019768 q -0.4030758,0 -0.6490555,-0.245979 -0.2459796,-0.24598 -0.2521807,-0.615983 v -1.293977 h 0.4299475 v 1.277441 q 0,0.183968 0.1343586,0.316259 0.1343586,0.132292 0.334863,0.132292 0.183968,0 0.3183266,-0.130225 0.1364257,-0.132291 0.1364257,-0.318326 v -1.277441 h 0.4278805 v 1.293977 q -0.0062,0.370003 -0.2501138,0.615983 -0.2459796,0.245979 -0.6304519,0.245979 z"
         style="font-style:normal;font-variant:normal;font-weight:bold;font-stretch:normal;font-size:4.23333px;font-family:'Caviar Dreams';-inkscape-font-specification:'Caviar Dreams Bold';fill:#64f6ed;fill-opacity:1;stroke-width:0.264583"
         id="path6132" />
      <path
         d="m 9.9692086,88.863829 v -0.797883 h 0.4278804 v 0.797883 h 0.382405 v 0.427881 h -0.382405 v 1.699119 H 9.9692086 V 89.29171 H 9.5868033 v -0.427881 z"
         style="font-style:normal;font-variant:normal;font-weight:bold;font-stretch:normal;font-size:4.23333px;font-family:'Caviar Dreams';-inkscape-font-specification:'Caviar Dreams Bold';fill:#64f6ed;fill-opacity:1;stroke-width:0.264583"
         id="path6134" />
    </g>
    <g
       aria-label="cv"
       id="text35027"
       style="font-size:4.23333px;line-height:1.25;font-family:'Odin Rounded';-inkscape-font-specification:'Odin Rounded';opacity:0.992;stroke-width:0.264583"
       transform="translate(-0.7719768,-6.0556806)">
      <path
         d="m 7.8144961,11.406643 0.4278805,0.152962 q -0.1570962,0.217041 -0.2273761,0.287321 -0.3451983,0.345198 -0.8330234,0.345198 -0.485758,0 -0.8309563,-0.345198 -0.3451983,-0.345199 -0.3451983,-0.833024 0,-0.487825 0.3451983,-0.833023 0.3451983,-0.3451984 0.8309563,-0.3451984 0.4878251,0 0.8330234,0.3451984 0.07028,0.07028 0.2273761,0.283186 l -0.4278805,0.157097 q -0.082682,-0.101286 -0.111621,-0.130225 -0.2149738,-0.214974 -0.520898,-0.214974 -0.3038572,0 -0.520898,0.217041 -0.2149738,0.214974 -0.2149738,0.520898 0,0.303857 0.2149738,0.520898 0.2170408,0.214974 0.520898,0.214974 0.3059242,0 0.5229651,-0.214974 0.026872,-0.02894 0.1095539,-0.128157 z"
         style="font-weight:bold;font-family:'Caviar Dreams';-inkscape-font-specification:'Caviar Dreams Bold';fill:#64f6ed"
         id="path62619" />
      <path
         d="m 9.5466888,12.136313 -1.0149243,-2.127 h 0.483691 l 0.6387202,1.380793 0.6407873,-1.380793 h 0.483691 l -1.0169914,2.127 z"
         style="font-weight:bold;font-family:'Caviar Dreams';-inkscape-font-specification:'Caviar Dreams Bold';fill:#64f6ed"
         id="path62621" />
    </g>
    <g
       aria-label="gate"
       id="text35027-3-0"
       style="font-size:4.23333px;line-height:1.25;font-family:'Odin Rounded';-inkscape-font-specification:'Odin Rounded';opacity:0.992;stroke-width:0.264583"
       transform="translate(-0.7719768,-6.0556806)">
      <path
         d="m 5.5324668,24.451406 q -0.039274,-0.19637 -0.1984374,-0.355534 -0.2149737,-0.21704 -0.520898,-0.21704 -0.3059242,0 -0.522965,0.21704 -0.2149738,0.217041 -0.2149738,0.520898 0,0.305925 0.2149738,0.522965 0.2170408,0.214974 0.522965,0.214974 0.3059243,0 0.520898,-0.214974 0.1591633,-0.159163 0.1984374,-0.351399 z m 0.00207,-0.692464 v -0.146761 h 0.4299476 v 1.581298 q 0,0.620117 -0.3369301,0.957047 -0.3451983,0.303857 -0.8330234,0.303857 -0.4878251,0 -0.8330234,-0.303857 -0.07028,-0.07028 -0.225309,-0.285254 L 4.1620089,25.71231 q 0.082682,0.09922 0.111621,0.128157 0.2170409,0.214974 0.520898,0.214974 0.5105628,0 0.706933,-0.669726 -0.2005044,0.388606 -0.6883295,0.388606 -0.4878251,0 -0.8330234,-0.334863 -0.3431312,-0.334863 -0.3431312,-0.822688 0,-0.487825 0.3431312,-0.830956 0.3451983,-0.345198 0.8330234,-0.345198 0.4113441,0 0.7214024,0.318326 z"
         style="font-weight:bold;font-family:'Caviar Dreams';-inkscape-font-specification:'Caviar Dreams Bold';fill:#64f6ed"
         id="path62633" />
      <path
         d="m 8.4056739,24.775934 v -0.314193 q -0.037207,-0.200504 -0.1984374,-0.363802 -0.2170408,-0.214973 -0.520898,-0.214973 -0.3059242,0 -0.522965,0.214973 -0.2149738,0.214974 -0.2149738,0.520898 0,0.303858 0.2149738,0.520898 0.2170408,0.214974 0.522965,0.214974 0.3038572,0 0.520898,-0.214974 0.1612304,-0.163297 0.1984374,-0.363801 z m 0,-1.014925 v -0.148828 h 0.4299475 v 2.129068 H 8.4056739 v -0.266651 q -0.3100584,0.320394 -0.7193354,0.320394 -0.4878251,0 -0.8330234,-0.343131 -0.3431312,-0.345198 -0.3431312,-0.833024 0,-0.487825 0.3431312,-0.830956 0.3451983,-0.345198 0.8330234,-0.345198 0.409277,0 0.7193354,0.318326 z"
         style="font-weight:bold;font-family:'Caviar Dreams';-inkscape-font-specification:'Caviar Dreams Bold';fill:#64f6ed"
         id="path62635" />
      <path
         d="m 9.7265223,23.612181 v -0.797883 h 0.4278807 v 0.797883 h 0.382405 v 0.427881 h -0.382405 v 1.69912 H 9.7265223 v -1.69912 H 9.344117 v -0.427881 z"
         style="font-weight:bold;font-family:'Caviar Dreams';-inkscape-font-specification:'Caviar Dreams Bold';fill:#64f6ed"
         id="path62637" />
      <path
         d="m 11.696426,25.257558 q 0.107487,0.09508 0.390674,0.09508 0.305924,0 0.522965,-0.214974 0.02687,-0.02894 0.109554,-0.128157 l 0.42788,0.152962 q -0.157096,0.217041 -0.227376,0.287321 -0.345198,0.345198 -0.833023,0.345198 -0.485758,0 -0.830956,-0.345198 -0.345199,-0.345199 -0.345199,-0.833024 0,-0.487825 0.345199,-0.833023 0.345198,-0.345198 0.830956,-0.345198 0.417545,0 0.731738,0.25218 0.05168,0.04341 0.101285,0.09302 0.02067,0.02067 0.117822,0.130224 l -0.214973,0.217041 z m 0.715202,-1.322916 q -0.07235,-0.05581 -0.324528,-0.05581 -0.303857,0 -0.520898,0.21704 -0.214974,0.214974 -0.214974,0.520898 0,0.250114 0.05581,0.324528 z"
         style="font-weight:bold;font-family:'Caviar Dreams';-inkscape-font-specification:'Caviar Dreams Bold';fill:#64f6ed"
         id="path62639" />
    </g>
    <g
       aria-label="space"
       id="text2650"
       style="font-size:4.23333px;line-height:1.25;font-family:'Odin Rounded';-inkscape-font-specification:'Odin Rounded';fill:#64f6ed;stroke-width:0.264583">
      <path
         d="m 1.8777195,33.480435 q 0.018603,0.09508 0.057878,0.134359 0.076481,0.07441 0.1819009,0.07441 0.1054198,0 0.1798338,-0.07441 0.076481,-0.07441 0.076481,-0.183968 0,-0.10542 -0.074414,-0.179834 -0.051676,-0.05168 -0.221175,-0.159163 -0.2315102,-0.12609 -0.3286618,-0.223242 -0.1694986,-0.169499 -0.1694986,-0.40721 0,-0.239778 0.1694986,-0.409277 0.1694986,-0.171566 0.409277,-0.171566 0.2397784,0 0.3989417,0.161231 0.1136881,0.113688 0.1446939,0.254248 l -0.4154782,0.119889 q -0.014469,-0.05168 -0.028939,-0.06821 -0.037207,-0.03721 -0.099219,-0.03721 -0.062012,0 -0.1074869,0.04547 -0.043408,0.04341 -0.043408,0.10542 0,0.06201 0.043408,0.10542 0.039274,0.03721 0.1777668,0.12609 0.2563149,0.14056 0.37207,0.256315 0.2005044,0.202572 0.2005044,0.481624 0,0.285254 -0.2005044,0.487825 -0.1984373,0.200505 -0.483691,0.200505 -0.2831866,0 -0.483691,-0.202572 -0.1384927,-0.138493 -0.1819009,-0.345198 z"
         style="font-weight:bold;font-family:'Caviar Dreams';-inkscape-font-specification:'Caviar Dreams Bold'"
         id="path5975" />
      <path
         d="m 3.756673,32.783838 v 0.332796 q 0.039274,0.19637 0.2005044,0.355533 0.2149738,0.214974 0.520898,0.214974 0.3059243,0 0.520898,-0.214974 0.2170409,-0.217041 0.2170409,-0.522965 0,-0.303857 -0.2170409,-0.520898 -0.2149737,-0.217041 -0.520898,-0.217041 -0.3059242,0 -0.520898,0.217041 -0.1612303,0.159163 -0.2005044,0.355534 z m 0,1.023192 v 0.979785 H 3.3287925 V 31.944613 H 3.756673 v 0.192236 q 0.3100584,-0.363801 0.7214024,-0.363801 0.4878251,0 0.8309564,0.345198 0.3451982,0.343131 0.3451982,0.830956 0,0.487825 -0.3451982,0.833024 -0.3431313,0.345198 -0.8309564,0.345198 -0.411344,0 -0.7214024,-0.320394 z"
         style="font-weight:bold;font-family:'Caviar Dreams';-inkscape-font-specification:'Caviar Dreams Bold'"
         id="path5977" />
      <path
         d="M 8.0148073,33.108365 V 32.794173 Q 7.9776003,32.593669 7.81637,32.430371 7.5993292,32.215397 7.295472,32.215397 q -0.3059242,0 -0.5229651,0.214974 -0.2149737,0.214974 -0.2149737,0.520898 0,0.303857 0.2149737,0.520898 0.2170409,0.214974 0.5229651,0.214974 0.3038572,0 0.520898,-0.214974 0.1612303,-0.163297 0.1984373,-0.363802 z m 0,-1.014924 V 31.944613 H 8.4447549 V 34.07368 H 8.0148073 v -0.26665 q -0.3100583,0.320394 -0.7193353,0.320394 -0.4878251,0 -0.8330234,-0.343131 -0.3431312,-0.345199 -0.3431312,-0.833024 0,-0.487825 0.3431312,-0.830956 0.3451983,-0.345198 0.8330234,-0.345198 0.409277,0 0.7193353,0.318326 z"
         style="font-weight:bold;font-family:'Caviar Dreams';-inkscape-font-specification:'Caviar Dreams Bold'"
         id="path5979" />
      <path
         d="m 10.751589,33.341943 0.427881,0.152962 q -0.157097,0.217041 -0.227376,0.287321 -0.345199,0.345198 -0.833024,0.345198 -0.4857579,0 -0.8309562,-0.345198 -0.3451983,-0.345199 -0.3451983,-0.833024 0,-0.487825 0.3451983,-0.833023 0.3451983,-0.345199 0.8309562,-0.345199 0.487825,0 0.833024,0.345199 0.07028,0.07028 0.227376,0.283186 l -0.427881,0.157097 q -0.08268,-0.101286 -0.111621,-0.130225 -0.214974,-0.214974 -0.520898,-0.214974 -0.303857,0 -0.5208979,0.217041 -0.2149737,0.214974 -0.2149737,0.520898 0,0.303857 0.2149737,0.520898 0.2170409,0.214974 0.5208979,0.214974 0.305924,0 0.522965,-0.214974 0.02687,-0.02894 0.109554,-0.128157 z"
         style="font-weight:bold;font-family:'Caviar Dreams';-inkscape-font-specification:'Caviar Dreams Bold'"
         id="path5981" />
      <path
         d="m 12.337021,33.589989 q 0.107487,0.09508 0.390673,0.09508 0.305924,0 0.522965,-0.214974 0.02687,-0.02894 0.109554,-0.128157 l 0.427881,0.152962 q -0.157097,0.217041 -0.227376,0.287321 -0.345199,0.345198 -0.833024,0.345198 -0.485758,0 -0.830956,-0.345198 -0.345198,-0.345199 -0.345198,-0.833024 0,-0.487825 0.345198,-0.833023 0.345198,-0.345199 0.830956,-0.345199 0.417545,0 0.731738,0.252181 0.05168,0.04341 0.101286,0.09302 0.02067,0.02067 0.117822,0.130224 l -0.214974,0.217041 z m 0.715201,-1.322915 q -0.07235,-0.05581 -0.324528,-0.05581 -0.303857,0 -0.520898,0.217041 -0.214974,0.214974 -0.214974,0.520898 0,0.250114 0.05581,0.324528 z"
         style="font-weight:bold;font-family:'Caviar Dreams';-inkscape-font-specification:'Caviar Dreams Bold'"
         id="path5983" />
    </g>
  </g>
</svg>
