<?xml version="1.0" encoding="UTF-8" standalone="no"?>
<svg
   width="60.959999mm"
   height="128.5mm"
   viewBox="0 0 60.959999 128.5"
   version="1.1"
   id="svg2129"
   sodipodi:docname="stpr.svg"
   inkscape:version="1.1.2 (0a00cf5339, 2022-02-04)"
   xmlns:inkscape="http://www.inkscape.org/namespaces/inkscape"
   xmlns:sodipodi="http://sodipodi.sourceforge.net/DTD/sodipodi-0.dtd"
   xmlns:xlink="http://www.w3.org/1999/xlink"
   xmlns="http://www.w3.org/2000/svg"
   xmlns:svg="http://www.w3.org/2000/svg"
   xmlns:rdf="http://www.w3.org/1999/02/22-rdf-syntax-ns#"
   xmlns:cc="http://creativecommons.org/ns#"
   xmlns:dc="http://purl.org/dc/elements/1.1/">
  <metadata
     id="metadata8134">
    <rdf:RDF>
      <cc:Work
         rdf:about="">
        <dc:format>image/svg+xml</dc:format>
        <dc:type
           rdf:resource="http://purl.org/dc/dcmitype/StillImage" />
      </cc:Work>
    </rdf:RDF>
  </metadata>
  <sodipodi:namedview
     id="namedview2131"
     pagecolor="#505050"
     bordercolor="#eeeeee"
     borderopacity="1"
     inkscape:pageshadow="0"
     inkscape:pageopacity="0"
     inkscape:pagecheckerboard="0"
     inkscape:document-units="mm"
     showgrid="false"
     showguides="true"
     inkscape:guide-bbox="true"
     guidetolerance="20"
     gridtolerance="10"
     inkscape:zoom="1.5126683"
     inkscape:cx="90.237893"
     inkscape:cy="258.15309"
     inkscape:window-width="1920"
     inkscape:window-height="1050"
     inkscape:window-x="0"
     inkscape:window-y="0"
     inkscape:window-maximized="1"
     inkscape:current-layer="layer3"
     inkscape:document-rotation="0" />
  <defs
     id="defs2126">
    <linearGradient
       inkscape:collect="always"
       id="linearGradient12335">
      <stop
         style="stop-color:#100c11;stop-opacity:1"
         offset="0"
         id="stop12331" />
      <stop
         style="stop-color:#0aa0ab;stop-opacity:1"
         offset="1"
         id="stop12333" />
    </linearGradient>
    <pattern
       id="EMFhbasepattern"
       patternUnits="userSpaceOnUse"
       width="6"
       height="6"
       x="0"
       y="0" />
    <linearGradient
       inkscape:collect="always"
       xlink:href="#linearGradient12335"
       id="linearGradient12337"
       x1="-2.220446e-15"
       y1="5.3290705e-15"
       x2="60.959999"
       y2="128.5"
       gradientUnits="userSpaceOnUse" />
  </defs>
  <g
     inkscape:label="background"
     inkscape:groupmode="layer"
     id="layer1"
     style="display:inline">
    <rect
       style="fill:url(#linearGradient12337);fill-opacity:1;stroke:none;stroke-width:0.612653"
       id="rect2696"
       width="60.959999"
       height="128.5"
       x="-2.220446e-15"
       y="5.3290705e-15" />
    <rect
       style="fill:#100c11;fill-opacity:1;stroke:#e0ede6;stroke-width:0.264583;stroke-miterlimit:4;stroke-dasharray:none;stroke-opacity:1"
       id="rect79966"
       width="17.820999"
       height="17.749001"
       x="1.7818159"
       y="94.472054" />
    <text
       xml:space="preserve"
       style="font-size:5.64444px;line-height:1.25;font-family:Poppins;-inkscape-font-specification:'Poppins, Normal';stroke-width:0.264583"
       x="24.837458"
       y="8.7455826"
       id="text68900"><tspan
         sodipodi:role="line"
         id="tspan68898"
         style="stroke-width:0.264583"
         x="24.837458"
         y="8.7455826" /></text>
    <text
       xml:space="preserve"
       style="font-size:5.64444px;line-height:1.25;font-family:Poppins;-inkscape-font-specification:'Poppins, Normal';stroke-width:0.264583"
       x="13.468198"
       y="122.43816"
       id="text75220"><tspan
         sodipodi:role="line"
         id="tspan75218"
         style="stroke-width:0.264583"
         x="13.468198"
         y="122.43816" /></text>
    <path
       style="fill:#0aa0ab;stroke:#e0ede6;stroke-width:0.529167;stroke-linecap:butt;stroke-linejoin:miter;stroke-miterlimit:4;stroke-dasharray:none;stroke-opacity:1"
       d="M 23.128389,8.0392796 V 111.06891 Z"
       id="path1482" />
    <text
       xml:space="preserve"
       style="font-size:5.64444px;line-height:1.25;font-family:Poppins;-inkscape-font-specification:'Poppins, Normal';stroke-width:0.264583"
       x="-13.818022"
       y="14.692579"
       id="text12320"><tspan
         sodipodi:role="line"
         id="tspan12318"
         style="stroke-width:0.264583"
         x="-13.818022"
         y="14.692579" /></text>
  </g>
  <g
     inkscape:groupmode="layer"
     id="layer3"
     inkscape:label="labels">
    <g
       aria-label="clock"
       id="text2533"
       style="font-size:4.23333px;line-height:1.25;font-family:'Caviar Dreams';-inkscape-font-specification:'Caviar Dreams';display:inline;stroke-width:0.264583;fill:#64f6ed">
      <path
         d="M 7.0893055,7.6749524 7.517186,7.8279145 Q 7.3600897,8.0449554 7.2898099,8.1152353 6.9446116,8.4604335 6.4567865,8.4604335 q -0.4857581,0 -0.8309564,-0.3451982 Q 5.2806319,7.770037 5.2806319,7.2822119 q 0,-0.4878251 0.3451982,-0.8330234 0.3451983,-0.3451983 0.8309564,-0.3451983 0.4878251,0 0.8330234,0.3451983 0.07028,0.07028 0.2273761,0.2831866 L 7.0893055,6.8894713 Q 7.0066232,6.7881856 6.9776845,6.7592468 6.7627107,6.544273 6.4567865,6.544273 q -0.3038572,0 -0.520898,0.2170409 -0.2149738,0.2149737 -0.2149738,0.520898 0,0.3038571 0.2149738,0.520898 0.2170408,0.2149737 0.520898,0.2149737 0.3059242,0 0.522965,-0.2149737 0.026872,-0.028939 0.109554,-0.1281575 z"
         style="font-weight:bold;-inkscape-font-specification:'Caviar Dreams Bold';fill:#64f6ed"
         id="path11526" />
      <path
         d="M 8.443227,5.0952671 V 8.404623 H 8.0132794 V 5.0952671 Z"
         style="font-weight:bold;-inkscape-font-specification:'Caviar Dreams Bold';fill:#64f6ed"
         id="path11528" />
      <path
         d="m 10.115475,6.1039902 q 0.487825,0 0.830956,0.3451983 0.345199,0.3451983 0.345199,0.8330234 0,0.4878251 -0.345199,0.8330234 -0.343131,0.3451982 -0.830956,0.3451982 -0.485758,0 -0.8309563,-0.3451982 Q 8.9393204,7.770037 8.9393204,7.2822119 q 0,-0.4878251 0.3451983,-0.8330234 Q 9.629717,6.1039902 10.115475,6.1039902 Z m 0,0.4402828 q -0.3059242,0 -0.522965,0.2170409 -0.2149738,0.2170408 -0.2149738,0.520898 0,0.3059242 0.2149738,0.520898 0.2170408,0.2149737 0.522965,0.2149737 0.305924,0 0.520898,-0.2149737 0.217041,-0.2149738 0.217041,-0.520898 0,-0.3038572 -0.217041,-0.520898 Q 10.421399,6.544273 10.115475,6.544273 Z"
         style="font-weight:bold;-inkscape-font-specification:'Caviar Dreams Bold';fill:#64f6ed"
         id="path11530" />
      <path
         d="m 13.472373,7.6749524 0.427881,0.1529621 q -0.157097,0.2170409 -0.227377,0.2873208 -0.345198,0.3451982 -0.833023,0.3451982 -0.485758,0 -0.830956,-0.3451982 -0.345199,-0.3451983 -0.345199,-0.8330234 0,-0.4878251 0.345199,-0.8330234 0.345198,-0.3451983 0.830956,-0.3451983 0.487825,0 0.833023,0.3451983 0.07028,0.07028 0.227377,0.2831866 L 13.472373,6.8894713 Q 13.389691,6.7881856 13.360752,6.7592468 13.145778,6.544273 12.839854,6.544273 q -0.303857,0 -0.520898,0.2170409 -0.214974,0.2149737 -0.214974,0.520898 0,0.3038571 0.214974,0.520898 0.217041,0.2149737 0.520898,0.2149737 0.305924,0 0.522965,-0.2149737 0.02687,-0.028939 0.109554,-0.1281575 z"
         style="font-weight:bold;-inkscape-font-specification:'Caviar Dreams Bold';fill:#64f6ed"
         id="path11532" />
      <path
         d="M 15.677921,6.2776229 15.101213,6.98869 15.90323,8.404623 h -0.510562 l -0.578776,-1.0603995 -0.0186,0.022738 V 8.404623 H 14.365341 V 5.4797394 h 0.429947 v 1.2030264 l 0.330729,-0.4051429 z"
         style="font-weight:bold;-inkscape-font-specification:'Caviar Dreams Bold';fill:#64f6ed"
         id="path11534" />
    </g>
    <g
       aria-label="trigger"
       id="text2533-6"
       style="font-size:4.23333px;line-height:1.25;font-family:'Caviar Dreams';-inkscape-font-specification:'Caviar Dreams';display:inline;stroke-width:0.264583;fill:#64f6ed">
      <path
         d="M 44.737153,6.2776229 V 5.4797394 h 0.42788 v 0.7978835 h 0.382406 V 6.7055034 H 45.165033 V 8.404623 h -0.42788 V 6.7055034 H 44.354748 V 6.2776229 Z"
         style="font-weight:bold;-inkscape-font-specification:'Caviar Dreams Bold';fill:#64f6ed"
         id="path11511" />
      <path
         d="m 46.47348,6.5649436 q 0.239778,-0.3245277 0.58911,-0.3410642 v 0.444417 q -0.233577,0.012402 -0.37207,0.150895 -0.208772,0.2067056 -0.21704,0.4919592 V 8.404623 H 46.045599 V 6.2776229 h 0.427881 z"
         style="font-weight:bold;-inkscape-font-specification:'Caviar Dreams Bold';fill:#64f6ed"
         id="path11513" />
      <path
         d="M 47.98243,6.2776229 V 8.404623 H 47.55455 V 6.2776229 Z M 47.767456,5.4032584 q 0.124024,0 0.212907,0.086816 0.08888,0.086816 0.08888,0.2129067 0,0.1260904 -0.08888,0.2129067 -0.08888,0.086816 -0.212907,0.086816 -0.121956,0 -0.210839,-0.086816 -0.08888,-0.086816 -0.08888,-0.2129067 0,-0.1260904 0.08888,-0.2129067 0.08888,-0.086816 0.210839,-0.086816 z"
         style="font-weight:bold;-inkscape-font-specification:'Caviar Dreams Bold';fill:#64f6ed"
         id="path11515" />
      <path
         d="M 50.4815,7.1168474 Q 50.442226,6.9204771 50.283063,6.7613139 50.068089,6.544273 49.762165,6.544273 q -0.305925,0 -0.522965,0.2170409 -0.214974,0.2170408 -0.214974,0.520898 0,0.3059242 0.214974,0.522965 0.21704,0.2149738 0.522965,0.2149738 0.305924,0 0.520898,-0.2149738 0.159163,-0.1591633 0.198437,-0.3513994 z m 0.0021,-0.6924636 V 6.2776229 h 0.429948 v 1.5812975 q 0,0.6201166 -0.33693,0.9570467 -0.345199,0.3038572 -0.833024,0.3038572 -0.487825,0 -0.833023,-0.3038572 -0.07028,-0.07028 -0.225309,-0.2852537 l 0.425813,-0.1529621 q 0.08268,0.099219 0.111621,0.1281575 0.217041,0.2149737 0.520898,0.2149737 0.510563,0 0.706933,-0.669726 -0.200504,0.3886065 -0.688329,0.3886065 -0.487825,0 -0.833024,-0.334863 -0.343131,-0.334863 -0.343131,-0.8226881 0,-0.4878251 0.343131,-0.8309564 0.345199,-0.3451982 0.833024,-0.3451982 0.411344,0 0.721402,0.3183265 z"
         style="font-weight:bold;-inkscape-font-specification:'Caviar Dreams Bold';fill:#64f6ed"
         id="path11517" />
      <path
         d="M 53.385713,7.1168474 Q 53.346439,6.9204771 53.187276,6.7613139 52.972302,6.544273 52.666378,6.544273 q -0.305925,0 -0.522965,0.2170409 -0.214974,0.2170408 -0.214974,0.520898 0,0.3059242 0.214974,0.522965 0.21704,0.2149738 0.522965,0.2149738 0.305924,0 0.520898,-0.2149738 0.159163,-0.1591633 0.198437,-0.3513994 z m 0.0021,-0.6924636 V 6.2776229 h 0.429948 v 1.5812975 q 0,0.6201166 -0.33693,0.9570467 -0.345199,0.3038572 -0.833024,0.3038572 -0.487825,0 -0.833023,-0.3038572 -0.07028,-0.07028 -0.225309,-0.2852537 l 0.425813,-0.1529621 q 0.08268,0.099219 0.111621,0.1281575 0.217041,0.2149737 0.520898,0.2149737 0.510563,0 0.706933,-0.669726 -0.200504,0.3886065 -0.688329,0.3886065 -0.487825,0 -0.833024,-0.334863 -0.343131,-0.334863 -0.343131,-0.8226881 0,-0.4878251 0.343131,-0.8309564 0.345199,-0.3451982 0.833024,-0.3451982 0.411344,0 0.721402,0.3183265 z"
         style="font-weight:bold;-inkscape-font-specification:'Caviar Dreams Bold';fill:#64f6ed"
         id="path11519" />
      <path
         d="m 55.10757,7.9229991 q 0.107487,0.095085 0.390674,0.095085 0.305924,0 0.522965,-0.2149737 0.02687,-0.028939 0.109554,-0.1281575 l 0.42788,0.1529621 q -0.157096,0.2170409 -0.227376,0.2873208 -0.345198,0.3451982 -0.833023,0.3451982 -0.485758,0 -0.830957,-0.3451982 -0.345198,-0.3451983 -0.345198,-0.8330234 0,-0.4878251 0.345198,-0.8330234 0.345199,-0.3451983 0.830957,-0.3451983 0.417545,0 0.731737,0.2521808 0.05168,0.043408 0.101286,0.093018 0.02067,0.02067 0.117822,0.1302245 l -0.214974,0.2170408 z m 0.715201,-1.3229156 q -0.07235,-0.055811 -0.324527,-0.055811 -0.303858,0 -0.520898,0.2170409 -0.214974,0.2149737 -0.214974,0.520898 0,0.2501137 0.05581,0.3245277 z"
         style="font-weight:bold;-inkscape-font-specification:'Caviar Dreams Bold';fill:#64f6ed"
         id="path11521" />
      <path
         d="m 57.482617,6.5649436 q 0.239779,-0.3245277 0.589111,-0.3410642 v 0.444417 q -0.233577,0.012402 -0.37207,0.150895 -0.208772,0.2067056 -0.217041,0.4919592 V 8.404623 h -0.42788 V 6.2776229 h 0.42788 z"
         style="font-weight:bold;-inkscape-font-specification:'Caviar Dreams Bold';fill:#64f6ed"
         id="path11523" />
    </g>
    <g
       aria-label="reset"
       id="text2533-0"
       style="font-size:4.23333px;line-height:1.25;font-family:'Caviar Dreams';-inkscape-font-specification:'Caviar Dreams';display:inline;stroke-width:0.264583;fill:#64f6ed">
      <path
         d="m 6.2531814,25.674021 q 0.2397785,-0.324528 0.5891108,-0.341064 v 0.444417 q -0.2335772,0.0124 -0.37207,0.150895 -0.2087726,0.206705 -0.2170408,0.491959 V 27.5137 H 5.8253009 v -2.127 h 0.4278805 z"
         style="font-weight:bold;-inkscape-font-specification:'Caviar Dreams Bold';fill:#64f6ed"
         id="path11500" />
      <path
         d="m 7.9109601,27.032077 q 0.1074868,0.09508 0.3906735,0.09508 0.3059242,0 0.522965,-0.214974 0.026872,-0.02894 0.109554,-0.128157 l 0.4278805,0.152962 q -0.1570963,0.217041 -0.2273762,0.287321 -0.3451982,0.345198 -0.8330233,0.345198 -0.4857581,0 -0.8309564,-0.345198 -0.3451983,-0.345199 -0.3451983,-0.833024 0,-0.487825 0.3451983,-0.833023 0.3451983,-0.345198 0.8309564,-0.345198 0.4175452,0 0.7317376,0.25218 0.051676,0.04341 0.1012857,0.09302 0.020671,0.02067 0.1178222,0.130224 l -0.2149738,0.217041 z m 0.7152012,-1.322916 q -0.072347,-0.05581 -0.3245277,-0.05581 -0.3038572,0 -0.520898,0.217041 -0.2149738,0.214974 -0.2149738,0.520898 0,0.250114 0.055811,0.324528 z"
         style="font-weight:bold;-inkscape-font-specification:'Caviar Dreams Bold';fill:#64f6ed"
         id="path11502" />
      <path
         d="m 10.230196,26.922523 q 0.0186,0.09508 0.05788,0.134358 0.07648,0.07441 0.181901,0.07441 0.10542,0 0.179834,-0.07441 0.07648,-0.07441 0.07648,-0.183968 0,-0.10542 -0.07441,-0.179834 -0.05168,-0.05168 -0.221175,-0.159163 -0.23151,-0.12609 -0.328662,-0.223242 -0.1694986,-0.169498 -0.1694986,-0.40721 0,-0.239778 0.1694986,-0.409277 0.169498,-0.171565 0.409277,-0.171565 0.239778,0 0.398942,0.16123 0.113688,0.113688 0.144694,0.254248 l -0.415479,0.119889 q -0.01447,-0.05168 -0.02894,-0.06821 -0.03721,-0.03721 -0.09922,-0.03721 -0.06201,0 -0.107487,0.04547 -0.04341,0.04341 -0.04341,0.10542 0,0.06201 0.04341,0.10542 0.03927,0.03721 0.177767,0.12609 0.256315,0.14056 0.37207,0.256315 0.200504,0.202572 0.200504,0.481624 0,0.285254 -0.200504,0.487825 -0.198438,0.200505 -0.483691,0.200505 -0.283187,0 -0.4836912,-0.202572 -0.1384927,-0.138492 -0.1819009,-0.345198 z"
         style="font-weight:bold;-inkscape-font-specification:'Caviar Dreams Bold';fill:#64f6ed"
         id="path11504" />
      <path
         d="m 12.342727,27.032077 q 0.107487,0.09508 0.390674,0.09508 0.305924,0 0.522965,-0.214974 0.02687,-0.02894 0.109554,-0.128157 l 0.42788,0.152962 q -0.157096,0.217041 -0.227376,0.287321 -0.345198,0.345198 -0.833023,0.345198 -0.485758,0 -0.830957,-0.345198 -0.345198,-0.345199 -0.345198,-0.833024 0,-0.487825 0.345198,-0.833023 0.345199,-0.345198 0.830957,-0.345198 0.417545,0 0.731737,0.25218 0.05168,0.04341 0.101286,0.09302 0.02067,0.02067 0.117822,0.130224 l -0.214974,0.217041 z m 0.715201,-1.322916 q -0.07235,-0.05581 -0.324527,-0.05581 -0.303858,0 -0.520898,0.217041 -0.214974,0.214974 -0.214974,0.520898 0,0.250114 0.05581,0.324528 z"
         style="font-weight:bold;-inkscape-font-specification:'Caviar Dreams Bold';fill:#64f6ed"
         id="path11506" />
      <path
         d="m 14.548276,25.3867 v -0.797883 h 0.42788 V 25.3867 h 0.382406 v 0.427881 H 14.976156 V 27.5137 h -0.42788 V 25.814581 H 14.165871 V 25.3867 Z"
         style="font-weight:bold;-inkscape-font-specification:'Caviar Dreams Bold';fill:#64f6ed"
         id="path11508" />
    </g>
    <g
       aria-label="cv out"
       id="text2533-7"
       style="font-size:4.23333px;line-height:1.25;font-family:'Caviar Dreams';-inkscape-font-specification:'Caviar Dreams';display:inline;stroke-width:0.264583;fill:#64f6ed">
      <path
         d="m 5.9772297,98.677159 0.4278805,0.152962 q -0.1570963,0.217041 -0.2273761,0.287321 -0.3451983,0.345198 -0.8330234,0.345198 -0.4857581,0 -0.8309564,-0.345198 -0.3451982,-0.345198 -0.3451982,-0.833023 0,-0.487825 0.3451982,-0.833024 0.3451983,-0.345198 0.8309564,-0.345198 0.4878251,0 0.8330234,0.345198 0.07028,0.07028 0.2273761,0.283187 L 5.9772297,97.891678 Q 5.8945474,97.790392 5.8656087,97.761454 5.6506349,97.54648 5.3447107,97.54648 q -0.3038572,0 -0.520898,0.217041 -0.2149738,0.214973 -0.2149738,0.520898 0,0.303857 0.2149738,0.520898 0.2170408,0.214973 0.520898,0.214973 0.3059242,0 0.522965,-0.214973 0.026872,-0.02894 0.109554,-0.128158 z"
         style="font-weight:bold;-inkscape-font-specification:'Caviar Dreams Bold';fill:#64f6ed"
         id="path11489" />
      <path
         d="m 7.7094223,99.40683 -1.0149242,-2.127 h 0.483691 l 0.6387201,1.380793 0.6407872,-1.380793 h 0.483691 l -1.0169913,2.127 z"
         style="font-weight:bold;-inkscape-font-specification:'Caviar Dreams Bold';fill:#64f6ed"
         id="path11491" />
      <path
         d="m 11.872472,97.106197 q 0.487825,0 0.830956,0.345198 0.345199,0.345199 0.345199,0.833024 0,0.487825 -0.345199,0.833023 -0.343131,0.345198 -0.830956,0.345198 -0.485758,0 -0.830956,-0.345198 -0.345198,-0.345198 -0.345198,-0.833023 0,-0.487825 0.345198,-0.833024 0.345198,-0.345198 0.830956,-0.345198 z m 0,0.440283 q -0.305924,0 -0.522965,0.217041 -0.214974,0.217041 -0.214974,0.520898 0,0.305924 0.214974,0.520898 0.217041,0.214973 0.522965,0.214973 0.305924,0 0.520898,-0.214973 0.217041,-0.214974 0.217041,-0.520898 0,-0.303857 -0.217041,-0.520898 -0.214974,-0.217041 -0.520898,-0.217041 z"
         style="font-weight:bold;-inkscape-font-specification:'Caviar Dreams Bold';fill:#64f6ed"
         id="path11493" />
      <path
         d="m 14.445957,99.435769 q -0.403076,0 -0.649056,-0.24598 -0.245979,-0.24598 -0.252181,-0.615983 V 97.27983 h 0.429948 v 1.27744 q 0,0.183968 0.134359,0.31626 0.134358,0.132291 0.334863,0.132291 0.183967,0 0.318326,-0.130224 0.136426,-0.132292 0.136426,-0.318327 v -1.27744 h 0.42788 v 1.293976 q -0.0062,0.370003 -0.250113,0.615983 -0.24598,0.24598 -0.630452,0.24598 z"
         style="font-weight:bold;-inkscape-font-specification:'Caviar Dreams Bold';fill:#64f6ed"
         id="path11495" />
      <path
         d="m 16.205021,97.27983 v -0.797884 h 0.42788 v 0.797884 h 0.382406 v 0.42788 h -0.382406 v 1.69912 h -0.42788 v -1.69912 h -0.382406 v -0.42788 z"
         style="font-weight:bold;-inkscape-font-specification:'Caviar Dreams Bold';fill:#64f6ed"
         id="path11497" />
    </g>
    <g
       aria-label="stpr by"
       id="text3791"
       style="font-size:10.9015px;line-height:1.25;font-family:'Odin Rounded';-inkscape-font-specification:'Odin Rounded';display:inline;stroke-width:0.292007" />
    <path
       style="fill:#100c11;fill-opacity:1;stroke:#64f6ed;stroke-width:0.375882;stroke-linecap:round;stroke-linejoin:round;stroke-miterlimit:4;stroke-dasharray:none;stroke-opacity:1;paint-order:stroke fill markers"
       d="m 10.042014,69.867899 c -1.8414379,-0.10907 -3.4472909,-0.7729 -4.7430339,-1.96067 -0.49382,-0.45266 -1.099532,-1.2356 -1.455378,-1.8812 -0.308769,-0.56018 -0.536939,-1.15314 -0.681597,-1.7713 -0.07734,-0.33048 -0.142051,-0.73075 -0.121466,-0.75128 0.02547,-0.0254 0.943211,0.0311 1.355725,0.0942 1.917566,0.29311 3.820048,0.65771 5.391616,1.46032 0.3201449,0.1635 0.3521819,0.19101 0.5004489,-0.001 0.238857,-0.3096 0.591195,-0.59361 0.975844,-0.78659 0.321269,-0.16119 0.970979,-0.37799 1.011452,-0.33752 -0.112005,0.25341 -0.186315,0.55795 -0.219971,0.81386 -0.03098,0.23555 0.03313,0.87588 0.07737,0.9631 0.55022,0.23838 1.30989,0.14009 1.895827,-0.0443 2.28398,-1.12037 2.93801,-3.04152 2.99879,-5.13642 0.0164,-0.56645 0.01,-0.59179 -0.16471,-0.63584 -0.52304,-0.19562 -1.248489,-1.06465 -0.790367,-0.93094 1.153927,0.3368 1.198217,0.32773 1.941677,-0.28871 0.32677,-0.27095 -0.0207,0.76124 -0.3327,1.0032 -0.30664,0.23028 -0.30832,0.23445 -0.21086,0.52164 0.27429,0.92557 0.38503,1.79818 0.29516,2.78171 -0.25472,2.56524 -1.790914,4.91055 -3.946262,6.02477 -0.88905,0.4596 -1.797277,0.73854 -2.697796,0.82858 -0.268459,0.0268 -0.879763,0.0464 -1.079768,0.0346 z"
       id="path10930"
       sodipodi:nodetypes="csssssscscsccccsscccsscc" />
    <g
       aria-label="stpr by cvly"
       id="text22874"
       style="font-size:8.46667px;line-height:1.25;font-family:'Odin Rounded';-inkscape-font-specification:'Odin Rounded';text-align:end;text-anchor:end;fill:#64f6ed;stroke-width:0.375882">
      <path
         d="m 7.8105741,120.47569 q 0.037207,0.19017 0.1157553,0.26871 0.1529623,0.14883 0.3638022,0.14883 0.21084,0 0.3596681,-0.14883 0.1529623,-0.14882 0.1529623,-0.36793 0,-0.21084 -0.1488281,-0.35967 -0.103353,-0.10335 -0.4423505,-0.31833 -0.463021,-0.25218 -0.6573245,-0.44648 -0.3389975,-0.339 -0.3389975,-0.81442 0,-0.47956 0.3389975,-0.81856 0.3389976,-0.34313 0.818555,-0.34313 0.4795575,0 0.7978845,0.32246 0.2273764,0.22738 0.2893881,0.5085 l -0.8309573,0.23978 q -0.028939,-0.10336 -0.057878,-0.13643 -0.074414,-0.0744 -0.1984376,-0.0744 -0.1240234,0 -0.214974,0.091 -0.086816,0.0868 -0.086816,0.21084 0,0.12402 0.086816,0.21084 0.078548,0.0744 0.355534,0.25218 0.5126304,0.28112 0.7441409,0.51263 0.4010093,0.40514 0.4010093,0.96325 0,0.5705 -0.4010093,0.97565 -0.3968751,0.40101 -0.9673832,0.40101 -0.5663739,0 -0.9673832,-0.40515 -0.2769858,-0.27698 -0.3638022,-0.69039 z"
         style="font-weight:bold;font-family:'Caviar Dreams';-inkscape-font-specification:'Caviar Dreams Bold'"
         id="path1116" />
      <path
         d="m 11.2915,117.40404 v -1.59577 h 0.855762 v 1.59577 h 0.764812 v 0.85576 h -0.764812 v 3.39824 H 11.2915 v -3.39824 h -0.764811 v -0.85576 z"
         style="font-weight:bold;font-family:'Caviar Dreams';-inkscape-font-specification:'Caviar Dreams Bold'"
         id="path1118" />
      <path
         d="m 14.764158,119.08249 v 0.66559 q 0.07855,0.39274 0.401009,0.71107 0.429948,0.42995 1.041797,0.42995 0.611849,0 1.041797,-0.42995 0.434083,-0.43408 0.434083,-1.04593 0,-0.60772 -0.434083,-1.0418 -0.429948,-0.43408 -1.041797,-0.43408 -0.611849,0 -1.041797,0.43408 -0.322461,0.31833 -0.401009,0.71107 z m 0,2.04639 v 1.95957 h -0.855762 v -5.68441 h 0.855762 v 0.38447 q 0.620117,-0.7276 1.442806,-0.7276 0.975652,0 1.661915,0.69039 0.690397,0.68627 0.690397,1.66192 0,0.97565 -0.690397,1.66605 -0.686263,0.69039 -1.661915,0.69039 -0.822689,0 -1.442806,-0.64078 z"
         style="font-weight:bold;font-family:'Caviar Dreams';-inkscape-font-specification:'Caviar Dreams Bold'"
         id="path1120" />
      <path
         d="m 20.448567,117.97868 q 0.479558,-0.64906 1.178223,-0.68213 v 0.88884 q -0.467155,0.0248 -0.744141,0.30179 -0.417545,0.41341 -0.434082,0.98392 v 2.18694 h -0.855762 v -4.254 h 0.855762 z"
         style="font-weight:bold;font-family:'Caviar Dreams';-inkscape-font-specification:'Caviar Dreams Bold'"
         id="path1122" />
      <path
         d="m 25.384701,115.04346 h 0.372071 v 3.12539 q 0.103352,-0.14056 0.235644,-0.27285 0.665593,-0.6656 1.604037,-0.6656 0.942579,0 1.604037,0.6656 0.665593,0.66559 0.665593,1.60817 0,0.93844 -0.665593,1.60404 -0.661458,0.66559 -1.604037,0.66559 -0.938444,0 -1.604037,-0.66559 -0.132292,-0.1323 -0.235644,-0.27286 v 0.82269 h -0.372071 z m 0.372071,4.0721 v 0.77722 q 0.107487,0.52916 0.51263,0.93431 0.549837,0.54983 1.327051,0.54983 0.777214,0 1.327052,-0.5457 0.549837,-0.54984 0.549837,-1.32705 0,-0.77722 -0.549837,-1.32705 -0.549838,-0.54984 -1.327052,-0.54984 -0.777214,0 -1.327051,0.54984 -0.405143,0.40514 -0.51263,0.93844 z"
         style="font-weight:normal;-inkscape-font-specification:'Caviar Dreams';fill:#e0ede6"
         id="path1124" />
      <path
         d="m 32.379626,121.29424 -0.917774,1.9141 H 31.09805 l 1.09554,-2.29857 -1.583366,-3.31143 h 0.42168 l 1.347722,2.91042 1.347722,-2.91042 h 0.417545 l -1.765267,3.70003 z"
         style="font-weight:normal;-inkscape-font-specification:'Caviar Dreams';fill:#e0ede6"
         id="path1126" />
      <path
         d="m 41.371331,120.1987 0.855762,0.30592 q -0.314193,0.43409 -0.454753,0.57465 -0.690398,0.69039 -1.666049,0.69039 -0.971517,0 -1.661915,-0.69039 -0.690397,-0.6904 -0.690397,-1.66605 0,-0.97565 0.690397,-1.66605 0.690398,-0.6904 1.661915,-0.6904 0.975651,0 1.666049,0.6904 0.14056,0.14056 0.454753,0.56637 l -0.855762,0.3142 q -0.165365,-0.20258 -0.223243,-0.26045 -0.429948,-0.42995 -1.041797,-0.42995 -0.607715,0 -1.041797,0.43408 -0.429948,0.42995 -0.429948,1.0418 0,0.60771 0.429948,1.0418 0.434082,0.42994 1.041797,0.42994 0.611849,0 1.045931,-0.42994 0.05374,-0.0579 0.219109,-0.25632 z"
         style="font-weight:bold;font-family:'Caviar Dreams';-inkscape-font-specification:'Caviar Dreams Bold'"
         id="path1128" />
      <path
         d="m 44.83572,121.65804 -2.029851,-4.254 h 0.967383 l 1.277442,2.76159 1.281576,-2.76159 h 0.967383 l -2.033985,4.254 z"
         style="font-weight:bold;font-family:'Caviar Dreams';-inkscape-font-specification:'Caviar Dreams Bold'"
         id="path1130" />
      <path
         d="m 48.990508,115.03932 v 6.61872 h -0.859896 v -6.61872 z"
         style="font-weight:bold;font-family:'Caviar Dreams';-inkscape-font-specification:'Caviar Dreams Bold'"
         id="path1132" />
      <path
         d="M 51.276671,123.08845 H 50.3713 l 1.132748,-2.37712 -1.583367,-3.30729 h 0.963249 l 1.079005,2.3275 1.079004,-2.3275 h 0.959115 z"
         style="font-weight:bold;font-family:'Caviar Dreams';-inkscape-font-specification:'Caviar Dreams Bold'"
         id="path1134" />
    </g>
  </g>
</svg>
