<?xml version="1.0" encoding="UTF-8" standalone="no"?>
<svg
   xmlns:dc="http://purl.org/dc/elements/1.1/"
   xmlns:cc="http://creativecommons.org/ns#"
   xmlns:rdf="http://www.w3.org/1999/02/22-rdf-syntax-ns#"
   xmlns:svg="http://www.w3.org/2000/svg"
   xmlns="http://www.w3.org/2000/svg"
   xmlns:sodipodi="http://sodipodi.sourceforge.net/DTD/sodipodi-0.dtd"
   xmlns:inkscape="http://www.inkscape.org/namespaces/inkscape"
   width="60.959999mm"
   height="128.5mm"
   viewBox="0 0 60.959999 128.5"
   version="1.1"
   id="svg2129"
   sodipodi:docname="stpr.svg"
   inkscape:version="1.0.2-2 (e86c870879, 2021-01-15)">
  <metadata
     id="metadata8134">
    <rdf:RDF>
      <cc:Work
         rdf:about="">
        <dc:format>image/svg+xml</dc:format>
        <dc:type
           rdf:resource="http://purl.org/dc/dcmitype/StillImage" />
      </cc:Work>
    </rdf:RDF>
  </metadata>
  <sodipodi:namedview
     id="namedview2131"
     pagecolor="#505050"
     bordercolor="#eeeeee"
     borderopacity="1"
     inkscape:pageshadow="0"
     inkscape:pageopacity="0"
     inkscape:pagecheckerboard="0"
     inkscape:document-units="mm"
     showgrid="false"
     showguides="true"
     inkscape:guide-bbox="true"
     guidetolerance="20"
     gridtolerance="10"
     inkscape:zoom="1.5126683"
     inkscape:cx="-45.284217"
     inkscape:cy="232.37084"
     inkscape:window-width="1856"
     inkscape:window-height="1057"
     inkscape:window-x="56"
     inkscape:window-y="-8"
     inkscape:window-maximized="1"
     inkscape:current-layer="layer3"
     inkscape:document-rotation="0" />
  <defs
     id="defs2126">
    <pattern
       id="EMFhbasepattern"
       patternUnits="userSpaceOnUse"
       width="6"
       height="6"
       x="0"
       y="0" />
  </defs>
  <g
     inkscape:label="background"
     inkscape:groupmode="layer"
     id="layer1"
     style="display:inline">
    <rect
       style="fill:#1c1c21;fill-opacity:1;stroke:none;stroke-width:0.612653"
       id="rect2696"
       width="60.959999"
       height="128.5"
       x="-2.220446e-15"
       y="5.3290705e-15" />
    <rect
       style="fill:#616061;fill-opacity:1;stroke:#78d8c8;stroke-width:0.453758;stroke-opacity:1"
       id="rect79966"
       width="17.821413"
       height="17.749001"
       x="1.7818159"
       y="94.472054"
       rx="1"
       ry="1.0528896" />
    <text
       xml:space="preserve"
       style="font-size:5.64444px;line-height:1.25;font-family:Poppins;-inkscape-font-specification:'Poppins, Normal';stroke-width:0.264583"
       x="24.837458"
       y="8.7455826"
       id="text68900"><tspan
         sodipodi:role="line"
         id="tspan68898"
         style="stroke-width:0.264583"
         x="24.837458"
         y="8.7455826" /></text>
    <text
       xml:space="preserve"
       style="font-size:5.64444px;line-height:1.25;font-family:Poppins;-inkscape-font-specification:'Poppins, Normal';stroke-width:0.264583"
       x="13.468198"
       y="122.43816"
       id="text75220"><tspan
         sodipodi:role="line"
         id="tspan75218"
         style="stroke-width:0.264583"
         x="13.468198"
         y="122.43816" /></text>
    <path
       style="fill:none;stroke:#989998;stroke-width:0.529167;stroke-linecap:butt;stroke-linejoin:miter;stroke-miterlimit:4;stroke-dasharray:none;stroke-opacity:1"
       d="M 23.128389,8.0392796 V 111.06891 Z"
       id="path1482" />
    <text
       xml:space="preserve"
       style="font-size:5.64444px;line-height:1.25;font-family:Poppins;-inkscape-font-specification:'Poppins, Normal';stroke-width:0.264583"
       x="-13.818022"
       y="14.692579"
       id="text12320"><tspan
         sodipodi:role="line"
         id="tspan12318"
         style="stroke-width:0.264583"
         x="-13.818022"
         y="14.692579" /></text>
    <path
       id="path15640-5"
       style="display:inline;opacity:0.996;fill:#161516;fill-opacity:1;stroke:#78d8c8;stroke-width:0.264583;stroke-linecap:round;stroke-linejoin:miter;stroke-miterlimit:4;stroke-dasharray:none;stroke-dashoffset:0;stroke-opacity:1"
       d="m 16.146301,57.912374 c -0.606898,0.8956 -1.560811,1.03162 -2.235738,0.37735 0.06813,0.53065 0.538701,1.04332 1.050457,1.1322 0.04133,2.30086 -1.560135,4.19887 -3.669314,3.93821 -0.04771,-0.48158 0.171595,-1.0093 0.623202,-1.50232 -0.549835,0.16075 -0.583755,0.11125 -1.047404,0.3809 -0.383814,0.22815 -0.683843,0.49751 -0.9002756,0.78967 l -4.933427,-1.3219 c 0.08401,0.90865 0.406739,1.80148 0.996006,2.57662 1.384184,1.98369 4.1802586,2.73245 6.3758876,1.76054 2.548387,-1.01056 3.943909,-4.15217 3.03989,-6.68281 0.286129,-0.12119 0.505923,-0.37147 0.637914,-0.84232 0.07693,-0.28383 0.0489,-0.29397 0.0628,-0.60614 z" />
  </g>
  <g
     inkscape:groupmode="layer"
     id="layer3"
     inkscape:label="labels">
    <g
       aria-label="stpr by cvly"
       id="text3584"
       style="font-size:7.05556px;line-height:1.25;font-family:Poppins;-inkscape-font-specification:'Poppins, Normal';display:inline;stroke-width:0.264583">
      <path
         d="m 11.588807,120.93113 q 0.03101,0.15847 0.09646,0.22393 0.127469,0.12402 0.303169,0.12402 0.1757,0 0.299723,-0.12402 0.127469,-0.12402 0.127469,-0.30661 0,-0.1757 -0.124023,-0.29973 -0.08613,-0.0861 -0.368626,-0.26527 -0.385851,-0.21015 -0.54777,-0.37207 -0.282499,-0.2825 -0.282499,-0.67868 0,-0.39963 0.282499,-0.68213 0.282498,-0.28595 0.682129,-0.28595 0.399631,0 0.664904,0.26872 0.18948,0.18948 0.241157,0.42375 l -0.692465,0.19981 q -0.02412,-0.0861 -0.04823,-0.11368 -0.06201,-0.062 -0.165365,-0.062 -0.103353,0 -0.179145,0.0758 -0.07235,0.0723 -0.07235,0.1757 0,0.10335 0.07235,0.1757 0.06546,0.062 0.296278,0.21015 0.427192,0.23426 0.620118,0.42719 0.334174,0.33762 0.334174,0.80271 0,0.47542 -0.334174,0.81304 -0.33073,0.33417 -0.806153,0.33417 -0.471978,0 -0.806153,-0.33761 -0.230822,-0.23083 -0.303169,-0.57534 z"
         style="fill:#78d8c8"
         id="path11537" />
      <path
         d="m 14.489579,118.37142 v -1.32981 h 0.713135 v 1.32981 h 0.637343 v 0.71314 h -0.637343 v 2.83187 h -0.713135 v -2.83187 h -0.637343 v -0.71314 z"
         style="fill:#78d8c8"
         id="path11539" />
      <path
         d="m 17.383461,119.77013 v 0.55466 q 0.06546,0.32729 0.334174,0.59256 0.358291,0.35829 0.868165,0.35829 0.509875,0 0.868165,-0.35829 0.361735,-0.36174 0.361735,-0.87161 0,-0.50643 -0.361735,-0.86817 -0.35829,-0.36173 -0.868165,-0.36173 -0.509874,0 -0.868165,0.36173 -0.268717,0.26528 -0.334174,0.59256 z m 0,1.70533 v 1.63297 h -0.713135 v -4.73701 h 0.713135 v 0.3204 q 0.516765,-0.60634 1.202339,-0.60634 0.813043,0 1.384929,0.57533 0.575332,0.57189 0.575332,1.38493 0,0.81304 -0.575332,1.38837 -0.571886,0.57534 -1.384929,0.57534 -0.685574,0 -1.202339,-0.53399 z"
         style="fill:#78d8c8"
         id="path11541" />
      <path
         d="m 22.120471,118.85029 q 0.399631,-0.54088 0.981852,-0.56844 v 0.7407 q -0.389296,0.0207 -0.620117,0.25149 -0.347955,0.34451 -0.361735,0.81993 v 1.82246 h -0.713136 v -3.54501 h 0.713136 z"
         style="fill:#78d8c8"
         id="path11543" />
      <path
         d="m 26.233917,116.40427 h 0.310059 v 2.6045 q 0.08613,-0.11714 0.196371,-0.22738 0.55466,-0.55466 1.336698,-0.55466 0.785482,0 1.336697,0.55466 0.554661,0.55466 0.554661,1.34014 0,0.78204 -0.554661,1.3367 -0.551215,0.55466 -1.336697,0.55466 -0.782038,0 -1.336698,-0.55466 -0.110244,-0.11024 -0.196371,-0.22738 v 0.68558 h -0.310059 z m 0.310059,3.39342 v 0.64768 q 0.08957,0.44097 0.427192,0.77859 0.458198,0.4582 1.105877,0.4582 0.647678,0 1.105876,-0.45475 0.458198,-0.4582 0.458198,-1.10588 0,-0.64768 -0.458198,-1.10587 -0.458198,-0.4582 -1.105876,-0.4582 -0.647679,0 -1.105877,0.4582 -0.337619,0.33761 -0.427192,0.78203 z"
         style="font-weight:normal;-inkscape-font-specification:'Caviar Dreams';fill:#989998"
         id="path11545" />
      <path
         d="m 32.063022,121.61326 -0.764811,1.59508 h -0.303169 l 0.912951,-1.91548 -1.319472,-2.75952 h 0.3514 l 1.123101,2.42535 1.123102,-2.42535 h 0.347955 l -1.471057,3.08336 z"
         style="font-weight:normal;-inkscape-font-specification:'Caviar Dreams';fill:#989998"
         id="path11547" />
      <path
         d="m 39.556111,120.70031 0.713135,0.25494 q -0.261828,0.36173 -0.378961,0.47886 -0.575331,0.57534 -1.388374,0.57534 -0.809598,0 -1.38493,-0.57534 -0.575331,-0.57533 -0.575331,-1.38837 0,-0.81304 0.575331,-1.38837 0.575332,-0.57534 1.38493,-0.57534 0.813043,0 1.388374,0.57534 0.117133,0.11713 0.378961,0.47197 l -0.713135,0.26183 q -0.137804,-0.16881 -0.186036,-0.21704 -0.35829,-0.35829 -0.868164,-0.35829 -0.50643,0 -0.868165,0.36173 -0.35829,0.3583 -0.35829,0.86817 0,0.50643 0.35829,0.86816 0.361735,0.35829 0.868165,0.35829 0.509874,0 0.871609,-0.35829 0.04479,-0.0482 0.182591,-0.21359 z"
         style="fill:#78d8c8"
         id="path11549" />
      <path
         d="m 42.443103,121.91643 -1.691543,-3.54501 h 0.806152 l 1.064536,2.30133 1.06798,-2.30133 h 0.806153 l -1.694988,3.54501 z"
         style="fill:#78d8c8"
         id="path11551" />
      <path
         d="m 45.905423,116.40083 v 5.5156 h -0.71658 v -5.5156 z"
         style="fill:#78d8c8"
         id="path11553" />
      <path
         d="m 47.810563,123.10843 h -0.754476 l 0.943957,-1.98093 -1.319473,-2.75608 h 0.802708 l 0.89917,1.93959 0.899171,-1.93959 h 0.799263 z"
         style="fill:#78d8c8"
         id="path11555" />
    </g>
    <g
       aria-label="clock"
       id="text2533"
       style="font-size:4.23333px;line-height:1.25;font-family:'Caviar Dreams';-inkscape-font-specification:'Caviar Dreams';display:inline;stroke-width:0.264583">
      <path
         d="M 7.0893055,7.6749524 7.517186,7.8279145 Q 7.3600897,8.0449554 7.2898099,8.1152353 6.9446116,8.4604335 6.4567865,8.4604335 q -0.4857581,0 -0.8309564,-0.3451982 Q 5.2806319,7.770037 5.2806319,7.2822119 q 0,-0.4878251 0.3451982,-0.8330234 0.3451983,-0.3451983 0.8309564,-0.3451983 0.4878251,0 0.8330234,0.3451983 0.07028,0.07028 0.2273761,0.2831866 L 7.0893055,6.8894713 Q 7.0066232,6.7881856 6.9776845,6.7592468 6.7627107,6.544273 6.4567865,6.544273 q -0.3038572,0 -0.520898,0.2170409 -0.2149738,0.2149737 -0.2149738,0.520898 0,0.3038571 0.2149738,0.520898 0.2170408,0.2149737 0.520898,0.2149737 0.3059242,0 0.522965,-0.2149737 0.026872,-0.028939 0.109554,-0.1281575 z"
         style="font-weight:bold;-inkscape-font-specification:'Caviar Dreams Bold';fill:#78d8c8"
         id="path11526" />
      <path
         d="M 8.443227,5.0952671 V 8.404623 H 8.0132794 V 5.0952671 Z"
         style="font-weight:bold;-inkscape-font-specification:'Caviar Dreams Bold';fill:#78d8c8"
         id="path11528" />
      <path
         d="m 10.115475,6.1039902 q 0.487825,0 0.830956,0.3451983 0.345199,0.3451983 0.345199,0.8330234 0,0.4878251 -0.345199,0.8330234 -0.343131,0.3451982 -0.830956,0.3451982 -0.485758,0 -0.8309563,-0.3451982 Q 8.9393204,7.770037 8.9393204,7.2822119 q 0,-0.4878251 0.3451983,-0.8330234 Q 9.629717,6.1039902 10.115475,6.1039902 Z m 0,0.4402828 q -0.3059242,0 -0.522965,0.2170409 -0.2149738,0.2170408 -0.2149738,0.520898 0,0.3059242 0.2149738,0.520898 0.2170408,0.2149737 0.522965,0.2149737 0.305924,0 0.520898,-0.2149737 0.217041,-0.2149738 0.217041,-0.520898 0,-0.3038572 -0.217041,-0.520898 Q 10.421399,6.544273 10.115475,6.544273 Z"
         style="font-weight:bold;-inkscape-font-specification:'Caviar Dreams Bold';fill:#78d8c8"
         id="path11530" />
      <path
         d="m 13.472373,7.6749524 0.427881,0.1529621 q -0.157097,0.2170409 -0.227377,0.2873208 -0.345198,0.3451982 -0.833023,0.3451982 -0.485758,0 -0.830956,-0.3451982 -0.345199,-0.3451983 -0.345199,-0.8330234 0,-0.4878251 0.345199,-0.8330234 0.345198,-0.3451983 0.830956,-0.3451983 0.487825,0 0.833023,0.3451983 0.07028,0.07028 0.227377,0.2831866 L 13.472373,6.8894713 Q 13.389691,6.7881856 13.360752,6.7592468 13.145778,6.544273 12.839854,6.544273 q -0.303857,0 -0.520898,0.2170409 -0.214974,0.2149737 -0.214974,0.520898 0,0.3038571 0.214974,0.520898 0.217041,0.2149737 0.520898,0.2149737 0.305924,0 0.522965,-0.2149737 0.02687,-0.028939 0.109554,-0.1281575 z"
         style="font-weight:bold;-inkscape-font-specification:'Caviar Dreams Bold';fill:#78d8c8"
         id="path11532" />
      <path
         d="M 15.677921,6.2776229 15.101213,6.98869 15.90323,8.404623 h -0.510562 l -0.578776,-1.0603995 -0.0186,0.022738 V 8.404623 H 14.365341 V 5.4797394 h 0.429947 v 1.2030264 l 0.330729,-0.4051429 z"
         style="font-weight:bold;-inkscape-font-specification:'Caviar Dreams Bold';fill:#78d8c8"
         id="path11534" />
    </g>
    <g
       aria-label="trigger"
       id="text2533-6"
       style="font-size:4.23333px;line-height:1.25;font-family:'Caviar Dreams';-inkscape-font-specification:'Caviar Dreams';display:inline;stroke-width:0.264583">
      <path
         d="M 44.737153,6.2776229 V 5.4797394 h 0.42788 v 0.7978835 h 0.382406 V 6.7055034 H 45.165033 V 8.404623 h -0.42788 V 6.7055034 H 44.354748 V 6.2776229 Z"
         style="font-weight:bold;-inkscape-font-specification:'Caviar Dreams Bold';fill:#78d8c8"
         id="path11511" />
      <path
         d="m 46.47348,6.5649436 q 0.239778,-0.3245277 0.58911,-0.3410642 v 0.444417 q -0.233577,0.012402 -0.37207,0.150895 -0.208772,0.2067056 -0.21704,0.4919592 V 8.404623 H 46.045599 V 6.2776229 h 0.427881 z"
         style="font-weight:bold;-inkscape-font-specification:'Caviar Dreams Bold';fill:#78d8c8"
         id="path11513" />
      <path
         d="M 47.98243,6.2776229 V 8.404623 H 47.55455 V 6.2776229 Z M 47.767456,5.4032584 q 0.124024,0 0.212907,0.086816 0.08888,0.086816 0.08888,0.2129067 0,0.1260904 -0.08888,0.2129067 -0.08888,0.086816 -0.212907,0.086816 -0.121956,0 -0.210839,-0.086816 -0.08888,-0.086816 -0.08888,-0.2129067 0,-0.1260904 0.08888,-0.2129067 0.08888,-0.086816 0.210839,-0.086816 z"
         style="font-weight:bold;-inkscape-font-specification:'Caviar Dreams Bold';fill:#78d8c8"
         id="path11515" />
      <path
         d="M 50.4815,7.1168474 Q 50.442226,6.9204771 50.283063,6.7613139 50.068089,6.544273 49.762165,6.544273 q -0.305925,0 -0.522965,0.2170409 -0.214974,0.2170408 -0.214974,0.520898 0,0.3059242 0.214974,0.522965 0.21704,0.2149738 0.522965,0.2149738 0.305924,0 0.520898,-0.2149738 0.159163,-0.1591633 0.198437,-0.3513994 z m 0.0021,-0.6924636 V 6.2776229 h 0.429948 v 1.5812975 q 0,0.6201166 -0.33693,0.9570467 -0.345199,0.3038572 -0.833024,0.3038572 -0.487825,0 -0.833023,-0.3038572 -0.07028,-0.07028 -0.225309,-0.2852537 l 0.425813,-0.1529621 q 0.08268,0.099219 0.111621,0.1281575 0.217041,0.2149737 0.520898,0.2149737 0.510563,0 0.706933,-0.669726 -0.200504,0.3886065 -0.688329,0.3886065 -0.487825,0 -0.833024,-0.334863 -0.343131,-0.334863 -0.343131,-0.8226881 0,-0.4878251 0.343131,-0.8309564 0.345199,-0.3451982 0.833024,-0.3451982 0.411344,0 0.721402,0.3183265 z"
         style="font-weight:bold;-inkscape-font-specification:'Caviar Dreams Bold';fill:#78d8c8"
         id="path11517" />
      <path
         d="M 53.385713,7.1168474 Q 53.346439,6.9204771 53.187276,6.7613139 52.972302,6.544273 52.666378,6.544273 q -0.305925,0 -0.522965,0.2170409 -0.214974,0.2170408 -0.214974,0.520898 0,0.3059242 0.214974,0.522965 0.21704,0.2149738 0.522965,0.2149738 0.305924,0 0.520898,-0.2149738 0.159163,-0.1591633 0.198437,-0.3513994 z m 0.0021,-0.6924636 V 6.2776229 h 0.429948 v 1.5812975 q 0,0.6201166 -0.33693,0.9570467 -0.345199,0.3038572 -0.833024,0.3038572 -0.487825,0 -0.833023,-0.3038572 -0.07028,-0.07028 -0.225309,-0.2852537 l 0.425813,-0.1529621 q 0.08268,0.099219 0.111621,0.1281575 0.217041,0.2149737 0.520898,0.2149737 0.510563,0 0.706933,-0.669726 -0.200504,0.3886065 -0.688329,0.3886065 -0.487825,0 -0.833024,-0.334863 -0.343131,-0.334863 -0.343131,-0.8226881 0,-0.4878251 0.343131,-0.8309564 0.345199,-0.3451982 0.833024,-0.3451982 0.411344,0 0.721402,0.3183265 z"
         style="font-weight:bold;-inkscape-font-specification:'Caviar Dreams Bold';fill:#78d8c8"
         id="path11519" />
      <path
         d="m 55.10757,7.9229991 q 0.107487,0.095085 0.390674,0.095085 0.305924,0 0.522965,-0.2149737 0.02687,-0.028939 0.109554,-0.1281575 l 0.42788,0.1529621 q -0.157096,0.2170409 -0.227376,0.2873208 -0.345198,0.3451982 -0.833023,0.3451982 -0.485758,0 -0.830957,-0.3451982 -0.345198,-0.3451983 -0.345198,-0.8330234 0,-0.4878251 0.345198,-0.8330234 0.345199,-0.3451983 0.830957,-0.3451983 0.417545,0 0.731737,0.2521808 0.05168,0.043408 0.101286,0.093018 0.02067,0.02067 0.117822,0.1302245 l -0.214974,0.2170408 z m 0.715201,-1.3229156 q -0.07235,-0.055811 -0.324527,-0.055811 -0.303858,0 -0.520898,0.2170409 -0.214974,0.2149737 -0.214974,0.520898 0,0.2501137 0.05581,0.3245277 z"
         style="font-weight:bold;-inkscape-font-specification:'Caviar Dreams Bold';fill:#78d8c8"
         id="path11521" />
      <path
         d="m 57.482617,6.5649436 q 0.239779,-0.3245277 0.589111,-0.3410642 v 0.444417 q -0.233577,0.012402 -0.37207,0.150895 -0.208772,0.2067056 -0.217041,0.4919592 V 8.404623 h -0.42788 V 6.2776229 h 0.42788 z"
         style="font-weight:bold;-inkscape-font-specification:'Caviar Dreams Bold';fill:#78d8c8"
         id="path11523" />
    </g>
    <g
       aria-label="reset"
       id="text2533-0"
       style="font-size:4.23333px;line-height:1.25;font-family:'Caviar Dreams';-inkscape-font-specification:'Caviar Dreams';display:inline;stroke-width:0.264583">
      <path
         d="m 6.2531814,25.674021 q 0.2397785,-0.324528 0.5891108,-0.341064 v 0.444417 q -0.2335772,0.0124 -0.37207,0.150895 -0.2087726,0.206705 -0.2170408,0.491959 V 27.5137 H 5.8253009 v -2.127 h 0.4278805 z"
         style="font-weight:bold;-inkscape-font-specification:'Caviar Dreams Bold';fill:#78d8c8"
         id="path11500" />
      <path
         d="m 7.9109601,27.032077 q 0.1074868,0.09508 0.3906735,0.09508 0.3059242,0 0.522965,-0.214974 0.026872,-0.02894 0.109554,-0.128157 l 0.4278805,0.152962 q -0.1570963,0.217041 -0.2273762,0.287321 -0.3451982,0.345198 -0.8330233,0.345198 -0.4857581,0 -0.8309564,-0.345198 -0.3451983,-0.345199 -0.3451983,-0.833024 0,-0.487825 0.3451983,-0.833023 0.3451983,-0.345198 0.8309564,-0.345198 0.4175452,0 0.7317376,0.25218 0.051676,0.04341 0.1012857,0.09302 0.020671,0.02067 0.1178222,0.130224 l -0.2149738,0.217041 z m 0.7152012,-1.322916 q -0.072347,-0.05581 -0.3245277,-0.05581 -0.3038572,0 -0.520898,0.217041 -0.2149738,0.214974 -0.2149738,0.520898 0,0.250114 0.055811,0.324528 z"
         style="font-weight:bold;-inkscape-font-specification:'Caviar Dreams Bold';fill:#78d8c8"
         id="path11502" />
      <path
         d="m 10.230196,26.922523 q 0.0186,0.09508 0.05788,0.134358 0.07648,0.07441 0.181901,0.07441 0.10542,0 0.179834,-0.07441 0.07648,-0.07441 0.07648,-0.183968 0,-0.10542 -0.07441,-0.179834 -0.05168,-0.05168 -0.221175,-0.159163 -0.23151,-0.12609 -0.328662,-0.223242 -0.1694986,-0.169498 -0.1694986,-0.40721 0,-0.239778 0.1694986,-0.409277 0.169498,-0.171565 0.409277,-0.171565 0.239778,0 0.398942,0.16123 0.113688,0.113688 0.144694,0.254248 l -0.415479,0.119889 q -0.01447,-0.05168 -0.02894,-0.06821 -0.03721,-0.03721 -0.09922,-0.03721 -0.06201,0 -0.107487,0.04547 -0.04341,0.04341 -0.04341,0.10542 0,0.06201 0.04341,0.10542 0.03927,0.03721 0.177767,0.12609 0.256315,0.14056 0.37207,0.256315 0.200504,0.202572 0.200504,0.481624 0,0.285254 -0.200504,0.487825 -0.198438,0.200505 -0.483691,0.200505 -0.283187,0 -0.4836912,-0.202572 -0.1384927,-0.138492 -0.1819009,-0.345198 z"
         style="font-weight:bold;-inkscape-font-specification:'Caviar Dreams Bold';fill:#78d8c8"
         id="path11504" />
      <path
         d="m 12.342727,27.032077 q 0.107487,0.09508 0.390674,0.09508 0.305924,0 0.522965,-0.214974 0.02687,-0.02894 0.109554,-0.128157 l 0.42788,0.152962 q -0.157096,0.217041 -0.227376,0.287321 -0.345198,0.345198 -0.833023,0.345198 -0.485758,0 -0.830957,-0.345198 -0.345198,-0.345199 -0.345198,-0.833024 0,-0.487825 0.345198,-0.833023 0.345199,-0.345198 0.830957,-0.345198 0.417545,0 0.731737,0.25218 0.05168,0.04341 0.101286,0.09302 0.02067,0.02067 0.117822,0.130224 l -0.214974,0.217041 z m 0.715201,-1.322916 q -0.07235,-0.05581 -0.324527,-0.05581 -0.303858,0 -0.520898,0.217041 -0.214974,0.214974 -0.214974,0.520898 0,0.250114 0.05581,0.324528 z"
         style="font-weight:bold;-inkscape-font-specification:'Caviar Dreams Bold';fill:#78d8c8"
         id="path11506" />
      <path
         d="m 14.548276,25.3867 v -0.797883 h 0.42788 V 25.3867 h 0.382406 v 0.427881 H 14.976156 V 27.5137 h -0.42788 V 25.814581 H 14.165871 V 25.3867 Z"
         style="font-weight:bold;-inkscape-font-specification:'Caviar Dreams Bold';fill:#78d8c8"
         id="path11508" />
    </g>
    <g
       aria-label="cv out"
       id="text2533-7"
       style="font-size:4.23333px;line-height:1.25;font-family:'Caviar Dreams';-inkscape-font-specification:'Caviar Dreams';display:inline;stroke-width:0.264583">
      <path
         d="m 5.9772297,98.677159 0.4278805,0.152962 q -0.1570963,0.217041 -0.2273761,0.287321 -0.3451983,0.345198 -0.8330234,0.345198 -0.4857581,0 -0.8309564,-0.345198 -0.3451982,-0.345198 -0.3451982,-0.833023 0,-0.487825 0.3451982,-0.833024 0.3451983,-0.345198 0.8309564,-0.345198 0.4878251,0 0.8330234,0.345198 0.07028,0.07028 0.2273761,0.283187 L 5.9772297,97.891678 Q 5.8945474,97.790392 5.8656087,97.761454 5.6506349,97.54648 5.3447107,97.54648 q -0.3038572,0 -0.520898,0.217041 -0.2149738,0.214973 -0.2149738,0.520898 0,0.303857 0.2149738,0.520898 0.2170408,0.214973 0.520898,0.214973 0.3059242,0 0.522965,-0.214973 0.026872,-0.02894 0.109554,-0.128158 z"
         style="font-weight:bold;-inkscape-font-specification:'Caviar Dreams Bold';fill:#78d8c8"
         id="path11489" />
      <path
         d="m 7.7094223,99.40683 -1.0149242,-2.127 h 0.483691 l 0.6387201,1.380793 0.6407872,-1.380793 h 0.483691 l -1.0169913,2.127 z"
         style="font-weight:bold;-inkscape-font-specification:'Caviar Dreams Bold';fill:#78d8c8"
         id="path11491" />
      <path
         d="m 11.872472,97.106197 q 0.487825,0 0.830956,0.345198 0.345199,0.345199 0.345199,0.833024 0,0.487825 -0.345199,0.833023 -0.343131,0.345198 -0.830956,0.345198 -0.485758,0 -0.830956,-0.345198 -0.345198,-0.345198 -0.345198,-0.833023 0,-0.487825 0.345198,-0.833024 0.345198,-0.345198 0.830956,-0.345198 z m 0,0.440283 q -0.305924,0 -0.522965,0.217041 -0.214974,0.217041 -0.214974,0.520898 0,0.305924 0.214974,0.520898 0.217041,0.214973 0.522965,0.214973 0.305924,0 0.520898,-0.214973 0.217041,-0.214974 0.217041,-0.520898 0,-0.303857 -0.217041,-0.520898 -0.214974,-0.217041 -0.520898,-0.217041 z"
         style="font-weight:bold;-inkscape-font-specification:'Caviar Dreams Bold';fill:#78d8c8"
         id="path11493" />
      <path
         d="m 14.445957,99.435769 q -0.403076,0 -0.649056,-0.24598 -0.245979,-0.24598 -0.252181,-0.615983 V 97.27983 h 0.429948 v 1.27744 q 0,0.183968 0.134359,0.31626 0.134358,0.132291 0.334863,0.132291 0.183967,0 0.318326,-0.130224 0.136426,-0.132292 0.136426,-0.318327 v -1.27744 h 0.42788 v 1.293976 q -0.0062,0.370003 -0.250113,0.615983 -0.24598,0.24598 -0.630452,0.24598 z"
         style="font-weight:bold;-inkscape-font-specification:'Caviar Dreams Bold';fill:#78d8c8"
         id="path11495" />
      <path
         d="m 16.205021,97.27983 v -0.797884 h 0.42788 v 0.797884 h 0.382406 v 0.42788 h -0.382406 v 1.69912 h -0.42788 v -1.69912 h -0.382406 v -0.42788 z"
         style="font-weight:bold;-inkscape-font-specification:'Caviar Dreams Bold';fill:#78d8c8"
         id="path11497" />
    </g>
  </g>
</svg>
