<?xml version="1.0" encoding="UTF-8" standalone="no"?>
<svg
   width="81.279999mm"
   height="128.5mm"
   viewBox="0 0 81.279999 128.5"
   version="1.1"
   id="svg2496"
   inkscape:version="1.1.2 (0a00cf5339, 2022-02-04)"
   sodipodi:docname="txt.svg"
   xmlns:inkscape="http://www.inkscape.org/namespaces/inkscape"
   xmlns:sodipodi="http://sodipodi.sourceforge.net/DTD/sodipodi-0.dtd"
   xmlns:xlink="http://www.w3.org/1999/xlink"
   xmlns="http://www.w3.org/2000/svg"
   xmlns:svg="http://www.w3.org/2000/svg"
   xmlns:rdf="http://www.w3.org/1999/02/22-rdf-syntax-ns#"
   xmlns:cc="http://creativecommons.org/ns#"
   xmlns:dc="http://purl.org/dc/elements/1.1/">
  <defs
     id="defs2490">
    <linearGradient
       inkscape:collect="always"
       id="linearGradient14008">
      <stop
         style="stop-color:#100c11;stop-opacity:1"
         offset="0"
         id="stop14004" />
      <stop
         style="stop-color:#0aa0ab;stop-opacity:1"
         offset="1"
         id="stop14006" />
    </linearGradient>
    <linearGradient
       inkscape:collect="always"
       xlink:href="#linearGradient14008"
       id="linearGradient13966"
       x1="0.3739869"
       y1="0.37414849"
       x2="81.279999"
       y2="128.5"
       gradientUnits="userSpaceOnUse" />
  </defs>
  <sodipodi:namedview
     id="base"
     pagecolor="#ffffff"
     bordercolor="#666666"
     borderopacity="1.0"
     inkscape:pageopacity="0.0"
     inkscape:pageshadow="2"
     inkscape:zoom="1.8101934"
     inkscape:cx="133.41116"
     inkscape:cy="385.31795"
     inkscape:document-units="mm"
     inkscape:current-layer="layer1"
     inkscape:document-rotation="0"
     showgrid="false"
     inkscape:window-width="1920"
     inkscape:window-height="1080"
     inkscape:window-x="0"
     inkscape:window-y="0"
     inkscape:window-maximized="1"
     inkscape:pagecheckerboard="0"
     scale-x="2.9572" />
  <metadata
     id="metadata2493">
    <rdf:RDF>
      <cc:Work
         rdf:about="">
        <dc:format>image/svg+xml</dc:format>
        <dc:type
           rdf:resource="http://purl.org/dc/dcmitype/StillImage" />
      </cc:Work>
    </rdf:RDF>
  </metadata>
  <g
     inkscape:label="Layer 1"
     inkscape:groupmode="layer"
     id="layer1">
    <path
       inkscape:connector-curvature="0"
       id="path3835"
       d="M -6.6535156e-7,5e-7 H 81.279999 V 128.5 H -6.6535156e-7 Z m 0,0"
       style="display:inline;fill:url(#linearGradient13966);fill-opacity:1;fill-rule:nonzero;stroke:none;stroke-width:0.353441" />
    <path
       inkscape:connector-curvature="0"
       id="path3837"
       d="M 81.467389,0.1881105 H 0.18794989 V 128.68741 H 81.467389 Z M 81.279999,128.5 H 0.37398689 V 0.3741485 H 81.279999 Z m 0,0"
       style="display:inline;fill:#ababab;fill-opacity:1;fill-rule:nonzero;stroke:none;stroke-width:0.352778" />
    <rect
       style="fill:#25232d;fill-opacity:0.384409;stroke:#64f6ed;stroke-width:0.266631;stroke-linejoin:round;stroke-miterlimit:4;stroke-dasharray:none;stroke-opacity:1;paint-order:stroke fill markers"
       id="rect1064"
       width="74.000069"
       height="104.17392"
       x="3.6399624"
       y="6.9207935" />
    <path
       style="fill:#100c11;fill-opacity:1;stroke:#64f6ed;stroke-width:0.375882;stroke-linecap:round;stroke-linejoin:round;stroke-miterlimit:4;stroke-dasharray:none;stroke-opacity:1;paint-order:stroke fill markers"
       d="m 61.920907,122.89634 c -1.84143,-0.10907 -3.44729,-0.7729 -4.74303,-1.96067 -0.49382,-0.45266 -1.09953,-1.2356 -1.45538,-1.8812 -0.30877,-0.56018 -0.53694,-1.15314 -0.6816,-1.7713 -0.0773,-0.33048 -0.14205,-0.73075 -0.12146,-0.75128 0.0255,-0.0254 0.94321,0.0311 1.35572,0.0942 1.91757,0.29311 3.82005,0.65771 5.39162,1.46032 0.32014,0.16351 0.35218,0.19101 0.50045,-0.001 0.23885,-0.3096 0.59119,-0.59361 0.97584,-0.78659 0.32127,-0.16119 0.97098,-0.37799 1.01145,-0.33752 -0.112,0.25341 -0.18631,0.55795 -0.21997,0.81386 -0.031,0.23555 0.0331,0.87588 0.0774,0.9631 0.55022,0.23838 1.30989,0.14009 1.89583,-0.0443 2.28398,-1.12037 2.93801,-3.04152 2.99879,-5.13642 0.0164,-0.56645 0.01,-0.59179 -0.16472,-0.63584 -0.52303,-0.19562 -1.24848,-1.06465 -0.79036,-0.93094 1.15393,0.3368 1.19822,0.32773 1.94168,-0.28871 0.32677,-0.27095 -0.0207,0.76124 -0.3327,1.0032 -0.30664,0.23028 -0.30832,0.23445 -0.21086,0.52164 0.27429,0.92557 0.38503,1.79818 0.29516,2.78171 -0.25472,2.56524 -1.79092,4.91055 -3.94626,6.02477 -0.88905,0.4596 -1.79728,0.73854 -2.6978,0.82857 -0.26846,0.0268 -0.87976,0.0464 -1.07977,0.0346 z"
       id="path10930"
       sodipodi:nodetypes="csssssscscsccccsscccsscc" />
    <g
       aria-label="txt by cvly"
       id="text22874"
       style="font-size:8.46667px;line-height:1.25;font-family:'Odin Rounded';-inkscape-font-specification:'Odin Rounded';text-align:end;text-anchor:end;fill:#64f6ed;stroke-width:0.375882"
       transform="translate(-61.983793,4.4523818)">
      <path
         d="m 73.814547,112.95165 v -1.59577 h 0.855762 v 1.59577 h 0.764812 v 0.85576 h -0.764812 v 3.39825 h -0.855762 v -3.39825 h -0.764811 v -0.85576 z"
         style="font-weight:bold;font-family:'Caviar Dreams';-inkscape-font-specification:'Caviar Dreams Bold'"
         id="path1087" />
      <path
         d="m 79.556835,112.95165 -1.12448,1.94304 1.331186,2.31097 h -0.988054 l -0.830958,-1.43041 -0.826823,1.43041 h -0.996322 l 1.33532,-2.31097 -1.120346,-1.94304 h 0.988054 l 0.620117,1.06247 0.615984,-1.06247 z"
         style="font-weight:bold;font-family:'Caviar Dreams';-inkscape-font-specification:'Caviar Dreams Bold'"
         id="path1089" />
      <path
         d="m 81.210481,112.95165 v -1.59577 h 0.855763 v 1.59577 h 0.764811 v 0.85576 h -0.764811 v 3.39825 h -0.855763 v -3.39825 H 80.44567 v -0.85576 z"
         style="font-weight:bold;font-family:'Caviar Dreams';-inkscape-font-specification:'Caviar Dreams Bold'"
         id="path1091" />
      <path
         d="m 86.754332,110.59107 h 0.37207 v 3.12539 q 0.103353,-0.14056 0.235645,-0.27285 0.665592,-0.66559 1.604037,-0.66559 0.942578,0 1.604037,0.66559 0.665592,0.66559 0.665592,1.60817 0,0.93845 -0.665592,1.60404 -0.661459,0.66559 -1.604037,0.66559 -0.938445,0 -1.604037,-0.66559 -0.132292,-0.13229 -0.235645,-0.27285 v 0.82269 h -0.37207 z m 0.37207,4.07211 v 0.77721 q 0.107487,0.52917 0.51263,0.93431 0.549838,0.54984 1.327052,0.54984 0.777214,0 1.327051,-0.54571 0.549837,-0.54983 0.549837,-1.32705 0,-0.77721 -0.549837,-1.32705 -0.549837,-0.54984 -1.327051,-0.54984 -0.777214,0 -1.327052,0.54984 -0.405143,0.40515 -0.51263,0.93845 z"
         style="font-family:'Caviar Dreams';-inkscape-font-specification:'Caviar Dreams';fill:#e0ede6"
         id="path1093" />
      <path
         d="m 93.749254,116.84186 -0.917774,1.91409 h -0.363802 l 1.095541,-2.29857 -1.583367,-3.31142 h 0.42168 l 1.347722,2.91041 1.347722,-2.91041 h 0.417546 l -1.765268,3.70003 z"
         style="font-family:'Caviar Dreams';-inkscape-font-specification:'Caviar Dreams';fill:#e0ede6"
         id="path1095" />
      <path
         d="m 102.74096,115.74631 0.85576,0.30593 q -0.31419,0.43408 -0.45475,0.57464 -0.6904,0.6904 -1.66605,0.6904 -0.97152,0 -1.661915,-0.6904 -0.690398,-0.6904 -0.690398,-1.66605 0,-0.97565 0.690398,-1.66605 0.690395,-0.69039 1.661915,-0.69039 0.97565,0 1.66605,0.69039 0.14056,0.14056 0.45475,0.56638 l -0.85576,0.31419 q -0.16537,-0.20257 -0.22324,-0.26045 -0.42995,-0.42995 -1.0418,-0.42995 -0.60772,0 -1.0418,0.43409 -0.42995,0.42994 -0.42995,1.04179 0,0.60772 0.42995,1.0418 0.43408,0.42995 1.0418,0.42995 0.61185,0 1.04593,-0.42995 0.0537,-0.0579 0.21911,-0.25632 z"
         style="font-weight:bold;font-family:'Caviar Dreams';-inkscape-font-specification:'Caviar Dreams Bold'"
         id="path1097" />
      <path
         d="m 106.20535,117.20566 -2.02985,-4.25401 h 0.96738 l 1.27744,2.76159 1.28158,-2.76159 h 0.96738 l -2.03398,4.25401 z"
         style="font-weight:bold;font-family:'Caviar Dreams';-inkscape-font-specification:'Caviar Dreams Bold'"
         id="path1099" />
      <path
         d="m 110.36014,110.58694 v 6.61872 h -0.8599 v -6.61872 z"
         style="font-weight:bold;font-family:'Caviar Dreams';-inkscape-font-specification:'Caviar Dreams Bold'"
         id="path1101" />
      <path
         d="m 112.6463,118.63606 h -0.90537 l 1.13275,-2.37711 -1.58337,-3.3073 h 0.96325 l 1.079,2.32751 1.07901,-2.32751 h 0.95911 z"
         style="font-weight:bold;font-family:'Caviar Dreams';-inkscape-font-specification:'Caviar Dreams Bold'"
         id="path1103" />
    </g>
  </g>
</svg>
