<?xml version="1.0" encoding="UTF-8" standalone="no"?>
<svg
   xmlns:dc="http://purl.org/dc/elements/1.1/"
   xmlns:cc="http://creativecommons.org/ns#"
   xmlns:rdf="http://www.w3.org/1999/02/22-rdf-syntax-ns#"
   xmlns:svg="http://www.w3.org/2000/svg"
   xmlns="http://www.w3.org/2000/svg"
   xmlns:sodipodi="http://sodipodi.sourceforge.net/DTD/sodipodi-0.dtd"
   xmlns:inkscape="http://www.inkscape.org/namespaces/inkscape"
   width="81.279999mm"
   height="128.5mm"
   viewBox="0 0 81.279999 128.5"
   version="1.1"
   id="svg2496"
   inkscape:version="1.0.2-2 (e86c870879, 2021-01-15)"
   sodipodi:docname="txt.svg">
  <defs
     id="defs2490" />
  <sodipodi:namedview
     id="base"
     pagecolor="#ffffff"
     bordercolor="#666666"
     borderopacity="1.0"
     inkscape:pageopacity="0.0"
     inkscape:pageshadow="2"
     inkscape:zoom="1.4"
     inkscape:cx="317.08153"
     inkscape:cy="250.69053"
     inkscape:document-units="mm"
     inkscape:current-layer="layer1"
     inkscape:document-rotation="0"
     showgrid="false"
     inkscape:window-width="1856"
     inkscape:window-height="1057"
     inkscape:window-x="56"
     inkscape:window-y="-8"
     inkscape:window-maximized="1" />
  <metadata
     id="metadata2493">
    <rdf:RDF>
      <cc:Work
         rdf:about="">
        <dc:format>image/svg+xml</dc:format>
        <dc:type
           rdf:resource="http://purl.org/dc/dcmitype/StillImage" />
        <dc:title></dc:title>
      </cc:Work>
    </rdf:RDF>
  </metadata>
  <g
     inkscape:label="Layer 1"
     inkscape:groupmode="layer"
     id="layer1">
    <path
       inkscape:connector-curvature="0"
       id="path3835"
       d="M -6.6535156e-7,5e-7 H 81.279999 V 128.5 H -6.6535156e-7 Z m 0,0"
       style="display:inline;fill:#1c1c21;fill-opacity:1;fill-rule:nonzero;stroke:none;stroke-width:0.353441" />
    <path
       inkscape:connector-curvature="0"
       id="path3837"
       d="M 81.467389,0.1881105 H 0.18794989 V 128.68741 H 81.467389 Z M 81.279999,128.5 H 0.37398689 V 0.3741485 H 81.279999 Z m 0,0"
       style="display:inline;fill:#ababab;fill-opacity:1;fill-rule:nonzero;stroke:none;stroke-width:0.352778" />
    <g
       aria-label="txt by cvly"
       id="text2465"
       style="font-size:3.52777px;line-height:1.25;font-family:'Caviar Dreams';-inkscape-font-specification:'Caviar Dreams';display:inline;fill:#78d8c8;fill-opacity:1;stroke-width:0.264583"
       transform="translate(-30.556863,-52.92097)">
      <path
         d="m 50.8012,170.3243 v -1.59577 h 0.855762 v 1.59577 h 0.764812 v 0.85576 h -0.764812 v 3.39825 H 50.8012 v -3.39825 h -0.764811 v -0.85576 z"
         style="font-style:normal;font-variant:normal;font-weight:bold;font-stretch:normal;font-size:8.46667px;font-family:'Caviar Dreams';-inkscape-font-specification:'Caviar Dreams Bold';fill:#78d8c8;fill-opacity:1;stroke-width:0.264583"
         id="path2471" />
      <path
         d="m 56.543487,170.3243 -1.124479,1.94304 1.331185,2.31097 h -0.988054 l -0.830957,-1.43041 -0.826823,1.43041 h -0.996322 l 1.335319,-2.31097 -1.120345,-1.94304 h 0.988054 l 0.620117,1.06247 0.615983,-1.06247 z"
         style="font-style:normal;font-variant:normal;font-weight:bold;font-stretch:normal;font-size:8.46667px;font-family:'Caviar Dreams';-inkscape-font-specification:'Caviar Dreams Bold';fill:#78d8c8;fill-opacity:1;stroke-width:0.264583"
         id="path2473" />
      <path
         d="m 58.197134,170.3243 v -1.59577 h 0.855762 v 1.59577 h 0.764812 v 0.85576 h -0.764812 v 3.39825 h -0.855762 v -3.39825 h -0.764811 v -0.85576 z"
         style="font-style:normal;font-variant:normal;font-weight:bold;font-stretch:normal;font-size:8.46667px;font-family:'Caviar Dreams';-inkscape-font-specification:'Caviar Dreams Bold';fill:#78d8c8;fill-opacity:1;stroke-width:0.264583"
         id="path2475" />
      <path
         d="m 63.740984,167.96372 h 0.372071 v 3.12539 q 0.103353,-0.14056 0.235644,-0.27285 0.665593,-0.66559 1.604037,-0.66559 0.942579,0 1.604037,0.66559 0.665593,0.6656 0.665593,1.60817 0,0.93845 -0.665593,1.60404 -0.661458,0.66559 -1.604037,0.66559 -0.938444,0 -1.604037,-0.66559 -0.132291,-0.13229 -0.235644,-0.27285 v 0.82269 h -0.372071 z m 0.372071,4.07211 v 0.77721 q 0.107487,0.52917 0.51263,0.93431 0.549838,0.54984 1.327051,0.54984 0.777214,0 1.327052,-0.54571 0.549837,-0.54983 0.549837,-1.32705 0,-0.77721 -0.549837,-1.32705 -0.549838,-0.54984 -1.327052,-0.54984 -0.777213,0 -1.327051,0.54984 -0.405143,0.40515 -0.51263,0.93845 z"
         style="font-style:normal;font-variant:normal;font-weight:normal;font-stretch:normal;font-family:'Caviar Dreams';-inkscape-font-specification:'Caviar Dreams';fill:#989998;fill-opacity:1"
         id="path2477" />
      <path
         d="m 70.735907,174.21451 -0.917774,1.91409 h -0.363802 l 1.095541,-2.29857 -1.583367,-3.31142 h 0.42168 l 1.347722,2.91041 1.347722,-2.91041 h 0.417546 l -1.765268,3.70003 z"
         style="font-style:normal;font-variant:normal;font-weight:normal;font-stretch:normal;font-family:'Caviar Dreams';-inkscape-font-specification:'Caviar Dreams';fill:#989998;fill-opacity:1"
         id="path2479" />
      <path
         d="m 79.727612,173.11897 0.855762,0.30592 q -0.314193,0.43408 -0.454753,0.57464 -0.690397,0.6904 -1.666049,0.6904 -0.971517,0 -1.661914,-0.6904 -0.690398,-0.6904 -0.690398,-1.66605 0,-0.97565 0.690398,-1.66605 0.690397,-0.69039 1.661914,-0.69039 0.975652,0 1.666049,0.69039 0.14056,0.14056 0.454753,0.56638 l -0.855762,0.31419 q -0.165365,-0.20257 -0.223242,-0.26045 -0.429949,-0.42995 -1.041798,-0.42995 -0.607715,0 -1.041797,0.43409 -0.429948,0.42994 -0.429948,1.04179 0,0.60772 0.429948,1.0418 0.434082,0.42995 1.041797,0.42995 0.611849,0 1.045932,-0.42995 0.05374,-0.0579 0.219108,-0.25631 z"
         style="font-style:normal;font-variant:normal;font-weight:bold;font-stretch:normal;font-size:8.46667px;font-family:'Caviar Dreams';-inkscape-font-specification:'Caviar Dreams Bold';fill:#78d8c8;fill-opacity:1;stroke-width:0.264583"
         id="path2481" />
      <path
         d="M 83.192001,174.57831 81.16215,170.3243 h 0.967383 l 1.277442,2.76159 1.281576,-2.76159 h 0.967383 l -2.033985,4.25401 z"
         style="font-style:normal;font-variant:normal;font-weight:bold;font-stretch:normal;font-size:8.46667px;font-family:'Caviar Dreams';-inkscape-font-specification:'Caviar Dreams Bold';fill:#78d8c8;fill-opacity:1;stroke-width:0.264583"
         id="path2483" />
      <path
         d="m 87.346789,167.95959 v 6.61872 h -0.859896 v -6.61872 z"
         style="font-style:normal;font-variant:normal;font-weight:bold;font-stretch:normal;font-size:8.46667px;font-family:'Caviar Dreams';-inkscape-font-specification:'Caviar Dreams Bold';fill:#78d8c8;fill-opacity:1;stroke-width:0.264583"
         id="path2485" />
      <path
         d="m 89.632953,176.00871 h -0.905372 l 1.132748,-2.37711 -1.583367,-3.3073 h 0.963249 l 1.079005,2.32751 1.079004,-2.32751 h 0.959115 z"
         style="font-style:normal;font-variant:normal;font-weight:bold;font-stretch:normal;font-size:8.46667px;font-family:'Caviar Dreams';-inkscape-font-specification:'Caviar Dreams Bold';fill:#78d8c8;fill-opacity:1;stroke-width:0.264583"
         id="path2487" />
    </g>
  </g>
</svg>
