<?xml version="1.0" encoding="UTF-8" standalone="no"?>
<!-- Created with Inkscape (http://www.inkscape.org/) -->

<svg
   width="66.400002mm"
   height="128.5mm"
   viewBox="0 0 66.400001 128.5"
   version="1.1"
   id="svg5"
   inkscape:version="1.1.2 (0a00cf5339, 2022-02-04)"
   sodipodi:docname="vbrt.svg"
   xmlns:inkscape="http://www.inkscape.org/namespaces/inkscape"
   xmlns:sodipodi="http://sodipodi.sourceforge.net/DTD/sodipodi-0.dtd"
   xmlns:xlink="http://www.w3.org/1999/xlink"
   xmlns="http://www.w3.org/2000/svg"
   xmlns:svg="http://www.w3.org/2000/svg">
  <sodipodi:namedview
     id="namedview7"
     pagecolor="#ffffff"
     bordercolor="#666666"
     borderopacity="1.0"
     inkscape:pageshadow="2"
     inkscape:pageopacity="0.0"
     inkscape:pagecheckerboard="0"
     inkscape:document-units="mm"
     showgrid="false"
     inkscape:zoom="3.3260207"
     inkscape:cx="127.93065"
     inkscape:cy="77.720502"
     inkscape:window-width="1866"
     inkscape:window-height="1050"
     inkscape:window-x="1920"
     inkscape:window-y="0"
     inkscape:window-maximized="1"
     inkscape:current-layer="layer1" />
  <defs
     id="defs2">
    <marker
       style="overflow:visible;"
       id="Arrow2Mend"
       refX="0.0"
       refY="0.0"
       orient="auto"
       inkscape:stockid="Arrow2Mend"
       inkscape:isstock="true">
      <path
         transform="scale(0.6) rotate(180) translate(0,0)"
         d="M 8.7185878,4.0337352 L -2.2072895,0.016013256 L 8.7185884,-4.0017078 C 6.9730900,-1.6296469 6.9831476,1.6157441 8.7185878,4.0337352 z "
         style="stroke:context-stroke;fill-rule:evenodd;fill:context-stroke;stroke-width:0.62500000;stroke-linejoin:round;"
         id="path17753" />
    </marker>
    <marker
       style="overflow:visible;"
       id="Arrow1Send"
       refX="0.0"
       refY="0.0"
       orient="auto"
       inkscape:stockid="Arrow1Send"
       inkscape:isstock="true">
      <path
         transform="scale(0.2) rotate(180) translate(6,0)"
         style="fill-rule:evenodd;fill:context-stroke;stroke:context-stroke;stroke-width:1.0pt;"
         d="M 0.0,0.0 L 5.0,-5.0 L -12.5,0.0 L 5.0,5.0 L 0.0,0.0 z "
         id="path17741" />
    </marker>
    <marker
       style="overflow:visible;"
       id="Arrow2Lend"
       refX="0.0"
       refY="0.0"
       orient="auto"
       inkscape:stockid="Arrow2Lend"
       inkscape:isstock="true">
      <path
         transform="scale(1.1) rotate(180) translate(1,0)"
         d="M 8.7185878,4.0337352 L -2.2072895,0.016013256 L 8.7185884,-4.0017078 C 6.9730900,-1.6296469 6.9831476,1.6157441 8.7185878,4.0337352 z "
         style="stroke:context-stroke;fill-rule:evenodd;fill:context-stroke;stroke-width:0.62500000;stroke-linejoin:round;"
         id="path17747" />
    </marker>
    <linearGradient
       inkscape:collect="always"
       id="linearGradient1104">
      <stop
         style="stop-color:#25232d;stop-opacity:1"
         offset="0"
         id="stop1100" />
      <stop
         style="stop-color:#0aa0ab;stop-opacity:1"
         offset="1"
         id="stop1102" />
    </linearGradient>
    <linearGradient
       inkscape:collect="always"
       xlink:href="#linearGradient1104"
       id="linearGradient1106"
       x1="0"
       y1="3.8857806e-15"
       x2="66.400002"
       y2="128.5"
       gradientUnits="userSpaceOnUse" />
  </defs>
  <g
     inkscape:label="Layer 1"
     inkscape:groupmode="layer"
     id="layer1">
    <rect
       style="display:inline;opacity:0.992;fill:url(#linearGradient1106);fill-opacity:1;stroke:none;stroke-width:0.605728;stroke-linecap:butt;stroke-linejoin:miter;stroke-miterlimit:4;stroke-dasharray:none;stroke-dashoffset:0;stroke-opacity:1"
       id="rect48062"
       width="66.400002"
       height="128.5"
       x="0"
       y="-1.110223e-16" />
    <rect
       style="opacity:0.992;fill:#100c11;fill-opacity:1;stroke:#e0ede6;stroke-width:0.26458333;stroke-linecap:round;stroke-miterlimit:4;stroke-dasharray:none"
       id="rect6247"
       width="18.430487"
       height="98.443527"
       x="46.071518"
       y="11.581209" />
    <path
       style="fill:#100c11;fill-opacity:1;stroke:#64f6ed;stroke-width:0.375882;stroke-linecap:round;stroke-linejoin:round;stroke-miterlimit:4;stroke-dasharray:none;stroke-opacity:1;paint-order:stroke fill markers"
       d="m 32.650067,112.16724 c -1.841439,-0.10908 -3.447292,-0.7729 -4.743035,-1.96067 -0.49382,-0.45267 -1.099532,-1.2356 -1.455378,-1.8812 -0.308769,-0.56019 -0.536939,-1.15315 -0.681597,-1.7713 -0.07734,-0.33049 -0.142051,-0.73076 -0.121466,-0.75128 0.02547,-0.0254 0.943211,0.0311 1.355725,0.0942 1.917566,0.2931 3.820048,0.6577 5.391611,1.46032 0.32015,0.1635 0.35219,0.19101 0.50045,-0.001 0.23886,-0.3096 0.5912,-0.59361 0.97585,-0.7866 0.32127,-0.16118 0.97098,-0.37799 1.01145,-0.33751 -0.11201,0.25341 -0.18632,0.55794 -0.21997,0.81385 -0.031,0.23556 0.0331,0.87589 0.0774,0.96311 0.55022,0.23837 1.30989,0.14008 1.89582,-0.0443 2.28399,-1.12037 2.93802,-3.04152 2.99879,-5.13643 0.0164,-0.56644 0.01,-0.59178 -0.16471,-0.63584 -0.52304,-0.19561 -1.24848,-1.06464 -0.79036,-0.93093 1.15392,0.33679 1.19821,0.32773 1.94168,-0.28872 0.32677,-0.27094 -0.0207,0.76125 -0.33271,1.00321 -0.30663,0.23028 -0.30832,0.23445 -0.21085,0.52164 0.27429,0.92557 0.38503,1.79818 0.29515,2.78171 -0.25472,2.56524 -1.79091,4.91055 -3.94626,6.02477 -0.88905,0.4596 -1.79727,0.73854 -2.69779,0.82857 -0.26846,0.0268 -0.87977,0.0464 -1.07977,0.0346 z"
       id="path10930"
       sodipodi:nodetypes="csssssscscsccccsscccsscc" />
    <g
       aria-label="vbrt by cvly"
       id="text22874"
       style="font-size:8.46667px;line-height:1.25;font-family:'Odin Rounded';-inkscape-font-specification:'Odin Rounded';text-align:end;text-anchor:end;fill:#64f6ed;stroke-width:0.375882">
      <path
         d="m 10.819961,121.65807 -2.0298515,-4.254 h 0.9673832 l 1.2774423,2.76159 1.281576,-2.76159 h 0.967383 l -2.033985,4.254 z"
         style="font-weight:bold;font-family:'Caviar Dreams';-inkscape-font-specification:'Caviar Dreams Bold'"
         id="path31003" />
      <path
         d="m 14.970613,119.08252 v 0.66559 q 0.07855,0.38861 0.396876,0.70694 0.434082,0.42994 1.045931,0.42994 0.611849,0 1.041797,-0.42994 0.434082,-0.42995 0.434082,-1.0418 0,-0.60772 -0.434082,-1.0418 -0.429948,-0.43408 -1.041797,-0.43408 -0.611849,0 -1.045931,0.43408 -0.318327,0.31833 -0.396876,0.71107 z m 0,2.04639 v 0.52916 h -0.855762 v -6.61458 h 0.855762 v 2.6541 q 0.620118,-0.64079 1.442807,-0.64079 0.975651,0 1.661915,0.6904 0.690397,0.6904 0.690397,1.66605 0,0.97565 -0.690397,1.66605 -0.686264,0.69039 -1.661915,0.69039 -0.822689,0 -1.442807,-0.64078 z"
         style="font-weight:bold;font-family:'Caviar Dreams';-inkscape-font-specification:'Caviar Dreams Bold'"
         id="path31005" />
      <path
         d="m 20.758376,117.97871 q 0.479558,-0.64906 1.178223,-0.68213 v 0.88884 q -0.467155,0.0248 -0.744141,0.30179 -0.417545,0.41341 -0.434082,0.98392 v 2.18694 h -0.855762 v -4.254 h 0.855762 z"
         style="font-weight:bold;font-family:'Caviar Dreams';-inkscape-font-specification:'Caviar Dreams Bold'"
         id="path31007" />
      <path
         d="m 23.449686,117.40407 v -1.59577 h 0.855762 v 1.59577 h 0.764812 v 0.85576 h -0.764812 v 3.39824 h -0.855762 v -3.39824 h -0.764811 v -0.85576 z"
         style="font-weight:bold;font-family:'Caviar Dreams';-inkscape-font-specification:'Caviar Dreams Bold'"
         id="path31009" />
      <path
         d="m 28.993535,115.04349 h 0.372071 v 3.12539 q 0.103353,-0.14056 0.235645,-0.27285 0.665592,-0.6656 1.604037,-0.6656 0.942578,0 1.604037,0.6656 0.665592,0.66559 0.665592,1.60817 0,0.93844 -0.665592,1.60404 -0.661459,0.66559 -1.604037,0.66559 -0.938445,0 -1.604037,-0.66559 -0.132292,-0.1323 -0.235645,-0.27286 v 0.82269 h -0.372071 z m 0.372071,4.0721 v 0.77722 q 0.107487,0.52916 0.51263,0.93431 0.549838,0.54983 1.327052,0.54983 0.777213,0 1.327051,-0.5457 0.549837,-0.54984 0.549837,-1.32705 0,-0.77721 -0.549837,-1.32705 -0.549838,-0.54984 -1.327051,-0.54984 -0.777214,0 -1.327052,0.54984 -0.405143,0.40514 -0.51263,0.93844 z"
         style="font-family:'Caviar Dreams';-inkscape-font-specification:'Caviar Dreams';fill:#e0ede6"
         id="path31011" />
      <path
         d="m 35.98846,121.29427 -0.917774,1.9141 h -0.363802 l 1.095541,-2.29857 -1.583367,-3.31143 h 0.42168 l 1.347722,2.91042 1.347722,-2.91042 h 0.417546 l -1.765268,3.70004 z"
         style="font-family:'Caviar Dreams';-inkscape-font-specification:'Caviar Dreams';fill:#e0ede6"
         id="path31013" />
      <path
         d="m 44.980163,120.19873 0.855762,0.30592 q -0.314193,0.43409 -0.454753,0.57465 -0.690397,0.69039 -1.666048,0.69039 -0.971518,0 -1.661915,-0.69039 -0.690398,-0.6904 -0.690398,-1.66605 0,-0.97565 0.690398,-1.66605 0.690397,-0.6904 1.661915,-0.6904 0.975651,0 1.666048,0.6904 0.14056,0.14056 0.454753,0.56637 l -0.855762,0.3142 q -0.165365,-0.20258 -0.223242,-0.26045 -0.429948,-0.42995 -1.041797,-0.42995 -0.607716,0 -1.041798,0.43408 -0.429948,0.42995 -0.429948,1.0418 0,0.60771 0.429948,1.0418 0.434082,0.42994 1.041798,0.42994 0.611849,0 1.045931,-0.42994 0.05374,-0.0579 0.219108,-0.25632 z"
         style="font-weight:bold;font-family:'Caviar Dreams';-inkscape-font-specification:'Caviar Dreams Bold'"
         id="path31015" />
      <path
         d="m 48.444552,121.65807 -2.029851,-4.254 h 0.967384 l 1.277441,2.76159 1.281577,-2.76159 h 0.967383 l -2.033985,4.254 z"
         style="font-weight:bold;font-family:'Caviar Dreams';-inkscape-font-specification:'Caviar Dreams Bold'"
         id="path31017" />
      <path
         d="m 52.59934,115.03935 v 6.61872 h -0.859896 v -6.61872 z"
         style="font-weight:bold;font-family:'Caviar Dreams';-inkscape-font-specification:'Caviar Dreams Bold'"
         id="path31019" />
      <path
         d="m 54.885508,123.08848 h -0.905372 l 1.132748,-2.37712 -1.583367,-3.30729 h 0.96325 l 1.079004,2.32751 1.079004,-2.32751 h 0.959115 z"
         style="font-weight:bold;font-family:'Caviar Dreams';-inkscape-font-specification:'Caviar Dreams Bold'"
         id="path31021" />
    </g>
    <g
       aria-label="out"
       id="text5016-6"
       style="font-size:3.52777px;line-height:1.25;font-family:'Caviar Dreams';-inkscape-font-specification:'Caviar Dreams';opacity:0.992;fill:#64f6ed;fill-opacity:1;stroke-width:0.264583"
       transform="translate(47.666762,-75.32141)">
      <path
         d="m 5.6366599,88.690197 q 0.4878251,0 0.8309564,0.345198 0.3451982,0.345198 0.3451982,0.833023 0,0.487825 -0.3451982,0.833024 -0.3431313,0.345198 -0.8309564,0.345198 -0.485758,0 -0.8309563,-0.345198 -0.3451983,-0.345199 -0.3451983,-0.833024 0,-0.487825 0.3451983,-0.833023 0.3451983,-0.345198 0.8309563,-0.345198 z m 0,0.440282 q -0.3059242,0 -0.522965,0.217041 -0.2149738,0.217041 -0.2149738,0.520898 0,0.305925 0.2149738,0.520898 0.2170408,0.214974 0.522965,0.214974 0.3059243,0 0.520898,-0.214974 0.2170409,-0.214973 0.2170409,-0.520898 0,-0.303857 -0.2170409,-0.520898 -0.2149737,-0.217041 -0.520898,-0.217041 z"
         style="font-style:normal;font-variant:normal;font-weight:bold;font-stretch:normal;font-size:4.23333px;font-family:'Caviar Dreams';-inkscape-font-specification:'Caviar Dreams Bold';fill:#64f6ed;fill-opacity:1;stroke-width:0.264583"
         id="path6130" />
      <path
         d="m 8.2101442,91.019768 q -0.4030758,0 -0.6490555,-0.245979 -0.2459796,-0.24598 -0.2521807,-0.615983 v -1.293977 h 0.4299475 v 1.277441 q 0,0.183968 0.1343586,0.316259 0.1343586,0.132292 0.334863,0.132292 0.183968,0 0.3183266,-0.130225 0.1364257,-0.132291 0.1364257,-0.318326 v -1.277441 h 0.4278805 v 1.293977 q -0.0062,0.370003 -0.2501138,0.615983 -0.2459796,0.245979 -0.6304519,0.245979 z"
         style="font-style:normal;font-variant:normal;font-weight:bold;font-stretch:normal;font-size:4.23333px;font-family:'Caviar Dreams';-inkscape-font-specification:'Caviar Dreams Bold';fill:#64f6ed;fill-opacity:1;stroke-width:0.264583"
         id="path6132" />
      <path
         d="m 9.9692086,88.863829 v -0.797883 h 0.4278804 v 0.797883 h 0.382405 v 0.427881 h -0.382405 v 1.699119 H 9.9692086 V 89.29171 H 9.5868033 v -0.427881 z"
         style="font-style:normal;font-variant:normal;font-weight:bold;font-stretch:normal;font-size:4.23333px;font-family:'Caviar Dreams';-inkscape-font-specification:'Caviar Dreams Bold';fill:#64f6ed;fill-opacity:1;stroke-width:0.264583"
         id="path6134" />
    </g>
    <g
       aria-label="freq"
       transform="rotate(-75,-2.3618237,-6.9445931)"
       id="text4825"
       style="font-size:4.23333px;line-height:1.25;font-family:'Odin Rounded';-inkscape-font-specification:'Odin Rounded';stroke-width:0.264583">
      <path
         d="m -12.988445,39.726082 v 1.703254 h -0.429948 v -1.703254 h -0.190169 v -0.42788 h 0.190169 v -0.382406 q 0.01447,-0.264583 0.202572,-0.454752 0.194303,-0.181901 0.450618,-0.181901 0.128157,0 0.388606,0.08888 l -0.142626,0.405143 q -0.181901,-0.07648 -0.229444,-0.07648 -0.08682,0 -0.167431,0.07235 -0.06821,0.06821 -0.07235,0.163297 v 0.365869 h 0.382405 v 0.42788 z"
         style="font-weight:bold;font-family:'Caviar Dreams';-inkscape-font-specification:'Caviar Dreams Bold';fill:#64f6ed"
         id="path18588" />
      <path
         d="m -11.762681,39.58759 q 0.239778,-0.324528 0.589111,-0.341065 v 0.444417 q -0.233578,0.0124 -0.37207,0.150895 -0.208773,0.206706 -0.217041,0.49196 v 1.093472 h -0.427881 v -2.127 h 0.427881 z"
         style="font-weight:bold;font-family:'Caviar Dreams';-inkscape-font-specification:'Caviar Dreams Bold';fill:#64f6ed"
         id="path18590" />
      <path
         d="m -10.104903,40.945645 q 0.1074874,0.09509 0.390674,0.09509 0.3059242,0 0.522965,-0.214974 0.026872,-0.02894 0.109554,-0.128158 l 0.4278805,0.152962 q -0.1570963,0.217041 -0.2273761,0.287321 -0.3451983,0.345198 -0.8330234,0.345198 -0.485758,0 -0.830956,-0.345198 -0.345199,-0.345198 -0.345199,-0.833023 0,-0.487825 0.345199,-0.833024 0.345198,-0.345198 0.830956,-0.345198 0.4175452,0 0.7317376,0.252181 0.051676,0.04341 0.1012858,0.09302 0.02067,0.02067 0.1178221,0.130225 L -8.9783573,39.8191 Z m 0.7152017,-1.322916 q -0.072347,-0.05581 -0.3245277,-0.05581 -0.303857,0 -0.520898,0.217041 -0.214974,0.214974 -0.214974,0.520898 0,0.250114 0.05581,0.324528 z"
         style="font-weight:bold;font-family:'Caviar Dreams';-inkscape-font-specification:'Caviar Dreams Bold';fill:#64f6ed"
         id="path18592" />
      <path
         d="m -6.3635319,40.464021 v -0.316259 q -0.037207,-0.200505 -0.2005044,-0.363802 -0.2149737,-0.217041 -0.520898,-0.217041 -0.3059242,0 -0.522965,0.217041 -0.2149738,0.217041 -0.2149738,0.520898 0,0.305924 0.2149738,0.522965 0.2170408,0.214974 0.522965,0.214974 0.3059243,0 0.520898,-0.214974 0.1632974,-0.163298 0.2005044,-0.363802 z m 0,-1.016991 v -0.146761 h 0.4299476 v 2.842201 h -0.4299476 v -0.979784 q -0.3100583,0.320393 -0.7214024,0.320393 -0.4878251,0 -0.8330233,-0.345198 -0.3431313,-0.345198 -0.3431313,-0.833023 0,-0.487825 0.3431313,-0.830957 0.3451982,-0.345198 0.8330233,-0.345198 0.4113441,0 0.7214024,0.318327 z"
         style="font-weight:bold;font-family:'Caviar Dreams';-inkscape-font-specification:'Caviar Dreams Bold';fill:#64f6ed"
         id="path18594" />
    </g>
    <g
       aria-label="pitch"
       transform="rotate(-75,2.5427689,-1.7115659)"
       id="text4825-3"
       style="font-size:4.23333px;line-height:1.25;font-family:'Odin Rounded';-inkscape-font-specification:'Odin Rounded';stroke-width:0.264583">
      <path
         d="m -13.180681,6.7864508 v 0.3327959 q 0.03927,0.1963703 0.200504,0.3555336 0.214974,0.2149737 0.520898,0.2149737 0.305924,0 0.520898,-0.2149737 0.217041,-0.2170409 0.217041,-0.5229651 0,-0.3038572 -0.217041,-0.520898 -0.214974,-0.2170408 -0.520898,-0.2170408 -0.305924,0 -0.520898,0.2170408 -0.16123,0.1591633 -0.200504,0.3555336 z m 0,1.0231925 v 0.9797843 h -0.427881 V 5.9472262 h 0.427881 v 0.1922362 q 0.310058,-0.3638018 0.721402,-0.3638018 0.487825,0 0.830956,0.3451983 0.345199,0.3431312 0.345199,0.8309563 0,0.4878251 -0.345199,0.8330234 -0.343131,0.3451983 -0.830956,0.3451983 -0.411344,0 -0.721402,-0.3203936 z"
         style="font-weight:bold;font-family:'Caviar Dreams';-inkscape-font-specification:'Caviar Dreams Bold';fill:#64f6ed"
         id="path18597" />
      <path
         d="m -10.30334,5.9472262 v 2.1270002 h -0.42788 V 5.9472262 Z m -0.214974,-0.8743645 q 0.124024,0 0.212907,0.086816 0.08888,0.086816 0.08888,0.2129068 0,0.1260904 -0.08888,0.2129067 -0.08888,0.086816 -0.212907,0.086816 -0.121956,0 -0.210839,-0.086816 -0.08888,-0.086816 -0.08888,-0.2129067 0,-0.1260904 0.08888,-0.2129068 0.08888,-0.086816 0.210839,-0.086816 z"
         style="font-weight:bold;font-family:'Caviar Dreams';-inkscape-font-specification:'Caviar Dreams Bold';fill:#64f6ed"
         id="path18599" />
      <path
         d="M -9.3897013,5.9472262 V 5.1493428 h 0.4278805 v 0.7978834 h 0.3824053 V 6.3751067 H -8.9618208 V 8.0742264 H -9.3897013 V 6.3751067 H -9.7721066 V 5.9472262 Z"
         style="font-weight:bold;font-family:'Caviar Dreams';-inkscape-font-specification:'Caviar Dreams Bold';fill:#64f6ed"
         id="path18601" />
      <path
         d="m -6.3966049,7.3445558 0.4278805,0.1529621 q -0.1570963,0.2170408 -0.2273762,0.2873207 -0.3451982,0.3451983 -0.8330233,0.3451983 -0.4857581,0 -0.8309564,-0.3451983 -0.3451983,-0.3451983 -0.3451983,-0.8330234 0,-0.4878251 0.3451983,-0.8330234 0.3451983,-0.3451983 0.8309564,-0.3451983 0.4878251,0 0.8330233,0.3451983 0.07028,0.07028 0.2273762,0.2831866 l -0.4278805,0.1570963 q -0.082682,-0.1012858 -0.111621,-0.1302245 -0.2149738,-0.2149738 -0.520898,-0.2149738 -0.3038572,0 -0.520898,0.2170408 -0.2149738,0.2149738 -0.2149738,0.520898 0,0.3038572 0.2149738,0.520898 0.2170408,0.2149738 0.520898,0.2149738 0.3059242,0 0.522965,-0.2149738 0.026872,-0.028939 0.109554,-0.1281574 z"
         style="font-weight:bold;font-family:'Caviar Dreams';-inkscape-font-specification:'Caviar Dreams Bold';fill:#64f6ed"
         id="path18603" />
      <path
         d="m -5.4726308,4.7669375 h 0.4299476 v 1.4097319 q 0.1798338,-0.3451983 0.520898,-0.3451983 0.3410642,0 0.5436356,0.2459796 0.2046385,0.2439126 0.2108397,0.6139155 V 8.0742264 H -4.1951904 V 6.7079027 q 0,-0.183968 -0.1054199,-0.3141925 -0.1033527,-0.1322915 -0.3286618,-0.1322915 -0.2666502,0 -0.4134111,0.2852536 v 1.5275541 h -0.4299476 z"
         style="font-weight:bold;font-family:'Caviar Dreams';-inkscape-font-specification:'Caviar Dreams Bold';fill:#64f6ed"
         id="path18605" />
    </g>
    <g
       aria-label="cents"
       transform="rotate(-75,1.193453,-2.9521349)"
       id="text4825-7"
       style="font-size:4.23333px;line-height:1.25;font-family:'Odin Rounded';-inkscape-font-specification:'Odin Rounded';stroke-width:0.264583">
      <path
         d="m -11.799888,16.024171 0.42788,0.152962 q -0.157096,0.217041 -0.227376,0.287321 -0.345198,0.345198 -0.833023,0.345198 -0.485758,0 -0.830956,-0.345198 -0.345199,-0.345199 -0.345199,-0.833024 0,-0.487825 0.345199,-0.833023 0.345198,-0.345198 0.830956,-0.345198 0.487825,0 0.833023,0.345198 0.07028,0.07028 0.227376,0.283186 l -0.42788,0.157097 q -0.08268,-0.101286 -0.111621,-0.130225 -0.214974,-0.214974 -0.520898,-0.214974 -0.303857,0 -0.520898,0.217041 -0.214974,0.214974 -0.214974,0.520898 0,0.303857 0.214974,0.520898 0.217041,0.214974 0.520898,0.214974 0.305924,0 0.522965,-0.214974 0.02687,-0.02894 0.109554,-0.128157 z"
         style="font-weight:bold;font-family:'Caviar Dreams';-inkscape-font-specification:'Caviar Dreams Bold';fill:#64f6ed"
         id="path18608" />
      <path
         d="m -10.214456,16.272217 q 0.107487,0.09508 0.3906732,0.09508 0.3059242,0 0.522965,-0.214974 0.026872,-0.02894 0.109554,-0.128157 l 0.4278805,0.152962 q -0.1570963,0.217041 -0.2273762,0.287321 -0.3451982,0.345198 -0.8330233,0.345198 -0.4857582,0 -0.8309562,-0.345198 -0.345198,-0.345199 -0.345198,-0.833024 0,-0.487825 0.345198,-0.833023 0.345198,-0.345198 0.8309562,-0.345198 0.4175452,0 0.7317376,0.25218 0.051676,0.04341 0.1012857,0.09302 0.020671,0.02067 0.1178222,0.130224 l -0.2149738,0.217041 z m 0.7152009,-1.322915 q -0.072347,-0.05581 -0.3245277,-0.05581 -0.3038572,0 -0.5208982,0.217041 -0.214974,0.214974 -0.214974,0.520898 0,0.250114 0.05581,0.324528 z"
         style="font-weight:bold;font-family:'Caviar Dreams';-inkscape-font-specification:'Caviar Dreams Bold';fill:#64f6ed"
         id="path18610" />
      <path
         d="m -7.8373423,15.197349 v 1.556492 h -0.4299476 v -2.127 h 0.4299476 v 0.248047 q 0.1343586,-0.363802 0.5395015,-0.363802 0.3451982,0 0.5477697,0.24598 0.2046385,0.243912 0.2108396,0.613915 v 1.38286 H -6.967112 v -1.366323 q 0,-0.183968 -0.1343586,-0.314193 -0.1343586,-0.132291 -0.3203936,-0.132291 -0.1839679,0 -0.3183265,0.128157 -0.074414,0.07648 -0.097152,0.128158 z"
         style="font-weight:bold;font-family:'Caviar Dreams';-inkscape-font-specification:'Caviar Dreams Bold';fill:#64f6ed"
         id="path18612" />
      <path
         d="m -5.6545316,14.626841 v -0.797883 h 0.4278805 v 0.797883 h 0.3824052 v 0.427881 h -0.3824052 v 1.699119 h -0.4278805 v -1.699119 h -0.3824053 v -0.427881 z"
         style="font-weight:bold;font-family:'Caviar Dreams';-inkscape-font-specification:'Caviar Dreams Bold';fill:#64f6ed"
         id="path18614" />
      <path
         d="m -3.9740158,16.162664 q 0.018604,0.09508 0.057878,0.134358 0.076481,0.07441 0.1819009,0.07441 0.1054199,0 0.1798339,-0.07441 0.076481,-0.07441 0.076481,-0.183968 0,-0.10542 -0.074414,-0.179834 -0.051676,-0.05168 -0.2211749,-0.159163 -0.2315102,-0.12609 -0.3286619,-0.223242 -0.1694985,-0.169498 -0.1694985,-0.40721 0,-0.239778 0.1694985,-0.409277 0.1694986,-0.171565 0.409277,-0.171565 0.2397785,0 0.3989418,0.16123 0.113688,0.113688 0.1446939,0.254248 l -0.4154782,0.119889 q -0.014469,-0.05168 -0.028939,-0.06821 -0.037207,-0.03721 -0.099219,-0.03721 -0.062012,0 -0.1074868,0.04547 -0.043408,0.04341 -0.043408,0.10542 0,0.06201 0.043408,0.10542 0.039274,0.03721 0.1777667,0.12609 0.2563149,0.14056 0.37207,0.256315 0.2005044,0.202572 0.2005044,0.481624 0,0.285254 -0.2005044,0.487825 -0.1984373,0.200505 -0.483691,0.200505 -0.2831866,0 -0.483691,-0.202572 -0.1384927,-0.138492 -0.1819009,-0.345198 z"
         style="font-weight:bold;font-family:'Caviar Dreams';-inkscape-font-specification:'Caviar Dreams Bold';fill:#64f6ed"
         id="path18616" />
    </g>
    <g
       aria-label="scale"
       transform="rotate(-75,-0.10039031,-4.248172)"
       id="text4825-35"
       style="font-size:4.23333px;line-height:1.25;font-family:'Odin Rounded';-inkscape-font-specification:'Odin Rounded';stroke-width:0.264583">
      <path
         d="m -13.182748,24.896022 q 0.0186,0.09508 0.05788,0.134359 0.07648,0.07441 0.181901,0.07441 0.10542,0 0.179834,-0.07441 0.07648,-0.07441 0.07648,-0.183968 0,-0.10542 -0.07441,-0.179834 -0.05168,-0.05168 -0.221175,-0.159164 -0.23151,-0.12609 -0.328662,-0.223242 -0.169498,-0.169498 -0.169498,-0.407209 0,-0.239779 0.169498,-0.409277 0.169499,-0.171566 0.409277,-0.171566 0.239779,0 0.398942,0.16123 0.113688,0.113688 0.144694,0.254248 l -0.415478,0.119889 q -0.01447,-0.05168 -0.02894,-0.06821 -0.03721,-0.03721 -0.09922,-0.03721 -0.06201,0 -0.107487,0.04548 -0.04341,0.04341 -0.04341,0.10542 0,0.06201 0.04341,0.105419 0.03927,0.03721 0.177767,0.126091 0.256315,0.14056 0.37207,0.256315 0.200504,0.202571 0.200504,0.481624 0,0.285253 -0.200504,0.487825 -0.198437,0.200504 -0.483691,0.200504 -0.283187,0 -0.483691,-0.202571 -0.138493,-0.138493 -0.181901,-0.345199 z"
         style="font-weight:bold;font-family:'Caviar Dreams';-inkscape-font-specification:'Caviar Dreams Bold';fill:#64f6ed"
         id="path18619" />
      <path
         d="m -10.047025,24.757529 0.4278804,0.152962 q -0.1570963,0.217041 -0.2273761,0.287321 -0.3451983,0.345198 -0.8330233,0.345198 -0.485758,0 -0.830956,-0.345198 -0.345199,-0.345198 -0.345199,-0.833023 0,-0.487825 0.345199,-0.833024 0.345198,-0.345198 0.830956,-0.345198 0.487825,0 0.8330233,0.345198 0.07028,0.07028 0.2273761,0.283187 l -0.4278804,0.157096 q -0.08268,-0.101286 -0.111621,-0.130224 -0.214974,-0.214974 -0.520898,-0.214974 -0.303857,0 -0.520898,0.217041 -0.214974,0.214973 -0.214974,0.520898 0,0.303857 0.214974,0.520898 0.217041,0.214973 0.520898,0.214973 0.305924,0 0.522965,-0.214973 0.02687,-0.02894 0.109554,-0.128158 z"
         style="font-weight:bold;font-family:'Caviar Dreams';-inkscape-font-specification:'Caviar Dreams Bold';fill:#64f6ed"
         id="path18621" />
      <path
         d="m -7.2792374,24.523952 v -0.314193 q -0.037207,-0.200504 -0.1984373,-0.363801 -0.2170409,-0.214974 -0.520898,-0.214974 -0.3059243,0 -0.5229651,0.214974 -0.2149738,0.214973 -0.2149738,0.520898 0,0.303857 0.2149738,0.520898 0.2170408,0.214973 0.5229651,0.214973 0.3038571,0 0.520898,-0.214973 0.1612303,-0.163298 0.1984373,-0.363802 z m 0,-1.014924 V 23.3602 h 0.4299476 v 2.129067 h -0.4299476 v -0.26665 q -0.3100583,0.320393 -0.7193353,0.320393 -0.4878251,0 -0.8330234,-0.343131 -0.3431312,-0.345198 -0.3431312,-0.833023 0,-0.487825 0.3431312,-0.830957 0.3451983,-0.345198 0.8330234,-0.345198 0.409277,0 0.7193353,0.318327 z"
         style="font-weight:bold;font-family:'Caviar Dreams';-inkscape-font-specification:'Caviar Dreams Bold';fill:#64f6ed"
         id="path18623" />
      <path
         d="M -5.7971588,22.177844 V 25.4872 h -0.4299476 v -3.309356 z"
         style="font-weight:bold;font-family:'Caviar Dreams';-inkscape-font-specification:'Caviar Dreams Bold';fill:#64f6ed"
         id="path18625" />
      <path
         d="m -4.5155845,25.005576 q 0.1074869,0.09508 0.3906735,0.09508 0.3059242,0 0.5229651,-0.214973 0.026872,-0.02894 0.1095539,-0.128158 l 0.4278805,0.152962 q -0.1570962,0.217041 -0.2273761,0.287321 -0.3451983,0.345198 -0.8330234,0.345198 -0.485758,0 -0.8309563,-0.345198 -0.3451983,-0.345198 -0.3451983,-0.833023 0,-0.487825 0.3451983,-0.833024 0.3451983,-0.345198 0.8309563,-0.345198 0.4175452,0 0.7317377,0.252181 0.051676,0.04341 0.1012857,0.09302 0.020671,0.02067 0.1178222,0.130225 l -0.2149738,0.217041 z m 0.7152012,-1.322916 q -0.072347,-0.05581 -0.3245277,-0.05581 -0.3038572,0 -0.520898,0.217041 -0.2149738,0.214973 -0.2149738,0.520898 0,0.250113 0.05581,0.324527 z"
         style="font-weight:bold;font-family:'Caviar Dreams';-inkscape-font-specification:'Caviar Dreams Bold';fill:#64f6ed"
         id="path18627" />
    </g>
    <g
       aria-label="mirror"
       transform="rotate(-75,-1.4006632,-5.5377895)"
       id="text4825-9"
       style="font-size:4.23333px;line-height:1.25;font-family:'Odin Rounded';-inkscape-font-specification:'Odin Rounded';stroke-width:0.264583">
      <path
         d="m -13.608562,31.747328 h 0.427881 v 0.198438 q 0.124023,-0.312126 0.47749,-0.312126 0.351399,0 0.394807,0.355534 0.101286,-0.355534 0.558105,-0.355534 0.450618,0 0.450618,0.54777 v 1.692919 h -0.429947 V 32.37778 q 0,-0.314192 -0.254248,-0.314192 -0.10542,0 -0.181901,0.07441 -0.07648,0.07441 -0.07648,0.500227 v 1.2361 h -0.427881 l 0.0021,-1.496549 q 0,-0.314192 -0.256315,-0.314192 -0.10542,0 -0.181901,0.07441 -0.06615,0.06408 -0.07441,0.338997 v 1.39733 h -0.427881 z"
         style="font-weight:bold;font-family:'Caviar Dreams';-inkscape-font-specification:'Caviar Dreams Bold';fill:#64f6ed"
         id="path18630" />
      <path
         d="m -10.214456,31.747328 v 2.127001 h -0.427881 v -2.127001 z m -0.214974,-0.874364 q 0.124023,0 0.212906,0.08682 0.08888,0.08682 0.08888,0.212907 0,0.12609 -0.08888,0.212907 -0.08888,0.08682 -0.212906,0.08682 -0.121957,0 -0.21084,-0.08682 -0.08888,-0.08682 -0.08888,-0.212907 0,-0.12609 0.08888,-0.212907 0.08888,-0.08682 0.21084,-0.08682 z"
         style="font-weight:bold;font-family:'Caviar Dreams';-inkscape-font-specification:'Caviar Dreams Bold';fill:#64f6ed"
         id="path18632" />
      <path
         d="m -9.1313191,32.034649 q 0.2397784,-0.324528 0.5891108,-0.341064 v 0.444417 q -0.2335772,0.0124 -0.37207,0.150895 -0.2087726,0.206706 -0.2170408,0.491959 v 1.093473 h -0.4278805 v -2.127001 h 0.4278805 z"
         style="font-weight:bold;font-family:'Caviar Dreams';-inkscape-font-specification:'Caviar Dreams Bold';fill:#64f6ed"
         id="path18634" />
      <path
         d="m -7.6988497,32.034649 q 0.2397784,-0.324528 0.5891108,-0.341064 v 0.444417 q -0.2335773,0.0124 -0.37207,0.150895 -0.2087726,0.206706 -0.2170408,0.491959 v 1.093473 h -0.4278805 v -2.127001 h 0.4278805 z"
         style="font-weight:bold;font-family:'Caviar Dreams';-inkscape-font-specification:'Caviar Dreams Bold';fill:#64f6ed"
         id="path18636" />
      <path
         d="m -5.6834704,31.573696 q 0.4878251,0 0.8309563,0.345198 0.3451983,0.345198 0.3451983,0.833023 0,0.487826 -0.3451983,0.833024 -0.3431312,0.345198 -0.8309563,0.345198 -0.4857581,0 -0.8309563,-0.345198 -0.3451983,-0.345198 -0.3451983,-0.833024 0,-0.487825 0.3451983,-0.833023 0.3451982,-0.345198 0.8309563,-0.345198 z m 0,0.440283 q -0.3059242,0 -0.5229651,0.21704 -0.2149737,0.217041 -0.2149737,0.520898 0,0.305925 0.2149737,0.520898 0.2170409,0.214974 0.5229651,0.214974 0.3059242,0 0.520898,-0.214974 0.2170408,-0.214973 0.2170408,-0.520898 0,-0.303857 -0.2170408,-0.520898 -0.2149738,-0.21704 -0.520898,-0.21704 z"
         style="font-weight:bold;font-family:'Caviar Dreams';-inkscape-font-specification:'Caviar Dreams Bold';fill:#64f6ed"
         id="path18638" />
      <path
         d="m -3.5833426,32.034649 q 0.2397784,-0.324528 0.5891108,-0.341064 v 0.444417 q -0.2335772,0.0124 -0.37207,0.150895 -0.2087726,0.206706 -0.2170408,0.491959 v 1.093473 h -0.4278805 v -2.127001 h 0.4278805 z"
         style="font-weight:bold;font-family:'Caviar Dreams';-inkscape-font-specification:'Caviar Dreams Bold';fill:#64f6ed"
         id="path18640" />
    </g>
    <g
       aria-label="poly"
       transform="rotate(-90,-0.26458333,-0.79374999)"
       id="text4825-2"
       style="font-size:4.23333px;line-height:1.25;font-family:'Odin Rounded';-inkscape-font-specification:'Odin Rounded';stroke-width:0.264583">
      <path
         d="m -108.60789,52.778585 v 0.332796 q 0.0393,0.19637 0.2005,0.355533 0.21497,0.214974 0.5209,0.214974 0.30592,0 0.5209,-0.214974 0.21704,-0.21704 0.21704,-0.522965 0,-0.303857 -0.21704,-0.520898 -0.21498,-0.217041 -0.5209,-0.217041 -0.30593,0 -0.5209,0.217041 -0.16123,0.159164 -0.2005,0.355534 z m 0,1.023192 v 0.979785 h -0.42788 V 51.93936 h 0.42788 v 0.192236 q 0.31005,-0.363801 0.7214,-0.363801 0.48782,0 0.83095,0.345198 0.3452,0.343131 0.3452,0.830956 0,0.487825 -0.3452,0.833024 -0.34313,0.345198 -0.83095,0.345198 -0.41135,0 -0.7214,-0.320394 z"
         style="font-weight:bold;font-family:'Caviar Dreams';-inkscape-font-specification:'Caviar Dreams Bold';fill:#64f6ed"
         id="path18643" />
      <path
         d="m -105.14144,51.765728 q 0.48782,0 0.83095,0.345198 0.3452,0.345198 0.3452,0.833023 0,0.487825 -0.3452,0.833024 -0.34313,0.345198 -0.83095,0.345198 -0.48576,0 -0.83096,-0.345198 -0.3452,-0.345199 -0.3452,-0.833024 0,-0.487825 0.3452,-0.833023 0.3452,-0.345198 0.83096,-0.345198 z m 0,0.440282 q -0.30593,0 -0.52297,0.217041 -0.21497,0.217041 -0.21497,0.520898 0,0.305925 0.21497,0.520898 0.21704,0.214974 0.52297,0.214974 0.30592,0 0.5209,-0.214974 0.21704,-0.214973 0.21704,-0.520898 0,-0.303857 -0.21704,-0.520898 -0.21498,-0.217041 -0.5209,-0.217041 z"
         style="font-weight:bold;font-family:'Caviar Dreams';-inkscape-font-specification:'Caviar Dreams Bold';fill:#64f6ed"
         id="path18645" />
      <path
         d="m -103.03925,50.757005 v 3.309355 h -0.42994 v -3.309355 z"
         style="font-weight:bold;font-family:'Caviar Dreams';-inkscape-font-specification:'Caviar Dreams Bold';fill:#64f6ed"
         id="path18647" />
      <path
         d="m -101.89616,54.781562 h -0.45269 l 0.56637,-1.188557 -0.79168,-1.653645 h 0.48163 l 0.5395,1.163753 0.5395,-1.163753 h 0.47956 z"
         style="font-weight:bold;font-family:'Caviar Dreams';-inkscape-font-specification:'Caviar Dreams Bold';fill:#64f6ed"
         id="path18649" />
    </g>
    <g
       id="path17658"
       transform="translate(0.52916667,-1.0583333)">
      <path
         style="color:#000000;fill:#e0ede6;-inkscape-stroke:none"
         d="m 49.210937,100.43555 v 4.86133 h 1.304688 v -0.26368 h -1.041016 v -4.59765 z"
         id="path18237" />
      <g
         id="g18227">
        <g
           id="path18229">
          <path
             style="color:#000000;fill:#e0ede6;fill-rule:evenodd;stroke-width:0.0992187;stroke-linejoin:round;-inkscape-stroke:none"
             d="m 48.702935,101.81971 0.637813,-1.73449 0.637813,1.73449 c -0.376565,-0.2771 -0.89177,-0.27551 -1.275626,0 z"
             id="path18233" />
          <path
             style="color:#000000;fill:#e0ede6;fill-rule:evenodd;stroke-linejoin:round;-inkscape-stroke:none"
             d="m 49.339844,100.03516 a 0.04961431,0.04961431 0 0 0 -0.04492,0.0332 l -0.638672,1.73437 a 0.04961431,0.04961431 0 0 0 0.07617,0.0567 c 0.366846,-0.26331 0.857703,-0.26425 1.216797,0 a 0.04961431,0.04961431 0 0 0 0.07617,-0.0567 l -0.638672,-1.73437 a 0.04961431,0.04961431 0 0 0 -0.04687,-0.0332 z m 0,0.1914 0.570312,1.55274 c -0.353172,-0.21106 -0.780523,-0.20985 -1.138672,0 z"
             id="path18235" />
        </g>
      </g>
    </g>
  </g>
</svg>
