<?xml version="1.0" encoding="UTF-8" standalone="no"?>
<svg
   xmlns:dc="http://purl.org/dc/elements/1.1/"
   xmlns:cc="http://creativecommons.org/ns#"
   xmlns:rdf="http://www.w3.org/1999/02/22-rdf-syntax-ns#"
   xmlns:svg="http://www.w3.org/2000/svg"
   xmlns="http://www.w3.org/2000/svg"
   xmlns:sodipodi="http://sodipodi.sourceforge.net/DTD/sodipodi-0.dtd"
   xmlns:inkscape="http://www.inkscape.org/namespaces/inkscape"
   width="15.24mm"
   height="128.5mm"
   viewBox="0 0 15.24 128.5"
   version="1.1"
   id="svg2424"
   sodipodi:docname="whl.svg"
   inkscape:version="1.0.2-2 (e86c870879, 2021-01-15)">
  <defs
     id="defs2418" />
  <sodipodi:namedview
     id="base"
     pagecolor="#ffffff"
     bordercolor="#666666"
     borderopacity="1.0"
     inkscape:pageopacity="0.0"
     inkscape:pageshadow="2"
     inkscape:zoom="0.98994949"
     inkscape:cx="53.838632"
     inkscape:cy="385.52141"
     inkscape:document-units="mm"
     inkscape:current-layer="layer1"
     inkscape:document-rotation="0"
     showgrid="false"
     inkscape:pagecheckerboard="true"
     inkscape:window-width="1856"
     inkscape:window-height="1057"
     inkscape:window-x="56"
     inkscape:window-y="-8"
     inkscape:window-maximized="1" />
  <metadata
     id="metadata2421">
    <rdf:RDF>
      <cc:Work
         rdf:about="">
        <dc:format>image/svg+xml</dc:format>
        <dc:type
           rdf:resource="http://purl.org/dc/dcmitype/StillImage" />
        <dc:title></dc:title>
      </cc:Work>
    </rdf:RDF>
  </metadata>
  <g
     inkscape:label="Layer 1"
     inkscape:groupmode="layer"
     id="layer1"
     style="opacity:0.996">
    <rect
       style="display:inline;fill:#1c1c21;fill-opacity:1;stroke:none;stroke-width:0.290191;stroke-linecap:butt;stroke-linejoin:miter;stroke-miterlimit:4;stroke-dasharray:none;stroke-dashoffset:0;stroke-opacity:1"
       id="rect48062"
       width="15.24"
       height="128.5"
       x="-4.4408921e-16"
       y="0" />
    <g
       aria-label="spc by cvly"
       id="text3734"
       style="font-size:3.52777px;line-height:1.25;font-family:'Caviar Dreams';-inkscape-font-specification:'Caviar Dreams';text-align:center;text-anchor:middle;fill:#78d8c8;fill-opacity:1;stroke-width:0.264583"
       transform="translate(7.7889e-4)">
      <path
         d="m 2.8078947,125.99679 0.4278805,0.15296 q -0.1570962,0.21704 -0.2273761,0.28732 -0.3451983,0.3452 -0.8330234,0.3452 -0.485758,0 -0.8309563,-0.3452 -0.34519829,-0.3452 -0.34519829,-0.83302 0,-0.48783 0.34519829,-0.83302 0.3451983,-0.3452 0.8309563,-0.3452 0.4878251,0 0.8330234,0.3452 0.07028,0.0703 0.2273761,0.28318 l -0.4278805,0.1571 q -0.082682,-0.10129 -0.111621,-0.13023 -0.2149738,-0.21497 -0.520898,-0.21497 -0.3038571,0 -0.520898,0.21704 -0.2149738,0.21497 -0.2149738,0.5209 0,0.30386 0.2149738,0.5209 0.2170409,0.21497 0.520898,0.21497 0.3059242,0 0.5229651,-0.21497 0.026872,-0.0289 0.1095539,-0.12816 z"
         style="font-style:normal;font-variant:normal;font-weight:bold;font-stretch:normal;font-size:4.23333px;font-family:'Caviar Dreams';-inkscape-font-specification:'Caviar Dreams Bold';text-align:start;writing-mode:lr-tb;text-anchor:start;fill:#78d8c8;fill-opacity:1;stroke-width:0.264583"
         id="path8925" />
      <path
         d="m 4.5400874,126.72646 -1.0149243,-2.127 h 0.483691 l 0.6387202,1.38079 0.6407872,-1.38079 h 0.483691 l -1.0169913,2.127 z"
         style="font-style:normal;font-variant:normal;font-weight:bold;font-stretch:normal;font-size:4.23333px;font-family:'Caviar Dreams';-inkscape-font-specification:'Caviar Dreams Bold';text-align:start;writing-mode:lr-tb;text-anchor:start;fill:#78d8c8;fill-opacity:1;stroke-width:0.264583"
         id="path8927" />
      <path
         d="m 6.6174782,123.4171 v 3.30936 H 6.1875307 v -3.30936 z"
         style="font-style:normal;font-variant:normal;font-weight:bold;font-stretch:normal;font-size:4.23333px;font-family:'Caviar Dreams';-inkscape-font-specification:'Caviar Dreams Bold';text-align:start;writing-mode:lr-tb;text-anchor:start;fill:#78d8c8;fill-opacity:1;stroke-width:0.264583"
         id="path8929" />
      <path
         d="M 7.7605598,127.44166 H 7.3078746 l 0.5663733,-1.18856 -0.7916823,-1.65364 h 0.4816239 l 0.5395015,1.16375 0.5395015,-1.16375 h 0.4795569 z"
         style="font-style:normal;font-variant:normal;font-weight:bold;font-stretch:normal;font-size:4.23333px;font-family:'Caviar Dreams';-inkscape-font-specification:'Caviar Dreams Bold';text-align:start;writing-mode:lr-tb;text-anchor:start;fill:#78d8c8;fill-opacity:1;stroke-width:0.264583"
         id="path8931" />
    </g>
    <path
       id="path15640"
       style="display:inline;fill:#161516;fill-opacity:1;stroke:#78d8c8;stroke-width:0.265;stroke-linecap:round;stroke-linejoin:miter;stroke-miterlimit:4;stroke-dasharray:none;stroke-dashoffset:0;stroke-opacity:1"
       d="m 13.17625,109.02338 c -0.606898,0.8956 -1.560811,1.03162 -2.235738,0.37735 0.06813,0.53065 0.538701,1.04332 1.050457,1.1322 0.04133,2.30086 -1.560135,4.19887 -3.6693143,3.93821 -0.04771,-0.48158 0.171595,-1.0093 0.623202,-1.50232 -0.549835,0.16075 -0.583755,0.11125 -1.047404,0.3809 -0.383814,0.22815 -0.683843,0.49751 -0.900276,0.78967 l -4.9334271,-1.3219 c 0.08401,0.90865 0.406739,1.80148 0.996006,2.57662 1.3841841,1.98369 4.1802591,2.73245 6.3758881,1.76054 2.5483873,-1.01056 3.9439093,-4.15217 3.0398903,-6.68281 0.286129,-0.12119 0.505923,-0.37147 0.637914,-0.84232 0.07693,-0.28383 0.0489,-0.29397 0.0628,-0.60614 z" />
    <path
       id="path15640-6"
       style="display:inline;opacity:0.996;fill:#161516;fill-opacity:1;stroke:#78d8c8;stroke-width:0.265;stroke-linecap:round;stroke-linejoin:miter;stroke-miterlimit:4;stroke-dasharray:none;stroke-dashoffset:0;stroke-opacity:1"
       d="m 13.174367,94.167389 c -0.606898,0.8956 -1.560811,1.03162 -2.235738,0.37735 0.06813,0.53065 0.538701,1.04332 1.050457,1.1322 0.04133,2.300861 -1.560135,4.198871 -3.6693141,3.938211 -0.04771,-0.48158 0.171595,-1.0093 0.623202,-1.50232 -0.549835,0.16075 -0.583755,0.11125 -1.047404,0.3809 -0.383814,0.22815 -0.683843,0.49751 -0.900276,0.78967 l -4.933427,-1.3219 c 0.08401,0.90865 0.406739,1.80148 0.996006,2.57662 1.384184,1.98369 4.180259,2.73245 6.375888,1.76054 2.5483871,-1.01056 3.9439091,-4.15217 3.0398901,-6.682811 0.286129,-0.12119 0.505923,-0.37147 0.637914,-0.84232 0.07693,-0.28383 0.0489,-0.29397 0.0628,-0.60614 z" />
    <path
       id="path15640-8"
       style="display:inline;opacity:0.996;fill:#161516;fill-opacity:1;stroke:#78d8c8;stroke-width:0.265;stroke-linecap:round;stroke-linejoin:miter;stroke-miterlimit:4;stroke-dasharray:none;stroke-dashoffset:0;stroke-opacity:1"
       d="m 13.174367,49.599383 c -0.606898,0.8956 -1.560811,1.03162 -2.235738,0.37735 0.06813,0.53065 0.538701,1.04332 1.050457,1.1322 0.04133,2.30086 -1.560135,4.19887 -3.6693141,3.93821 -0.04771,-0.48158 0.171595,-1.0093 0.623202,-1.50232 -0.549835,0.16075 -0.583755,0.11125 -1.047404,0.3809 -0.383814,0.22815 -0.683843,0.49751 -0.900276,0.78967 l -4.933427,-1.3219 c 0.08401,0.90865 0.406739,1.80148 0.996006,2.57662 1.384184,1.98369 4.180259,2.73245 6.375888,1.76054 2.5483871,-1.01056 3.9439091,-4.15217 3.0398901,-6.68281 0.286129,-0.12119 0.505923,-0.37147 0.637914,-0.84232 0.07693,-0.28383 0.0489,-0.29397 0.0628,-0.60614 z" />
    <path
       id="path15640-1"
       style="display:inline;opacity:0.996;fill:#161516;fill-opacity:1;stroke:#78d8c8;stroke-width:0.265;stroke-linecap:round;stroke-linejoin:miter;stroke-miterlimit:4;stroke-dasharray:none;stroke-dashoffset:0;stroke-opacity:1"
       d="m 13.174367,64.455389 c -0.606898,0.8956 -1.560811,1.03162 -2.235738,0.37735 0.06813,0.53065 0.538701,1.04332 1.050457,1.1322 0.04133,2.30086 -1.560135,4.19887 -3.6693144,3.93821 -0.04771,-0.48158 0.171595,-1.0093 0.623202,-1.50232 -0.549835,0.16075 -0.583755,0.11125 -1.047404,0.3809 -0.383814,0.22815 -0.683843,0.49751 -0.900276,0.78967 l -4.9334267,-1.3219 c 0.08401,0.90865 0.406739,1.80148 0.9960056,2.57662 1.3841841,1.98369 4.1802591,2.73245 6.3758881,1.76054 2.5483874,-1.01056 3.9439094,-4.15217 3.0398904,-6.68281 0.286129,-0.12119 0.505923,-0.37147 0.637914,-0.84232 0.07693,-0.28383 0.0489,-0.29397 0.0628,-0.60614 z" />
    <path
       id="path15640-4"
       style="display:inline;opacity:0.996;fill:#161516;fill-opacity:1;stroke:#78d8c8;stroke-width:0.265;stroke-linecap:round;stroke-linejoin:miter;stroke-miterlimit:4;stroke-dasharray:none;stroke-dashoffset:0;stroke-opacity:1"
       d="m 13.174367,5.0313796 c -0.606898,0.8956 -1.560811,1.03162 -2.235738,0.37735 0.06813,0.53065 0.538701,1.04332 1.050457,1.1322 0.04133,2.3008593 -1.560135,4.1988684 -3.6693144,3.9382084 -0.04771,-0.4815797 0.171595,-1.0092994 0.623202,-1.5023194 -0.549835,0.16075 -0.583755,0.11125 -1.047404,0.3809 -0.383814,0.2281497 -0.683843,0.4975097 -0.900276,0.7896694 L 2.0618669,8.8254889 c 0.08401,0.9086494 0.406739,1.8014791 0.9960056,2.5766191 1.3841841,1.98369 4.1802591,2.73245 6.3758881,1.76054 2.5483874,-1.01056 3.9439094,-4.1521694 3.0398904,-6.6828084 0.286129,-0.12119 0.505923,-0.37147 0.637914,-0.84232 0.07693,-0.28383 0.0489,-0.29397 0.0628,-0.60614 z" />
    <path
       id="path15640-3"
       style="display:inline;opacity:0.996;fill:#161516;fill-opacity:1;stroke:#78d8c8;stroke-width:0.265;stroke-linecap:round;stroke-linejoin:miter;stroke-miterlimit:4;stroke-dasharray:none;stroke-dashoffset:0;stroke-opacity:1"
       d="m 13.174367,79.311389 c -0.606897,0.8956 -1.56081,1.03162 -2.235738,0.37735 0.06813,0.53065 0.538701,1.04332 1.050457,1.1322 0.04133,2.30086 -1.560135,4.19887 -3.669314,3.93821 -0.04771,-0.48158 0.171595,-1.0093 0.623202,-1.50232 -0.549835,0.16075 -0.583755,0.11125 -1.047404,0.3809 -0.383814,0.22815 -0.683843,0.49751 -0.900276,0.78967 l -4.9334271,-1.3219 c 0.08401,0.90865 0.406739,1.80148 0.996006,2.57662 1.3841841,1.98369 4.1802591,2.73245 6.3758881,1.76054 2.548387,-1.01056 3.943909,-4.15217 3.03989,-6.68281 0.286129,-0.12119 0.505923,-0.37147 0.637914,-0.84232 0.07693,-0.28383 0.0489,-0.29397 0.0628,-0.60614 z" />
    <path
       id="path15640-9"
       style="display:inline;opacity:0.996;fill:#161516;fill-opacity:1;stroke:#78d8c8;stroke-width:0.265;stroke-linecap:round;stroke-linejoin:miter;stroke-miterlimit:4;stroke-dasharray:none;stroke-dashoffset:0;stroke-opacity:1"
       d="m 13.174367,34.743384 c -0.606898,0.8956 -1.560811,1.03162 -2.235738,0.37735 0.06813,0.53065 0.538701,1.04332 1.050457,1.1322 0.04133,2.30086 -1.560135,4.19887 -3.6693141,3.93821 -0.04771,-0.48158 0.171595,-1.0093 0.623202,-1.50232 -0.549835,0.16075 -0.583755,0.11125 -1.047404,0.3809 -0.383814,0.22815 -0.683843,0.49751 -0.900276,0.78967 l -4.933427,-1.3219 c 0.08401,0.90865 0.406739,1.80148 0.996006,2.57662 1.384184,1.98369 4.180259,2.73245 6.375888,1.76054 2.5483871,-1.01056 3.9439091,-4.15217 3.0398901,-6.68281 0.286129,-0.12119 0.505923,-0.37147 0.637914,-0.84232 0.07693,-0.28383 0.0489,-0.29397 0.0628,-0.60614 z" />
    <path
       id="path15640-5"
       style="display:inline;opacity:0.996;fill:#161516;fill-opacity:1;stroke:#78d8c8;stroke-width:0.265;stroke-linecap:round;stroke-linejoin:miter;stroke-miterlimit:4;stroke-dasharray:none;stroke-dashoffset:0;stroke-opacity:1"
       d="m 13.174369,19.887379 c -0.6069,0.8956 -1.56082,1.03162 -2.23574,0.37735 0.0681,0.53065 0.5387,1.04332 1.05046,1.1322 0.0413,2.300861 -1.56014,4.198871 -3.6693201,3.938211 -0.0477,-0.48158 0.1716,-1.0093 0.6232,-1.50232 -0.54983,0.16075 -0.58375,0.11125 -1.0474,0.3809 -0.38382,0.22815 -0.68384,0.49751 -0.90028,0.78967 l -4.933424,-1.3219 c 0.08401,0.90865 0.406734,1.80148 0.996004,2.57662 1.38419,1.98369 4.18026,2.73245 6.37589,1.76054 2.5483901,-1.01056 3.9439101,-4.15217 3.0398901,-6.682811 0.28613,-0.12119 0.50592,-0.37147 0.63791,-0.84232 0.0769,-0.28383 0.0489,-0.29397 0.0628,-0.60614 z" />
  </g>
</svg>
