<?xml version="1.0" encoding="UTF-8" standalone="no"?>
<svg
   width="15.24mm"
   height="128.5mm"
   viewBox="0 0 15.24 128.5"
   version="1.1"
   id="svg2424"
   sodipodi:docname="whl.svg"
   inkscape:version="1.1.2 (0a00cf5339, 2022-02-04)"
   xmlns:inkscape="http://www.inkscape.org/namespaces/inkscape"
   xmlns:sodipodi="http://sodipodi.sourceforge.net/DTD/sodipodi-0.dtd"
   xmlns:xlink="http://www.w3.org/1999/xlink"
   xmlns="http://www.w3.org/2000/svg"
   xmlns:svg="http://www.w3.org/2000/svg"
   xmlns:rdf="http://www.w3.org/1999/02/22-rdf-syntax-ns#"
   xmlns:cc="http://creativecommons.org/ns#"
   xmlns:dc="http://purl.org/dc/elements/1.1/">
  <defs
     id="defs2418">
    <linearGradient
       inkscape:collect="always"
       id="linearGradient14530">
      <stop
         style="stop-color:#100c11;stop-opacity:1;"
         offset="0"
         id="stop14526" />
      <stop
         style="stop-color:#0aa0ab;stop-opacity:1"
         offset="1"
         id="stop14528" />
    </linearGradient>
    <linearGradient
       inkscape:collect="always"
       xlink:href="#linearGradient14530"
       id="linearGradient14532"
       x1="-4.4408921e-16"
       y1="0"
       x2="15.24"
       y2="128.5"
       gradientUnits="userSpaceOnUse" />
  </defs>
  <sodipodi:namedview
     id="base"
     pagecolor="#ffffff"
     bordercolor="#666666"
     borderopacity="1.0"
     inkscape:pageopacity="0.0"
     inkscape:pageshadow="2"
     inkscape:zoom="1.4"
     inkscape:cx="108.92857"
     inkscape:cy="243.92857"
     inkscape:document-units="mm"
     inkscape:current-layer="layer1"
     inkscape:document-rotation="0"
     showgrid="false"
     inkscape:pagecheckerboard="true"
     inkscape:window-width="1920"
     inkscape:window-height="1050"
     inkscape:window-x="0"
     inkscape:window-y="0"
     inkscape:window-maximized="1" />
  <metadata
     id="metadata2421">
    <rdf:RDF>
      <cc:Work
         rdf:about="">
        <dc:format>image/svg+xml</dc:format>
        <dc:type
           rdf:resource="http://purl.org/dc/dcmitype/StillImage" />
      </cc:Work>
    </rdf:RDF>
  </metadata>
  <g
     inkscape:label="Layer 1"
     inkscape:groupmode="layer"
     id="layer1"
     style="opacity:0.996">
    <rect
       style="display:inline;fill:url(#linearGradient14532);fill-opacity:1;stroke:none;stroke-width:0.290191;stroke-linecap:butt;stroke-linejoin:miter;stroke-miterlimit:4;stroke-dasharray:none;stroke-dashoffset:0;stroke-opacity:1"
       id="rect48062"
       width="15.24"
       height="128.5"
       x="-4.4408921e-16"
       y="0" />
    <path
       style="fill:#100c11;fill-opacity:1;stroke:#64f6ed;stroke-width:0.30934;stroke-linecap:round;stroke-linejoin:round;stroke-miterlimit:4;stroke-dasharray:none;stroke-opacity:1;paint-order:stroke fill markers"
       d="M 7.167434,14.682203 C 5.6519844,14.592439 4.3304136,14.046129 3.2640545,13.068633 2.8576548,12.696099 2.3591713,12.051768 2.0663203,11.520459 1.8122123,11.059441 1.624435,10.571451 1.5053856,10.062728 1.441737,9.7907501 1.3884817,9.461337 1.4054226,9.4444472 c 0.020961,-0.020904 0.7762355,0.025603 1.1157226,0.077499 1.5781016,0.2412161 3.1437894,0.5412726 4.4371438,1.2018016 0.2634701,0.134557 0.2898356,0.157195 0.4118547,-9.88e-4 0.1965724,-0.254793 0.4865365,-0.488524 0.8030915,-0.647345 0.2643951,-0.1326506 0.7990881,-0.3110765 0.8323961,-0.2777675 -0.092177,0.2085515 -0.153332,0.4591745 -0.18103,0.6697795 -0.0255,0.193855 0.02726,0.720828 0.06367,0.792609 0.452815,0.196175 1.078002,0.115286 1.5602107,-0.03642 1.879651,-0.922029 2.417902,-2.503083 2.467916,-4.2271287 0.01353,-0.4661687 0.0081,-0.487022 -0.135553,-0.5232772 -0.430444,-0.1609846 -1.027467,-0.8761754 -0.650446,-0.7661335 0.949648,0.2771734 0.986096,0.2697099 1.597948,-0.2376041 0.268922,-0.2229775 -0.01704,0.6264835 -0.273806,0.8256121 -0.252354,0.189513 -0.253739,0.1929415 -0.17353,0.4292906 0.225732,0.7617207 0.316868,1.479852 0.242905,2.2892672 -0.209628,2.1111186 -1.473869,4.0412396 -3.247659,4.9582106 -0.7316617,0.378237 -1.4791067,0.607801 -2.2202077,0.681895 -0.220934,0.02209 -0.7240196,0.03819 -0.8886175,0.02845 z"
       id="path10930"
       sodipodi:nodetypes="csssssscscsccccsscccsscc" />
    <path
       style="opacity:0.996;fill:#100c11;fill-opacity:1;stroke:#64f6ed;stroke-width:0.30934;stroke-linecap:round;stroke-linejoin:round;stroke-miterlimit:4;stroke-dasharray:none;stroke-opacity:1;paint-order:stroke fill markers"
       d="M 7.167434,28.230033 C 5.651984,28.140273 4.330414,27.593959 3.264054,26.616463 2.857655,26.243929 2.359171,25.599598 2.06632,25.068289 1.812212,24.607271 1.6244349,24.119281 1.5053855,23.610558 1.4417365,23.33858 1.3884816,23.009167 1.4054225,22.992277 c 0.020961,-0.0209 0.7762355,0.0256 1.1157225,0.0775 1.578102,0.241217 3.14379,0.541273 4.437144,1.201802 0.26347,0.134557 0.289836,0.157196 0.411855,-9.88e-4 0.196572,-0.254793 0.486536,-0.488524 0.803091,-0.647345 0.264395,-0.13265 0.799088,-0.311076 0.832396,-0.277767 -0.09218,0.208551 -0.153332,0.459174 -0.18103,0.669779 -0.0255,0.193856 0.02726,0.720828 0.06367,0.792609 0.452815,0.196175 1.078002,0.115286 1.560211,-0.03642 1.879651,-0.922028 2.417902,-2.503083 2.467916,-4.227128 0.01353,-0.466169 0.0081,-0.487022 -0.135553,-0.523278 -0.430444,-0.160984 -1.027467,-0.876175 -0.650446,-0.766133 0.949648,0.277173 0.986096,0.26971 1.597948,-0.237604 0.268922,-0.222978 -0.01704,0.626483 -0.273806,0.825612 -0.252354,0.189513 -0.253739,0.192941 -0.17353,0.42929 0.225732,0.761721 0.316868,1.479852 0.242905,2.289268 -0.209628,2.111118 -1.473869,4.041239 -3.247659,4.95821 -0.731662,0.378237 -1.479107,0.607801 -2.220208,0.681895 -0.220934,0.02209 -0.724019,0.03819 -0.888617,0.02845 z"
       id="path10930-6"
       sodipodi:nodetypes="csssssscscsccccsscccsscc" />
    <path
       style="opacity:0.996;fill:#100c11;fill-opacity:1;stroke:#64f6ed;stroke-width:0.30934;stroke-linecap:round;stroke-linejoin:round;stroke-miterlimit:4;stroke-dasharray:none;stroke-opacity:1;paint-order:stroke fill markers"
       d="M 7.1674339,41.777862 C 5.6519843,41.688098 4.3304135,41.141788 3.2640544,40.164292 2.8576547,39.791758 2.3591712,39.147427 2.0663202,38.616118 1.8122122,38.1551 1.6244349,37.66711 1.5053855,37.158387 1.4417369,36.886409 1.3884816,36.556996 1.4054225,36.540106 c 0.020961,-0.0209 0.7762355,0.0256 1.1157226,0.0775 1.5781016,0.241216 3.1437894,0.541272 4.4371438,1.201801 0.2634701,0.134557 0.2898356,0.157196 0.4118547,-9.88e-4 0.1965724,-0.254793 0.4865365,-0.488524 0.8030915,-0.647345 0.264395,-0.13265 0.799088,-0.311076 0.832396,-0.277767 -0.09218,0.208551 -0.153332,0.459174 -0.18103,0.669779 -0.0255,0.193856 0.02726,0.720828 0.06367,0.792609 0.452815,0.196175 1.0780023,0.115286 1.5602109,-0.03642 1.879651,-0.922028 2.417902,-2.503083 2.467916,-4.227129 0.01353,-0.466168 0.0081,-0.487022 -0.135553,-0.523277 -0.430444,-0.160984 -1.027467,-0.876175 -0.650446,-0.766133 0.949648,0.277173 0.986096,0.26971 1.597948,-0.237604 0.268922,-0.222978 -0.01704,0.626483 -0.273806,0.825612 -0.252354,0.189513 -0.253739,0.192941 -0.17353,0.42929 0.225732,0.761721 0.316868,1.479852 0.242905,2.289268 -0.209628,2.111118 -1.473869,4.041239 -3.247659,4.95821 -0.7316616,0.378237 -1.4791069,0.607801 -2.2202079,0.681895 -0.2209339,0.02209 -0.7240195,0.03819 -0.8886174,0.02845 z"
       id="path10930-7"
       sodipodi:nodetypes="csssssscscsccccsscccsscc" />
    <path
       style="opacity:0.996;fill:#100c11;fill-opacity:1;stroke:#64f6ed;stroke-width:0.30934;stroke-linecap:round;stroke-linejoin:round;stroke-miterlimit:4;stroke-dasharray:none;stroke-opacity:1;paint-order:stroke fill markers"
       d="M 7.1674339,55.325695 C 5.6519843,55.235931 4.3304135,54.689621 3.2640544,53.712125 2.8576547,53.339591 2.3591712,52.69526 2.0663202,52.163951 1.8122122,51.702933 1.6244349,51.214943 1.5053855,50.70622 1.4417369,50.434242 1.3884816,50.104829 1.4054225,50.087939 c 0.020961,-0.0209 0.7762355,0.0256 1.1157226,0.0775 1.5781016,0.241216 3.1437894,0.541272 4.4371438,1.201801 0.2634701,0.134557 0.2898356,0.157196 0.4118547,-9.88e-4 0.1965724,-0.254793 0.4865365,-0.488524 0.8030915,-0.647345 0.2643951,-0.13265 0.7990884,-0.311076 0.8323964,-0.277767 -0.09218,0.208551 -0.153332,0.459174 -0.18103,0.669779 -0.0255,0.193856 0.02726,0.720828 0.06367,0.792609 0.452815,0.196175 1.078002,0.115286 1.5602105,-0.03642 1.879651,-0.922028 2.417902,-2.503083 2.467916,-4.227128 0.01353,-0.466169 0.0081,-0.487023 -0.135553,-0.523278 -0.430444,-0.160984 -1.027467,-0.876175 -0.650446,-0.766133 0.949648,0.277173 0.986096,0.26971 1.597948,-0.237604 0.268922,-0.222978 -0.01704,0.626483 -0.273806,0.825612 -0.252354,0.189513 -0.253739,0.192941 -0.17353,0.42929 0.225732,0.761721 0.316868,1.479852 0.242905,2.289268 -0.209628,2.111118 -1.473869,4.041239 -3.247659,4.95821 -0.7316615,0.378237 -1.4791065,0.607801 -2.2202078,0.681895 -0.220934,0.02209 -0.7240196,0.03819 -0.8886175,0.02845 z"
       id="path10930-5"
       sodipodi:nodetypes="csssssscscsccccsscccsscc" />
    <path
       style="opacity:0.996;fill:#100c11;fill-opacity:1;stroke:#64f6ed;stroke-width:0.30934;stroke-linecap:round;stroke-linejoin:round;stroke-miterlimit:4;stroke-dasharray:none;stroke-opacity:1;paint-order:stroke fill markers"
       d="M 7.167434,68.873527 C 5.6519844,68.783763 4.3304136,68.237453 3.2640545,67.259957 2.8576548,66.887423 2.3591713,66.243092 2.0663203,65.711783 1.8122123,65.250765 1.624435,64.762775 1.5053856,64.254052 1.441737,63.982074 1.3884817,63.652661 1.4054226,63.635771 c 0.020961,-0.0209 0.7762355,0.0256 1.1157226,0.0775 1.5781016,0.241216 3.1437894,0.541272 4.4371438,1.201801 0.2634701,0.134557 0.2898356,0.157196 0.4118547,-9.88e-4 0.1965724,-0.254793 0.4865365,-0.488524 0.8030915,-0.647345 0.2643952,-0.13265 0.7990882,-0.311076 0.8323962,-0.277767 -0.09218,0.208551 -0.153332,0.459174 -0.18103,0.669779 -0.0255,0.193856 0.02726,0.720828 0.06367,0.792609 0.452815,0.196175 1.078002,0.115286 1.5602106,-0.03642 1.879651,-0.922028 2.417902,-2.503083 2.467916,-4.227129 0.01353,-0.466168 0.0081,-0.487021 -0.135553,-0.523277 -0.430444,-0.160984 -1.027467,-0.876175 -0.650446,-0.766133 0.949648,0.277173 0.986096,0.26971 1.597948,-0.237604 0.268922,-0.222978 -0.01704,0.626483 -0.273806,0.825612 -0.252354,0.189513 -0.253739,0.192941 -0.17353,0.42929 0.225732,0.761721 0.316868,1.479852 0.242905,2.289268 -0.209628,2.111118 -1.473869,4.041239 -3.247659,4.95821 -0.7316616,0.378237 -1.4791066,0.607801 -2.2202077,0.681895 -0.220934,0.02209 -0.7240196,0.03819 -0.8886175,0.02845 z"
       id="path10930-3"
       sodipodi:nodetypes="csssssscscsccccsscccsscc" />
    <path
       style="opacity:0.996;fill:#100c11;fill-opacity:1;stroke:#64f6ed;stroke-width:0.30934;stroke-linecap:round;stroke-linejoin:round;stroke-miterlimit:4;stroke-dasharray:none;stroke-opacity:1;paint-order:stroke fill markers"
       d="M 7.1674337,82.421356 C 5.6519841,82.331592 4.3304133,81.785282 3.2640542,80.807786 2.8576545,80.435252 2.359171,79.790921 2.06632,79.259612 1.812212,78.798594 1.6244347,78.310604 1.5053853,77.801881 1.4417363,77.529903 1.3884813,77.20049 1.4054223,77.1836 c 0.020961,-0.0209 0.7762355,0.0256 1.1157226,0.0775 1.5781016,0.241216 3.1437894,0.541272 4.4371438,1.201801 0.2634701,0.134557 0.2898356,0.157196 0.4118547,-9.88e-4 0.1965724,-0.254793 0.4865365,-0.488524 0.8030915,-0.647345 0.2643951,-0.13265 0.7990884,-0.311076 0.8323964,-0.277767 -0.09218,0.208551 -0.153332,0.459174 -0.18103,0.669779 -0.0255,0.193856 0.02726,0.720828 0.06367,0.792609 0.452815,0.196175 1.078002,0.115286 1.5602107,-0.03642 1.879651,-0.922028 2.417902,-2.503083 2.467916,-4.227129 0.01353,-0.466168 0.0081,-0.487021 -0.135553,-0.523277 -0.430444,-0.160984 -1.027467,-0.876175 -0.650446,-0.766133 0.949648,0.277173 0.986096,0.26971 1.597948,-0.237604 0.268922,-0.222978 -0.01704,0.626483 -0.273806,0.825612 -0.252354,0.189513 -0.253739,0.192941 -0.17353,0.42929 0.225732,0.761721 0.316868,1.479852 0.242905,2.289268 -0.209628,2.111118 -1.473869,4.041239 -3.247659,4.95821 -0.7316617,0.378237 -1.4791067,0.607801 -2.220208,0.681895 -0.220934,0.02209 -0.7240196,0.03819 -0.8886175,0.02845 z"
       id="path10930-56"
       sodipodi:nodetypes="csssssscscsccccsscccsscc" />
    <path
       style="opacity:0.996;fill:#100c11;fill-opacity:1;stroke:#64f6ed;stroke-width:0.30934;stroke-linecap:round;stroke-linejoin:round;stroke-miterlimit:4;stroke-dasharray:none;stroke-opacity:1;paint-order:stroke fill markers"
       d="M 7.1674342,95.969189 C 5.6519846,95.879425 4.3304138,95.333115 3.2640547,94.355619 2.857655,93.983085 2.3591715,93.338754 2.0663205,92.807445 1.8122125,92.346427 1.6244352,91.858437 1.5053858,91.349714 1.4417372,91.077736 1.3884819,90.748323 1.4054228,90.731433 c 0.020961,-0.0209 0.7762355,0.0256 1.1157226,0.0775 1.5781016,0.241216 3.1437894,0.541272 4.4371438,1.201801 0.2634701,0.134557 0.2898356,0.157196 0.4118547,-9.88e-4 0.1965724,-0.254793 0.4865365,-0.488524 0.8030915,-0.647345 0.2643951,-0.13265 0.7990881,-0.311076 0.8323961,-0.277767 -0.092177,0.208551 -0.153332,0.459174 -0.18103,0.669779 -0.0255,0.193856 0.02726,0.720828 0.06367,0.792609 0.452815,0.196175 1.0780017,0.115286 1.5602105,-0.03642 1.879651,-0.922028 2.417902,-2.503083 2.467916,-4.227128 0.01353,-0.466169 0.0081,-0.487023 -0.135553,-0.523278 -0.430444,-0.160984 -1.027467,-0.876175 -0.650446,-0.766133 0.949648,0.277173 0.986096,0.26971 1.597948,-0.237604 0.268922,-0.222978 -0.01704,0.626483 -0.273806,0.825612 -0.252354,0.189513 -0.253739,0.192941 -0.17353,0.42929 0.225732,0.761721 0.316868,1.479852 0.242905,2.289268 -0.209628,2.111118 -1.473869,4.041239 -3.247659,4.95821 -0.7316618,0.378237 -1.4791065,0.607801 -2.2202075,0.681895 -0.220934,0.02209 -0.7240196,0.03819 -0.8886175,0.02845 z"
       id="path10930-2"
       sodipodi:nodetypes="csssssscscsccccsscccsscc" />
    <path
       style="opacity:0.996;fill:#100c11;fill-opacity:1;stroke:#64f6ed;stroke-width:0.30934;stroke-linecap:round;stroke-linejoin:round;stroke-miterlimit:4;stroke-dasharray:none;stroke-opacity:1;paint-order:stroke fill markers"
       d="m 7.1674341,109.517 c -1.5154499,-0.0898 -2.8370207,-0.63608 -3.9033798,-1.61357 -0.4063997,-0.37254 -0.9048832,-1.01687 -1.1977342,-1.54818 -0.254108,-0.46102 -0.4418853,-0.94901 -0.5609348,-1.45773 -0.063649,-0.27198 -0.1169039,-0.60139 -0.099963,-0.61828 0.020961,-0.0209 0.7762356,0.0256 1.1157227,0.0775 1.5781016,0.24121 3.1437894,0.54127 4.4371441,1.2018 0.26347,0.13456 0.289835,0.1572 0.411854,-9.9e-4 0.196573,-0.25479 0.486537,-0.48852 0.803092,-0.64734 0.264395,-0.13265 0.799088,-0.31108 0.832396,-0.27777 -0.09218,0.20855 -0.153332,0.45917 -0.18103,0.66978 -0.0255,0.19385 0.02726,0.72083 0.06367,0.79261 0.452815,0.19617 1.078002,0.11528 1.5602109,-0.0364 1.879651,-0.92203 2.417902,-2.50309 2.467916,-4.22713 0.01353,-0.46617 0.0081,-0.48702 -0.135553,-0.52328 -0.430444,-0.16098 -1.027467,-0.87617 -0.650446,-0.76612 0.949648,0.27717 0.986096,0.26971 1.597948,-0.23761 0.268922,-0.22298 -0.01704,0.62648 -0.273806,0.82561 -0.252354,0.18951 -0.253739,0.19294 -0.17353,0.42929 0.225732,0.76172 0.316868,1.47985 0.242905,2.28926 -0.209628,2.11112 -1.473869,4.04125 -3.247659,4.95822 -0.7316619,0.37823 -1.4791069,0.6078 -2.2202079,0.68189 -0.220934,0.0221 -0.72402,0.0382 -0.888617,0.0284 z"
       id="path10930-9"
       sodipodi:nodetypes="csssssscscsccccsscccsscc" />
    <path
       style="opacity:0.996;fill:#100c11;fill-opacity:1;stroke:#64f6ed;stroke-width:0.30934;stroke-linecap:round;stroke-linejoin:round;stroke-miterlimit:4;stroke-dasharray:none;stroke-opacity:1;paint-order:stroke fill markers"
       d="m 7.1674337,123.06479 c -1.5154496,-0.0898 -2.8370204,-0.63607 -3.9033795,-1.61356 -0.4063997,-0.37254 -0.9048832,-1.01687 -1.1977342,-1.54818 -0.254108,-0.46102 -0.4418853,-0.94901 -0.5609347,-1.45773 -0.063649,-0.27198 -0.1169039,-0.60139 -0.099963,-0.61828 0.020961,-0.0209 0.7762355,0.0256 1.1157226,0.0775 1.5781016,0.24122 3.1437894,0.54127 4.4371438,1.2018 0.2634701,0.13456 0.2898356,0.1572 0.4118547,-9.9e-4 0.1965724,-0.25479 0.4865365,-0.48852 0.8030915,-0.64734 0.2643951,-0.13265 0.7990883,-0.31108 0.8323963,-0.27777 -0.09218,0.20855 -0.153332,0.45918 -0.18103,0.66978 -0.0255,0.19386 0.02726,0.72083 0.06367,0.79261 0.4528149,0.19617 1.0780019,0.11529 1.5602108,-0.0364 1.879651,-0.92203 2.417902,-2.50308 2.467916,-4.22713 0.01353,-0.46617 0.0081,-0.48702 -0.135553,-0.52328 -0.430444,-0.16098 -1.027467,-0.87617 -0.650446,-0.76613 0.949648,0.27717 0.986096,0.26971 1.597948,-0.2376 0.268922,-0.22298 -0.01704,0.62648 -0.273806,0.82561 -0.252354,0.18951 -0.253739,0.19294 -0.17353,0.42929 0.225732,0.76172 0.316868,1.47985 0.242905,2.28927 -0.209628,2.11111 -1.473869,4.04124 -3.247659,4.9582 -0.7316619,0.37824 -1.4791068,0.6078 -2.220208,0.6819 -0.220934,0.0221 -0.7240196,0.0382 -0.8886175,0.0285 z"
       id="path10930-1"
       sodipodi:nodetypes="csssssscscsccccsscccsscc" />
  </g>
</svg>
